<svg width="22" height="25" viewBox="0 0 22 25" fill="none" xmlns="http://www.w3.org/2000/svg">
<path d="M4 0H12.5V7.5C12.5 7.76522 12.6054 8.01957 12.7929 8.20711C12.9804 8.39464 13.2348 8.5 13.5 8.5H21V11C21 11.2652 20.8946 11.5196 20.7071 11.7071C20.5196 11.8946 20.2652 12 20 12H2C1.73478 12 1.48043 11.8946 1.29289 11.7071C1.10536 11.5196 1 11.2652 1 11V3C1 2.20435 1.31607 1.44129 1.87868 0.87868C2.44129 0.316071 3.20435 0 4 0Z" fill="#554F4F"/>
<path d="M14.5 1.08594L19.914 6.49994H14.5V1.08594ZM16.942 15.6639C16.8529 15.4141 16.6682 15.2099 16.4285 15.0963C16.1888 14.9826 15.9138 14.9688 15.664 15.0579C15.4142 15.147 15.21 15.3318 15.0963 15.5714C14.9827 15.8111 14.9689 16.0861 15.058 16.3359L17.558 23.3359C17.6273 23.5303 17.755 23.6986 17.9236 23.8175C18.0923 23.9365 18.2936 24.0003 18.5 24.0003C18.7064 24.0003 18.9077 23.9365 19.0764 23.8175C19.245 23.6986 19.3727 23.5303 19.442 23.3359L21.942 16.3359C22.0311 16.0861 22.0173 15.8111 21.9037 15.5714C21.8474 15.4528 21.7683 15.3463 21.6709 15.2582C21.5735 15.1701 21.4597 15.1021 21.336 15.0579C21.0862 14.9688 20.8112 14.9826 20.5715 15.0963C20.3318 15.2099 20.1471 15.4141 20.058 15.6639L18.5 20.0269L16.942 15.6639ZM2 19.4999C2 18.7069 2.22 18.0689 2.555 17.6509C2.871 17.2569 3.333 16.9999 4 16.9999C4.67 16.9999 4.96 17.2339 5.162 17.5449C5.3099 17.7594 5.53566 17.9077 5.79125 17.9583C6.04683 18.0088 6.31205 17.9576 6.53046 17.8156C6.74887 17.6735 6.90322 17.4519 6.96065 17.1977C7.01809 16.9436 6.97409 16.6771 6.838 16.4549C6.258 15.5629 5.331 14.9999 4 14.9999C2.734 14.9999 1.696 15.5259 0.995 16.3999C0.314 17.2479 0 18.3599 0 19.4999C0 20.6399 0.314 21.7519 0.995 22.5999C1.696 23.4739 2.735 23.9999 4 23.9999C5.35 23.9999 6.375 23.2979 6.851 22.5239C6.92285 22.4121 6.97167 22.287 6.99461 22.1561C7.01755 22.0251 7.01414 21.8909 6.9846 21.7613C6.95505 21.6317 6.89996 21.5092 6.82254 21.4012C6.74512 21.2931 6.64693 21.2015 6.5337 21.1319C6.42048 21.0622 6.2945 21.0158 6.16313 20.9954C6.03176 20.975 5.89764 20.981 5.76862 21.013C5.63959 21.045 5.51825 21.1025 5.41168 21.182C5.30512 21.2615 5.21548 21.3614 5.148 21.4759C5.033 21.6639 4.65 21.9999 4 21.9999C3.333 21.9999 2.871 21.7429 2.555 21.3489C2.22 20.9299 2 20.2929 2 19.4999ZM12.138 15.0779C12.647 15.1679 13.174 15.3459 13.581 15.6289C13.6888 15.7039 13.7808 15.7994 13.8517 15.9099C13.9226 16.0205 13.9711 16.1439 13.9943 16.2732C14.0175 16.4024 14.015 16.535 13.987 16.6633C13.959 16.7916 13.906 16.9131 13.831 17.0209C13.756 17.1288 13.6605 17.2207 13.55 17.2917C13.4395 17.3626 13.316 17.411 13.1868 17.4342C13.0575 17.4574 12.925 17.455 12.7966 17.427C12.6683 17.3989 12.5468 17.3459 12.439 17.2709C12.347 17.2069 12.123 17.1069 11.787 17.0469C11.4633 16.9874 11.1318 16.9841 10.807 17.0369C10.495 17.0939 10.294 17.1999 10.181 17.3079C10.093 17.3939 10 17.5349 10 17.8379C10 17.9839 10.031 18.0339 10.038 18.0439C10.048 18.0599 10.078 18.0999 10.18 18.1559C10.435 18.2939 10.819 18.3729 11.436 18.4899L11.48 18.4989C11.997 18.5969 12.718 18.7329 13.3 19.0719C13.623 19.2599 13.937 19.5269 14.166 19.9099C14.396 20.2949 14.5 20.7339 14.5 21.2069C14.5 22.8139 13.238 23.7249 12.058 24.0249C10.876 24.3259 9.399 24.1479 8.354 23.2629C8.15847 23.0896 8.03854 22.8467 8.01987 22.586C8.00121 22.3254 8.08529 22.0678 8.25412 21.8684C8.42296 21.669 8.66314 21.5436 8.92326 21.519C9.18339 21.4945 9.44281 21.5727 9.646 21.7369C10.097 22.1179 10.87 22.2639 11.564 22.0869C12.261 21.9099 12.5 21.5409 12.5 21.2069C12.5 21.0349 12.464 20.9609 12.448 20.9329C12.409 20.8761 12.3559 20.8303 12.294 20.7999C12.049 20.6569 11.669 20.5699 11.064 20.4549L10.969 20.4379C10.467 20.3429 9.779 20.2139 9.226 19.9139C8.86983 19.7274 8.56777 19.4522 8.349 19.1149C8.11254 18.7316 7.99139 18.2883 8 17.8379C8 17.0339 8.284 16.3609 8.791 15.8709C9.274 15.4029 9.888 15.1709 10.454 15.0689C11.0116 14.9743 11.5815 14.9777 12.138 15.0789V15.0779Z" fill="#554F4F"/>
</svg>
