<svg width="244" height="71" viewBox="0 0 244 71" fill="none" xmlns="http://www.w3.org/2000/svg">
<path d="M10.8047 14.789L16.5447 12.016L17.22 13.2485L38.1542 2.15672L36.8036 1.23241L35.1154 0.308103L34.4401 0L0 18.1781V18.7943L9.79178 13.8647L10.8047 14.789ZM10.8047 26.4969L27.3495 17.5619L28.0248 18.7943L49.2966 7.70259L47.6083 6.77828L45.9201 6.16207L45.2448 5.85397L0 29.5779V30.1942L9.79178 25.2645L10.8047 26.4969ZM10.8047 32.0428L32.7518 20.6429L33.4271 21.5673L54.6989 10.4755L53.0107 9.85931L51.3224 8.935L50.6472 8.6269L0 35.1238V36.0481L9.79178 30.8104L10.8047 32.0428ZM10.8047 37.5886L38.1542 23.4159L38.8295 24.3402L60.1013 13.5566L58.413 12.6322L56.7248 11.7079L56.0495 11.3998L0 40.9778V41.594L9.79178 36.6643L10.8047 37.5886ZM10.8047 43.4426L43.5566 26.1888L44.2318 27.4212L65.5037 16.3295L63.8154 15.4052L62.4648 14.789L61.4519 14.1728L0 46.5236V47.448L9.79178 42.2102L10.8047 43.4426ZM67.5295 17.5619L66.8542 16.9457L0 52.3776V52.9938L9.79178 48.0642L10.8047 49.2966L43.5566 31.7347L44.2318 32.9671L68.8801 20.3348V18.1781L67.5295 17.5619ZM4.38942 56.6911L9.79178 53.61L10.4671 54.8424L43.5566 37.5886L44.2318 38.8211L68.8801 25.8807V21.8754L3.37648 56.0749L4.38942 56.6911ZM43.5566 43.4426L44.2318 44.675L68.8801 31.4266V27.4212L8.77884 59.1559L9.79178 59.464L15.1941 56.383L16.2071 57.6154L43.5566 43.4426ZM15.1941 62.2369L20.9342 59.464L21.6095 60.6964L43.5566 48.9885L44.2318 50.2209L68.8801 37.2805V33.2752L14.1812 61.9288L15.1941 62.2369ZM20.5965 65.0099L26.3365 62.2369L27.0118 63.4693L43.5566 54.8424L44.2318 56.0749L68.8801 43.1345V38.8211L19.5836 64.7018L20.5965 65.0099ZM24.9859 67.4747L25.9989 68.0909L31.7389 65.0099L32.4142 66.2423L43.5566 60.3883L44.2318 61.6207L68.8801 48.6804V44.675L24.9859 67.4747ZM31.4012 70.8638L36.8036 67.7828L37.8165 69.0152L43.5566 66.2423L44.2318 67.4747L68.8801 54.5343V50.2209L30.7259 70.5557L31.4012 70.8638ZM43.8942 4.92966L42.206 4.00535L40.5177 3.38914L39.8424 2.77293L0 23.724V24.6483L9.79178 19.4105L10.8047 20.6429L21.9471 14.789L22.6224 16.0214L43.8942 4.92966Z" fill="white"/>
<path d="M105.056 64H82.04V24.016H105.056V30.96H90.496V39.752H104.048V46.696H90.496V57H105.056V64ZM138.408 64L135.496 54.48H120.936L118.024 64H108.896L123.008 23.848H133.368L147.536 64H138.408ZM130.568 38.072C130.381 37.4373 130.139 36.6347 129.84 35.664C129.541 34.6933 129.243 33.704 128.944 32.696C128.645 31.688 128.403 30.8107 128.216 30.064C128.029 30.8107 127.768 31.744 127.432 32.864C127.133 33.9467 126.835 34.992 126.536 36C126.275 36.9707 126.069 37.6613 125.92 38.072L123.064 47.368H133.48L130.568 38.072ZM170.072 64L160.44 32.64H160.216C160.253 33.3867 160.309 34.5067 160.384 36C160.459 37.4933 160.533 39.0987 160.608 40.816C160.683 42.496 160.72 44.0267 160.72 45.408V64H153.16V24.016H164.696L174.16 54.592H174.328L184.352 24.016H195.888V64H187.992V45.072C187.992 43.8027 188.011 42.3467 188.048 40.704C188.123 39.0613 188.179 37.512 188.216 36.056C188.291 34.5627 188.347 33.4427 188.384 32.696H188.16L177.856 64H170.072ZM230.124 52.912C230.124 55.264 229.545 57.3173 228.388 59.072C227.231 60.8267 225.551 62.1893 223.348 63.16C221.183 64.0933 218.532 64.56 215.396 64.56C214.015 64.56 212.652 64.4667 211.308 64.28C210.001 64.0933 208.732 63.832 207.5 63.496C206.305 63.1227 205.167 62.6747 204.084 62.152V54.256C205.988 55.0773 207.948 55.8427 209.964 56.552C212.017 57.224 214.052 57.56 216.068 57.56C217.449 57.56 218.551 57.3733 219.372 57C220.231 56.6267 220.847 56.1227 221.22 55.488C221.631 54.8533 221.836 54.1253 221.836 53.304C221.836 52.296 221.481 51.4373 220.772 50.728C220.1 50.0187 219.185 49.3653 218.028 48.768C216.871 48.1333 215.545 47.4613 214.052 46.752C213.119 46.304 212.111 45.7813 211.028 45.184C209.945 44.5493 208.9 43.784 207.892 42.888C206.921 41.9547 206.119 40.8347 205.484 39.528C204.849 38.2213 204.532 36.6533 204.532 34.824C204.532 32.4347 205.073 30.4 206.156 28.72C207.276 27.0027 208.844 25.696 210.86 24.8C212.913 23.904 215.321 23.456 218.084 23.456C220.175 23.456 222.153 23.6987 224.02 24.184C225.924 24.6693 227.903 25.36 229.956 26.256L227.212 32.864C225.383 32.1173 223.74 31.5387 222.284 31.128C220.828 30.7173 219.335 30.512 217.804 30.512C216.759 30.512 215.863 30.68 215.116 31.016C214.369 31.352 213.791 31.8187 213.38 32.416C213.007 33.0133 212.82 33.7227 212.82 34.544C212.82 35.4773 213.1 36.28 213.66 36.952C214.22 37.5867 215.06 38.2027 216.18 38.8C217.3 39.3973 218.7 40.1067 220.38 40.928C222.433 41.8987 224.169 42.9067 225.588 43.952C227.044 44.9973 228.164 46.2293 228.948 47.648C229.732 49.0667 230.124 50.8213 230.124 52.912Z" fill="white"/>
<path d="M148.674 4.68926V3.84322H157.501V4.68926H148.674ZM149.726 1.03231V0.186279H156.446V1.03231H153.777C153.908 1.92669 155.44 2.61733 156.886 2.6933L156.345 3.37704C155.365 3.33905 153.747 2.87287 153.088 2.17187C152.424 2.87287 150.81 3.33905 149.826 3.37704L149.286 2.6933C150.732 2.61733 152.264 1.92669 152.394 1.03231H149.726ZM153.088 8.87454C151.776 8.87454 150.68 8.08721 150.68 7.04089C150.68 5.99457 151.776 5.17961 153.088 5.17961C154.4 5.17961 155.495 5.99457 155.495 7.04089C155.495 8.08721 154.403 8.87454 153.088 8.87454ZM153.088 6.02565C152.484 6.02565 151.943 6.49183 151.943 7.04089C151.943 7.62103 152.484 8.05613 153.088 8.05613C153.691 8.05613 154.228 7.62103 154.228 7.04089C154.228 6.46075 153.688 6.02565 153.088 6.02565Z" fill="white"/>
<path d="M163.591 2.14789V1.22589H160.05V0.379852H164.866V1.85092C164.866 2.22041 164.772 2.68659 164.664 3.02846C165.074 3.01119 165.458 2.96976 165.697 2.92486V3.67421C165.346 3.77781 164.784 3.87449 164.012 3.87449H162.842V5.41117H161.556V3.87449H159.45V3.03882H163.501C163.55 2.77292 163.591 2.44142 163.591 2.14789ZM161.929 8.69171C161.757 8.69171 161.608 8.55013 161.608 8.39819V6.87878C161.608 6.4713 161.537 6.1467 161.444 5.9844H162.879V7.84568H167.672V8.69171H161.925M167.49 6.36425H166.297V5.3939H164.359V4.55823H166.297V0.901286C166.297 0.483449 166.226 0.169207 166.137 0H167.568V5.36283C167.568 5.75994 167.538 6.11217 167.49 6.3608V6.36425Z" fill="white"/>
<path d="M80 4.72781V3.312H83.772V2.41762C83.772 2.11374 83.7124 1.65792 83.5969 1.39893H85.9823V3.31545H89.7544V4.73127H87.8348C88.3566 5.29414 88.6697 6.00205 88.6697 6.76175C88.6697 8.56778 86.9104 10.0457 84.8753 10.0457C82.8402 10.0457 81.0735 8.56432 81.0735 6.76175C81.0735 5.99859 81.3903 5.29069 81.9121 4.73127H80V4.72781ZM83.8168 16.0474C83.5298 16.0474 83.2763 15.8091 83.2763 15.5502V12.8463C83.2763 12.1626 83.1645 11.6239 83.0042 11.3511H85.4121V14.6316H93.4481V16.0474H83.8168ZM84.8753 4.88321C83.8988 4.88321 83.1645 5.71198 83.1645 6.7583C83.1645 7.80462 83.8988 8.64029 84.8753 8.64029C85.8519 8.64029 86.5899 7.81152 86.5899 6.7583C86.5899 5.70507 85.8631 4.88321 84.8753 4.88321ZM93.2841 6.84117V10.1562C93.2841 10.8262 93.2319 11.4132 93.1462 11.8311H91.1447V2.9874C91.1447 2.28985 91.0328 1.76497 90.88 1.4749H93.2841V5.42191H95.4646V6.83772H93.2841V6.84117Z" fill="white"/>
<path d="M106.024 5.63222V3.37037H97.8687V1.95801H108.156V5.30071C108.156 5.89121 108.04 6.53696 107.888 7.05148H110.18V8.4673H103.847V10.9018H107.988V14.4551C107.988 15.1216 107.936 15.7156 107.854 16.123H105.853V12.3211H97.8649V10.8984H101.693V8.46384H95.8447V7.04803H105.879C105.968 6.61983 106.017 6.09494 106.017 5.62876L106.024 5.63222Z" fill="white"/>
<path d="M119.376 11.9931V14.1825C119.376 14.7868 119.323 15.3773 119.256 15.7433H117.173V11.9931H110.706V10.5428H125.846V11.9931H119.379H119.376ZM114.869 7.68007H124.031V9.12696H113.237C112.946 9.12696 112.681 8.88869 112.681 8.6228V3.82284C112.681 3.11839 112.566 2.55897 112.417 2.28271H123.945V3.73997H114.866V4.98312H123.822V6.35059H114.866V7.67317L114.869 7.68007Z" fill="white"/>
<path d="M133.229 6.4057C133.229 8.81949 135.011 11.4681 137.523 12.2347L136.431 13.3674C134.791 12.8839 133.016 11.6166 132.051 10.1041C131.078 11.62 129.3 12.8839 127.657 13.3674L126.572 12.2347C129.077 11.4681 130.851 8.81949 130.851 6.4057V4.5168H127.653V2.97667H136.427V4.5168H133.225V6.4057H133.229ZM140.59 8.45691V14.2721C140.59 15.0076 140.531 15.6465 140.445 16.0988H138.264V3.57753C138.264 2.83164 138.134 2.2515 137.963 1.93726H140.59V6.92023H142.961V8.45691H140.59Z" fill="white"/>
</svg>
