<svg width="24" height="24" viewBox="0 0 24 24" fill="none" xmlns="http://www.w3.org/2000/svg">
<path d="M16.8164 4.16113C16.9346 3.95836 17.1964 3.88917 17.4004 4.00586C19.0393 4.94639 20.4067 6.30311 21.3545 7.92871C22.3002 9.54978 22.7998 11.4021 22.7998 13.2861C22.7998 19.1936 17.955 24 12 24C6.04513 23.9999 1.2002 19.1935 1.2002 13.2861C1.2002 11.4022 1.6999 9.54974 2.64551 7.92871C3.5936 6.30284 4.96094 4.94639 6.59961 4.00586C6.80415 3.88867 7.06589 3.95826 7.18359 4.16113C7.30204 4.36403 7.2328 4.62388 7.02832 4.74121C5.51928 5.60704 4.25954 6.85653 3.38672 8.35352C2.51631 9.84552 2.05566 11.5512 2.05566 13.2861C2.05566 18.7258 6.51689 23.1513 12 23.1514C17.4832 23.1514 21.9443 18.7256 21.9443 13.2861C21.9443 11.5512 21.4846 9.8455 20.6143 8.35352C19.7418 6.85658 18.4819 5.6076 16.9727 4.74121C16.7682 4.62366 16.6981 4.36403 16.8164 4.16113ZM12 0C12.2363 0 12.4277 0.190138 12.4277 0.424805V13.2861C12.4277 13.5203 12.2363 13.7109 12 13.7109C11.7638 13.7108 11.5723 13.5202 11.5723 13.2861V0.424805C11.5723 0.190203 11.7638 0.000104954 12 0Z" fill="white"/>
</svg>
