<svg width="131" height="41" viewBox="0 0 131 41" fill="none" xmlns="http://www.w3.org/2000/svg">
<path d="M4.5913 10.887L7.03044 9.59565L7.31739 10.1696L16.213 5.00435L15.6391 4.57391L14.9217 4.14348L14.6348 4L0 12.4652V12.7522L4.16087 10.4565L4.5913 10.887ZM4.5913 16.3391L11.6217 12.1783L11.9087 12.7522L20.9478 7.58696L20.2304 7.15652L19.513 6.86957L19.2261 6.72609L0 17.7739V18.0609L4.16087 15.7652L4.5913 16.3391ZM4.5913 18.9217L13.9174 13.613L14.2043 14.0435L23.2435 8.87826L22.5261 8.5913L21.8087 8.16087L21.5217 8.01739L0 20.3565V20.787L4.16087 18.3478L4.5913 18.9217ZM4.5913 21.5043L16.213 14.9043L16.5 15.3348L25.5391 10.313L24.8217 9.88261L24.1043 9.45217L23.8174 9.3087L0 23.0826V23.3696L4.16087 21.0739L4.5913 21.5043ZM4.5913 24.2304L18.5087 16.1957L18.7957 16.7696L27.8348 11.6043L27.1174 11.1739L26.5435 10.887L26.113 10.6L0 25.6652V26.0957L4.16087 23.6565L4.5913 24.2304ZM28.6957 12.1783L28.4087 11.8913L0 28.3913V28.6783L4.16087 26.3826L4.5913 26.9565L18.5087 18.7783L18.7957 19.3522L29.2696 13.4696V12.4652L28.6957 12.1783ZM1.86522 30.4L4.16087 28.9652L4.44783 29.5391L18.5087 21.5043L18.7957 22.0783L29.2696 16.0522V14.187L1.43478 30.113L1.86522 30.4ZM18.5087 24.2304L18.7957 24.8043L29.2696 18.6348V16.7696L3.73043 31.5478L4.16087 31.6913L6.45652 30.2565L6.88696 30.8304L18.5087 24.2304ZM6.45652 32.9826L8.89565 31.6913L9.18261 32.2652L18.5087 26.813L18.7957 27.387L29.2696 21.3609V19.4957L6.02609 32.8391L6.45652 32.9826ZM8.75217 34.2739L11.1913 32.9826L11.4783 33.5565L18.5087 29.5391L18.7957 30.113L29.2696 24.087V22.0783L8.32174 34.1304L8.75217 34.2739ZM10.6174 35.4217L11.0478 35.7087L13.487 34.2739L13.7739 34.8478L18.5087 32.1217L18.7957 32.6957L29.2696 26.6696V24.8043L10.6174 35.4217ZM13.3435 37L15.6391 35.5652L16.0696 36.1391L18.5087 34.8478L18.7957 35.4217L29.2696 29.3957V27.387L13.0565 36.8565L13.3435 37ZM18.6522 6.29565L17.9348 5.86522L17.2174 5.57826L16.9304 5.2913L0 15.0478V15.4783L4.16087 13.0391L4.5913 13.613L9.32609 10.887L9.61304 11.4609L18.6522 6.29565Z" fill="url(#paint0_linear_302_4193)"/>
<path d="M43.4712 27.2332V32.0432H53.5592V35.2412H39.6492V16.6252H53.0912V19.8232H43.4712V24.0352H52.3892V27.2332H43.4712ZM67.4522 31.4972H60.4842L59.2362 35.2412H55.3362L61.9402 16.6252H66.1782L72.6262 35.2412H68.6742L67.4522 31.4972ZM66.4122 28.2992L63.9942 21.0192L61.5502 28.2992H66.4122ZM78.8658 20.7592V35.2412H75.0438V16.6252H80.7638L84.1438 31.4452L87.3938 16.6252H93.1658V35.2412H89.3438V20.7592L86.0418 35.2412H82.2198L78.8658 20.7592ZM110.527 22.2412H106.939C106.818 20.3519 105.518 19.4072 103.039 19.4072C102.051 19.4072 101.263 19.6065 100.673 20.0052C100.101 20.4039 99.8153 20.9412 99.8153 21.6172C99.8153 22.2759 100.058 22.7699 100.543 23.0992C101.029 23.4285 101.965 23.7232 103.351 23.9832L106.263 24.5292C107.979 24.8585 109.227 25.4219 110.007 26.2192C110.787 27.0165 111.177 28.1432 111.177 29.5992C111.177 31.5925 110.415 33.1092 108.889 34.1492C107.572 35.0679 105.795 35.5272 103.559 35.5272C101.011 35.5272 99.0699 34.9379 97.7353 33.7592C96.5739 32.7365 95.9413 31.3152 95.8373 29.4952H99.5553C99.6939 31.4712 101.089 32.4592 103.741 32.4592C104.92 32.4592 105.839 32.2512 106.497 31.8352C107.173 31.4019 107.511 30.8125 107.511 30.0672C107.511 29.3392 107.243 28.7759 106.705 28.3772C106.185 27.9785 105.284 27.6579 104.001 27.4152L101.401 26.9212C99.5119 26.5745 98.1599 26.0285 97.3453 25.2832C96.5479 24.5205 96.1493 23.4285 96.1493 22.0072C96.1493 20.0832 96.8513 18.6272 98.2553 17.6392C99.4686 16.7725 101.115 16.3392 103.195 16.3392C105.709 16.3392 107.598 16.9112 108.863 18.0552C109.955 19.0605 110.51 20.4559 110.527 22.2412Z" fill="white"/>
<path d="M83.5967 3.29276V2.69869H89.252V3.29276H83.5967ZM84.2702 0.724928V0.130859H88.5761V0.724928H86.8662C86.9498 1.35294 87.9313 1.8379 88.858 1.89124L88.5117 2.37135C87.8836 2.34467 86.8471 2.01733 86.4243 1.5251C85.9992 2.01733 84.9651 2.34467 84.3346 2.37135L83.9884 1.89124C84.915 1.8379 85.8966 1.35294 85.9801 0.724928H84.2702ZM86.4243 6.23158C85.5837 6.23158 84.8815 5.67873 84.8815 4.94403C84.8815 4.20932 85.5837 3.63708 86.4243 3.63708C87.265 3.63708 87.9671 4.20932 87.9671 4.94403C87.9671 5.67873 87.2674 6.23158 86.4243 6.23158ZM86.4243 4.23115C86.0375 4.23115 85.6912 4.55849 85.6912 4.94403C85.6912 5.35139 86.0375 5.65691 86.4243 5.65691C86.8112 5.65691 87.1551 5.35139 87.1551 4.94403C87.1551 4.53667 86.8089 4.23115 86.4243 4.23115Z" fill="white"/>
<path d="M93.1641 1.50821V0.860793H90.8952V0.266725H93.9808V1.29968C93.9808 1.55913 93.9211 1.88647 93.8519 2.12652C94.1146 2.1144 94.3606 2.0853 94.5134 2.05378V2.57995C94.2889 2.6527 93.9283 2.72059 93.4339 2.72059H92.684V3.79961H91.8601V2.72059H90.5107V2.1338H93.1068C93.1378 1.94709 93.1641 1.71431 93.1641 1.50821ZM92.0989 6.10314C91.9891 6.10314 91.8935 6.00373 91.8935 5.89704V4.83014C91.8935 4.54402 91.8482 4.31609 91.7884 4.20213H92.7079V5.50908H95.7792V6.10314H92.0965M95.6622 4.46885H94.8979V3.78749H93.656V3.2007H94.8979V0.632865C94.8979 0.339468 94.8525 0.118814 94.7952 0H95.7123V3.76567C95.7123 4.04451 95.6932 4.29184 95.6622 4.46642V4.46885Z" fill="white"/>
<path d="M39.6055 3.3199V2.32574H42.0224V1.69773C42.0224 1.48435 41.9841 1.16428 41.9101 0.982422H43.4386V2.32817H45.8555V3.32232H44.6255C44.9599 3.71756 45.1605 4.21464 45.1605 4.74809C45.1605 6.01624 44.0333 7.05405 42.7293 7.05405C41.4253 7.05405 40.2933 6.01382 40.2933 4.74809C40.2933 4.21222 40.4963 3.71514 40.8306 3.32232H39.6055V3.3199ZM42.051 11.2683C41.8671 11.2683 41.7047 11.101 41.7047 10.9191V9.02053C41.7047 8.54043 41.6331 8.16217 41.5304 7.97061H43.0732V10.2741H48.2222V11.2683H42.051ZM42.7293 3.42901C42.1036 3.42901 41.6331 4.01096 41.6331 4.74566C41.6331 5.48037 42.1036 6.06716 42.7293 6.06716C43.355 6.06716 43.8279 5.48522 43.8279 4.74566C43.8279 4.00611 43.3622 3.42901 42.7293 3.42901ZM48.1171 4.80386V7.13164C48.1171 7.60204 48.0837 8.01425 48.0288 8.30765H46.7463V2.09782C46.7463 1.60801 46.6746 1.23945 46.5767 1.03577H48.1171V3.80728H49.5142V4.80143H48.1171V4.80386Z" fill="white"/>
<path d="M56.2801 3.95495V2.36673H51.0546V1.375H57.6461V3.72218C57.6461 4.13681 57.5721 4.59024 57.4742 4.95153H58.943V5.94569H54.8853V7.65515H57.5387V10.1502C57.5387 10.6182 57.5052 11.0353 57.4527 11.3214H56.1702V8.65173H51.0522V7.65273H53.505V5.94327H49.7578V4.94911H56.1869C56.2443 4.64844 56.2753 4.27987 56.2753 3.95253L56.2801 3.95495Z" fill="white"/>
<path d="M64.8373 8.42099V9.95829C64.8373 10.3826 64.8038 10.7973 64.7608 11.0543H63.4258V8.42099H59.2822V7.40259H68.9832V8.42099H64.8396H64.8373ZM61.9499 5.39245H67.8202V6.40843H60.9038C60.7176 6.40843 60.548 6.24112 60.548 6.05442V2.68399C60.548 2.18933 60.474 1.79652 60.3784 1.60254H67.7652V2.62579H61.9475V3.49871H67.6864V4.45892H61.9475V5.3876L61.9499 5.39245Z" fill="white"/>
<path d="M73.7119 4.498C73.7119 6.19292 74.8535 8.05271 76.4632 8.59101L75.7634 9.38634C74.7126 9.04687 73.5758 8.15698 72.9572 7.09493C72.3339 8.1594 71.1947 9.04687 70.1415 9.38634L69.4465 8.59101C71.0514 8.05271 72.1882 6.19292 72.1882 4.498V3.17165H70.1391V2.09021H75.761V3.17165H73.7095V4.498H73.7119ZM78.4287 5.93832V10.0216C78.4287 10.5381 78.3905 10.9867 78.3355 11.3043H76.9384V2.51212C76.9384 1.98837 76.8548 1.58101 76.745 1.36035H78.4287V4.85929H79.9476V5.93832H78.4287Z" fill="white"/>
<defs>
<linearGradient id="paint0_linear_302_4193" x1="14.6348" y1="4" x2="14.6348" y2="37" gradientUnits="userSpaceOnUse">
<stop stop-color="#32C0EC"/>
<stop offset="1" stop-color="#6E62F5"/>
</linearGradient>
</defs>
</svg>
