<svg xmlns="http://www.w3.org/2000/svg" width="96" height="96" viewBox="0 0 96 96">
  <g id="그룹_127103" data-name="그룹 127103" transform="translate(-466 -616)">
    <rect id="selectbox" width="96" height="96" transform="translate(466 616)" fill="#f1f4fb"/>
    <g id="그룹_127100" data-name="그룹 127100" transform="translate(496 648)">
      <rect id="사각형_25213" data-name="사각형 25213" width="36" height="34" fill="rgba(206,212,218,0)"/>
      <path id="패스_24464" data-name="패스 24464" d="M15.328,13.561a.764.764,0,0,0,.525-.208l7.271-8.121,7.156,6.334a.766.766,0,1,0,1.042-1.121L23.642,3.621a.766.766,0,0,0-1.046,0L14.8,12.238a.766.766,0,0,0,.525,1.324" transform="translate(4.241 6.86)" fill="#ced4da"/>
      <path id="패스_24465" data-name="패스 24465" d="M23.006,30.212A.764.764,0,0,0,23.531,30L35.159,18.232l8.4,8.133A.766.766,0,0,0,44.6,25.243l-8.92-8.621a.765.765,0,0,0-1.047,0L22.48,28.888a.766.766,0,0,0,.525,1.324" transform="translate(-21.809 -2.31)" fill="#ced4da"/>
      <path id="패스_24466" data-name="패스 24466" d="M8.646,14.03a3.675,3.675,0,1,1,3.676-3.675A3.679,3.679,0,0,1,8.646,14.03m0-5.818a2.143,2.143,0,1,0,2.144,2.143A2.145,2.145,0,0,0,8.646,8.212" transform="translate(0.368 -0.797)" fill="#ced4da"/>
      <path id="패스_24467" data-name="패스 24467" d="M32.17,23.7H3.83A3.834,3.834,0,0,1,0,19.872V-6.17A3.834,3.834,0,0,1,3.83-10H32.17A3.834,3.834,0,0,1,36-6.17V19.872a3.834,3.834,0,0,1-3.83,3.83M3.83-8.468a2.3,2.3,0,0,0-2.3,2.3V19.872a2.3,2.3,0,0,0,2.3,2.3H32.17a2.3,2.3,0,0,0,2.3-2.3V-6.17a2.3,2.3,0,0,0-2.3-2.3Z" transform="translate(0 10)" fill="#ced4da"/>
    </g>
  </g>
</svg>
