<svg xmlns="http://www.w3.org/2000/svg" width="2.545" height="12" viewBox="0 0 2.545 12"><path d="M296.659-772.614a1.226,1.226,0,0,1-.9-.374,1.226,1.226,0,0,1-.374-.9,1.226,1.226,0,0,1,.374-.9,1.225,1.225,0,0,1,.9-.374,1.225,1.225,0,0,1,.9.374,1.225,1.225,0,0,1,.374.9,1.226,1.226,0,0,1-.374.9A1.226,1.226,0,0,1,296.659-772.614Zm0-4.727a1.226,1.226,0,0,1-.9-.374,1.226,1.226,0,0,1-.374-.9,1.226,1.226,0,0,1,.374-.9,1.226,1.226,0,0,1,.9-.374,1.226,1.226,0,0,1,.9.374,1.226,1.226,0,0,1,.374.9,1.226,1.226,0,0,1-.374.9A1.226,1.226,0,0,1,296.659-777.341Zm0-4.727a1.226,1.226,0,0,1-.9-.374,1.225,1.225,0,0,1-.374-.9,1.226,1.226,0,0,1,.374-.9,1.225,1.225,0,0,1,.9-.374,1.225,1.225,0,0,1,.9.374,1.225,1.225,0,0,1,.374.9,1.225,1.225,0,0,1-.374.9A1.226,1.226,0,0,1,296.659-782.069Z" transform="translate(-295.386 784.614)" fill="#a7b1bb"/></svg>