<svg xmlns="http://www.w3.org/2000/svg" width="16" height="16" viewBox="0 0 16 16"><g transform="translate(-143 -100)"><rect width="16" height="16" transform="translate(143 100)" fill="#ff9600" opacity="0"/><path d="M179.754-771.771a.745.745,0,0,1-.549-.221.745.745,0,0,1-.221-.549.746.746,0,0,1,.221-.549.746.746,0,0,1,.549-.221h4.7a3.132,3.132,0,0,0,2.109-.77,2.437,2.437,0,0,0,.9-1.926,2.437,2.437,0,0,0-.9-1.926,3.131,3.131,0,0,0-2.109-.77H179.6l1.464,1.464a.731.731,0,0,1,.212.539.731.731,0,0,1-.212.539.731.731,0,0,1-.539.212.731.731,0,0,1-.539-.212l-2.774-2.774a.676.676,0,0,1-.164-.25.853.853,0,0,1-.048-.289.852.852,0,0,1,.048-.289.676.676,0,0,1,.164-.25l2.774-2.774a.731.731,0,0,1,.539-.212.731.731,0,0,1,.539.212.731.731,0,0,1,.212.539.731.731,0,0,1-.212.539l-1.464,1.464h4.854a4.61,4.61,0,0,1,3.207,1.214A3.914,3.914,0,0,1,189-776.008a3.914,3.914,0,0,1-1.339,3.024,4.611,4.611,0,0,1-3.207,1.213Z" transform="translate(-32 885.385)" fill="#a7b1bb"/></g></svg>