<svg xmlns="http://www.w3.org/2000/svg" width="58" height="58" viewBox="0 0 58 58">
  <g id="그룹_127383" data-name="그룹 127383" transform="translate(-992 -286)">
    <rect id="사각형_25242" data-name="사각형 25242" width="58" height="58" transform="translate(992 286)" fill="rgba(255,132,132,0)"/>
    <path id="합치기_35" data-name="합치기 35" d="M-3389-4936v-12.844h4.264v8.581h8.581V-4936Zm41-.155v-4.264h8.581V-4949h4.264v12.845Zm-8.52-14.508c.016-3.728,2.336-5.808,5.344-5.792,2.72-.016,4.736,1.519,5.024,4.224h-2.687a2.082,2.082,0,0,0-2.24-1.889c-1.679-.016-2.7,1.264-2.72,3.457.016,2.288,1.056,3.471,2.689,3.488a2.151,2.151,0,0,0,2.272-1.792l2.688.031a4.761,4.761,0,0,1-5.024,4.1C-3354.232-4944.84-3356.5-4946.936-3356.52-4950.664ZM-3365.9-4945v-11.327h7.841v2.176h-5.185v2.4h4.769v2.175h-4.769v2.4h5.185V-4945Zm-4.031,0-2.08-3.9h-1.473v3.9h-2.655v-11.327h4.607c2.56.016,4.128,1.455,4.128,3.775a3.3,3.3,0,0,1-1.984,3.232l2.368,4.319Zm-3.553-6.015h1.409c1.247,0,1.92-.481,1.92-1.537,0-1.072-.672-1.6-1.92-1.6h-1.409ZM-3372-4973a10,10,0,0,1,10-10,10,10,0,0,1,10,10,10,10,0,0,1-10,10A10,10,0,0,1-3372-4973Zm1.25,0a8.751,8.751,0,0,0,8.75,8.75,8.749,8.749,0,0,0,8.75-8.75,8.75,8.75,0,0,0-8.75-8.75A8.751,8.751,0,0,0-3370.75-4973Zm5,0a3.751,3.751,0,0,1,3.75-3.751,3.751,3.751,0,0,1,3.751,3.751,3.75,3.75,0,0,1-3.751,3.75A3.75,3.75,0,0,1-3365.75-4973Zm26.487-4.155v-8.581h-8.581V-4990H-3335v12.845Zm-49.737,0V-4990h12.845v4.264h-8.581v8.581Z" transform="translate(4383 5278)" fill="#526796"/>
  </g>
</svg>
