<svg xmlns="http://www.w3.org/2000/svg" width="24" height="24" viewBox="0 0 24 24">
  <g id="iCon" transform="translate(-389 -253)">
    <circle id="타원_1" data-name="타원 1" cx="12" cy="12" r="12" transform="translate(389 253)" fill="#7659d6"/>
    <rect id="boundary" width="12" height="12" transform="translate(395 259)" opacity="0"/>
    <path id="priority_high_24dp_E8EAED_FILL0_wght300_GRAD0_opsz24" d="M421.1-804.92a1.06,1.06,0,0,1-.778-.323,1.061,1.061,0,0,1-.324-.778,1.06,1.06,0,0,1,.324-.778,1.06,1.06,0,0,1,.778-.324,1.06,1.06,0,0,1,.778.324,1.06,1.06,0,0,1,.324.778,1.061,1.061,0,0,1-.324.778A1.06,1.06,0,0,1,421.1-804.92Zm0-3.6a.963.963,0,0,1-.707-.294.967.967,0,0,1-.294-.708v-6.4a.965.965,0,0,1,.295-.708.967.967,0,0,1,.709-.294.963.963,0,0,1,.707.294.966.966,0,0,1,.294.708v6.4a.965.965,0,0,1-.295.708A.967.967,0,0,1,421.1-808.52Z" transform="translate(-20 1075.92)" fill="#fff"/>
  </g>
</svg>
