<svg xmlns="http://www.w3.org/2000/svg" width="58" height="58" viewBox="0 0 58 58">
  <g id="그룹_127389" data-name="그룹 127389" transform="translate(-487 -394)">
    <rect id="사각형_25242" data-name="사각형 25242" width="58" height="58" transform="translate(487 394)" fill="rgba(255,132,132,0)"/>
    <path id="합치기_31" data-name="합치기 31" d="M-3379-4932a2.458,2.458,0,0,1-2.5-2.417,2.458,2.458,0,0,1,2.5-2.417h7.5v-4.985c-9.852-1.193-17.5-9.341-17.5-19.182v-4.833a2.46,2.46,0,0,1,2.5-2.416,2.46,2.46,0,0,1,2.5,2.416V-4961a14.773,14.773,0,0,0,15,14.5,14.772,14.772,0,0,0,15-14.5v-4.833a2.46,2.46,0,0,1,2.5-2.416,2.458,2.458,0,0,1,2.5,2.416V-4961c0,9.841-7.647,17.989-17.5,19.182v4.985h7.5a2.46,2.46,0,0,1,2.5,2.417A2.459,2.459,0,0,1-3359-4932Zm0-29v-19.332a9.849,9.849,0,0,1,10-9.668,9.849,9.849,0,0,1,10,9.668V-4961a9.847,9.847,0,0,1-10,9.666A9.847,9.847,0,0,1-3379-4961Zm5-19.332V-4961a4.924,4.924,0,0,0,5,4.833,4.924,4.924,0,0,0,5-4.833v-19.332a4.924,4.924,0,0,0-5-4.833A4.924,4.924,0,0,0-3374-4980.333Z" transform="translate(3885.001 5384)" fill="#526796"/>
  </g>
</svg>
