<svg xmlns="http://www.w3.org/2000/svg" xmlns:xlink="http://www.w3.org/1999/xlink" width="24" height="24" viewBox="0 0 24 24">
  <defs>
    <filter id="input_box" x="0" y="0" width="24" height="24" filterUnits="userSpaceOnUse">
      <feOffset dy="2" input="SourceAlpha"/>
      <feGaussianBlur stdDeviation="2" result="blur"/>
      <feFlood flood-opacity="0.161"/>
      <feComposite operator="in" in2="blur"/>
      <feComposite in="SourceGraphic"/>
    </filter>
  </defs>
  <g id="Button_icon" data-name="Button+icon" transform="translate(0 2)">
    <g transform="matrix(1, 0, 0, 1, -0.07, -1)" filter="url(#input_box)">
      <rect id="input_box-2" data-name="input_box" width="22" height="22" rx="11" transform="translate(0)" fill="rgba(26,26,26,0.22)"/>
    </g>
    <g id="plus" transform="translate(6 5)"> <!-- 아이콘 위치 조정 -->
      <path id="refresh_FILL0_wght400_GRAD0_opsz24" d="M165-790a4.825,4.825,0,0,1-3.547-1.453A4.825,4.825,0,0,1,160-795a4.826,4.826,0,0,1,1.453-3.547A4.825,4.825,0,0,1,165-800a4.949,4.949,0,0,1,2.063.445,4.765,4.765,0,0,1,1.688,1.273V-800H170v4.375h-4.375v-1.25h2.625a3.648,3.648,0,0,0-1.367-1.375,3.7,3.7,0,0,0-1.883-.5,3.616,3.616,0,0,0-2.656,1.094A3.616,3.616,0,0,0,161.25-795a3.616,3.616,0,0,0,1.094,2.656A3.617,3.617,0,0,0,165-791.25a3.664,3.664,0,0,0,2.172-.688,3.63,3.63,0,0,0,1.359-1.812h1.313a4.935,4.935,0,0,1-1.781,2.7A4.85,4.85,0,0,1,165-790Z" transform="translate(-160 800)" fill="#fff"/>
    </g>
  </g>
</svg>
