<svg xmlns="http://www.w3.org/2000/svg" width="14.983" height="15" viewBox="0 0 14.983 15"><path d="M121.4-907a1.346,1.346,0,0,1-.988-.411A1.346,1.346,0,0,1,120-908.4v-9.788a1.347,1.347,0,0,1,.411-.988,1.346,1.346,0,0,1,.988-.411h6.24l-1.4,1.4H121.4v9.788h9.788v-4.859l1.4-1.4v6.257a1.346,1.346,0,0,1-.411.988,1.346,1.346,0,0,1-.988.411ZM126.292-913.292Zm-2.1,2.1v-2.971l6.414-6.414a1.4,1.4,0,0,1,.472-.315,1.4,1.4,0,0,1,.524-.1,1.381,1.381,0,0,1,.533.1,1.421,1.421,0,0,1,.463.315l.979,1a1.57,1.57,0,0,1,.3.463,1.337,1.337,0,0,1,.1.516,1.444,1.444,0,0,1-.1.516,1.311,1.311,0,0,1-.306.463l-6.414,6.432Zm8.407-7.411-.979-.979Zm-7.009,6.013h.979l4.055-4.055-.489-.489-.507-.489-4.037,4.037Zm4.544-4.544-.507-.489.507.489.489.489Z" transform="translate(-119.5 921.5)" fill="#a7b1bb" stroke="rgba(0,0,0,0)" stroke-miterlimit="10" stroke-width="1"/></svg>