<svg xmlns="http://www.w3.org/2000/svg" width="16" height="16" viewBox="0 0 16 16"><g transform="translate(-29 -450)"><rect width="16" height="16" transform="translate(29 450)" fill="rgba(255,255,255,0)"/><path d="M81.4-788.8a1.348,1.348,0,0,1-.989-.411A1.348,1.348,0,0,1,80-790.2v-8.4a1.348,1.348,0,0,1,.411-.989A1.348,1.348,0,0,1,81.4-800h8.4a1.348,1.348,0,0,1,.989.411,1.348,1.348,0,0,1,.411.989v3.15l2.8-2.8v7.7l-2.8-2.8v3.15a1.348,1.348,0,0,1-.411.989,1.348,1.348,0,0,1-.989.411Zm0-1.4h8.4v-8.4H81.4Zm0,0Z" transform="translate(-50 1252.4)" fill="#637381"/></g></svg>