<svg xmlns="http://www.w3.org/2000/svg" width="20" height="20" viewBox="0 0 20 20"><g transform="translate(-2 -2)"><g transform="translate(-1195 -70)"><rect width="20" height="20" transform="translate(1197 72)" fill="rgba(255,0,0,0)"/><path d="M7.766,1.413l-1.247.467a.254.254,0,0,0,0,.476l1.247.467L8.232,4.07a.254.254,0,0,0,.476,0l.467-1.247,1.247-.467a.254.254,0,0,0,0-.476L9.175,1.413,8.709.165a.254.254,0,0,0-.476,0Zm-6.24,11.67a1.592,1.592,0,0,0,0,2.247L2.67,16.475a1.592,1.592,0,0,0,2.247,0L17.533,3.855a1.592,1.592,0,0,0,0-2.247L16.389.467a1.592,1.592,0,0,0-2.247,0ZM16.035,2.733,12.56,6.207l-.771-.771,3.474-3.474.771.771ZM.248,3.878a.381.381,0,0,0,0,.715l1.869.7.7,1.869a.381.381,0,0,0,.715,0l.7-1.869,1.869-.7a.381.381,0,0,0,0-.715l-1.869-.7-.7-1.869a.381.381,0,0,0-.715,0l-.7,1.869ZM11.9,12.349a.381.381,0,0,0,0,.715l1.869.7.7,1.869a.381.381,0,0,0,.715,0l.7-1.869,1.869-.7a.381.381,0,0,0,0-.715l-1.869-.7-.7-1.869a.381.381,0,0,0-.715,0l-.7,1.869Z" transform="translate(1198 74)" fill="#bb36a3"/></g></g></svg>