<svg xmlns="http://www.w3.org/2000/svg" width="14" height="14.005" viewBox="0 0 14 14.005"><g transform="translate(-38 -602)"><rect width="14" height="14" transform="translate(38 602)" fill="rgba(99,115,129,0)"/><g transform="translate(-364.404 146.639)"><path d="M191.741,117.95l1.467-1.467a2.19,2.19,0,0,1-.1-.382,2.413,2.413,0,0,1-.033-.4,2.328,2.328,0,0,1,2.917-2.258,2.445,2.445,0,0,1,.533.208l-1.583,1.584.933.933,1.583-1.567a2.522,2.522,0,0,1,.209.525,2.2,2.2,0,0,1,.075.575,2.334,2.334,0,0,1-2.334,2.334A2.443,2.443,0,0,1,195,118a2.264,2.264,0,0,1-.375-.1l-1.467,1.466Zm-2.388,1.1a1.575,1.575,0,0,1-.323-.77l-.158-1.156a2.637,2.637,0,0,1-.429-.21q-.2-.123-.393-.263l-1.085.455a1.145,1.145,0,0,1-.875.035,1.289,1.289,0,0,1-.682-.56l-.823-1.436a1.109,1.109,0,0,1-.14-.858,1.332,1.332,0,0,1,.473-.752l.928-.7a1.656,1.656,0,0,1-.018-.236v-.472a1.681,1.681,0,0,1,.018-.237l-.928-.7a1.332,1.332,0,0,1-.473-.752,1.108,1.108,0,0,1,.14-.858l.823-1.435a1.289,1.289,0,0,1,.682-.56,1.137,1.137,0,0,1,.875.035l1.085.455a4.618,4.618,0,0,1,.4-.263,3.385,3.385,0,0,1,.42-.21l.158-1.156a1.279,1.279,0,0,1,.411-.77,1.154,1.154,0,0,1,.814-.315H191.9a1.156,1.156,0,0,1,.814.315,1.289,1.289,0,0,1,.411.77l.158,1.156a2.588,2.588,0,0,1,.428.21q.2.123.394.263l1.085-.455a1.137,1.137,0,0,1,.875-.035,1.3,1.3,0,0,1,.683.56l.823,1.435a1.111,1.111,0,0,1,.139.858,1.332,1.332,0,0,1-.473.752l-.42.315a.61.61,0,0,1-.507.148.755.755,0,0,1-.473-.272.634.634,0,0,1-.157-.507.715.715,0,0,1,.262-.473l.333-.246-.683-1.19-1.732.735a3.882,3.882,0,0,0-.849-.674,3.922,3.922,0,0,0-1.006-.411l-.228-1.855h-1.382l-.245,1.855a3.935,3.935,0,0,0-1.006.411,4.174,4.174,0,0,0-.849.656l-1.732-.717-.682,1.19,1.5,1.12a2.837,2.837,0,0,0-.122.525,4.244,4.244,0,0,0-.035.56,4.082,4.082,0,0,0,.035.543,2.847,2.847,0,0,0,.122.526l-1.5,1.137.682,1.191,1.732-.735a4.619,4.619,0,0,0,.639.534,3.568,3.568,0,0,0,.743.393,4.831,4.831,0,0,0,.254,1.462,5.089,5.089,0,0,0,.639,1.269.374.374,0,0,1-.018.446.528.528,0,0,1-.473.236.88.88,0,0,1-.726-.31Zm.228-4.97a.832.832,0,0,1-.5-.333,2.467,2.467,0,0,1-.42-1.382,2.351,2.351,0,0,1,.718-1.741,2.375,2.375,0,0,1,1.732-.709,2.66,2.66,0,0,1,.77.105,1.608,1.608,0,0,1,.6.315.81.81,0,0,1,.306.49.708.708,0,0,1-.551.832.6.6,0,0,1-.473-.114,1.213,1.213,0,0,0-.306-.166.968.968,0,0,0-.341-.061,1.045,1.045,0,0,0-1.05,1.049,1.026,1.026,0,0,0,.052.342,1.068,1.068,0,0,0,.157.288.574.574,0,0,1,.149.5.676.676,0,0,1-.288.464.625.625,0,0,1-.393.141.709.709,0,0,1-.157-.018Z" transform="translate(218 350)" fill="#637381"/></g></g></svg>