<svg xmlns="http://www.w3.org/2000/svg" width="14" height="14" viewBox="0 0 14 14"><g transform="translate(-38 -233)"><rect width="14" height="14" transform="translate(38 233)" fill="rgba(99,115,129,0)"/><path d="M.508-.006A.75.75,0,0,0,0,.744v7.5a.75.75,0,0,0,.75.75H4.5v1.5H3a1.5,1.5,0,0,0-1.5,1.5h9a1.5,1.5,0,0,0-1.5-1.5H7.5v-1.5h3.75a.75.75,0,0,0,.75-.75V.744a.75.75,0,0,0-.75-.75H.748a.75.75,0,0,0-.135,0,.75.75,0,0,0-.09,0Zm.99,1.5h9v6h-9Z" transform="translate(39.003 234.009)" fill="#637381"/></g></svg>