<svg xmlns="http://www.w3.org/2000/svg" width="36" height="36" viewBox="0 0 36 36"><g transform="translate(-270 -90)"><rect width="36" height="36" rx="6" transform="translate(270 90)" fill="#161c24"/><rect width="20" height="20" transform="translate(278 98)" opacity="0"/><path d="M82-784a1.926,1.926,0,0,1-1.412-.588A1.926,1.926,0,0,1,80-786v-12a1.926,1.926,0,0,1,.588-1.412A1.925,1.925,0,0,1,82-800H98a1.925,1.925,0,0,1,1.412.588A1.926,1.926,0,0,1,100-798v12a1.926,1.926,0,0,1-.588,1.413A1.926,1.926,0,0,1,98-784Zm16-12-7.475,4.675a1.042,1.042,0,0,1-.263.113,1,1,0,0,1-.262.037,1,1,0,0,1-.262-.037,1.042,1.042,0,0,1-.263-.113L82-796v10H98Zm-8,3,8-5H82Zm-8-3v0Z" transform="translate(198 900)" fill="#fff"/></g></svg>