<svg xmlns="http://www.w3.org/2000/svg" width="16" height="16" viewBox="0 0 16 16"><g transform="translate(-485 -533)"><rect width="16" height="16" transform="translate(485 533)" fill="rgba(255,255,255,0)"/><path d="M186.54-770a4.826,4.826,0,0,1-3.547-1.453A4.824,4.824,0,0,1,181.54-775a4.828,4.828,0,0,1,1.453-3.547A4.824,4.824,0,0,1,186.54-780a4.9,4.9,0,0,1,2.213.52,4.739,4.739,0,0,1,1.736,1.467V-780h1v4.077h-4.077v-1h2.633a3.922,3.922,0,0,0-1.462-1.521A3.924,3.924,0,0,0,186.54-779a3.857,3.857,0,0,0-2.833,1.167A3.857,3.857,0,0,0,182.54-775a3.857,3.857,0,0,0,1.167,2.833A3.858,3.858,0,0,0,186.54-771a3.908,3.908,0,0,0,2.317-.733,3.872,3.872,0,0,0,1.45-1.933h1.054a4.893,4.893,0,0,1-1.788,2.649A4.87,4.87,0,0,1,186.54-770Z" transform="translate(306.46 1316)" fill="#637381"/></g></svg>