<svg xmlns="http://www.w3.org/2000/svg" width="16" height="16" viewBox="0 0 16 16"><g transform="translate(14 2) rotate(90)"><rect width="16" height="16" transform="translate(-2 -2)" fill="#74ca00" opacity="0"/><path d="M-3592.9-7042.907a.8.8,0,0,1,0-1.133l3.96-3.96-3.96-3.961a.8.8,0,0,1,0-1.131.8.8,0,0,1,1.131,0l4.525,4.525a.8.8,0,0,1,.235.568.8.8,0,0,1-.235.567l-4.525,4.526a.8.8,0,0,1-.566.234A.8.8,0,0,1-3592.9-7042.907Zm-5.213,0a.8.8,0,0,1,0-1.133l3.962-3.96-3.962-3.961a.8.8,0,0,1,0-1.131.8.8,0,0,1,1.131,0l4.526,4.525a.8.8,0,0,1,.235.568.8.8,0,0,1-.235.567l-4.526,4.526a.8.8,0,0,1-.565.234A.8.8,0,0,1-3598.118-7042.907Z" transform="translate(3598.683 7054)" fill="#c4cdd5"/></g></svg>