<svg xmlns="http://www.w3.org/2000/svg" width="58" height="58" viewBox="0 0 58 58">
  <g id="그룹_127418" data-name="그룹 127418" transform="translate(-992 -71)">
    <rect id="사각형_25242" data-name="사각형 25242" width="58" height="58" transform="translate(992 71)" fill="rgba(255,255,255,0)"/>
    <g id="camera" transform="translate(992 70.999)">
      <g id="그룹_127350" data-name="그룹 127350" transform="translate(0 7.25)">
        <path id="패스_24492" data-name="패스 24492" d="M54.375,43.917a3.646,3.646,0,0,1-3.625,3.667H7.25a3.646,3.646,0,0,1-3.625-3.667v-22A3.646,3.646,0,0,1,7.25,18.25H11.5a10.813,10.813,0,0,0,7.685-3.223l3.009-3.036a3.6,3.6,0,0,1,2.556-1.074h8.5a3.6,3.6,0,0,1,2.562,1.074l3,3.037A10.813,10.813,0,0,0,46.5,18.25H50.75a3.646,3.646,0,0,1,3.625,3.667ZM7.25,14.583A7.292,7.292,0,0,0,0,21.917v22A7.292,7.292,0,0,0,7.25,51.25h43.5A7.292,7.292,0,0,0,58,43.917v-22a7.292,7.292,0,0,0-7.25-7.333H46.5a7.208,7.208,0,0,1-5.125-2.148l-3-3.037A7.209,7.209,0,0,0,33.249,7.25h-8.5A7.208,7.208,0,0,0,19.627,9.4l-3,3.037A7.209,7.209,0,0,1,11.5,14.583Z" transform="translate(0 -7.25)" fill="#fff"/>
        <path id="패스_24493" data-name="패스 24493" d="M29,39.875a9.063,9.063,0,1,1,9.063-9.062A9.062,9.062,0,0,1,29,39.875ZM29,43.5A12.687,12.687,0,1,0,16.313,30.813,12.687,12.687,0,0,0,29,43.5ZM10.875,23.563A1.813,1.813,0,1,1,9.063,21.75,1.812,1.812,0,0,1,10.875,23.563Z" transform="translate(0 -6.95)" fill="#fff"/>
      </g>
    </g>
  </g>
</svg>
