<svg xmlns="http://www.w3.org/2000/svg" width="20" height="20" viewBox="0 0 20 20"><path d="M130-820a9.711,9.711,0,0,1-6.681-2.542,9.64,9.64,0,0,1-3.264-6.347h2.278a7.429,7.429,0,0,0,2.569,4.778,7.542,7.542,0,0,0,5.1,1.889,7.5,7.5,0,0,0,5.514-2.264A7.5,7.5,0,0,0,137.778-830a7.5,7.5,0,0,0-2.264-5.514A7.5,7.5,0,0,0,130-837.778a7.5,7.5,0,0,0-3.583.889,8.257,8.257,0,0,0-2.806,2.444h3.056v2.222H120v-6.667h2.222v2.611a9.7,9.7,0,0,1,3.458-2.75A9.924,9.924,0,0,1,130-840a9.674,9.674,0,0,1,3.9.792,10.164,10.164,0,0,1,3.167,2.139,10.161,10.161,0,0,1,2.139,3.167A9.674,9.674,0,0,1,140-830a9.674,9.674,0,0,1-.792,3.9,10.163,10.163,0,0,1-2.139,3.167,10.165,10.165,0,0,1-3.167,2.139A9.673,9.673,0,0,1,130-820Zm3.111-5.333-4.222-4.222v-6h2.222v5.111l3.556,3.556Z" transform="translate(-120 840)" fill="#a7b1bb"/></svg>