<svg xmlns="http://www.w3.org/2000/svg" width="15" height="13.571" viewBox="0 0 15 13.571"><path d="M87.143-793.571l-5.714-3.571V-790h6.429v1.429H81.429a1.376,1.376,0,0,1-1.009-.42A1.376,1.376,0,0,1,80-790v-8.571a1.376,1.376,0,0,1,.42-1.009,1.376,1.376,0,0,1,1.009-.42H92.857a1.376,1.376,0,0,1,1.009.42,1.376,1.376,0,0,1,.42,1.009v5H92.857v-3.571Zm0-1.429,5.714-3.571H81.429Zm5,8.571-1-1,1.125-1.143H89.286V-790h2.982l-1.143-1.143,1.018-1L95-789.286ZM81.429-797.143v0Z" transform="translate(-80 800)" fill="#a7b1bb"/></svg>