<svg xmlns="http://www.w3.org/2000/svg" width="16" height="16" viewBox="0 0 16 16"><g transform="translate(-213 -100)"><rect width="16" height="16" transform="translate(213 100)" fill="#ff9600" opacity="0"/><path d="M154.31-780.893a3.907,3.907,0,0,1-2.288-.694,5.137,5.137,0,0,1-1.6-1.806l-1.332.761a.563.563,0,0,1-.473.047.652.652,0,0,1-.38-.3.613.613,0,0,1-.064-.473.588.588,0,0,1,.286-.38l1.46-.842a4.067,4.067,0,0,1-.126-.53q-.046-.274-.088-.546h-1.766a.611.611,0,0,1-.45-.181.611.611,0,0,1-.181-.45.611.611,0,0,1,.181-.45.611.611,0,0,1,.45-.181H149.7q.026-.325.08-.64a5.353,5.353,0,0,1,.142-.611l-1.468-.85a.588.588,0,0,1-.286-.38.612.612,0,0,1,.064-.473.612.612,0,0,1,.386-.292.605.605,0,0,1,.48.057l1.306.769a5,5,0,0,1,.365-.587,5.388,5.388,0,0,1,.428-.523,1.2,1.2,0,0,1-.038-.262q0-.131,0-.262a3,3,0,0,1,.163-.992,3.3,3.3,0,0,1,.448-.863L151-793.6a.614.614,0,0,1-.181-.435.615.615,0,0,1,.181-.456.526.526,0,0,1,.433-.185.706.706,0,0,1,.454.185l.835.793a3.07,3.07,0,0,1,.755-.324,3.087,3.087,0,0,1,.834-.111,2.945,2.945,0,0,1,.845.121,3.34,3.34,0,0,1,.766.335l.814-.814a.6.6,0,0,1,.444-.185.6.6,0,0,1,.443.2.639.639,0,0,1,.177.444.6.6,0,0,1-.185.443l-.767.767a3.163,3.163,0,0,1,.442.858,3.082,3.082,0,0,1,.157.988v.252a1,1,0,0,1-.034.252,4.633,4.633,0,0,1,.424.53,5.891,5.891,0,0,1,.361.593l1.324-.761a.592.592,0,0,1,.473-.057.61.61,0,0,1,.38.292.605.605,0,0,1,.057.48.612.612,0,0,1-.292.386l-1.46.829a5.927,5.927,0,0,1,.148.575q.061.295.095.6h1.758a.611.611,0,0,1,.45.181.611.611,0,0,1,.181.45.611.611,0,0,1-.181.45.611.611,0,0,1-.45.181h-1.758q-.034.309-.088.6t-.134.571l1.468.85a.59.59,0,0,1,.286.386.625.625,0,0,1-.064.48.588.588,0,0,1-.38.286.612.612,0,0,1-.473-.064L158.2-783.4a5.156,5.156,0,0,1-1.6,1.81A3.91,3.91,0,0,1,154.31-780.893Zm-1.842-10.468a3.448,3.448,0,0,1,.865-.363,3.726,3.726,0,0,1,.977-.126,3.731,3.731,0,0,1,.956.12,3.5,3.5,0,0,1,.852.348,1.779,1.779,0,0,0-.626-1.063,1.782,1.782,0,0,0-1.182-.425,1.815,1.815,0,0,0-1.2.436A1.8,1.8,0,0,0,152.468-791.361Zm1.842,9.206a2.872,2.872,0,0,0,2.455-1.287,4.915,4.915,0,0,0,.919-2.929,5.3,5.3,0,0,0-.856-2.844,2.784,2.784,0,0,0-2.518-1.372,2.793,2.793,0,0,0-2.512,1.361,5.253,5.253,0,0,0-.863,2.855,4.915,4.915,0,0,0,.919,2.929A2.872,2.872,0,0,0,154.31-782.155Zm0-1.9a.61.61,0,0,1-.45-.181.61.61,0,0,1-.181-.45v-3.164a.611.611,0,0,1,.181-.45.611.611,0,0,1,.45-.181.611.611,0,0,1,.45.181.611.611,0,0,1,.181.45v3.164a.61.61,0,0,1-.181.45A.61.61,0,0,1,154.31-784.057Z" transform="translate(66.69 895.676)" fill="#c4cdd5"/></g></svg>