<svg xmlns="http://www.w3.org/2000/svg" width="16" height="16" viewBox="0 0 16 16">
  <path id="check_circle_FILL1_wght400_GRAD0_opsz24" d="M86.88-868.32l5.64-5.64-1.12-1.12-4.52,4.52-2.28-2.28-1.12,1.12ZM88-864a7.789,7.789,0,0,1-3.12-.63,8.079,8.079,0,0,1-2.54-1.71,8.079,8.079,0,0,1-1.71-2.54A7.79,7.79,0,0,1,80-872a7.79,7.79,0,0,1,.63-3.12,8.078,8.078,0,0,1,1.71-2.54,8.079,8.079,0,0,1,2.54-1.71A7.789,7.789,0,0,1,88-880a7.789,7.789,0,0,1,3.12.63,8.079,8.079,0,0,1,2.54,1.71,8.078,8.078,0,0,1,1.71,2.54A7.79,7.79,0,0,1,96-872a7.79,7.79,0,0,1-.63,3.12,8.079,8.079,0,0,1-1.71,2.54,8.079,8.079,0,0,1-2.54,1.71A7.789,7.789,0,0,1,88-864Z" transform="translate(-80 880)" fill="#66bb93"/>
</svg>
