<svg xmlns="http://www.w3.org/2000/svg" width="16" height="16" viewBox="0 0 16 16"><g transform="translate(-348 -278)"><rect width="16" height="16" transform="translate(348 278)" fill="rgba(255,0,0,0)"/><path d="M141.7-804a1.642,1.642,0,0,1-1.207-.494A1.642,1.642,0,0,1,140-805.7v-5.357h1.412v5.357a.277.277,0,0,0,.09.2.277.277,0,0,0,.2.091h7.4V-804Zm7.24,0v-1.412H154.3a.277.277,0,0,0,.2-.091.277.277,0,0,0,.09-.2v-5.357H156v5.357a1.642,1.642,0,0,1-.494,1.207A1.642,1.642,0,0,1,154.3-804Zm-5.882-3.529,2.335-3.095,1.882,2.407,2.643-3.439,3.1,4.127ZM140-810.9v-7.4a1.643,1.643,0,0,1,.494-1.207A1.643,1.643,0,0,1,141.7-820h5.357v1.412H141.7a.277.277,0,0,0-.2.09.277.277,0,0,0-.09.2v7.4Zm14.588,0v-7.4a.277.277,0,0,0-.09-.2.277.277,0,0,0-.2-.09h-7.4V-820h7.4a1.643,1.643,0,0,1,1.207.494A1.642,1.642,0,0,1,156-818.3v7.4Zm-3.385-3.07a1.194,1.194,0,0,1-.881-.35,1.194,1.194,0,0,1-.35-.881,1.194,1.194,0,0,1,.35-.88,1.194,1.194,0,0,1,.881-.35,1.194,1.194,0,0,1,.881.35,1.194,1.194,0,0,1,.35.88,1.194,1.194,0,0,1-.35.881A1.194,1.194,0,0,1,151.2-813.972Z" transform="translate(207.999 1097.999)" fill="#637381"/></g></svg>