<svg xmlns="http://www.w3.org/2000/svg" width="14" height="14" viewBox="0 0 14 14"><g transform="translate(5942 -847)"><rect width="14" height="14" transform="translate(-5942 847)" fill="rgba(0,116,255,0)"/><path d="M1.375,1.4v0Zm2.062,7H6.156a.659.659,0,0,0,.49-.2.728.728,0,0,0,0-1,.659.659,0,0,0-.49-.2H3.438a.659.659,0,0,0-.49.2.728.728,0,0,0,0,1A.659.659,0,0,0,3.438,8.4Zm0,2.8H5.125a.659.659,0,0,0,.49-.2.728.728,0,0,0,0-1,.659.659,0,0,0-.49-.2H3.438a.659.659,0,0,0-.49.2.728.728,0,0,0,0,1A.659.659,0,0,0,3.438,11.2ZM1.375,14A1.312,1.312,0,0,1,.4,13.589,1.36,1.36,0,0,1,0,12.6V1.4A1.36,1.36,0,0,1,.4.411,1.312,1.312,0,0,1,1.375,0H6.308A1.344,1.344,0,0,1,7.27.4L10.6,3.8a1.363,1.363,0,0,1,.292.446,1.4,1.4,0,0,1,.1.534v.228a.684.684,0,0,1-.2.5.7.7,0,0,1-.98,0,.684.684,0,0,1-.2-.5V4.9H6.875a.659.659,0,0,1-.49-.2.684.684,0,0,1-.2-.5V1.4H1.375V12.6h4.8a.659.659,0,0,1,.49.2.728.728,0,0,1,0,1,.659.659,0,0,1-.49.2Z" transform="translate(-5942 847)" fill="#858f9b"/><path d="M91.012-789.659a1.373,1.373,0,0,0,1-.411,1.34,1.34,0,0,0,.416-.989,1.34,1.34,0,0,0-.416-.989,1.373,1.373,0,0,0-1-.411,1.373,1.373,0,0,0-1,.411,1.34,1.34,0,0,0-.416.989,1.34,1.34,0,0,0,.416.989A1.373,1.373,0,0,0,91.012-789.659Zm-.142,2.1a.651.651,0,0,1-.434-.157.709.709,0,0,1-.239-.4l-.106-.49q-.213-.088-.4-.184a3.089,3.089,0,0,1-.381-.236l-.514.158a.668.668,0,0,1-.452-.018.71.71,0,0,1-.345-.28l-.142-.245a.679.679,0,0,1-.089-.455.614.614,0,0,1,.23-.4l.39-.332a2.738,2.738,0,0,1-.035-.455,2.738,2.738,0,0,1,.035-.455l-.39-.333a.608.608,0,0,1-.23-.394.661.661,0,0,1,.089-.446l.159-.263a.715.715,0,0,1,.337-.28.641.641,0,0,1,.443-.017l.514.157a3.1,3.1,0,0,1,.381-.236q.186-.1.4-.184l.106-.508a.669.669,0,0,1,.239-.394.675.675,0,0,1,.434-.149h.283a.651.651,0,0,1,.434.158.709.709,0,0,1,.239.4l.106.49q.213.087.4.184a3.1,3.1,0,0,1,.381.236l.514-.157a.668.668,0,0,1,.452.017.709.709,0,0,1,.345.28l.142.245a.679.679,0,0,1,.089.455.614.614,0,0,1-.23.4l-.39.333a2.739,2.739,0,0,1,.035.455,2.739,2.739,0,0,1-.035.455l.39.332a.609.609,0,0,1,.23.394.661.661,0,0,1-.089.446l-.159.262a.715.715,0,0,1-.337.28.641.641,0,0,1-.443.018l-.514-.158a3.09,3.09,0,0,1-.381.236q-.186.1-.4.184l-.106.507a.669.669,0,0,1-.239.394.675.675,0,0,1-.434.149Z" transform="translate(-6022.262 1648.559)" fill="#858f9b"/></g></svg>