<svg xmlns="http://www.w3.org/2000/svg" width="16" height="16" viewBox="0 0 16 16"><path d="M79.816-875.427a1,1,0,0,0,.731-.3,1,1,0,0,0,.3-.732.986.986,0,0,0-.3-.729,1,1,0,0,0-.731-.3,1,1,0,0,0-.731.3.986.986,0,0,0-.3.729,1,1,0,0,0,.3.732A1,1,0,0,0,79.816-875.427Zm-.757-3.019H80.6a2.787,2.787,0,0,1,.149-1.005,3.352,3.352,0,0,1,.812-1.005,5.376,5.376,0,0,0,.787-.959,2.084,2.084,0,0,0,.292-1.125,2.007,2.007,0,0,0-.794-1.71,3.066,3.066,0,0,0-1.892-.6,2.765,2.765,0,0,0-1.855.611,3.24,3.24,0,0,0-1,1.463l1.4.542a2.279,2.279,0,0,1,.439-.769,1.213,1.213,0,0,1,1-.407,1.1,1.1,0,0,1,.861.32,1.024,1.024,0,0,1,.29.7,1.235,1.235,0,0,1-.228.7,2.9,2.9,0,0,1-.548.6,4.805,4.805,0,0,0-1.047,1.163A3.652,3.652,0,0,0,79.059-878.445Zm.81,6.314a7.8,7.8,0,0,1-3.123-.629,8.073,8.073,0,0,1-2.538-1.709,8.073,8.073,0,0,1-1.709-2.538,7.8,7.8,0,0,1-.63-3.123,7.8,7.8,0,0,1,.63-3.123,8.074,8.074,0,0,1,1.709-2.538,8.073,8.073,0,0,1,2.538-1.709,7.8,7.8,0,0,1,3.123-.63,7.8,7.8,0,0,1,3.123.63,8.073,8.073,0,0,1,2.538,1.709,8.074,8.074,0,0,1,1.709,2.538,7.8,7.8,0,0,1,.63,3.123,7.8,7.8,0,0,1-.63,3.123,8.073,8.073,0,0,1-1.709,2.538,8.073,8.073,0,0,1-2.538,1.709A7.8,7.8,0,0,1,79.869-872.131Zm0-1.784a6,6,0,0,0,4.412-1.8,6,6,0,0,0,1.8-4.412,6,6,0,0,0-1.8-4.412,6,6,0,0,0-4.412-1.8,6,6,0,0,0-4.412,1.8,6,6,0,0,0-1.8,4.412,6,6,0,0,0,1.8,4.412A6,6,0,0,0,79.869-873.915ZM79.869-880.131Z" transform="translate(-71.869 888.131)" fill="#fff"/></svg>