<svg xmlns="http://www.w3.org/2000/svg" width="14.001" height="14" viewBox="0 0 14.001 14"><path d="M82.1-866a1.347,1.347,0,0,1-.989-.411,1.348,1.348,0,0,1-.411-.989v-7.893a1.536,1.536,0,0,1-.507-.5A1.3,1.3,0,0,1,80-876.5v-2.1a1.348,1.348,0,0,1,.411-.989A1.348,1.348,0,0,1,81.4-880H92.6a1.348,1.348,0,0,1,.989.411A1.348,1.348,0,0,1,94-878.6v2.1a1.3,1.3,0,0,1-.192.709,1.535,1.535,0,0,1-.507.5v7.893a1.348,1.348,0,0,1-.411.989,1.348,1.348,0,0,1-.99.409Zm0-9.1v7.7h9.8v-7.7Zm-.7-1.4H92.6v-2.1H81.4Zm3.5,4.9h4.2V-873H84.9ZM87-871.25Z" transform="translate(-80 880)" fill="#637381"/></svg>