<svg id="Layer_2" data-name="Layer 2" xmlns="http://www.w3.org/2000/svg" width="12" height="12" viewBox="0 0 12 12">
  <path id="합치기_24" data-name="합치기 24" d="M.6,12a.6.6,0,0,1-.6-.6V.6A.6.6,0,0,1,.6,0H3.568A.629.629,0,0,1,4.2.51.608.608,0,0,1,4.06.993.6.6,0,0,1,3.6,1.2H1.2v9.6h9.6V8.43a.628.628,0,0,1,.511-.63.6.6,0,0,1,.69.6v3a.6.6,0,0,1-.6.6ZM6.148,5.789a.6.6,0,0,1,.062-.84L9.959,1.2H7.23A.627.627,0,0,1,6.6.689.585.585,0,0,1,6.741.206.6.6,0,0,1,7.2,0h4.2a.6.6,0,0,1,.6.6V4.8a.6.6,0,0,1-.69.6.632.632,0,0,1-.511-.63V2.039L7.021,5.821A.6.6,0,0,1,6.6,6H6.574A.534.534,0,0,1,6.148,5.789Z" fill="#20252a"/>
</svg>
