<svg xmlns="http://www.w3.org/2000/svg" width="14" height="14" viewBox="0 0 14 14"><path d="M167-793a3.37,3.37,0,0,1-2.472-1.028A3.37,3.37,0,0,1,163.5-796.5a3.37,3.37,0,0,1,1.028-2.472A3.37,3.37,0,0,1,167-800a3.37,3.37,0,0,1,2.472,1.028A3.37,3.37,0,0,1,170.5-796.5a3.37,3.37,0,0,1-1.028,2.472A3.37,3.37,0,0,1,167-793Zm-7,7v-2.45a2.563,2.563,0,0,1,.383-1.367,2.552,2.552,0,0,1,1.017-.952,12.992,12.992,0,0,1,2.756-1.017,12.04,12.04,0,0,1,2.844-.339,12.04,12.04,0,0,1,2.844.339,12.992,12.992,0,0,1,2.756,1.017,2.552,2.552,0,0,1,1.017.952A2.563,2.563,0,0,1,174-788.45V-786Zm1.75-1.75h10.5v-.7a.823.823,0,0,0-.12-.437.851.851,0,0,0-.317-.306,11.405,11.405,0,0,0-2.384-.886,10.152,10.152,0,0,0-2.428-.3,10.152,10.152,0,0,0-2.428.3,11.405,11.405,0,0,0-2.384.886.851.851,0,0,0-.317.306.823.823,0,0,0-.12.438Zm5.25-7a1.685,1.685,0,0,0,1.236-.514,1.685,1.685,0,0,0,.514-1.236,1.685,1.685,0,0,0-.514-1.236A1.685,1.685,0,0,0,167-798.25a1.685,1.685,0,0,0-1.236.514,1.685,1.685,0,0,0-.514,1.236,1.685,1.685,0,0,0,.514,1.236A1.685,1.685,0,0,0,167-794.75ZM167-796.5ZM167-787.75Z" transform="translate(-160 800)" fill="#fff"/></svg>