<svg xmlns="http://www.w3.org/2000/svg" width="36" height="36" viewBox="0 0 36 36"><g transform="translate(-270 -90)"><rect width="36" height="36" rx="6" transform="translate(270 90)" fill="#161c24"/><rect width="20" height="20" transform="translate(278 98)" opacity="0"/><path d="M40-786.8a2.928,2.928,0,0,1,.437-1.562A2.913,2.913,0,0,1,41.6-789.45a14.788,14.788,0,0,1,3.15-1.162A13.757,13.757,0,0,1,48-791a13.758,13.758,0,0,1,3.25.388,14.789,14.789,0,0,1,3.15,1.162,2.912,2.912,0,0,1,1.162,1.088A2.928,2.928,0,0,1,56-786.8v.8a1.927,1.927,0,0,1-.588,1.413A1.926,1.926,0,0,1,54-784H42a1.926,1.926,0,0,1-1.413-.588A1.927,1.927,0,0,1,40-786ZM60-784H57.45a3.655,3.655,0,0,0,.413-.963A3.99,3.99,0,0,0,58-786v-1a4.021,4.021,0,0,0-.612-2.112,5.4,5.4,0,0,0-1.738-1.738,12.609,12.609,0,0,1,2.4.512,12.548,12.548,0,0,1,2.1.888,4.434,4.434,0,0,1,1.375,1.112A2.135,2.135,0,0,1,62-787v1a1.927,1.927,0,0,1-.587,1.413A1.926,1.926,0,0,1,60-784Zm-12-8a3.851,3.851,0,0,1-2.825-1.175A3.852,3.852,0,0,1,44-796a3.854,3.854,0,0,1,1.175-2.825A3.854,3.854,0,0,1,48-800a3.854,3.854,0,0,1,2.825,1.175A3.854,3.854,0,0,1,52-796a3.852,3.852,0,0,1-1.175,2.825A3.851,3.851,0,0,1,48-792Zm10-4a3.852,3.852,0,0,1-1.175,2.825A3.851,3.851,0,0,1,54-792a4.971,4.971,0,0,1-.7-.063,5.962,5.962,0,0,1-.7-.138,5.941,5.941,0,0,0,1.038-1.775A5.762,5.762,0,0,0,54-796a5.766,5.766,0,0,0-.363-2.025A5.955,5.955,0,0,0,52.6-799.8a3.029,3.029,0,0,1,.7-.162A6.642,6.642,0,0,1,54-800a3.854,3.854,0,0,1,2.825,1.175A3.854,3.854,0,0,1,58-796ZM42-786H54v-.8a.942.942,0,0,0-.138-.5.976.976,0,0,0-.363-.35,13.06,13.06,0,0,0-2.725-1.012A11.6,11.6,0,0,0,48-789a11.6,11.6,0,0,0-2.775.338A13.061,13.061,0,0,0,42.5-787.65a.977.977,0,0,0-.362.35.941.941,0,0,0-.138.5Zm6-8a1.926,1.926,0,0,0,1.413-.588A1.926,1.926,0,0,0,50-796a1.927,1.927,0,0,0-.588-1.413A1.928,1.928,0,0,0,48-798a1.928,1.928,0,0,0-1.412.587A1.927,1.927,0,0,0,46-796a1.926,1.926,0,0,0,.587,1.413A1.926,1.926,0,0,0,48-794ZM48-786ZM48-796Z" transform="translate(237 900)" fill="#fff"/></g></svg>