<svg xmlns="http://www.w3.org/2000/svg" width="36" height="36" viewBox="0 0 36 36"><g transform="translate(-270 -90)"><rect width="36" height="36" rx="6" transform="translate(270 90)" fill="#161c24"/><rect width="20" height="20" transform="translate(278 98)" opacity="0"/><path d="M120-831.111V-840h8.889v8.889Zm2.222-2.222h4.444v-4.444h-4.444ZM120-820v-8.889h8.889V-820Zm2.222-2.222h4.444v-4.444h-4.444Zm8.889-8.889V-840H140v8.889Zm2.222-2.222h4.444v-4.444h-4.444ZM137.778-820v-2.222H140V-820Zm-6.667-6.667v-2.222h2.222v2.222Zm2.222,2.222v-2.222h2.222v2.222Zm-2.222,2.222v-2.222h2.222v2.222ZM133.333-820v-2.222h2.222V-820Zm2.222-2.222v-2.222h2.222v2.222Zm0-4.444v-2.222h2.222v2.222Zm2.222,2.222v-2.222H140v2.222Z" transform="translate(158 938)" fill="#fff"/></g></svg>