<svg xmlns="http://www.w3.org/2000/svg" width="12" height="14.769" viewBox="0 0 12 14.769"><path d="M186-850.5a2.545,2.545,0,0,1-1.848-.733,2.416,2.416,0,0,1-.752-1.8,2.417,2.417,0,0,1,.752-1.8,2.545,2.545,0,0,1,1.848-.733,2.545,2.545,0,0,1,1.848.733,2.416,2.416,0,0,1,.752,1.8,2.416,2.416,0,0,1-.752,1.8A2.545,2.545,0,0,1,186-850.5Zm0-1.169a1.374,1.374,0,0,0,1-.391,1.3,1.3,0,0,0,.4-.973,1.3,1.3,0,0,0-.4-.973,1.374,1.374,0,0,0-1-.391,1.374,1.374,0,0,0-1,.391,1.3,1.3,0,0,0-.4.973,1.3,1.3,0,0,0,.4.973A1.374,1.374,0,0,0,186-851.668Zm0,7.977a7.726,7.726,0,0,1-4.3-2.978,8.363,8.363,0,0,1-1.7-5.116v-4.486l6-2.189,6,2.189v4.486a8.363,8.363,0,0,1-1.7,5.116A7.726,7.726,0,0,1,186-843.691ZM186-851.075Zm0-6.14-4.8,1.747v3.684a7.127,7.127,0,0,0,.327,2.152,7.947,7.947,0,0,0,.908,1.939,8.574,8.574,0,0,1,1.695-.628,7.525,7.525,0,0,1,1.87-.226,7.525,7.525,0,0,1,1.87.226,8.573,8.573,0,0,1,1.695.628,7.946,7.946,0,0,0,.908-1.939,7.126,7.126,0,0,0,.327-2.152v-3.684Zm0,9.836a6.657,6.657,0,0,0-1.488.163,6.778,6.778,0,0,0-1.35.459,7.063,7.063,0,0,0,1.31,1.115,5.918,5.918,0,0,0,1.528.719,5.855,5.855,0,0,0,1.525-.719,7.122,7.122,0,0,0,1.306-1.115,6.792,6.792,0,0,0-1.346-.459A6.606,6.606,0,0,0,186-847.379Z" transform="translate(-180.001 858.46)" fill="#a7b1bb"/></svg>