<svg xmlns="http://www.w3.org/2000/svg" width="58" height="58" viewBox="0 0 58 58">
  <g id="그룹_127379" data-name="그룹 127379" transform="translate(-1580 -71)">
    <rect id="사각형_25242" data-name="사각형 25242" width="58" height="58" transform="translate(1580 71)" fill="rgba(255,132,132,0)"/>
    <path id="합치기_38" data-name="합치기 38" d="M-3382.426-4934.68a14.688,14.688,0,0,1-4.93-3.016,5.182,5.182,0,0,1-1.643-3.683v-13.576c0-.032,0-.062,0-.093v-25.826q0-3.776,6.734-6.451A44.094,44.094,0,0,1-3366-4990a44.088,44.088,0,0,1,16.266,2.676q6.732,2.675,6.734,6.451v39.495a5.183,5.183,0,0,1-1.644,3.683,14.7,14.7,0,0,1-4.93,3.016c-4.364,1.778-9.891,2.68-16.425,2.68S-3378.062-4932.9-3382.426-4934.68Zm-2.515-6.448a4.975,4.975,0,0,0,2.287,2,22.625,22.625,0,0,0,4.368,1.649,42.151,42.151,0,0,0,5.8,1.144,50.165,50.165,0,0,0,6.489.419,49.682,49.682,0,0,0,6.468-.419,42.19,42.19,0,0,0,5.777-1.144,21.719,21.719,0,0,0,4.388-1.683,5.22,5.22,0,0,0,2.308-2.01v-7.918a25.419,25.419,0,0,1-3.825,1.679,35.4,35.4,0,0,1-4.546,1.244,48.819,48.819,0,0,1-5.091.764c-1.768.173-3.612.261-5.48.261-1.9,0-3.78-.093-5.587-.274a50.112,50.112,0,0,1-5.132-.774,35.324,35.324,0,0,1-4.5-1.232,22.33,22.33,0,0,1-3.723-1.667Zm0-13.668a4.957,4.957,0,0,0,2.287,2,22.581,22.581,0,0,0,4.367,1.649,42.028,42.028,0,0,0,5.8,1.143,49.848,49.848,0,0,0,6.489.418,49.4,49.4,0,0,0,6.468-.418,42.148,42.148,0,0,0,5.777-1.143,21.664,21.664,0,0,0,4.388-1.682,5.187,5.187,0,0,0,2.307-2.011v-7.413a25.106,25.106,0,0,1-3.823,1.678,35.536,35.536,0,0,1-4.546,1.246,49.278,49.278,0,0,1-5.091.761c-1.768.173-3.612.261-5.48.261a55.921,55.921,0,0,1-5.587-.273,49.694,49.694,0,0,1-5.132-.775,35.38,35.38,0,0,1-4.5-1.231,22.4,22.4,0,0,1-3.723-1.668Zm0-11.87a22.335,22.335,0,0,0,3.722,1.667,35.2,35.2,0,0,0,4.5,1.231,49.105,49.105,0,0,0,5.132.774,55.287,55.287,0,0,0,5.587.274q2.816,0,5.48-.26a48.732,48.732,0,0,0,5.091-.763,35.391,35.391,0,0,0,4.546-1.244,25.162,25.162,0,0,0,3.823-1.68v-9.253a25.113,25.113,0,0,1-3.823,1.681,35.154,35.154,0,0,1-4.546,1.244,48.474,48.474,0,0,1-5.091.763q-2.665.261-5.48.261a55.718,55.718,0,0,1-5.587-.274,49.105,49.105,0,0,1-5.132-.774,35.279,35.279,0,0,1-4.5-1.232,22.1,22.1,0,0,1-3.722-1.667Zm7-17.811q-5.919,1.614-6.97,3.518,1.026,1.956,6.918,3.573a45.083,45.083,0,0,0,12,1.618,45.791,45.791,0,0,0,11.913-1.612q6-1.614,6.949-3.479-.926-1.914-6.876-3.573a44.491,44.491,0,0,0-11.986-1.657A45.283,45.283,0,0,0-3377.945-4984.477ZM-3358.47-4940v-2a1.5,1.5,0,0,1,1.5-1.5,1.5,1.5,0,0,1,1.5,1.5v2a1.5,1.5,0,0,1-1.5,1.5A1.5,1.5,0,0,1-3358.47-4940Zm4-1v-2a1.5,1.5,0,0,1,1.5-1.5,1.5,1.5,0,0,1,1.5,1.5v2a1.5,1.5,0,0,1-1.5,1.5A1.5,1.5,0,0,1-3354.47-4941Zm-4-13v-2a1.5,1.5,0,0,1,1.5-1.5,1.5,1.5,0,0,1,1.5,1.5v2a1.5,1.5,0,0,1-1.5,1.5A1.5,1.5,0,0,1-3358.47-4954Zm4-1v-2a1.5,1.5,0,0,1,1.5-1.5,1.5,1.5,0,0,1,1.5,1.5v2a1.5,1.5,0,0,1-1.5,1.5A1.5,1.5,0,0,1-3354.47-4955Zm-4-12v-2a1.5,1.5,0,0,1,1.5-1.5,1.5,1.5,0,0,1,1.5,1.5v2a1.5,1.5,0,0,1-1.5,1.5A1.5,1.5,0,0,1-3358.47-4967Zm4-1v-2a1.5,1.5,0,0,1,1.5-1.5,1.5,1.5,0,0,1,1.5,1.5v2a1.5,1.5,0,0,1-1.5,1.5A1.5,1.5,0,0,1-3354.47-4968Z" transform="translate(4975 5061)" fill="#526796"/>
  </g>
</svg>
