<svg xmlns="http://www.w3.org/2000/svg" width="16" height="16" viewBox="0 0 16 16"><g transform="translate(-356 -346)"><rect width="16" height="16" transform="translate(356 346)" fill="rgba(255,0,0,0)"/><path d="M107-849.683a3.2,3.2,0,0,0,2.348-.968,3.2,3.2,0,0,0,.968-2.348,3.2,3.2,0,0,0-.968-2.348,3.2,3.2,0,0,0-2.348-.968,3.2,3.2,0,0,0-2.348.968,3.2,3.2,0,0,0-.968,2.348,3.2,3.2,0,0,0,.968,2.348A3.2,3.2,0,0,0,107-849.683ZM107-846a6.819,6.819,0,0,1-2.73-.551,7.072,7.072,0,0,1-2.223-1.5,7.067,7.067,0,0,1-1.5-2.222A6.812,6.812,0,0,1,100-853a6.819,6.819,0,0,1,.551-2.73,7.071,7.071,0,0,1,1.5-2.223,7.068,7.068,0,0,1,2.222-1.5A6.813,6.813,0,0,1,107-860a6.819,6.819,0,0,1,2.73.551,7.072,7.072,0,0,1,2.223,1.5,7.067,7.067,0,0,1,1.5,2.222A6.812,6.812,0,0,1,114-853a6.819,6.819,0,0,1-.551,2.73,7.07,7.07,0,0,1-1.5,2.223,7.068,7.068,0,0,1-2.222,1.5A6.813,6.813,0,0,1,107-846Zm0-1.105a5.689,5.689,0,0,0,4.182-1.713A5.689,5.689,0,0,0,112.9-853a5.689,5.689,0,0,0-1.713-4.182A5.689,5.689,0,0,0,107-858.894a5.689,5.689,0,0,0-4.182,1.713A5.689,5.689,0,0,0,101.106-853a5.689,5.689,0,0,0,1.713,4.182A5.689,5.689,0,0,0,107-847.1ZM107-853Z" transform="translate(256.999 1206.999)" fill="#637381"/></g></svg>