<svg xmlns="http://www.w3.org/2000/svg" width="16.001" height="16" viewBox="0 0 16.001 16"><g transform="translate(-915 -528)"><rect width="16" height="16" transform="translate(915 528)" fill="rgba(255,0,0,0)"/><path d="M79.224-764.46a1.186,1.186,0,0,1-.909-.416,1.433,1.433,0,0,1-.378-1v-2.357h2.474v-2.593a3.519,3.519,0,0,1-1.55-.211,3.251,3.251,0,0,1-1.324-.909v-1.182h-1.1l-2.59-2.847a4.387,4.387,0,0,1,1.793-1.319,5.739,5.739,0,0,1,2.113-.407,5.3,5.3,0,0,1,1.364.176,4.574,4.574,0,0,1,1.295.58v-1.514h9.435v11.642a2.4,2.4,0,0,1-.623,1.673,1.979,1.979,0,0,1-1.522.685Zm2.474-3.772h5.146v1.414a.962.962,0,0,0,.247.672.793.793,0,0,0,.611.271.793.793,0,0,0,.611-.271.962.962,0,0,0,.247-.672v-10.228H81.7v1.037l4.932,5.422v.994h-.9L83.2-772.37l-.328.361a4.481,4.481,0,0,1-.562.526,2.858,2.858,0,0,1-.61.365Zm-4.714-6.311h1.841v1.937a2.2,2.2,0,0,0,.676.332,2.5,2.5,0,0,0,.657.089,2.406,2.406,0,0,0,.977-.192,2.528,2.528,0,0,0,.84-.635l.32-.352-1.349-1.483a4.375,4.375,0,0,0-1.468-1.08,4.214,4.214,0,0,0-1.725-.36,4.083,4.083,0,0,0-1.017.125,4.565,4.565,0,0,0-.916.339Zm8.574,7.725H79.224v.943h6.529a1.579,1.579,0,0,1-.15-.442A2.729,2.729,0,0,1,85.558-766.817Zm-6.334.943v0Z" transform="translate(841.153 1307.46)" fill="#a7b1bb"/></g></svg>