<svg xmlns="http://www.w3.org/2000/svg" width="58" height="58" viewBox="0 0 58 58">
  <g id="그룹_127376" data-name="그룹 127376" transform="translate(-69 -71)">
    <rect id="사각형_25242" data-name="사각형 25242" width="58" height="58" transform="translate(69 71)" fill="rgba(255,132,132,0)"/>
    <path id="cloud_upload_FILL0_wght300_GRAD0_opsz24" d="M73.811-738.57a13.425,13.425,0,0,1-9.768-3.972A13.092,13.092,0,0,1,60-752.252a13.582,13.582,0,0,1,3.312-9.053,12.947,12.947,0,0,1,8.214-4.629,17.258,17.258,0,0,1,6.228-10.129A17.455,17.455,0,0,1,89-780a17.32,17.32,0,0,1,12.727,5.226,17.32,17.32,0,0,1,5.225,12.727v1.381h.85a10.674,10.674,0,0,1,7.282,3.511A10.757,10.757,0,0,1,118-749.618a10.706,10.706,0,0,1-3.187,7.834,10.573,10.573,0,0,1-7.808,3.213H91.922a4.819,4.819,0,0,1-3.543-1.45,4.82,4.82,0,0,1-1.45-3.543V-758.69l-5.11,5.025-2.911-2.884L89-766.641l10.092,10.092-2.911,2.884-5.11-5.025v15.127a.813.813,0,0,0,.266.584.812.812,0,0,0,.584.266h15.031a6.667,6.667,0,0,0,4.9-2,6.667,6.667,0,0,0,2-4.9,6.668,6.668,0,0,0-2-4.9,6.668,6.668,0,0,0-4.9-2h-4.143v-5.524a13.309,13.309,0,0,0-4.039-9.77A13.31,13.31,0,0,0,89-775.856a13.31,13.31,0,0,0-9.77,4.039,13.309,13.309,0,0,0-4.039,9.77H73.757a9.265,9.265,0,0,0-6.769,2.831,9.292,9.292,0,0,0-2.844,6.836,9.314,9.314,0,0,0,2.831,6.836,9.314,9.314,0,0,0,6.836,2.831h6.9v4.143ZM89-757.213Z" transform="translate(8.999 859.285)" fill="#526796"/>
  </g>
</svg>
