<svg id="ico_aichat_pdfsquare" xmlns="http://www.w3.org/2000/svg" xmlns:xlink="http://www.w3.org/1999/xlink" width="58" height="58" viewBox="0 0 58 58">
  <defs>
    <filter id="패스_6946" x="0" y="2" width="58" height="56" filterUnits="userSpaceOnUse">
      <feOffset dy="3" input="SourceAlpha"/>
      <feGaussianBlur stdDeviation="3" result="blur"/>
      <feFlood flood-opacity="0.102"/>
      <feComposite operator="in" in2="blur"/>
      <feComposite in="SourceGraphic"/>
    </filter>
  </defs>
  <rect id="boundary" width="50" height="50" transform="translate(4)" fill="rgba(159,209,92,0)"/>
  <g transform="matrix(1, 0, 0, 1, 0, 0)" filter="url(#패스_6946)">
    <path id="패스_6946-2" data-name="패스 6946" d="M32.27,45.819C44.4,44.284,49,38.594,49,38.594c-2.33-.562-4.47-2.86-4.18-5.158a21.657,21.657,0,0,1,.46-2.238,19.3,19.3,0,0,0,.45-4.124c0-10.5-7.32-19.005-17.78-19.005A18.973,18.973,0,0,0,9,27.065c0,10.5,9.61,19.005,19.45,19.005a22.5,22.5,0,0,0,3.83-.261Z" transform="translate(0 -0.07)" fill="#d2342c"/>
  </g>
  <g id="logo" transform="translate(11 11)">
    <g id="그룹_163438" data-name="그룹 163438">
      <g id="그룹_163435" data-name="그룹 163435">
        <rect id="사각형_5428" data-name="사각형 5428" width="20.399" height="20.399" transform="translate(15.97 1.562) rotate(45)" fill="none" stroke="rgba(142,202,233,0.08)" stroke-miterlimit="10" stroke-width="5"/>
        <rect id="사각형_5429" data-name="사각형 5429" width="32" height="32" rx="16" fill="#d2342c"/>
        <path id="패스_6954" data-name="패스 6954" d="M34.555,19.95,20.13,34.375,34.555,48.8,48.979,34.375ZM20.975,34.375,34.555,20.8l13.58,13.58-13.58,13.58Z" transform="translate(-18.555 -18.389)" fill="#e17a75"/>
      </g>
      <g id="그룹_163436" data-name="그룹 163436" transform="translate(17.844 13.715)">
        <path id="패스_6955" data-name="패스 6955" d="M240.445,193.286c-2.85,0-4.838-1.489-4.947-3.706L235.47,189h2.611a3.125,3.125,0,0,1-1.024-5.732,6.084,6.084,0,0,1,3.34-.9c2.72,0,4.708,1.463,4.834,3.556l.035.588h-2.432a3.152,3.152,0,0,1,2.558,3.119C245.391,191.75,243.311,193.286,240.445,193.286Zm-1.1-3.82c.049.307.541.538,1.145.538a1.888,1.888,0,0,0,.966-.207,5.328,5.328,0,0,0-1.718-.43c-.138-.021-.279-.044-.419-.069Zm.146-3.716a6.776,6.776,0,0,0,1.678.4l.234.037-.022-.133c-.044-.264-.488-.463-1.035-.463a1.885,1.885,0,0,0-.856.163Z" transform="translate(-234.887 -181.814)" fill="#ff9f9b"/>
        <path id="패스_6956" data-name="패스 6956" d="M233.53,176.37c2.332,0,4.169,1.182,4.281,3.035h-2.747c-.1-.575-.75-.927-1.581-.927s-1.485.3-1.485.718c0,.463.623.687,2.22.942,2.763.416,3.753,1.326,3.753,2.938,0,1.916-2.013,3.1-4.392,3.1s-4.3-1.214-4.392-3.179h2.748c.1.607.8,1.006,1.693,1.006s1.582-.336,1.582-.767-.639-.735-2.252-.974c-2.236-.336-3.705-1.022-3.705-2.923s1.9-2.971,4.281-2.971m0-1.109a6.641,6.641,0,0,0-3.648.989,3.663,3.663,0,0,0-1.742,3.091,3.441,3.441,0,0,0,.995,2.549H228.02l.057,1.163a4.071,4.071,0,0,0,1.786,3.179,6.414,6.414,0,0,0,3.715,1.054c3.187,0,5.5-1.769,5.5-4.208a3.4,3.4,0,0,0-1.011-2.564h.92l-.071-1.176c-.145-2.4-2.36-4.077-5.388-4.077h0Z" transform="translate(-228.02 -175.26)" fill="#d2342c"/>
      </g>
      <g id="그룹_163437" data-name="그룹 163437" transform="translate(3.802 6.234)">
        <path id="패스_6957" data-name="패스 6957" d="M57.09,106.288V88.17h6.749a7.291,7.291,0,0,1,5.212,1.866,6.679,6.679,0,0,1,1.9,4.936,6.772,6.772,0,0,1-1.9,4.972,7.27,7.27,0,0,1-5.213,1.873H61.913v4.469H57.09Zm6.6-9.117c1.621,0,2.442-.74,2.442-2.2s-.822-2.156-2.442-2.156H61.913v4.354h1.772Z" transform="translate(-56.424 -87.504)" fill="#fffdfd"/>
        <path id="패스_6958" data-name="패스 6958" d="M55.995,80.992c4.067,0,6.447,2.431,6.447,6.138s-2.379,6.179-6.447,6.179H53.4v4.469H49.911V80.992h6.084m-2.592,9h2.438c1.938,0,3.108-.988,3.108-2.863s-1.171-2.822-3.108-2.822H53.4v5.684m2.592-10.332H48.58V99.109h6.154V94.64h1.261c4.724,0,7.777-2.948,7.777-7.51a7.329,7.329,0,0,0-2.1-5.414,7.937,7.937,0,0,0-5.676-2.055h0Zm-1.261,5.978h1.107c1.562,0,1.777.717,1.777,1.491s-.215,1.532-1.777,1.532H54.734V85.639Z" transform="translate(-48.58 -79.66)" fill="#d2342c"/>
      </g>
    </g>
  </g>
</svg>
