<svg xmlns="http://www.w3.org/2000/svg" width="16" height="16" viewBox="0 0 16 16"><g transform="translate(-273 -218)"><rect width="16" height="16" transform="translate(273 218)" fill="rgba(255,155,155,0)"/><path d="M8,1.5A6.5,6.5,0,1,0,14.5,8,6.507,6.507,0,0,0,8,1.5M8,0A8,8,0,1,1,0,8,8,8,0,0,1,8,0Z" transform="translate(273 218)" fill="#a7b1bb"/><path d="M87-876.5a.677.677,0,0,1,.5.2.677.677,0,0,1,.2.5v3.8a.677.677,0,0,1-.2.5.677.677,0,0,1-.5.2.677.677,0,0,1-.5-.2.677.677,0,0,1-.2-.5v-3.8a.677.677,0,0,1,.2-.5A.677.677,0,0,1,87-876.5Zm0,6.6a.677.677,0,0,1,.5.2.677.677,0,0,1,.2.5.677.677,0,0,1-.2.5.677.677,0,0,1-.5.2.677.677,0,0,1-.5-.2.677.677,0,0,1-.2-.5.677.677,0,0,1,.2-.5A.677.677,0,0,1,87-869.9Zm0-.1,0-2" transform="translate(194 1098.5)" fill="#a7b1bb"/></g></svg>