<svg xmlns="http://www.w3.org/2000/svg" width="16" height="16" viewBox="0 0 16 16">
  <g id="Icon_feather-search" data-name="Icon feather-search" transform="translate(-3 -3)">
    <path id="패스_17" data-name="패스 17" d="M10.2,3A7.2,7.2,0,1,1,5.109,5.109,7.153,7.153,0,0,1,10.2,3Zm0,12.8a5.6,5.6,0,1,0-5.6-5.6A5.606,5.606,0,0,0,10.2,15.8Z" transform="translate(0 0)" fill="#858f9b"/>
    <path id="패스_18" data-name="패스 18" d="M27.755,28.555a.8.8,0,0,1-.566-.234l-3.48-3.48a.8.8,0,1,1,1.131-1.131l3.48,3.48a.8.8,0,0,1-.566,1.366Z" transform="translate(-9.555 -9.555)" fill="#858f9b"/>
  </g>
</svg>
