<svg xmlns="http://www.w3.org/2000/svg" width="14.25" height="15" viewBox="0 0 14.25 15"><path d="M167.5-865v-2.306l4.144-4.125a1.025,1.025,0,0,1,.375-.244,1.184,1.184,0,0,1,.413-.074,1.122,1.122,0,0,1,.431.084,1.109,1.109,0,0,1,.375.254l.694.692a1.312,1.312,0,0,1,.234.375,1.074,1.074,0,0,1,.084.413,1.285,1.285,0,0,1-.075.422,1.025,1.025,0,0,1-.244.385L169.806-865Zm5.625-4.931-.694-.694Zm-4.5,3.807h.712l2.269-2.288-.337-.356-.356-.338-2.287,2.269ZM161.5-865a1.447,1.447,0,0,1-1.06-.44,1.448,1.448,0,0,1-.44-1.06v-12a1.443,1.443,0,0,1,.44-1.06A1.445,1.445,0,0,1,161.5-880h6l4.5,4.5v2.251h-1.5v-1.5h-3.75V-878.5H161.5v12H166v1.5ZM166.75-872.5Zm4.519,3.731-.356-.338.694.694Z" transform="translate(-160 880)" fill="#a7b1bb"/></svg>