<svg xmlns="http://www.w3.org/2000/svg" xmlns:xlink="http://www.w3.org/1999/xlink" width="26.6" height="23.77" viewBox="0 0 26.6 23.77">
  <defs>
    <clipPath id="clip-path">
      <rect id="사각형_2595" data-name="사각형 2595" width="26.6" height="23.77" fill="none"/>
    </clipPath>
  </defs>
  <g id="iCon" transform="translate(0 0)">
    <g id="그룹_2133" data-name="그룹 2133" transform="translate(0 0)" clip-path="url(#clip-path)">
      <path id="패스_3968" data-name="패스 3968" d="M14.437,10.554a3.883,3.883,0,1,1-3.883-3.883,3.883,3.883,0,0,1,3.883,3.883" transform="translate(-3.327 -3.327)" fill="#ffe25e"/>
      <path id="패스_3969" data-name="패스 3969" d="M9.93,14.441a4.51,4.51,0,1,1,4.51-4.51,4.515,4.515,0,0,1-4.51,4.51m0-7.767a3.257,3.257,0,1,0,3.257,3.257A3.261,3.261,0,0,0,9.93,6.674" transform="translate(-2.703 -2.704)" fill="#858f9b"/>
      <line id="선_24" data-name="선 24" y1="0.923" transform="translate(7.227 0.626)" fill="#c3e0fc"/>
      <path id="패스_3970" data-name="패스 3970" d="M13.795,2.176a.627.627,0,0,1-.627-.627V.627a.627.627,0,1,1,1.253,0V1.55a.627.627,0,0,1-.627.627" transform="translate(-6.568 0)" fill="#858f9b"/>
      <line id="선_25" data-name="선 25" x1="0.653" y1="0.653" transform="translate(2.56 2.56)" fill="#c3e0fc"/>
      <path id="패스_3971" data-name="패스 3971" d="M5.136,5.762a.625.625,0,0,1-.443-.183L4.04,4.926a.627.627,0,0,1,.887-.886l.653.653a.627.627,0,0,1-.443,1.07" transform="translate(-1.924 -1.923)" fill="#858f9b"/>
      <line id="선_26" data-name="선 26" x1="0.923" transform="translate(0.626 7.227)" fill="#c3e0fc"/>
      <path id="패스_3972" data-name="패스 3972" d="M1.55,14.421H.627a.627.627,0,1,1,0-1.253H1.55a.627.627,0,1,1,0,1.253" transform="translate(0 -6.568)" fill="#858f9b"/>
      <line id="선_27" data-name="선 27" x1="0.653" y2="0.653" transform="translate(2.56 11.242)" fill="#c3e0fc"/>
      <path id="패스_3973" data-name="패스 3973" d="M4.484,23.083a.627.627,0,0,1-.443-1.07l.653-.653a.627.627,0,0,1,.887.886l-.653.653a.625.625,0,0,1-.443.183" transform="translate(-1.924 -10.562)" fill="#858f9b"/>
      <line id="선_28" data-name="선 28" y1="0.653" x2="0.653" transform="translate(11.241 2.56)" fill="#c3e0fc"/>
      <path id="패스_3974" data-name="패스 3974" d="M21.8,5.762a.627.627,0,0,1-.443-1.07l.653-.653a.627.627,0,0,1,.887.886l-.653.653a.625.625,0,0,1-.443.183" transform="translate(-10.562 -1.923)" fill="#858f9b"/>
      <path id="패스_3975" data-name="패스 3975" d="M30.625,17.43a4.014,4.014,0,0,1-4.014,4.014h-14.8a2.489,2.489,0,1,1,0-4.978c.073,0,.142,0,.215.01a3.406,3.406,0,0,1-.215-1.2,3.489,3.489,0,0,1,5.692-2.709,4.6,4.6,0,0,1,9.2.019,4.456,4.456,0,0,1-.079.828,4.015,4.015,0,0,1,3.992,4.014" transform="translate(-4.651 -3.983)" fill="#fff"/>
      <path id="패스_3976" data-name="패스 3976" d="M25.987,21.447h-14.8a3.116,3.116,0,0,1-.58-6.177,4.067,4.067,0,0,1-.047-.616,4.114,4.114,0,0,1,5.8-3.757,5.228,5.228,0,0,1,10.346,1.067c0,.085,0,.171-.007.258a4.641,4.641,0,0,1-.721,9.225m-14.8-4.978a1.863,1.863,0,1,0,0,3.725h14.8a3.388,3.388,0,0,0,.019-6.775.626.626,0,0,1-.612-.742,3.846,3.846,0,0,0,.068-.713,3.975,3.975,0,0,0-7.951-.017.626.626,0,0,1-1.022.483,2.827,2.827,0,0,0-1.8-.643,2.87,2.87,0,0,0-2.866,2.866,2.8,2.8,0,0,0,.175.979.627.627,0,0,1-.642.843c-.055-.005-.106-.007-.16-.007" transform="translate(-4.027 -3.359)" fill="#858f9b"/>
      <line id="선_29" data-name="선 29" x1="0.626" y2="3.23" transform="translate(18.987 19.914)" fill="#c3e0fc"/>
      <path id="패스_3977" data-name="패스 3977" d="M37.256,42.961a.658.658,0,0,1-.12-.011.628.628,0,0,1-.5-.735l.627-3.23a.627.627,0,0,1,1.231.239l-.626,3.23a.628.628,0,0,1-.615.507" transform="translate(-18.269 -19.191)" fill="#3fa9f5"/>
      <line id="선_30" data-name="선 30" x1="0.626" y2="3.23" transform="translate(14.61 19.914)" fill="#c3e0fc"/>
      <path id="패스_3978" data-name="패스 3978" d="M28.523,42.961a.658.658,0,0,1-.12-.011.628.628,0,0,1-.5-.735l.627-3.23a.627.627,0,0,1,1.231.239l-.626,3.23a.628.628,0,0,1-.615.507" transform="translate(-13.913 -19.191)" fill="#3fa9f5"/>
      <line id="선_31" data-name="선 31" x1="0.626" y2="3.23" transform="translate(10.233 19.914)" fill="#c3e0fc"/>
      <path id="패스_3979" data-name="패스 3979" d="M19.792,42.961a.649.649,0,0,1-.12-.011.628.628,0,0,1-.5-.735l.627-3.23a.627.627,0,1,1,1.23.239l-.626,3.23a.627.627,0,0,1-.615.507" transform="translate(-9.558 -19.191)" fill="#3fa9f5"/>
    </g>
  </g>
</svg>
