<svg xmlns="http://www.w3.org/2000/svg" width="36" height="36" viewBox="0 0 36 36"><g transform="translate(-270 -90)"><rect width="36" height="36" rx="6" transform="translate(270 90)" fill="#161c24"/><rect width="20" height="20" transform="translate(278 98)" opacity="0"/><path d="M45.727-826.636a1.838,1.838,0,0,1-1.348-.561,1.838,1.838,0,0,1-.561-1.348v-9.545a1.838,1.838,0,0,1,.561-1.348A1.838,1.838,0,0,1,45.727-840H59.091a1.838,1.838,0,0,1,1.348.561A1.838,1.838,0,0,1,61-838.091v9.545a1.838,1.838,0,0,1-.561,1.348,1.838,1.838,0,0,1-1.348.561ZM51.86-831.5l-6.133-4.271v7.231H59.091v-7.231L52.958-831.5a.92.92,0,0,1-.549.191A.92.92,0,0,1,51.86-831.5Zm.549-1.957,6.682-4.63H45.727Zm-10.5,10.643a1.839,1.839,0,0,1-1.348-.561A1.839,1.839,0,0,1,40-824.727V-835.7a.924.924,0,0,1,.274-.68.923.923,0,0,1,.68-.274.923.923,0,0,1,.68.274.924.924,0,0,1,.274.68v10.977H56.7a.924.924,0,0,1,.68.274.924.924,0,0,1,.274.68.923.923,0,0,1-.274.68.924.924,0,0,1-.68.274Zm17.182-13.029v-2.243H45.727v0H59.091Z" transform="translate(238 939)" fill="#fff"/></g></svg>