<svg xmlns="http://www.w3.org/2000/svg" width="15" height="16" viewBox="0 0 15 16"><g transform="translate(-31 -450.5)"><path d="M161.474-866a1.407,1.407,0,0,1-1.041-.441A1.457,1.457,0,0,1,160-867.5v-11a1.457,1.457,0,0,1,.433-1.059,1.407,1.407,0,0,1,1.041-.441h5.895l4.421,4.5v2.25h-1.474v-1.5h-3.684v-3.75h-5.158v11h4.421v1.5ZM166.632-872.5Z" transform="translate(-129 1330.5)" fill="#fff"/><path d="M320,239.5a4,4,0,1,1,4-4A4,4,0,0,1,320,239.5Zm-1.747-7.179h0v6.358l4.995-3.179-4.995-3.179Z" transform="translate(-278 227)" fill="#fff"/></g></svg>