<svg xmlns="http://www.w3.org/2000/svg" width="24" height="24" viewBox="0 0 24 24"><g transform="translate(-389 -253)"><circle cx="12" cy="12" r="12" transform="translate(389 253)" fill="#bac3d2"/><rect width="12" height="12" transform="translate(395 259)" opacity="0"/><path d="M192.817-523.6a.916.916,0,0,1-.673-.274.916.916,0,0,1-.274-.673.916.916,0,0,1,.274-.673.916.916,0,0,1,.673-.274h10.105a.916.916,0,0,1,.673.274.916.916,0,0,1,.274.673.916.916,0,0,1-.274.673.916.916,0,0,1-.673.274Z" transform="translate(203.13 789.5)" fill="#fff"/></g></svg>