<svg id="ico_aichat_proworks" xmlns="http://www.w3.org/2000/svg" xmlns:xlink="http://www.w3.org/1999/xlink" width="58" height="58" viewBox="0 0 58 58">
  <defs>
    <filter id="패스_6946" x="0" y="2" width="58" height="56" filterUnits="userSpaceOnUse">
      <feOffset dy="3" input="SourceAlpha"/>
      <feGaussianBlur stdDeviation="3" result="blur"/>
      <feFlood flood-opacity="0.102"/>
      <feComposite operator="in" in2="blur"/>
      <feComposite in="SourceGraphic"/>
    </filter>
  </defs>
  <rect id="boundary" width="50" height="50" transform="translate(4)" fill="rgba(159,209,92,0)"/>
  <g transform="matrix(1, 0, 0, 1, 0, 0)" filter="url(#패스_6946)">
    <path id="패스_6946-2" data-name="패스 6946" d="M32.27,45.819C44.4,44.284,49,38.594,49,38.594c-2.33-.562-4.47-2.86-4.18-5.158a21.657,21.657,0,0,1,.46-2.238,19.3,19.3,0,0,0,.45-4.124c0-10.5-7.32-19.005-17.78-19.005A18.973,18.973,0,0,0,9,27.065c0,10.5,9.61,19.005,19.45,19.005a22.5,22.5,0,0,0,3.83-.261Z" transform="translate(0 -0.07)" fill="#98d447"/>
  </g>
  <g id="logo" transform="translate(11 11)">
    <g id="그룹_163443" data-name="그룹 163443">
      <g id="그룹_163439" data-name="그룹 163439">
        <rect id="사각형_5430" data-name="사각형 5430" width="20.399" height="20.399" transform="translate(15.97 1.562) rotate(45)" fill="none" stroke="rgba(142,202,233,0.08)" stroke-miterlimit="10" stroke-width="5"/>
        <rect id="사각형_5431" data-name="사각형 5431" width="32" height="32" rx="16" fill="#98d447"/>
        <path id="패스_6959" data-name="패스 6959" d="M34.555,19.95,20.13,34.375,34.555,48.8,48.979,34.375ZM20.975,34.375,34.555,20.8l13.58,13.58-13.58,13.58Z" transform="translate(-18.555 -18.389)" fill="#c9ee97"/>
      </g>
      <g id="그룹_163442" data-name="그룹 163442" transform="translate(3.694 6.958)">
        <g id="그룹_163440" data-name="그룹 163440" transform="translate(0 5.875)">
          <path id="패스_6960" data-name="패스 6960" d="M53.57,184.677v-14.1h3.374v.243a5,5,0,0,1,2.145-.454,5.436,5.436,0,0,1,0,10.859,5,5,0,0,1-2.145-.454v3.9H53.57Zm5.384-11.113a2.245,2.245,0,0,0,0,4.471,1.975,1.975,0,0,0,1.964-2.236A2,2,0,0,0,58.954,173.564Z" transform="translate(-53.072 -169.872)" fill="#c5f22c"/>
          <path id="패스_6961" data-name="패스 6961" d="M53.227,165a4.939,4.939,0,0,1,0,9.863,4.249,4.249,0,0,1-2.643-.839v4.287H48.2v-13.1h2.38v.628a4.248,4.248,0,0,1,2.643-.839m-.135,7.664a2.748,2.748,0,0,0,0-5.465,2.74,2.74,0,0,0,0,5.465M53.227,164a5.753,5.753,0,0,0-1.648.232v-.02H47.21V179.3h4.369v-3.68a5.746,5.746,0,0,0,1.648.232,5.53,5.53,0,0,0,4.059-1.722,6.292,6.292,0,0,0,0-8.409A5.53,5.53,0,0,0,53.227,164Zm-.135,7.664a1.75,1.75,0,0,1,0-3.476c.937,0,1.467.682,1.467,1.738s-.576,1.738-1.467,1.738Z" transform="translate(-47.21 -164)" fill="#98d447"/>
        </g>
        <g id="그룹_163441" data-name="그룹 163441" transform="translate(11.133)">
          <path id="패스_6962" data-name="패스 6962" d="M203.372,113.788a6.958,6.958,0,0,1-4.686-1.566,6.128,6.128,0,0,1-1.98-4.213l-.046-.56h4.72l.049.462a1.671,1.671,0,0,0,1.942,1.664,2.165,2.165,0,0,0-.062-4.313,2.287,2.287,0,0,0-1.957.924l-.155.211h-4.211l.548-10.859h11.639v4.233H201.92l-.106,1.794a5.989,5.989,0,0,1,2.136-.372c3.674,0,6.048,2.439,6.048,6.213a6.246,6.246,0,0,1-1.919,4.64,6.834,6.834,0,0,1-4.708,1.739Z" transform="translate(-196.098 -95.022)" fill="#fff"/>
          <path id="패스_6963" data-name="패스 6963" d="M202.038,89.955v3.2h-7.224l-.185,3.158a5.2,5.2,0,0,1,2.7-.7c3.3,0,5.532,2.126,5.532,5.7s-2.642,5.862-6.11,5.862c-3.654,0-5.882-2.064-6.151-5.3H194.3a2.181,2.181,0,0,0,2.456,2.126,2.68,2.68,0,0,0-.062-5.346,2.785,2.785,0,0,0-2.373,1.135h-3.406l.5-9.826h10.63m1.034-1.034H190.425l-.049.981-.5,9.826-.055,1.085h5.017l.31-.423a1.774,1.774,0,0,1,1.54-.713c1.227,0,1.484.886,1.484,1.629a1.465,1.465,0,0,1-1.423,1.65c-1.081,0-1.348-.46-1.429-1.2l-.1-.923H189.48l.092,1.119c.319,3.857,3.071,6.253,7.181,6.253a7.347,7.347,0,0,0,5.061-1.878,6.759,6.759,0,0,0,2.082-5.018,6.836,6.836,0,0,0-1.827-4.915,6.491,6.491,0,0,0-4.738-1.815,6.777,6.777,0,0,0-1.578.182l.034-.57h7.283V88.922h0Z" transform="translate(-189.48 -88.92)" fill="#98d447"/>
        </g>
      </g>
    </g>
  </g>
</svg>
