<svg xmlns="http://www.w3.org/2000/svg" width="14" height="14" viewBox="0 0 14 14"><path d="M78.822-877.015a.871.871,0,0,0,.64-.263.871.871,0,0,0,.263-.64.863.863,0,0,0-.263-.638.875.875,0,0,0-.64-.26.875.875,0,0,0-.64.26.863.863,0,0,0-.263.638.871.871,0,0,0,.263.64A.871.871,0,0,0,78.822-877.015Zm-.663-2.641h1.351a2.439,2.439,0,0,1,.131-.88,2.932,2.932,0,0,1,.71-.88,4.7,4.7,0,0,0,.689-.839,1.824,1.824,0,0,0,.255-.984,1.757,1.757,0,0,0-.7-1.5,2.683,2.683,0,0,0-1.655-.521,2.419,2.419,0,0,0-1.623.535,2.835,2.835,0,0,0-.878,1.28l1.222.475a1.994,1.994,0,0,1,.384-.673,1.061,1.061,0,0,1,.875-.356.967.967,0,0,1,.754.28.9.9,0,0,1,.254.615,1.081,1.081,0,0,1-.2.617,2.533,2.533,0,0,1-.48.527,4.205,4.205,0,0,0-.916,1.018A3.2,3.2,0,0,0,78.16-879.656Zm.709,5.525a6.824,6.824,0,0,1-2.733-.551,7.064,7.064,0,0,1-2.221-1.5,7.063,7.063,0,0,1-1.5-2.221,6.824,6.824,0,0,1-.551-2.733,6.824,6.824,0,0,1,.551-2.733,7.065,7.065,0,0,1,1.5-2.221,7.064,7.064,0,0,1,2.221-1.5,6.823,6.823,0,0,1,2.733-.551,6.823,6.823,0,0,1,2.733.551,7.064,7.064,0,0,1,2.221,1.5,7.065,7.065,0,0,1,1.5,2.221,6.824,6.824,0,0,1,.551,2.733,6.824,6.824,0,0,1-.551,2.733,7.063,7.063,0,0,1-1.5,2.221,7.064,7.064,0,0,1-2.221,1.5A6.823,6.823,0,0,1,78.869-874.131Zm0-1.561a5.251,5.251,0,0,0,3.861-1.579,5.251,5.251,0,0,0,1.579-3.861,5.251,5.251,0,0,0-1.579-3.86,5.251,5.251,0,0,0-3.861-1.579,5.251,5.251,0,0,0-3.861,1.579,5.251,5.251,0,0,0-1.579,3.86,5.251,5.251,0,0,0,1.579,3.861A5.251,5.251,0,0,0,78.869-875.692ZM78.869-881.131Z" transform="translate(-71.869 888.131)" fill="#637381"/></svg>