<svg xmlns="http://www.w3.org/2000/svg" width="16" height="16" viewBox="0 0 16 16"><g transform="translate(-867 -449)"><rect width="16" height="16" transform="translate(867 449)" fill="rgba(255,0,0,0)"/><path d="M-806-2985h-7a2,2,0,0,1-2-2v-10a2,2,0,0,1,2-2h7a2,2,0,0,1,2,2v10A2,2,0,0,1-806-2985Zm-4.214-6.25a1.834,1.834,0,0,0-1.786,1.875.367.367,0,0,0,.357.375h4.285a.367.367,0,0,0,.357-.375,1.834,1.834,0,0,0-1.786-1.875Zm.715-3.75a1.468,1.468,0,0,0-1.429,1.5,1.468,1.468,0,0,0,1.429,1.5,1.467,1.467,0,0,0,1.428-1.5A1.467,1.467,0,0,0-809.5-2995Zm7,8a.5.5,0,0,1-.5-.5v-2a.5.5,0,0,1,.5-.5.5.5,0,0,1,.5.5v2A.5.5,0,0,1-802.5-2987Zm0-4a.5.5,0,0,1-.5-.5v-2a.5.5,0,0,1,.5-.5.5.5,0,0,1,.5.5v2A.5.5,0,0,1-802.5-2991Zm0-4a.5.5,0,0,1-.5-.5v-2a.5.5,0,0,1,.5-.5.5.5,0,0,1,.5.5v2A.5.5,0,0,1-802.5-2995Z" transform="translate(1684 3449)" fill="#a7b1bb"/></g></svg>