<svg xmlns="http://www.w3.org/2000/svg" width="16.002" height="16" viewBox="0 0 16.002 16"><g transform="translate(-664 -597)"><rect width="16" height="16" transform="translate(664 597)" fill="rgba(255,0,0,0)"/><path d="M6531.25-5448.42a1.2,1.2,0,0,1-.882-.365,1.2,1.2,0,0,1-.367-.881v-7.169a.6.6,0,0,1,.182-.443.6.6,0,0,1,.441-.181.6.6,0,0,1,.445.181.6.6,0,0,1,.179.443v7.169h9.659a.6.6,0,0,1,.445.18.6.6,0,0,1,.179.443.6.6,0,0,1-.179.443.6.6,0,0,1-.446.18Zm2.284-2.36a1.2,1.2,0,0,1-.88-.366,1.2,1.2,0,0,1-.366-.881v-7.167a.6.6,0,0,1,.181-.445.6.6,0,0,1,.442-.178.606.606,0,0,1,.444.178.6.6,0,0,1,.179.445v7.167h9.662a.6.6,0,0,1,.445.181.594.594,0,0,1,.179.442.6.6,0,0,1-.179.444.6.6,0,0,1-.445.179Zm2.494-2.493a1.2,1.2,0,0,1-.88-.365,1.2,1.2,0,0,1-.365-.88v-6.235a1.2,1.2,0,0,1,.365-.879,1.2,1.2,0,0,1,.88-.366h8.727a1.2,1.2,0,0,1,.881.366,1.2,1.2,0,0,1,.366.88v6.235a1.2,1.2,0,0,1-.366.88,1.207,1.207,0,0,1-.881.366Zm0-1.245h8.727v-4.723l-4,2.789a.617.617,0,0,1-.358.125.606.606,0,0,1-.358-.125l-4-2.79Zm4.364-3.212,4.363-3.023h-8.727Zm-4.364-3.023Z" transform="translate(-5866 6060)" fill="#c4cdd5"/></g></svg>