<svg xmlns="http://www.w3.org/2000/svg" width="16" height="16" viewBox="0 0 16 16"><g transform="translate(-21 -132)"><rect width="16" height="16" transform="translate(21 132)" fill="rgba(15,188,95,0)"/><path d="M8,1a7,7,0,1,0,7,7A7,7,0,0,0,8,1M8,0A8,8,0,1,1,0,8,8,8,0,0,1,8,0Z" transform="translate(21 132)" fill="#ff9800"/><path d="M124.889-829.111h1.5v-6h-1.5ZM125.639-832.111Z" transform="translate(-98.889 972.111)" fill="#ff9800"/><path d="M126.222-829.18l4-3-4-3ZM127.657-832.18Z" transform="translate(-97.222 972.179)" fill="#ff9800"/></g></svg>