<svg xmlns="http://www.w3.org/2000/svg" width="16" height="15.999" viewBox="0 0 16 15.999"><g transform="translate(-200.001 -200)"><path d="M-1054.666-9041.121l-1.352-4.053a1.282,1.282,0,0,0-.807-.807l-4.055-1.353a.177.177,0,0,1-.118-.166.178.178,0,0,1,.118-.168l4.055-1.351a1.288,1.288,0,0,0,.807-.807l1.352-4.056a.174.174,0,0,1,.166-.12.174.174,0,0,1,.166.12l1.352,4.056a1.294,1.294,0,0,0,.807.807l4.055,1.351a.177.177,0,0,1,.12.168.176.176,0,0,1-.12.166l-4.055,1.353a1.287,1.287,0,0,0-.807.807l-1.352,4.053a.174.174,0,0,1-.166.12A.174.174,0,0,1-1054.666-9041.121Zm-5.923-8.944-.727-2.182a.693.693,0,0,0-.434-.435l-2.184-.729a.091.091,0,0,1-.064-.089.1.1,0,0,1,.064-.091l2.184-.728a.694.694,0,0,0,.434-.434l.727-2.183a.1.1,0,0,1,.091-.065.1.1,0,0,1,.089.065l.727,2.183a.693.693,0,0,0,.434.434l2.184.728a.1.1,0,0,1,.064.091.091.091,0,0,1-.064.089l-2.184.729a.692.692,0,0,0-.434.435l-.727,2.182a.1.1,0,0,1-.089.066A.1.1,0,0,1-1060.59-9050.065Z" transform="translate(1264 9257)" fill="#fff"/></g></svg>