<svg xmlns="http://www.w3.org/2000/svg" width="16" height="16" viewBox="0 0 16 16"><g transform="translate(16) rotate(90)"><rect width="16" height="16" fill="#ff9600" opacity="0"/><g transform="translate(15 3.764) rotate(90)"><g transform="translate(0 0)"><path d="M.857,9.647a1,1,0,0,0,.914-1L2,.934A.858.858,0,0,0,1.143,0,1,1,0,0,0,.23,1L0,8.713A.858.858,0,0,0,.857,9.647Z" transform="translate(0 7.178) rotate(-45)" fill="#637381"/><path d="M1.143,9.647A.858.858,0,0,0,2,8.713L1.77,1A1,1,0,0,0,.857,0,.858.858,0,0,0,0,.934L.23,8.651A1,1,0,0,0,1.143,9.647Z" transform="translate(6.822 0) rotate(45)" fill="#637381"/></g></g></g></svg>