<svg xmlns="http://www.w3.org/2000/svg" width="16" height="16" viewBox="0 0 16 16"><g transform="translate(0.951 1)"><rect width="16" height="16" transform="translate(-0.951 -1)" fill="#212b36" opacity="0"/><path d="M89.975-868.975l1.05-1.05L88.25-872.8v-3.45h-1.5v4.05ZM87.5-865a7.3,7.3,0,0,1-2.925-.591,7.572,7.572,0,0,1-2.381-1.6,7.572,7.572,0,0,1-1.6-2.381A7.3,7.3,0,0,1,80-872.5a7.3,7.3,0,0,1,.591-2.925,7.573,7.573,0,0,1,1.6-2.381,7.572,7.572,0,0,1,2.381-1.6A7.3,7.3,0,0,1,87.5-880a7.3,7.3,0,0,1,2.925.591,7.573,7.573,0,0,1,2.381,1.6,7.574,7.574,0,0,1,1.6,2.381A7.3,7.3,0,0,1,95-872.5a7.3,7.3,0,0,1-.591,2.925,7.573,7.573,0,0,1-1.6,2.381,7.572,7.572,0,0,1-2.381,1.6A7.3,7.3,0,0,1,87.5-865ZM87.5-872.5Zm0,6a5.784,5.784,0,0,0,4.247-1.753A5.784,5.784,0,0,0,93.5-872.5a5.784,5.784,0,0,0-1.753-4.247A5.784,5.784,0,0,0,87.5-878.5a5.784,5.784,0,0,0-4.247,1.753A5.784,5.784,0,0,0,81.5-872.5a5.784,5.784,0,0,0,1.753,4.247A5.784,5.784,0,0,0,87.5-866.5Z" transform="translate(-79.95 880)" fill="#a7b1bb"/></g></svg>