<svg xmlns="http://www.w3.org/2000/svg" width="16" height="16" viewBox="0 0 16 16">
  <g id="그룹_163220" data-name="그룹 163220" transform="translate(-21 -101)">
    <rect id="사각형_148793" data-name="사각형 148793" width="16" height="16" transform="translate(21 101)" fill="rgba(15,188,95,0)"/>
    <path id="타원_450" data-name="타원 450" d="M8,1a7,7,0,1,0,7,7A7.008,7.008,0,0,0,8,1M8,0A8,8,0,1,1,0,8,8,8,0,0,1,8,0Z" transform="translate(21 101)" fill="#2d87e2"/>
    <path id="stop_circle_24dp_5F6368_FILL0_wght200_GRAD0_opsz24" d="M124.889-829.111h2v-6h-2ZM125.889-832.111Z" transform="translate(-98.889 941.111)" fill="#2d87e2"/>
    <path id="stop_circle_24dp_5F6368_FILL0_wght200_GRAD0_opsz24-2" data-name="stop_circle_24dp_5F6368_FILL0_wght200_GRAD0_opsz24" d="M124.889-829.111h2v-6h-2ZM125.889-832.111Z" transform="translate(-94.889 941.111)" fill="#2d87e2"/>
  </g>
</svg>
