<svg xmlns="http://www.w3.org/2000/svg" width="14.463" height="12.293" viewBox="0 0 14.463 12.293"><g transform="translate(-702.664 -772.713)"><g transform="translate(702.664 772.709)"><path d="M702.664,834.8v.76a.978.978,0,0,0,.978.978h12.507a.978.978,0,0,0,.978-.978v-.76Z" transform="translate(-702.664 -824.241)" fill="#637381"/><path d="M707.546,774.58H718.87v8.24h.891v-8.9a1.207,1.207,0,0,0-1.207-1.207H707.862a1.207,1.207,0,0,0-1.207,1.207v8.9h.891Zm5.662-1.093a.28.28,0,1,1-.28.28A.28.28,0,0,1,713.208,773.487Z" transform="translate(-705.976 -772.709)" fill="#637381"/></g><g transform="translate(706.058 776.467)"><path d="M757.069,800.5a.425.425,0,0,1-.362-.647l.9-1.475-.9-1.475a.425.425,0,1,1,.725-.444l1.038,1.7a.425.425,0,0,1,0,.444l-1.038,1.7a.425.425,0,0,1-.363.2Z" transform="translate(-750.858 -796.01)" fill="#637381"/><path d="M724.083,800.5a.425.425,0,0,1-.363-.2l-1.038-1.7a.425.425,0,0,1,0-.444l1.038-1.7a.425.425,0,1,1,.725.444l-.9,1.475.9,1.475a.425.425,0,0,1-.362.647Z" transform="translate(-722.62 -796.01)" fill="#637381"/><path d="M739.824,799.542a.426.426,0,0,1-.409-.543l1.117-3.887a.425.425,0,1,1,.817.235l-1.117,3.887a.425.425,0,0,1-.408.308Z" transform="translate(-736.544 -794.804)" fill="#637381"/></g></g></svg>