<svg xmlns="http://www.w3.org/2000/svg" width="16" height="16" viewBox="0 0 16 16"><g transform="translate(-1548 -128)"><rect width="16" height="16" transform="translate(1548 128)" fill="rgba(255,0,0,0)"/><path d="M121.556-828.45a7.839,7.839,0,0,1,2.44-1.624,7.576,7.576,0,0,1,3-.593,7.576,7.576,0,0,1,3,.593,7.839,7.839,0,0,1,2.44,1.624v-9.994H121.556ZM127-832.222a2.623,2.623,0,0,0,1.925-.8,2.623,2.623,0,0,0,.8-1.925,2.623,2.623,0,0,0-.8-1.925,2.623,2.623,0,0,0-1.925-.8,2.623,2.623,0,0,0-1.925.8,2.623,2.623,0,0,0-.8,1.925,2.623,2.623,0,0,0,.8,1.925A2.623,2.623,0,0,0,127-832.222ZM121.556-826a1.5,1.5,0,0,1-1.1-.457,1.5,1.5,0,0,1-.457-1.1v-10.889a1.5,1.5,0,0,1,.457-1.1,1.5,1.5,0,0,1,1.1-.457h10.889a1.5,1.5,0,0,1,1.1.457,1.5,1.5,0,0,1,.457,1.1v10.889a1.5,1.5,0,0,1-.457,1.1,1.5,1.5,0,0,1-1.1.457Zm1.342-1.556H131.1a6.053,6.053,0,0,0-1.935-1.157,6.218,6.218,0,0,0-2.168-.4,6.378,6.378,0,0,0-2.187.4A5.574,5.574,0,0,0,122.9-827.556Zm4.1-6.222a1.125,1.125,0,0,1-.826-.34,1.125,1.125,0,0,1-.34-.826,1.125,1.125,0,0,1,.34-.826,1.125,1.125,0,0,1,.826-.34,1.125,1.125,0,0,1,.826.34,1.125,1.125,0,0,1,.34.826,1.125,1.125,0,0,1-.34.826A1.125,1.125,0,0,1,127-833.778ZM127-833.447Z" transform="translate(1429 969)" fill="#fff"/></g></svg>