<svg xmlns="http://www.w3.org/2000/svg" width="16" height="16" viewBox="0 0 16 16"><g transform="translate(-485 -533)"><rect width="16" height="16" transform="translate(485 533)" fill="rgba(255,255,255,0)"/><path d="M115.734-795.005a1.323,1.323,0,0,1-.97-.4,1.323,1.323,0,0,1-.4-.97v-1.666h-1.447a1.323,1.323,0,0,1-.97-.4,1.323,1.323,0,0,1-.4-.97v-2.952a1.829,1.829,0,0,1,.552-1.354,1.843,1.843,0,0,1,1.348-.546h10.2a1.838,1.838,0,0,1,1.354.546,1.838,1.838,0,0,1,.546,1.354v2.952a1.323,1.323,0,0,1-.4.97,1.323,1.323,0,0,1-.97.4H122.72v1.666a1.323,1.323,0,0,1-.4.97,1.323,1.323,0,0,1-.97.4Zm-2.82-4.18h1.447a1.341,1.341,0,0,1,.414-.949,1.315,1.315,0,0,1,.96-.4h5.612a1.315,1.315,0,0,1,.96.4,1.341,1.341,0,0,1,.414.949h1.447a.228.228,0,0,0,.168-.066.228.228,0,0,0,.066-.168v-2.952a.735.735,0,0,0-.218-.541.735.735,0,0,0-.541-.219h-10.2a.735.735,0,0,0-.541.219.735.735,0,0,0-.218.541v2.952a.228.228,0,0,0,.066.168A.228.228,0,0,0,112.914-799.185Zm8.666-5.086v-2.046a.228.228,0,0,0-.066-.168.228.228,0,0,0-.168-.066h-5.612a.228.228,0,0,0-.168.066.228.228,0,0,0-.066.168v2.046h-1.14v-2.046a1.323,1.323,0,0,1,.4-.97,1.323,1.323,0,0,1,.97-.4h5.612a1.323,1.323,0,0,1,.97.4,1.323,1.323,0,0,1,.4.97v2.046Zm1.374,3.04a.735.735,0,0,0,.541-.218.735.735,0,0,0,.218-.541.735.735,0,0,0-.218-.541.735.735,0,0,0-.541-.219.735.735,0,0,0-.541.219.735.735,0,0,0-.218.541.735.735,0,0,0,.218.541A.735.735,0,0,0,122.953-801.231Zm-1.374,4.852v-2.777a.228.228,0,0,0-.066-.168.228.228,0,0,0-.168-.066h-5.612a.228.228,0,0,0-.168.066.228.228,0,0,0-.066.168v2.777a.228.228,0,0,0,.066.168.228.228,0,0,0,.168.066h5.612a.228.228,0,0,0,.168-.066A.228.228,0,0,0,121.58-796.379Zm-8.666-6.752h0Z" transform="translate(374.46 1342.348)" fill="#c4cdd5"/></g></svg>