<svg xmlns="http://www.w3.org/2000/svg" xmlns:xlink="http://www.w3.org/1999/xlink" width="22" height="20.56" viewBox="0 0 22 20.56">
  <defs>
    <clipPath id="clip-path">
      <rect id="사각형_2594" data-name="사각형 2594" width="22" height="20.56" fill="none"/>
    </clipPath>
  </defs>
  <g id="iCon" transform="translate(0 0)">
    <g id="그룹_2132" data-name="그룹 2132" transform="translate(0 0)" clip-path="url(#clip-path)">
      <path id="패스_3963" data-name="패스 3963" d="M21.929,10.419a3.9,3.9,0,0,1-3.9,3.9H3.668a2.416,2.416,0,1,1,0-4.833c.07,0,.138,0,.209.009a3.3,3.3,0,0,1-.209-1.163A3.387,3.387,0,0,1,9.195,5.7a4.468,4.468,0,0,1,8.935.018,4.328,4.328,0,0,1-.077.8,3.9,3.9,0,0,1,3.876,3.9" transform="translate(-0.589 -0.59)" fill="#fff"/>
      <path id="패스_3964" data-name="패스 3964" d="M17.443,14.387H3.079A3.077,3.077,0,0,1,2.457,8.3a3.988,3.988,0,0,1-.039-.557A4.047,4.047,0,0,1,8.066,4.018,5.128,5.128,0,0,1,18.2,5.128c0,.069,0,.137,0,.207a4.558,4.558,0,0,1-.755,9.052M3.079,9.554a1.756,1.756,0,1,0,0,3.512H17.443a3.237,3.237,0,0,0,.017-6.474.66.66,0,0,1-.645-.782,3.678,3.678,0,0,0,.066-.682,3.807,3.807,0,0,0-7.614-.015.661.661,0,0,1-1.079.508A2.688,2.688,0,0,0,6.47,5.009a2.734,2.734,0,0,0-2.731,2.73,2.653,2.653,0,0,0,.167.932.661.661,0,0,1-.674.889c-.052,0-.1-.007-.154-.007" transform="translate(0 0)" fill="#858f9b"/>
      <line id="선_21" data-name="선 21" x1="1.48" y2="3.405" transform="translate(12.977 16.494)" fill="#c3e0fc"/>
      <path id="패스_3965" data-name="패스 3965" d="M23.968,34.688a.661.661,0,0,1-.606-.924l1.48-3.4a.661.661,0,0,1,1.212.526l-1.48,3.405a.661.661,0,0,1-.606.4" transform="translate(-10.991 -14.128)" fill="#3fa9f5"/>
      <line id="선_22" data-name="선 22" x1="1.48" y2="3.405" transform="translate(9.52 16.494)" fill="#c3e0fc"/>
      <path id="패스_3966" data-name="패스 3966" d="M17.426,34.689a.661.661,0,0,1-.606-.924l1.48-3.4a.661.661,0,0,1,1.212.526l-1.48,3.405a.661.661,0,0,1-.606.4" transform="translate(-7.906 -14.129)" fill="#3fa9f5"/>
      <line id="선_23" data-name="선 23" x1="1.48" y2="3.405" transform="translate(6.063 16.494)" fill="#c3e0fc"/>
      <path id="패스_3967" data-name="패스 3967" d="M10.884,34.689a.661.661,0,0,1-.606-.924l1.48-3.4a.661.661,0,0,1,1.212.526l-1.48,3.405a.661.661,0,0,1-.606.4" transform="translate(-4.821 -14.129)" fill="#3fa9f5"/>
    </g>
  </g>
</svg>
