<svg xmlns="http://www.w3.org/2000/svg" xmlns:xlink="http://www.w3.org/1999/xlink" width="21.129" height="20" viewBox="0 0 21.129 20">
  <defs>
    <clipPath id="clip-path">
      <rect id="사각형_5359" data-name="사각형 5359" width="17.333" height="20" fill="#a7b1bb"/>
    </clipPath>
  </defs>
  <g id="ico_signsquare_doc" transform="translate(-451 -357)">
    <rect id="boundary" width="20" height="20" transform="translate(451 357)" fill="#006fdf" opacity="0"/>
    <g id="iCon" transform="translate(-344 -407)">
      <g id="그룹_163277" data-name="그룹 163277" transform="translate(798.796 764)">
        <g id="그룹_163276" data-name="그룹 163276" transform="translate(0 0)" clip-path="url(#clip-path)">
          <path id="패스_11391" data-name="패스 11391" d="M13.532,0H0V20H17.333V3.953Zm.033,1.832,2.1,2.181h-2.1ZM1.256,18.765V1.235H12.309v3.4a.623.623,0,0,0,.628.617h3.14V18.765Z" transform="translate(0 0)" fill="#a7b1bb"/>
          <rect id="사각형_5356" data-name="사각형 5356" width="5.27" height="1.235" transform="translate(3.397 4.761)" fill="#a7b1bb"/>
        </g>
      </g>
      <path id="Bg" d="M.667,0H16a.667.667,0,0,1,.667.667v8A.667.667,0,0,1,16,9.333H.667A.667.667,0,0,1,0,8.667v-8A.667.667,0,0,1,.667,0Z" transform="translate(795 771.333)" fill="#4795cf"/>
      <text id="DOC" transform="translate(803 778)" fill="#fff" font-size="6" font-family="NotoSansKR-Medium, Noto Sans KR" font-weight="500" letter-spacing="-0.025em"><tspan x="-6.147" y="0">DOC</tspan></text>
    </g>
  </g>
</svg>
