<svg xmlns="http://www.w3.org/2000/svg" width="16" height="16" viewBox="0 0 16 16"><g transform="translate(16 16) rotate(180)"><rect width="16" height="16" fill="rgba(116,202,0,0)" opacity="0.3"/><g transform="translate(2 1.5)"><path d="M4.256,0a.722.722,0,0,0-.5.2L.208,3.63a.67.67,0,0,0,0,.97.727.727,0,0,0,1,0L4.256,1.656,7.3,4.6a.727.727,0,0,0,1,0,.67.67,0,0,0,0-.97L4.759.2a.722.722,0,0,0-.5-.2Z" transform="translate(1.744 2.746)" fill="#c4cdd5"/><path d="M.686,0A.686.686,0,0,0,0,.686v8.23a.686.686,0,1,0,1.372,0V.686A.686.686,0,0,0,.686,0Z" transform="translate(5.314 2.898)" fill="#c4cdd5"/><rect width="1.5" height="12" rx="0.75" transform="translate(0 1.5) rotate(-90)" fill="#c4cdd5"/></g></g></svg>