<svg xmlns="http://www.w3.org/2000/svg" width="16" height="16" viewBox="0 0 16 16"><g transform="translate(-352 -296)"><rect width="16" height="16" transform="translate(352 296)" fill="rgba(255,0,0,0)"/><path d="M141.7-804a1.642,1.642,0,0,1-1.207-.494A1.642,1.642,0,0,1,140-805.7v-12.6a1.642,1.642,0,0,1,.494-1.207A1.643,1.643,0,0,1,141.7-820h12.6a1.642,1.642,0,0,1,1.207.494A1.642,1.642,0,0,1,156-818.3v12.6a1.642,1.642,0,0,1-.494,1.207A1.642,1.642,0,0,1,154.3-804Zm0-1.412h12.6a.277.277,0,0,0,.2-.091.277.277,0,0,0,.091-.2v-12.6a.277.277,0,0,0-.091-.2.277.277,0,0,0-.2-.09H141.7a.277.277,0,0,0-.2.09.277.277,0,0,0-.09.2v12.6a.277.277,0,0,0,.09.2A.277.277,0,0,0,141.7-805.411Zm-.29-13.177v0Z" transform="translate(211.999 1115.999)" fill="#637381"/><path d="M223.732-772v-6.583h-3.346V-780h8v1.417H225.04V-772Z" transform="translate(135.614 1079.999)" fill="#637381"/></g></svg>