<svg xmlns="http://www.w3.org/2000/svg" width="20" height="20" viewBox="0 0 20 20"><g transform="translate(10318 5030)"><rect width="20" height="20" transform="translate(-10318 -5030)" fill="#eaeef1" opacity="0"/><path d="M67.047-784.444a7.277,7.277,0,0,1-5.39-2.26,7.573,7.573,0,0,1-2.222-5.517v-.17l-.851.875a.884.884,0,0,1-.662.267.884.884,0,0,1-.662-.267A.936.936,0,0,1,57-792.2a.936.936,0,0,1,.26-.681l2.459-2.528a.9.9,0,0,1,.662-.292.9.9,0,0,1,.662.292l2.459,2.528a.936.936,0,0,1,.26.681.936.936,0,0,1-.26.681.884.884,0,0,1-.662.267.884.884,0,0,1-.662-.267l-.851-.875v.17a5.686,5.686,0,0,0,1.667,4.132,5.462,5.462,0,0,0,4.054,1.7,5.646,5.646,0,0,0,.745-.049,3.727,3.727,0,0,0,.721-.17,1.1,1.1,0,0,1,.757.024,1.054,1.054,0,0,1,.544.51.9.9,0,0,1,.035.766.827.827,0,0,1-.556.5,5.876,5.876,0,0,1-1.111.279A7.636,7.636,0,0,1,67.047-784.444Zm-.095-13.611a5.667,5.667,0,0,0-.745.049,3.744,3.744,0,0,0-.721.17,1.134,1.134,0,0,1-.768-.024,1.048,1.048,0,0,1-.556-.51.846.846,0,0,1-.035-.741.824.824,0,0,1,.532-.5,7.3,7.3,0,0,1,1.135-.292,6.846,6.846,0,0,1,1.158-.1,7.277,7.277,0,0,1,5.39,2.26,7.572,7.572,0,0,1,2.222,5.517v.17l.851-.875a.884.884,0,0,1,.662-.267.884.884,0,0,1,.662.267.936.936,0,0,1,.26.681.936.936,0,0,1-.26.681l-2.459,2.528a.9.9,0,0,1-.662.292.9.9,0,0,1-.662-.292L70.5-791.566a.936.936,0,0,1-.26-.681.936.936,0,0,1,.26-.681.884.884,0,0,1,.662-.267.884.884,0,0,1,.662.267l.851.875v-.17a5.686,5.686,0,0,0-1.667-4.132A5.462,5.462,0,0,0,66.953-798.056Z" transform="translate(-10375 -4228)" fill="#858f9b"/></g></svg>