<svg xmlns="http://www.w3.org/2000/svg" width="16" height="16" viewBox="0 0 16 16"><g transform="translate(-748 -766)"><rect width="16" height="16" transform="translate(748 766)" fill="rgba(255,255,255,0)" opacity="0.16"/><path d="M-1938-2280h-10.4a1.547,1.547,0,0,1-1.13-.469,1.55,1.55,0,0,1-.47-1.131V-2292a.778.778,0,0,1,.23-.57.778.778,0,0,1,.57-.23.779.779,0,0,1,.57.23.778.778,0,0,1,.23.57v10.4h10.4a.776.776,0,0,1,.57.23.774.774,0,0,1,.229.57.777.777,0,0,1-.229.57A.778.778,0,0,1-1938-2280Zm2.4-3.2h-9.6a1.547,1.547,0,0,1-1.13-.47,1.545,1.545,0,0,1-.47-1.13v-9.6a1.545,1.545,0,0,1,.47-1.13,1.548,1.548,0,0,1,1.13-.47h9.6a1.549,1.549,0,0,1,1.13.47,1.547,1.547,0,0,1,.47,1.13v9.6a1.547,1.547,0,0,1-.47,1.13A1.548,1.548,0,0,1-1935.6-2283.2Zm-9.6-11.2v9.6h9.6v-9.6Z" transform="translate(2698 3062)" fill="#a7b1bb"/></g></svg>