<svg xmlns="http://www.w3.org/2000/svg" xmlns:xlink="http://www.w3.org/1999/xlink" width="45" height="42.516" viewBox="0 0 45 42.516"><defs><linearGradient id="a" x1="0.5" y1="0.18" x2="0.5" y2="1.392" gradientUnits="objectBoundingBox"><stop offset="0" stop-color="#7a1fff"/><stop offset="1" stop-color="#9675ff"/></linearGradient><linearGradient id="b" x1="0.5" y1="1.451" x2="0.5" y2="0.254" gradientUnits="objectBoundingBox"><stop offset="0" stop-color="#9c60fc"/><stop offset="1" stop-color="#ce7bff"/></linearGradient></defs><g transform="translate(-286.371 -244.229)"><g transform="translate(286.371 244.229)"><path d="M755.717,718.8c-.171-.314-1.653-1.206-2.892-2.374s-1.078-8.528-1.139-8.615c-.4-.568-4.059-.155-5.592.044-.231-.03-.568-.064-.97-.1v-.038l-.231.017-.231-.017v.038c-.4.036-.74.07-.97.1-1.533-.2-5.189-.612-5.592-.044-.061.086.1,7.44-1.139,8.615s-2.72,2.06-2.892,2.374a.666.666,0,0,0,.516,1.078H755.2A.666.666,0,0,0,755.717,718.8Z" transform="translate(-722.392 -677.363)" fill="url(#a)"/><path d="M6.428,0H38.572A6.428,6.428,0,0,1,45,6.428V29.357a6.428,6.428,0,0,1-6.428,6.428H6.427A6.427,6.427,0,0,1,0,29.358V6.428A6.428,6.428,0,0,1,6.428,0Z" fill="url(#b)"/></g><g transform="translate(298.237 251.465)"><path d="M737.67,674.616h14.736a3.27,3.27,0,0,1,3.267,3.266v11.643a3.27,3.27,0,0,1-3.267,3.265h-3.547l-2.916,5.049a1.045,1.045,0,0,1-.9.522h0a1.045,1.045,0,0,1-.9-.523l-2.915-5.049H737.67a3.269,3.269,0,0,1-3.266-3.265V677.882A3.27,3.27,0,0,1,737.67,674.616ZM752.406,690.7a1.177,1.177,0,0,0,1.177-1.175V677.882a1.178,1.178,0,0,0-1.177-1.176H737.67a1.177,1.177,0,0,0-1.176,1.176v11.643a1.177,1.177,0,0,0,1.176,1.175h4.151a1.045,1.045,0,0,1,.9.523l2.312,4,2.313-4a1.045,1.045,0,0,1,.9-.522Z" transform="translate(-734.404 -674.616)" fill="#fff" opacity="0.5"/><path d="M7.68.59H-.455A1.045,1.045,0,0,1-1.5-.455,1.045,1.045,0,0,1-.455-1.5H7.68A1.045,1.045,0,0,1,8.725-.455,1.045,1.045,0,0,1,7.68.59Z" transform="translate(7.022 9.559)" fill="#fff"/></g></g></svg>