<svg xmlns="http://www.w3.org/2000/svg" width="58" height="58" viewBox="0 0 58 58">
  <g id="그룹_127411" data-name="그룹 127411" transform="translate(-69 -179)">
    <rect id="사각형_25242" data-name="사각형 25242" width="58" height="58" transform="translate(69 179)" fill="rgba(255,255,255,0)"/>
    <g id="그룹_127353" data-name="그룹 127353">
      <g id="그룹_127352" data-name="그룹 127352">
        <path id="빼기_12" data-name="빼기 12" d="M28.47,50H9.375A9.385,9.385,0,0,1,0,40.626V9.375A9.385,9.385,0,0,1,9.375,0H40.626A9.385,9.385,0,0,1,50,9.375v18.75a19.238,19.238,0,0,0-4-.408c-.448,0-.9.015-1.332.043a8.122,8.122,0,0,0-2.134-4.077,8.565,8.565,0,0,0-6.257-2.359,8.072,8.072,0,0,0-4.224,1.1l.289-4.936H43.631v-5H27.021L26.248,27.84h5.321a4.395,4.395,0,0,1,3.709-1.774,3.668,3.668,0,0,1,3.805,2.958,17.849,17.849,0,0,0-5.829,3.947c-.2.2-.4.4-.582.607A3.685,3.685,0,0,1,31.536,31.1H25.763a8.453,8.453,0,0,0,3.92,6.855A17.867,17.867,0,0,0,28,45.717,19.12,19.12,0,0,0,28.47,50ZM12.193,31.967a.438.438,0,0,1,.073.006c.223.038.407.247.549.621.046.2.1.4.161.6.655,2.173,1.92,3.572,3.469,3.837l.013,0,.009,0a3.2,3.2,0,0,0,.522.042,5.1,5.1,0,0,0,3.821-2.268,12.868,12.868,0,0,0,2.37-5.684,13.7,13.7,0,0,0,0-4.8H19.5a12.248,12.248,0,0,1-.1,4.17c-.463,2.7-1.449,4.811-2.244,4.811a.436.436,0,0,1-.073-.006c-.2-.033-.363-.2-.5-.494-.069-.315-.15-.622-.243-.91-.667-2.081-1.914-3.423-3.422-3.681a2.79,2.79,0,0,0-.311-.037c-.077-.006-.155-.008-.232-.008a5.1,5.1,0,0,0-3.82,2.267,12.863,12.863,0,0,0-2.37,5.684c-.051.3-.095.607-.129.917H9.906l0-.02c.013-.08.025-.159.039-.239C10.411,34.081,11.4,31.967,12.193,31.967ZM4.942,24.314l.769,8.32a11.08,11.08,0,0,1,3.42-4.69L8.8,24.314Z" transform="translate(69 179.283)" fill="#fff"/>
        <path id="빼기_16" data-name="빼기 16" d="M-3366.5-4945l-14.064-14.063a5.448,5.448,0,0,1,.469-.849l2.314,2.314a4.508,4.508,0,0,0,1.833,1.833l9.446,9.446,3.187-3.186c-.066.47-.115.962-.147,1.465L-3366.5-4945Zm-16.692-16.691h0l-.987-.986c.187-.25.387-.493.595-.724l.974.975a9.182,9.182,0,0,0-.581.736Zm-3.016-3.017,0,0L-3389-4967.5l22.5-22.5,10.031,10.031h-1.319l-8.712-8.712-21.184,21.184,1.343,1.343.134,1.45Zm39.345-.011h0a9.4,9.4,0,0,0-.264-.97l1.812-1.812-7.481-7.481h1.317l7.481,7.481-2.777,2.778-.088.006Z" transform="translate(3460.497 5171.758)" fill="#fff" opacity="0.29"/>
      </g>
      <path id="send_and_archive_FILL0_wght300_GRAD0_opsz24" d="M166.064-743.5l7.848-7.847-1.706-1.706-4.93,4.93v-11.229h-2.423v11.229l-4.93-4.93-1.706,1.706Zm0,4.4a11.884,11.884,0,0,1-8.727-3.6,11.884,11.884,0,0,1-3.6-8.727,11.883,11.883,0,0,1,3.6-8.727,11.883,11.883,0,0,1,8.727-3.6,11.882,11.882,0,0,1,8.727,3.6,11.883,11.883,0,0,1,3.6,8.727,11.884,11.884,0,0,1-3.6,8.727A11.884,11.884,0,0,1,166.064-739.1Z" transform="translate(-51.388 976.104)" fill="#fff"/>
    </g>
  </g>
</svg>
