<svg xmlns="http://www.w3.org/2000/svg" width="19.007" height="20" viewBox="0 0 19.007 20"><path d="M141.489-858.511v0Zm2.234,9.68h3.523a5,5,0,0,1,.432-.8,5.361,5.361,0,0,1,.554-.694h-4.508Zm0,3.971h3.009a4.95,4.95,0,0,1-.114-.745,4.78,4.78,0,0,1,0-.745h-2.9Zm-1.928,3.723a1.733,1.733,0,0,1-1.274-.521,1.733,1.733,0,0,1-.521-1.274v-15.274a1.733,1.733,0,0,1,.521-1.274,1.733,1.733,0,0,1,1.274-.521h7.885l5.212,5.212v2.74a4.183,4.183,0,0,0-.729-.215q-.372-.073-.76-.114v-1.667h-4.468v-4.468h-7.141a.291.291,0,0,0-.21.1.291.291,0,0,0-.1.21v15.274a.291.291,0,0,0,.1.21.292.292,0,0,0,.21.1h5.858a5.643,5.643,0,0,0,.655.818,5.359,5.359,0,0,0,.787.671Zm11.112-2.329a2.545,2.545,0,0,0,1.872-.763,2.545,2.545,0,0,0,.763-1.872,2.545,2.545,0,0,0-.763-1.872,2.545,2.545,0,0,0-1.872-.763,2.545,2.545,0,0,0-1.872.763,2.545,2.545,0,0,0-.763,1.872,2.545,2.545,0,0,0,.763,1.872A2.545,2.545,0,0,0,152.907-843.466ZM157.97-840l-2.719-2.719a3.769,3.769,0,0,1-1.1.555,4.13,4.13,0,0,1-1.244.188,3.977,3.977,0,0,1-2.921-1.2,3.977,3.977,0,0,1-1.2-2.921,3.977,3.977,0,0,1,1.2-2.921,3.977,3.977,0,0,1,2.921-1.2,3.977,3.977,0,0,1,2.921,1.2,3.977,3.977,0,0,1,1.2,2.921,4.13,4.13,0,0,1-.188,1.244,3.773,3.773,0,0,1-.555,1.1l2.719,2.719Z" transform="translate(-140 860)" fill="#a7b1bb"/></svg>