<svg xmlns="http://www.w3.org/2000/svg" width="58" height="58" viewBox="0 0 58 58">
  <g id="그룹_127391" data-name="그룹 127391" transform="translate(-487 -178)">
    <rect id="사각형_25242" data-name="사각형 25242" width="58" height="58" transform="translate(487 178)" fill="rgba(255,132,132,0)"/>
    <path id="합치기_29" data-name="합치기 29" d="M-3342.5-4936.66l-8.433,2.66v-10.883a10.875,10.875,0,0,1-2.262-3.492,11.1,11.1,0,0,1-.805-4.223,10.96,10.96,0,0,1,3.341-8.089A11.146,11.146,0,0,1-3342.5-4964a11.154,11.154,0,0,1,8.159,3.313A10.957,10.957,0,0,1-3331-4952.6a11.1,11.1,0,0,1-.805,4.223,10.835,10.835,0,0,1-2.262,3.492V-4934Zm-6.517-22.4a8.763,8.763,0,0,0-2.682,6.462,8.76,8.76,0,0,0,2.682,6.462,8.91,8.91,0,0,0,6.517,2.661,8.91,8.91,0,0,0,6.517-2.661,8.76,8.76,0,0,0,2.683-6.462,8.763,8.763,0,0,0-2.683-6.462,8.913,8.913,0,0,0-6.517-2.66A8.913,8.913,0,0,0-3349.018-4959.059ZM-3378.55-4943v-11.262H-3389v-16.027a6.776,6.776,0,0,1,2.045-5.016,6.824,6.824,0,0,1,4.994-2.023h3.411V-4990h30.972v12.671h3.411a6.806,6.806,0,0,1,5.016,2.023,6.812,6.812,0,0,1,2.024,5.016v2.279a18.225,18.225,0,0,0-2.025-.813,10.875,10.875,0,0,0-2.2-.482v-.812a3.023,3.023,0,0,0-.809-2.093,2.6,2.6,0,0,0-2.006-.9h-37.8a2.726,2.726,0,0,0-2.006.81,2.724,2.724,0,0,0-.809,2.006v11.8h6.227v-4.98h22.558a13.87,13.87,0,0,0-1.47,1.967,13.075,13.075,0,0,0-1.1,2.255h-15.768v12.021h15.307a8.645,8.645,0,0,0,1.037,2.212q.68,1.042,1.367,2.011Zm37.2-30.106h0Zm-10.449-4.223v-8.447h-22.526v8.447Zm6.58,27.431a3.654,3.654,0,0,1-1.113-2.7,3.649,3.649,0,0,1,1.113-2.7,3.716,3.716,0,0,1,2.72-1.1,3.716,3.716,0,0,1,2.72,1.1,3.649,3.649,0,0,1,1.114,2.7,3.655,3.655,0,0,1-1.114,2.7,3.719,3.719,0,0,1-2.72,1.1A3.719,3.719,0,0,1-3345.22-4949.9Z" transform="translate(3876 5169)" fill="#526796"/>
  </g>
</svg>
