<svg xmlns="http://www.w3.org/2000/svg" width="58" height="58" viewBox="0 0 58 58">
  <g id="그룹_127414" data-name="그룹 127414" transform="translate(-69 -609)">
    <rect id="사각형_25242" data-name="사각형 25242" width="58" height="58" transform="translate(69 609)" fill="rgba(255,255,255,0)"/>
    <path id="합치기_28" data-name="합치기 28" d="M-3345.264-4948.135h-30.9a2.5,2.5,0,0,1-1.828-.729,2.438,2.438,0,0,1-.738-1.806v-4.3h35.9l.92.908v-25.917h4.351a2.5,2.5,0,0,1,1.828.728,2.437,2.437,0,0,1,.738,1.806V-4938ZM-3389-4987.466a2.439,2.439,0,0,1,.738-1.806,2.5,2.5,0,0,1,1.83-.729h36.148a2.5,2.5,0,0,1,1.828.729,2.434,2.434,0,0,1,.738,1.806v24.238a2.435,2.435,0,0,1-.738,1.8,2.5,2.5,0,0,1-1.828.729h-28.45L-3389-4950.56Zm4.352,24.458,2.007-1.983h30.572V-4985.7h-32.579Zm0-22.7v0Zm3.9,14.392v-3h16.687v3Zm0-6v-3h24v3Z" transform="translate(3460 5601.67)" fill="#fff"/>
  </g>
</svg>
