<svg xmlns="http://www.w3.org/2000/svg" width="100" height="80" viewBox="0 0 100 80"><g transform="translate(-757 -251)"><rect width="100" height="80" transform="translate(757 251)" opacity="0"/><g transform="translate(71.371 35.88)"><path d="M647.7,340.05v51.085h29.956a5.234,5.234,0,1,0,10.469,0V340.05Z" transform="translate(65 -113)" fill="#fff"/><path d="M647.7,339.3h40.425a.75.75,0,0,1,.75.75v51.085a5.985,5.985,0,0,1-11.922.75H647.7a.75.75,0,0,1-.75-.75V340.05A.75.75,0,0,1,647.7,339.3Zm39.675,1.5H648.45v49.585h29.206a.75.75,0,0,1,.75.75,4.484,4.484,0,1,0,8.969,0Z" transform="translate(65 -113)" fill="#637381"/><path d="M677.656,391.135H637.231a5.235,5.235,0,0,0,5.235,5.235h40.425A5.235,5.235,0,0,1,677.656,391.135Z" transform="translate(65 -113)" fill="#e6e9ec"/><path d="M637.231,390.385h40.425a.75.75,0,0,1,.75.75,4.49,4.49,0,0,0,4.485,4.485.75.75,0,0,1,0,1.5H642.466a5.992,5.992,0,0,1-5.985-5.985A.75.75,0,0,1,637.231,390.385Zm39.722,1.5H638.044a4.493,4.493,0,0,0,4.422,3.735h36.466A5.98,5.98,0,0,1,676.953,391.885Z" transform="translate(65 -113)" fill="#637381"/><path d="M14.386.75H0V-.75H14.386Z" transform="translate(725.72 235.765)" fill="#dce0e4"/><path d="M27.589.75H0V-.75H27.589Z" transform="translate(719.118 242.702)" fill="#dce0e4"/><path d="M27.589.75H0V-.75H27.589Z" transform="translate(719.118 249.64)" fill="#dce0e4"/><path d="M27.589.75H0V-.75H27.589Z" transform="translate(719.118 256.577)" fill="#dce0e4"/><path d="M11.356.75H0V-.75H11.356Z" transform="translate(719.118 263.515)" fill="#dce0e4"/><circle cx="2.616" cy="2.616" r="2.616" transform="translate(691.379 232.73)" fill="#fff"/><path d="M2.616-.75A3.366,3.366,0,1,1-.75,2.616,3.37,3.37,0,0,1,2.616-.75Zm0,5.232A1.866,1.866,0,1,0,.75,2.616,1.868,1.868,0,0,0,2.616,4.482Z" transform="translate(691.379 232.73)" fill="#637381"/><g transform="translate(65 -113)"><path d="M.75,6.77H-.75V0H.75Z" transform="translate(636.215 364.251)" fill="#dce0e4"/><path d="M6.77.75H0V-.75H6.77Z" transform="translate(632.83 367.636)" fill="#dce0e4"/></g><circle cx="2.616" cy="2.616" r="2.616" transform="translate(765.969 254.953)" fill="#fff"/><path d="M2.616-.75A3.366,3.366,0,1,1-.75,2.616,3.37,3.37,0,0,1,2.616-.75Zm0,5.232A1.866,1.866,0,1,0,.75,2.616,1.868,1.868,0,0,0,2.616,4.482Z" transform="translate(765.969 254.953)" fill="#637381"/><g transform="translate(65 -113)"><path d="M.75,6.77H-.75V0H.75Z" transform="translate(703.135 346.134)" fill="#dce0e4"/><path d="M6.77.75H0V-.75H6.77Z" transform="translate(699.75 349.519)" fill="#dce0e4"/></g><g transform="translate(65 -113)"><g transform="translate(54 67)"><path d="M.75,6.77H-.75V0H.75Z" transform="translate(656.676 318.581)" fill="#dce0e4"/><path d="M6.77.75H0V-.75H6.77Z" transform="translate(653.291 321.966)" fill="#dce0e4"/></g></g><g transform="translate(415.275 -309.894)"><rect width="6.147" height="26.388" transform="translate(324.787 565.248) rotate(-45)" fill="#fff"/><path d="M0-.75H6.147A.75.75,0,0,1,6.9,0V26.388a.75.75,0,0,1-.75.75H0a.75.75,0,0,1-.75-.75V0A.75.75,0,0,1,0-.75ZM5.4.75H.75V25.638H5.4Z" transform="translate(324.787 565.248) rotate(-45)" fill="#637381"/><path d="M322,556.533l-1.585,1.585,1.723,2.813,2.674-2.674Z" fill="#fff"/><path d="M322,555.783a.748.748,0,0,1,.392.11l2.813,1.723a.75.75,0,0,1,.139,1.17l-2.674,2.674a.75.75,0,0,1-1.17-.139l-1.723-2.812a.75.75,0,0,1,.109-.922L321.473,556A.749.749,0,0,1,322,555.783Zm1.609,2.615-1.5-.917-.749.748.917,1.5Z" fill="#637381"/><path d="M322.142,560.93l2.645,4.318,4.347-4.347-4.318-2.645Z" fill="#fff"/><path d="M324.816,557.506a.748.748,0,0,1,.392.11l4.318,2.645a.75.75,0,0,1,.139,1.17l-4.347,4.347a.75.75,0,0,1-1.17-.139l-2.645-4.318a.75.75,0,0,1,.109-.922l2.674-2.674A.749.749,0,0,1,324.816,557.506Zm3.115,3.538-3-1.839-1.838,1.838,1.839,3Z" fill="#637381"/><rect width="4.25" height="26.388" transform="translate(326.128 563.907) rotate(-45)" fill="#e6e9ec" style="mix-blend-mode:multiply;isolation:isolate"/><path d="M322,556.533l-1.585,1.585,1.723,2.813,2.674-2.674Z" fill="#e6e9ec" style="mix-blend-mode:multiply;isolation:isolate"/></g></g></g></svg>