<svg xmlns="http://www.w3.org/2000/svg" width="16" height="16" viewBox="0 0 16 16">
  <g id="그룹_163210" data-name="그룹 163210" transform="translate(-29 -450)">
    <rect id="사각형_148777" data-name="사각형 148777" width="16" height="16" transform="translate(29 450)" fill="rgba(255,255,255,0)"/>
    <path id="합치기_106" data-name="합치기 106" d="M417.156,12.2l-1.272,1.272a.75.75,0,1,1-1.06-1.06l1.538-1.538A4.985,4.985,0,0,1,416,9V8.86h-1.25a.75.75,0,1,1,0-1.5H416V7a2.994,2.994,0,0,1,.187-1.046l-1.364-1.364a.75.75,0,0,1,1.06-1.06l1.179,1.179A3.01,3.01,0,0,1,417.5,4.4V3.5a3.5,3.5,0,1,1,7,0v.9a3.007,3.007,0,0,1,.459.327l1.2-1.2a.75.75,0,1,1,1.06,1.06l-1.394,1.4A3,3,0,0,1,426,7v.36h1.25a.75.75,0,1,1,0,1.5H426V9a4.986,4.986,0,0,1-.35,1.84l1.568,1.569a.75.75,0,1,1-1.06,1.06l-1.3-1.295a5,5,0,0,1-7.707.023ZM421.75,7.75v4.669A3.507,3.507,0,0,0,424.5,9V7A1.5,1.5,0,0,0,423,5.5h-4A1.5,1.5,0,0,0,417.5,7V9a3.506,3.506,0,0,0,2.749,3.419V7.75a.75.75,0,0,1,1.5,0ZM423,4V3.5a2,2,0,0,0-4,0V4Z" transform="translate(-384 451)" fill="#fff"/>
  </g>
</svg>
