<svg xmlns="http://www.w3.org/2000/svg" width="58" height="58" viewBox="0 0 58 58">
  <g id="그룹_127380" data-name="그룹 127380" transform="translate(-1580 -179)">
    <rect id="사각형_25242" data-name="사각형 25242" width="58" height="58" transform="translate(1580 179)" fill="rgba(255,132,132,0)"/>
    <path id="preview_FILL0_wght300_GRAD0_opsz24" d="M145.743-766a5.529,5.529,0,0,1-4.055-1.687A5.529,5.529,0,0,1,140-771.741v-42.516a5.529,5.529,0,0,1,1.687-4.055A5.529,5.529,0,0,1,145.743-820h42.516a5.529,5.529,0,0,1,4.055,1.687A5.529,5.529,0,0,1,194-814.257v42.516a5.529,5.529,0,0,1-1.687,4.055A5.529,5.529,0,0,1,188.259-766Zm0-4.765h42.516a.951.951,0,0,0,.7-.275.951.951,0,0,0,.275-.7v-37.14H144.766v37.14a.951.951,0,0,0,.275.7A.951.951,0,0,0,145.743-770.764ZM167-778.705a18.445,18.445,0,0,1-10.473-3.091,18.682,18.682,0,0,1-6.845-8.027,18.681,18.681,0,0,1,6.845-8.027A18.444,18.444,0,0,1,167-800.94a18.444,18.444,0,0,1,10.473,3.091,18.681,18.681,0,0,1,6.845,8.027,18.682,18.682,0,0,1-6.845,8.027A18.444,18.444,0,0,1,167-778.705Zm0-3.787a15.211,15.211,0,0,0,7.566-1.936,15.422,15.422,0,0,0,5.611-5.394,15.422,15.422,0,0,0-5.611-5.394A15.211,15.211,0,0,0,167-797.153a15.211,15.211,0,0,0-7.565,1.936,15.422,15.422,0,0,0-5.611,5.394,15.422,15.422,0,0,0,5.611,5.394A15.211,15.211,0,0,0,167-782.492ZM167-789.823Zm.007,4.154a3.989,3.989,0,0,0,2.94-1.214,4.025,4.025,0,0,0,1.206-2.947,3.989,3.989,0,0,0-1.214-2.94,4.025,4.025,0,0,0-2.947-1.206,3.989,3.989,0,0,0-2.94,1.214,4.025,4.025,0,0,0-1.206,2.947,3.989,3.989,0,0,0,1.214,2.94A4.025,4.025,0,0,0,167.008-785.669Z" transform="translate(1441.999 1000.999)" fill="#526796"/>
  </g>
</svg>
