<svg xmlns="http://www.w3.org/2000/svg" width="16" height="16" viewBox="0 0 16 16"><g transform="translate(-2 -2)"><rect width="16" height="16" transform="translate(2 2)" fill="#f4f6f8" opacity="0"/><path d="M7.69.451,5.982,3.813l-3.823.541A.807.807,0,0,0,1.7,5.74L4.461,8.354l-.654,3.694a.832.832,0,0,0,1.214.856l3.42-1.744,3.42,1.744a.833.833,0,0,0,1.214-.856l-.654-3.694L15.188,5.74a.807.807,0,0,0-.463-1.386L10.9,3.813,9.192.451a.85.85,0,0,0-1.5,0Z" transform="translate(1.559 3.001)" fill="#c4cdd5"/></g></svg>