<svg xmlns="http://www.w3.org/2000/svg" width="14" height="15" viewBox="0 0 14 15"><path d="M167.368-865v-2.306l4.071-4.125a1,1,0,0,1,.368-.244,1.159,1.159,0,0,1,.405-.075,1.09,1.09,0,0,1,.424.084,1.115,1.115,0,0,1,.368.253l.682.694a1.311,1.311,0,0,1,.23.375,1.1,1.1,0,0,1,.083.412,1.3,1.3,0,0,1-.074.422,1.01,1.01,0,0,1-.239.384L169.634-865Zm5.526-4.931-.682-.694Zm-4.421,3.806h.7l2.229-2.288-.332-.356-.35-.337-2.247,2.269Zm-7,1.125a1.407,1.407,0,0,1-1.041-.441A1.457,1.457,0,0,1,160-866.5v-12a1.457,1.457,0,0,1,.433-1.059,1.407,1.407,0,0,1,1.041-.441h5.895l4.421,4.5v2.25h-1.474v-1.5h-3.684v-3.75h-5.158v12h4.421v1.5ZM166.632-872.5Zm4.439,3.731-.35-.337.682.694Z" transform="translate(-160 880)" fill="#fff"/></svg>