<svg xmlns="http://www.w3.org/2000/svg" xmlns:xlink="http://www.w3.org/1999/xlink" width="18" height="18" viewBox="0 0 18 18"><defs><clipPath id="a"><rect width="16" height="13.159" fill="none"/></clipPath></defs><rect width="18" height="18" fill="rgba(255,255,255,0)"/><g transform="translate(1 2.231)"><g clip-path="url(#a)"><path d="M14.979,1.91H11.985a1.68,1.68,0,0,1-1.423-.94L10.55.94A1.683,1.683,0,0,0,9.126,0H6.874A1.683,1.683,0,0,0,5.451.94l-.013.03a1.68,1.68,0,0,1-1.423.94H1.021A1.024,1.024,0,0,0,0,2.93v9.207a1.024,1.024,0,0,0,1.021,1.021H14.979A1.024,1.024,0,0,0,16,12.137V2.93A1.024,1.024,0,0,0,14.979,1.91M8,10.495a3.137,3.137,0,1,1,3.137-3.137A3.137,3.137,0,0,1,8,10.495" transform="translate(0 0)" fill="#fff"/></g></g></svg>