<svg xmlns="http://www.w3.org/2000/svg" xmlns:xlink="http://www.w3.org/1999/xlink" width="16" height="16" viewBox="0 0 16 16">
  <defs>
    <linearGradient id="linear-gradient" x1="-8.414" y1="-8.534" x2="-8.414" y2="-8.515" gradientUnits="objectBoundingBox">
      <stop offset="0" stop-color="#1e6ff1"/>
      <stop offset="1" stop-color="#28cefb"/>
    </linearGradient>
  </defs>
  <g id="그룹_163241" data-name="그룹 163241" transform="translate(-24 -95)">
    <rect id="사각형_148791" data-name="사각형 148791" width="16" height="16" transform="translate(24 95)" fill="rgba(167,177,187,0)"/>
    <g id="Xu1ZJ8QZi9_ohERcep1bf_cvJVw-U6lu-Adxt3Ofv6tWdGVSEhL8w0p4_FIV6SDnf8Q2M4icVd5yVMZbgJmnIg" transform="translate(16 87.1)">
      <circle id="타원_448" data-name="타원 448" cx="8" cy="8" r="8" transform="translate(8 7.9)" fill="url(#linear-gradient)"/>
      <path id="패스_6970" data-name="패스 6970" d="M19.909,27.067V25.839m0-12.131V12.48m-1.27,14.481.213-1.21M20.959,13.8l.213-1.21M17.414,26.629l.42-1.154m4.149-11.4.42-1.154M16.256,26.1l.614-1.064m6.065-10.505.614-1.064m-8.322,11.9.79-.941m7.8-9.292.79-.941M14.314,24.463l.941-.79m9.292-7.8.941-.79m-11.9,8.333,1.064-.614M25.159,16.74l1.064-.614m-13.18,6.147,1.154-.42M25.6,17.7l1.154-.42M12.721,21.051l1.21-.213m11.946-2.106,1.21-.213M12.618,19.777h1.228m12.131,0h1.228m-14.48-1.262,1.21.213m11.946,2.106,1.21.213M13.056,17.285l1.154.42m11.4,4.149,1.154.42M13.587,16.139l1.064.614m10.505,6.065,1.064.614m-11.9-8.348.941.79m9.293,7.8.941.79M15.212,14.191l.79.941m7.8,9.293.79.941M16.257,13.46l.614,1.064m6.065,10.505.614,1.064M17.414,12.922l.42,1.154m4.149,11.4.42,1.154M18.635,12.6l.213,1.21m2.106,11.946.213,1.21m-1.9.071.053-.612m1.164-13.308.054-.612m-2.518,14.32.159-.593m3.458-12.9.159-.593M16.822,26.382l.26-.557m5.646-12.107.26-.557M15.723,25.754l.352-.5m7.662-10.943.352-.5m-9.334,11.13.434-.434m9.446-9.446.434-.434M13.934,23.968l.5-.352m10.943-7.662.5-.352M13.3,22.862l.557-.26m12.107-5.646.557-.26M12.862,21.67l.593-.159m12.9-3.458.593-.159m-14.316,2.52.612-.053M26.556,19.2l.612-.054m-14.527,0,.612.054m13.308,1.164.612.053M12.853,17.9l.593.159m12.9,3.458.593.159M13.3,16.693l.557.26M25.959,22.6l.557.26M13.932,15.6l.5.352m10.943,7.662.5.352M14.755,14.624l.434.434M24.636,24.5l.434.434M15.715,13.8l.352.5M23.73,25.247l.352.5M16.826,13.172l.26.557m5.646,12.107.26.557M18.016,12.74l.159.593m3.458,12.9.159.593M19.263,12.515l.054.612m1.164,13.308.054.612" transform="translate(-3.909 -3.877)" fill="none" stroke="#fff" stroke-linecap="square" stroke-width="0.2"/>
      <g id="그룹_163240" data-name="그룹 163240" transform="translate(10.314 11.149)">
        <path id="패스_6971" data-name="패스 6971" d="M34.433,29.06,28.122,33.1,23.07,38.58l6.342-3.946Z" transform="translate(-23.07 -29.06)" fill="#fff" fill-rule="evenodd"/>
        <path id="패스_6972" data-name="패스 6972" d="M62.281,29.06,55.97,33.1l1.29,1.536,5.021-5.574Z" transform="translate(-50.918 -29.06)" fill="#ff3b30" fill-rule="evenodd"/>
      </g>
    </g>
  </g>
</svg>
