<svg xmlns="http://www.w3.org/2000/svg" width="20" height="20" viewBox="0 0 20 20"><path d="M86-864l4-3.05L94-864l-1.5-4.95,4-2.85H91.6L90-877l-1.6,5.2H83.5l4,2.85Zm4,4a9.737,9.737,0,0,1-3.9-.788,10.1,10.1,0,0,1-3.175-2.138,10.1,10.1,0,0,1-2.137-3.175A9.737,9.737,0,0,1,80-870a9.738,9.738,0,0,1,.788-3.9,10.1,10.1,0,0,1,2.137-3.175,10.1,10.1,0,0,1,3.175-2.138A9.738,9.738,0,0,1,90-880a9.738,9.738,0,0,1,3.9.787,10.1,10.1,0,0,1,3.175,2.138,10.1,10.1,0,0,1,2.137,3.175A9.738,9.738,0,0,1,100-870a9.737,9.737,0,0,1-.788,3.9,10.1,10.1,0,0,1-2.137,3.175,10.1,10.1,0,0,1-3.175,2.138A9.737,9.737,0,0,1,90-860Zm0-2a7.721,7.721,0,0,0,5.675-2.325A7.721,7.721,0,0,0,98-870a7.721,7.721,0,0,0-2.325-5.675A7.721,7.721,0,0,0,90-878a7.721,7.721,0,0,0-5.675,2.325A7.721,7.721,0,0,0,82-870a7.721,7.721,0,0,0,2.325,5.675A7.721,7.721,0,0,0,90-862ZM90-870Z" transform="translate(-80 880)" fill="#a7b1bb"/></svg>