<svg id="iCon" xmlns="http://www.w3.org/2000/svg" xmlns:xlink="http://www.w3.org/1999/xlink" width="14" height="14" viewBox="0 0 14 14">
  <defs>
    <clipPath id="clip-path">
      <rect id="사각형_2592" data-name="사각형 2592" width="14" height="14" fill="#fff"/>
    </clipPath>
  </defs>
  <g id="그룹_2130" data-name="그룹 2130" transform="translate(0 0)" clip-path="url(#clip-path)">
    <path id="패스_3948" data-name="패스 3948" d="M8.831,14.237a5.406,5.406,0,1,1,5.406-5.406,5.413,5.413,0,0,1-5.406,5.406m0-9.881a4.475,4.475,0,1,0,4.475,4.475A4.48,4.48,0,0,0,8.831,4.356" transform="translate(-1.831 -1.831)" fill="#fff"/>
    <path id="패스_3949" data-name="패스 3949" d="M12.438,14.7A2.266,2.266,0,1,1,14.7,12.438,2.268,2.268,0,0,1,12.438,14.7m0-3.6a1.335,1.335,0,1,0,1.335,1.335A1.337,1.337,0,0,0,12.438,11.1" transform="translate(-5.438 -5.439)" fill="#fff"/>
    <line id="선_12" data-name="선 12" y1="1.594" transform="translate(7 0.465)" fill="#fff"/>
    <path id="패스_3950" data-name="패스 3950" d="M14.507,2.525a.465.465,0,0,1-.465-.465V.465a.465.465,0,0,1,.931,0V2.059a.466.466,0,0,1-.465.465" transform="translate(-7.507 0)" fill="#fff"/>
    <line id="선_13" data-name="선 13" x1="1.594" transform="translate(0.465 7)" fill="#fff"/>
    <path id="패스_3951" data-name="패스 3951" d="M2.059,14.972H.465a.465.465,0,1,1,0-.931H2.059a.465.465,0,1,1,0,.931" transform="translate(0 -7.507)" fill="#fff"/>
    <line id="선_14" data-name="선 14" y2="1.594" transform="translate(7 11.941)" fill="#fff"/>
    <path id="패스_3952" data-name="패스 3952" d="M14.507,27.183a.465.465,0,0,1-.465-.465V25.123a.465.465,0,0,1,.931,0v1.594a.466.466,0,0,1-.465.465" transform="translate(-7.507 -13.183)" fill="#fff"/>
    <line id="선_15" data-name="선 15" x2="1.594" transform="translate(11.941 7)" fill="#fff"/>
    <path id="패스_3953" data-name="패스 3953" d="M26.717,14.972H25.123a.465.465,0,0,1,0-.931h1.594a.465.465,0,0,1,0,.931" transform="translate(-13.183 -7.507)" fill="#fff"/>
  </g>
</svg>
