<svg xmlns="http://www.w3.org/2000/svg" width="20" height="20" viewBox="0 0 20 20"><rect width="20" height="20" rx="4" fill="#f4f6f8" opacity="0"/><g transform="translate(-483 -531)"><rect width="16" height="16" transform="translate(485 533)" fill="rgba(255,255,255,0)"/><path d="M182.568-799.383a1.565,1.565,0,0,1-1.168-.5,1.681,1.681,0,0,1-.484-1.211v-12.027H180v-1.421h4.114v-.838H189.6v.838h4.114v1.421H192.8V-801.1a1.685,1.685,0,0,1-.48,1.215,1.567,1.567,0,0,1-1.173.5Zm8.862-13.74h-9.143V-801.1a.289.289,0,0,0,.079.21.269.269,0,0,0,.2.082h8.58a.265.265,0,0,0,.193-.091.284.284,0,0,0,.088-.2ZM184.484-802.7h1.371v-8.529h-1.371Zm3.376,0h1.371v-8.529H187.86Zm-5.574-10.424v0Z" transform="translate(305.999 1348.383)" fill="#a7b1bb" stroke="rgba(0,0,0,0)" stroke-miterlimit="10" stroke-width="1"/></g></svg>