<svg xmlns="http://www.w3.org/2000/svg" width="16" height="16" viewBox="0 0 16 16"><g transform="translate(16.224 16) rotate(180)"><rect width="16" height="16" transform="translate(0.224)" fill="rgba(116,202,0,0)" opacity="0.3"/><g transform="translate(1.224 2)"><path d="M13.257,18.3a.722.722,0,0,1-.5-.2L9.208,14.671a.67.67,0,0,1,0-.97.727.727,0,0,1,1,0l3.045,2.945L16.3,13.7a.727.727,0,0,1,1,0,.67.67,0,0,1,0,.97L13.759,18.1a.722.722,0,0,1-.5.2Z" transform="translate(-6.257 -8.547)" fill="#c4cdd5"/><path d="M17.186,12.6a.686.686,0,0,1-.686-.686V3.686a.686.686,0,1,1,1.372,0v8.23A.686.686,0,0,1,17.186,12.6Z" transform="translate(-10.186 -3)" fill="#c4cdd5"/><rect width="1.5" height="12" rx="0.75" transform="translate(13 11) rotate(90)" fill="#c4cdd5"/></g></g></svg>