<svg xmlns="http://www.w3.org/2000/svg" width="26" height="26" viewBox="0 0 26 26"><g transform="translate(0 5)"><g transform="translate(0 -5)" fill="#a7b1bb" stroke="#a7b1bb" stroke-width="1"><circle cx="13" cy="13" r="13" stroke="none"/><circle cx="13" cy="13" r="12.5" fill="none"/></g><g transform="translate(-275.928 1)"><rect width="16" height="16" transform="translate(280.928 -1)" fill="rgba(116,202,0,0)" opacity="0.3"/><path d="M0,33.317v4.1A1.756,1.756,0,0,0,.513,38.66l4.828,4.828a1.755,1.755,0,0,0,2.483,0l3.662-3.662a1.755,1.755,0,0,0,0-2.483L6.658,32.516A1.756,1.756,0,0,0,5.415,32l-4.1,0A1.317,1.317,0,0,0,0,33.317Zm3.072.878a.878.878,0,1,1-.878.878A.878.878,0,0,1,3.072,34.195Z" transform="translate(282.928 -31)" fill="#fff"/></g></g></svg>