<svg xmlns="http://www.w3.org/2000/svg" width="24" height="24" viewBox="0 0 24 24">
  <g id="ico_fail" transform="translate(-389 -253)">
    <circle id="타원_1" data-name="타원 1" cx="12" cy="12" r="12" transform="translate(389 253)" fill="#fc7d86"/>
    <rect id="boundary" width="12" height="12" transform="translate(395 259)" opacity="0"/>
    <path id="close_24dp_E8EAED_FILL0_wght500_GRAD0_opsz24" d="M216.5-742.315l-3.579,3.579a.8.8,0,0,1-.593.236.8.8,0,0,1-.593-.236.8.8,0,0,1-.236-.593.8.8,0,0,1,.236-.593l3.579-3.579-3.579-3.579a.8.8,0,0,1-.236-.593.8.8,0,0,1,.236-.593.8.8,0,0,1,.593-.236.8.8,0,0,1,.593.236l3.579,3.579,3.579-3.579a.8.8,0,0,1,.593-.236.8.8,0,0,1,.593.236.8.8,0,0,1,.236.593.8.8,0,0,1-.236.593l-3.579,3.579,3.579,3.579a.8.8,0,0,1,.236.593.8.8,0,0,1-.236.593.8.8,0,0,1-.593.236.8.8,0,0,1-.593-.236Z" transform="translate(184.5 1008.5)" fill="#fff"/>
  </g>
</svg>
