<svg xmlns="http://www.w3.org/2000/svg" width="16" height="16" viewBox="0 0 16 16"><g transform="translate(-436 -288)"><rect width="16" height="16" transform="translate(436 288)" fill="rgba(116,202,0,0)" opacity="0.3"/><path d="M86.667-794l-5.333-3.333v6.667h6v1.333h-6a1.284,1.284,0,0,1-.942-.392,1.284,1.284,0,0,1-.392-.942v-8a1.284,1.284,0,0,1,.392-.942,1.284,1.284,0,0,1,.942-.392H92a1.284,1.284,0,0,1,.942.392,1.284,1.284,0,0,1,.392.942V-794H92v-3.333Zm0-1.333L92-798.667H81.333Zm4.667,8-.933-.933,1.05-1.067H88.667v-1.333H91.45l-1.067-1.067.95-.933L94-790Zm-10-10v0Z" transform="translate(357 1090)" fill="#a7b1bb"/></g></svg>