<svg xmlns="http://www.w3.org/2000/svg" width="14" height="14" viewBox="0 0 14 14"><path d="M125.133-830.2l1.089-1.108L124.531-833l1.692-1.692-1.089-1.108-2.8,2.8Zm3.733,0,2.8-2.8-2.8-2.8-1.089,1.108L129.469-833l-1.692,1.692Zm-7.311,4.2a1.5,1.5,0,0,1-1.1-.457,1.5,1.5,0,0,1-.457-1.1v-10.889a1.5,1.5,0,0,1,.457-1.1,1.5,1.5,0,0,1,1.1-.457h10.889a1.5,1.5,0,0,1,1.1.457,1.5,1.5,0,0,1,.457,1.1v10.889a1.5,1.5,0,0,1-.457,1.1,1.5,1.5,0,0,1-1.1.457Zm0-1.556h10.889v-10.889H121.556Zm0-10.889v0Z" transform="translate(-120 840)" fill="#fff"/></svg>