<svg xmlns="http://www.w3.org/2000/svg" width="16" height="16" viewBox="0 0 16 16"><g transform="translate(-297 -218)"><rect width="16" height="16" transform="translate(297 218)" fill="rgba(255,155,155,0)"/><path d="M8,1.5A6.5,6.5,0,1,0,14.5,8,6.507,6.507,0,0,0,8,1.5M8,0A8,8,0,1,1,0,8,8,8,0,0,1,8,0Z" transform="translate(297 218)" fill="#a7b1bb"/><path d="M86.965-868.8a.845.845,0,0,0,.621-.254.845.845,0,0,0,.254-.621.845.845,0,0,0-.254-.621.845.845,0,0,0-.621-.254.845.845,0,0,0-.621.254.845.845,0,0,0-.254.621.845.845,0,0,0,.254.621A.845.845,0,0,0,86.965-868.8ZM87-873Zm.07-3.01a1.127,1.127,0,0,1,.761.28.888.888,0,0,1,.324.7,1.067,1.067,0,0,1-.236.682,4.383,4.383,0,0,1-.534.56,4.646,4.646,0,0,0-.709.77,1.565,1.565,0,0,0-.306.945.533.533,0,0,0,.184.411.619.619,0,0,0,.429.166.623.623,0,0,0,.446-.175.806.806,0,0,0,.236-.437,1.405,1.405,0,0,1,.315-.656,6.661,6.661,0,0,1,.525-.551,4.492,4.492,0,0,0,.691-.84,1.855,1.855,0,0,0,.289-1.015,1.775,1.775,0,0,0-.726-1.461,2.661,2.661,0,0,0-1.689-.569,2.98,2.98,0,0,0-1.269.28,1.957,1.957,0,0,0-.919.857.631.631,0,0,0-.079.446.517.517,0,0,0,.236.359.713.713,0,0,0,.507.087.7.7,0,0,0,.438-.3,1.284,1.284,0,0,1,.481-.4A1.368,1.368,0,0,1,87.07-876.01Z" transform="translate(217.861 1099)" fill="#a7b1bb"/></g></svg>