<svg xmlns="http://www.w3.org/2000/svg" xmlns:xlink="http://www.w3.org/1999/xlink" width="54" height="59.944" viewBox="0 0 54 59.944">
  <defs>
    <filter id="패스_5804" x="2.721" y="11.469" width="48.476" height="48.476" filterUnits="userSpaceOnUse">
      <feOffset dy="3" input="SourceAlpha"/>
      <feGaussianBlur stdDeviation="4" result="blur"/>
      <feFlood flood-opacity="0.161"/>
      <feComposite operator="in" in2="blur"/>
      <feComposite in="SourceGraphic"/>
    </filter>
  </defs>
  <g id="ico_signsquare_file" transform="translate(-708 -332)">
    <rect id="boundary" width="54" height="54" transform="translate(708 332)" fill="#dce0e4" opacity="0"/>
    <g id="iCon" transform="translate(725.315 -387.112)">
      <path id="패스_6624" data-name="패스 6624" d="M165.9,816.984H141.212V813.9a5.786,5.786,0,0,0-5.785-5.788H123.471a5.788,5.788,0,0,0-5.786,5.788v40.883a5.786,5.786,0,0,0,5.786,5.787H165.9a5.786,5.786,0,0,0,5.785-5.787V822.77A5.785,5.785,0,0,0,165.9,816.984Z" transform="translate(-135 -87)" fill="#dce0e4" opacity="0.56"/>
      <g id="그룹_2874" data-name="그룹 2874" transform="translate(-3.856 738.319)" opacity="0.82">
        <g transform="matrix(1, 0, 0, 1, -13.46, -19.21)" filter="url(#패스_5804)">
          <path id="패스_5804-2" data-name="패스 5804" d="M159.539,380.14A12.238,12.238,0,1,1,147.3,367.9,12.238,12.238,0,0,1,159.539,380.14Z" transform="translate(-120.34 -347.43)" fill="#637381" opacity="0.5"/>
        </g>
        <path id="Path_5805" data-name="Path 5805" d="M147.062,393.4a13.463,13.463,0,1,1,5.255-1.061A13.416,13.416,0,0,1,147.062,393.4Zm0-24.687A11.187,11.187,0,1,0,158.251,379.9,11.2,11.2,0,0,0,147.062,368.714Z" transform="translate(-133.563 -366.402)" fill="#f9fafb"/>
        <g id="그룹_2873" data-name="그룹 2873" transform="translate(7.024 7.023)">
          <path id="Line_58" data-name="Line 58" d="M-.238,11.452A1.262,1.262,0,0,1-1.5,10.19V-.238A1.262,1.262,0,0,1-.238-1.5,1.262,1.262,0,0,1,1.024-.238V10.19A1.262,1.262,0,0,1-.238,11.452Z" transform="translate(6.713 1.5)" fill="#f9fafb"/>
          <path id="Line_59" data-name="Line 59" d="M10.189,1.024H-.238A1.262,1.262,0,0,1-1.5-.238,1.262,1.262,0,0,1-.238-1.5H10.189A1.262,1.262,0,0,1,11.451-.238,1.262,1.262,0,0,1,10.189,1.024Z" transform="translate(1.5 6.715)" fill="#f9fafb"/>
        </g>
      </g>
    </g>
  </g>
</svg>
