<svg xmlns="http://www.w3.org/2000/svg" width="16" height="16" viewBox="0 0 16 16"><g transform="translate(-24 -10)"><rect width="16" height="16" transform="translate(24 10)" fill="rgba(116,202,0,0)" opacity="0.3"/><path d="M93.682-827.978h3.807v1.6h-5.41Zm-10.019,1.6-1.7-1.7a1.586,1.586,0,0,1-.471-1.142,1.583,1.583,0,0,1,.451-1.162l8.816-9.137A1.507,1.507,0,0,1,91.889-840a1.539,1.539,0,0,1,1.132.461l3.987,3.987a1.551,1.551,0,0,1,.461,1.142,1.551,1.551,0,0,1-.461,1.142l-6.733,6.893Zm5.931-1.6,6.292-6.452L91.919-838.4l-8.856,9.137,1.282,1.282ZM89.474-832.787Z" transform="translate(-57.489 850)" fill="#a7b1bb"/></g></svg>