<svg xmlns="http://www.w3.org/2000/svg" width="16" height="16" viewBox="0 0 16 16"><g transform="translate(-1873 -809.999)"><rect width="16" height="16" transform="translate(1873 809.999)" fill="#74ca00" opacity="0"/><path d="M88-864a7.79,7.79,0,0,1-3.12-.63,8.078,8.078,0,0,1-2.54-1.71,8.078,8.078,0,0,1-1.71-2.54A7.79,7.79,0,0,1,80-872a7.79,7.79,0,0,1,.63-3.12,8.078,8.078,0,0,1,1.71-2.54,8.078,8.078,0,0,1,2.54-1.71A7.79,7.79,0,0,1,88-880a7.852,7.852,0,0,1,2.46.38,8.22,8.22,0,0,1,2.14,1.06l-1.16,1.18a6.88,6.88,0,0,0-1.62-.75A6.041,6.041,0,0,0,88-878.4a6.17,6.17,0,0,0-4.53,1.87A6.17,6.17,0,0,0,81.6-872a6.169,6.169,0,0,0,1.87,4.53A6.169,6.169,0,0,0,88-865.6a6.169,6.169,0,0,0,4.53-1.87A6.17,6.17,0,0,0,94.4-872a6.518,6.518,0,0,0-.04-.72,5.9,5.9,0,0,0-.12-.7l1.3-1.3a8.712,8.712,0,0,1,.34,1.32A8.042,8.042,0,0,1,96-872a7.79,7.79,0,0,1-.63,3.12,8.079,8.079,0,0,1-1.71,2.54,8.078,8.078,0,0,1-2.54,1.71A7.79,7.79,0,0,1,88-864Zm-1.12-4.32-3.4-3.4,1.12-1.12,2.28,2.28,8-8.02L96-877.46Z" transform="translate(1793 1689.999)" fill="#e8eaed"/></g></svg>