<svg xmlns="http://www.w3.org/2000/svg" width="14.338" height="14.002" viewBox="0 0 14.338 14.002">
  <g id="그룹_182" data-name="그룹 182" transform="translate(-702.664 -767.341)">
    <path id="패스_745" data-name="패스 745" d="M732.955,795.09l-.779-3.529a1.064,1.064,0,0,0-1.039-.834h-2.522a1.064,1.064,0,0,0-1.039.834l-.78,3.529a1.064,1.064,0,0,0,.537,1.167l.7.372v3.093a1.064,1.064,0,0,0,1.064,1.064h1.565a1.064,1.064,0,0,0,1.064-1.064v-3.093l.7-.372A1.064,1.064,0,0,0,732.955,795.09Z" transform="translate(-20.042 -19.442)" fill="#fff"/>
    <path id="패스_746" data-name="패스 746" d="M737.379,772.292a1.583,1.583,0,1,0-1.583-1.583A1.583,1.583,0,0,0,737.379,772.292Z" transform="translate(-27.545 -1.484)" fill="#fff"/>
    <path id="패스_747" data-name="패스 747" d="M706.1,792.453l.779-3.529a1.727,1.727,0,0,1,.572-.941,1,1,0,0,0-.662-.253H704.4a1,1,0,0,0-.98.788l-.736,3.331a1,1,0,0,0,.507,1.1l.657.351v2.919a1,1,0,0,0,1,1h1.477a1,1,0,0,0,.98-.786v-1.9l-.34-.181A1.744,1.744,0,0,1,706.1,792.453Z" transform="translate(0 -16.951)" fill="#fff"/>
    <path id="패스_748" data-name="패스 748" d="M712.677,770.329a1.494,1.494,0,1,0-1.494-1.494A1.494,1.494,0,0,0,712.677,770.329Z" transform="translate(-7.082 0)" fill="#fff"/>
    <path id="패스_749" data-name="패스 749" d="M764.1,791.849l-.736-3.331a1,1,0,0,0-.98-.788H760a1,1,0,0,0-.662.253,1.727,1.727,0,0,1,.572.941l.779,3.529a1.744,1.744,0,0,1-.878,1.908l-.34.182v1.9a1,1,0,0,0,.98.786h1.477a1,1,0,0,0,1-1V793.3l.657-.351A1,1,0,0,0,764.1,791.849Z" transform="translate(-47.118 -16.951)" fill="#fff"/>
    <path id="패스_750" data-name="패스 750" d="M762.956,770.329a1.494,1.494,0,1,0-1.494-1.494A1.494,1.494,0,0,0,762.956,770.329Z" transform="translate(-48.884 0)" fill="#fff"/>
  </g>
</svg>
