<svg xmlns="http://www.w3.org/2000/svg" width="16" height="18.286" viewBox="0 0 16 18.286">
  <path id="Icon_awesome-bell" data-name="Icon awesome-bell" d="M8,18.286A2.285,2.285,0,0,0,10.285,16H5.715A2.285,2.285,0,0,0,8,18.286Zm7.692-5.347c-.69-.741-1.981-1.857-1.981-5.51A5.64,5.64,0,0,0,9.142,1.887V1.143a1.142,1.142,0,1,0-2.284,0v.744A5.64,5.64,0,0,0,2.289,7.429C2.289,11.082,1,12.2.307,12.939A1.116,1.116,0,0,0,0,13.714a1.144,1.144,0,0,0,1.146,1.143H14.853A1.144,1.144,0,0,0,16,13.714,1.115,1.115,0,0,0,15.692,12.939Z" transform="translate(0)" fill="#858f9b"/>
</svg>
