<svg xmlns="http://www.w3.org/2000/svg" width="16" height="16" viewBox="0 0 16 16">
  <g id="그룹_163212" data-name="그룹 163212" transform="translate(-29 -450)">
    <rect id="사각형_148775" data-name="사각형 148775" width="16" height="16" transform="translate(29 450)" fill="rgba(255,255,255,0)"/>
    <path id="dashboard_24dp_5F6368_FILL0_wght400_GRAD0_opsz24_1_" data-name="dashboard_24dp_5F6368_FILL0_wght400_GRAD0_opsz24 (1)" d="M127.778-836.111v-3.111a.752.752,0,0,1,.224-.554.752.752,0,0,1,.554-.224h4.667a.752.752,0,0,1,.554.224.753.753,0,0,1,.224.554v3.111a.753.753,0,0,1-.224.554.753.753,0,0,1-.554.224h-4.667a.753.753,0,0,1-.554-.224A.753.753,0,0,1,127.778-836.111ZM120-833v-6.222a.753.753,0,0,1,.224-.554.752.752,0,0,1,.554-.224h4.667a.752.752,0,0,1,.554.224.752.752,0,0,1,.224.554V-833a.753.753,0,0,1-.224.554.753.753,0,0,1-.554.224h-4.667a.753.753,0,0,1-.554-.224A.753.753,0,0,1,120-833Zm7.778,6.222V-833a.752.752,0,0,1,.224-.554.752.752,0,0,1,.554-.224h4.667a.752.752,0,0,1,.554.224A.753.753,0,0,1,134-833v6.222a.753.753,0,0,1-.224.554.753.753,0,0,1-.554.224h-4.667a.753.753,0,0,1-.554-.224A.753.753,0,0,1,127.778-826.778Zm-7.778,0v-3.111a.752.752,0,0,1,.224-.554.753.753,0,0,1,.554-.224h4.667a.753.753,0,0,1,.554.224.752.752,0,0,1,.224.554v3.111a.753.753,0,0,1-.224.554.753.753,0,0,1-.554.224h-4.667a.753.753,0,0,1-.554-.224A.753.753,0,0,1,120-826.778Zm1.556-7h3.111v-4.667h-3.111Zm7.778,6.222h3.111v-4.667h-3.111Zm0-9.333h3.111v-1.556h-3.111Zm-7.778,9.333h3.111v-1.556h-3.111ZM124.667-833.778ZM129.333-836.889ZM129.333-832.222ZM124.667-829.111Z" transform="translate(-90 1291)" fill="#fff"/>
  </g>
</svg>
