<svg xmlns="http://www.w3.org/2000/svg" width="16" height="15" viewBox="0 0 16 15">
  <g id="그룹_164136" data-name="그룹 164136" transform="translate(-118 -227)">
    <g id="사각형_148835" data-name="사각형 148835" transform="translate(118 227)" fill="none" stroke="#a7b1bb" stroke-width="1">
      <rect width="16" height="15" rx="2" stroke="none"/>
      <rect x="0.5" y="0.5" width="15" height="14" rx="1.5" fill="none"/>
    </g>
    <g id="사각형_148836" data-name="사각형 148836" transform="translate(118 227)" fill="#a7b1bb" stroke="#a7b1bb" stroke-width="1">
      <path d="M2,0H14a2,2,0,0,1,2,2V4a0,0,0,0,1,0,0H0A0,0,0,0,1,0,4V2A2,2,0,0,1,2,0Z" stroke="none"/>
      <path d="M2,.5H14A1.5,1.5,0,0,1,15.5,2V3.5a0,0,0,0,1,0,0H.5a0,0,0,0,1,0,0V2A1.5,1.5,0,0,1,2,.5Z" fill="none"/>
    </g>
    <rect id="사각형_148837" data-name="사각형 148837" width="1" height="1" rx="0.5" transform="translate(131 229)" fill="#fff"/>
    <rect id="사각형_148838" data-name="사각형 148838" width="1" height="1" rx="0.5" transform="translate(129 229)" fill="#fff"/>
    <rect id="사각형_148839" data-name="사각형 148839" width="1" height="1" rx="0.5" transform="translate(127 229)" fill="#fff"/>
    <path id="language_24dp_5F6368_FILL0_wght300_GRAD0_opsz24" d="M104-852a3.874,3.874,0,0,1-1.553-.315,4.055,4.055,0,0,1-1.273-.859,4.056,4.056,0,0,1-.859-1.273A3.873,3.873,0,0,1,100-856a3.866,3.866,0,0,1,.315-1.556,4.065,4.065,0,0,1,.859-1.27,4.055,4.055,0,0,1,1.273-.859A3.873,3.873,0,0,1,104-860a3.866,3.866,0,0,1,1.556.315,4.065,4.065,0,0,1,1.27.859,4.065,4.065,0,0,1,.859,1.27A3.866,3.866,0,0,1,108-856a3.873,3.873,0,0,1-.315,1.553,4.056,4.056,0,0,1-.859,1.273,4.065,4.065,0,0,1-1.27.859A3.867,3.867,0,0,1,104-852Zm0-.641a5.748,5.748,0,0,0,.543-.862,4.923,4.923,0,0,0,.359-.951h-1.8a5.379,5.379,0,0,0,.363.967A4.928,4.928,0,0,0,104-852.641Zm-.815-.116a4.571,4.571,0,0,1-.435-.79,5.166,5.166,0,0,1-.3-.907h-1.428a3.3,3.3,0,0,0,.895,1.1A3.006,3.006,0,0,0,103.185-852.756Zm1.631,0a3.006,3.006,0,0,0,1.268-.6,3.3,3.3,0,0,0,.895-1.1H105.55a6.611,6.611,0,0,1-.32.911A5.467,5.467,0,0,1,104.815-852.756Zm-4.058-2.329h1.565q-.04-.235-.058-.46t-.018-.455q0-.229.018-.455t.058-.46h-1.565a3.322,3.322,0,0,0-.093.446,3.379,3.379,0,0,0-.032.469,3.377,3.377,0,0,0,.032.469A3.32,3.32,0,0,0,100.757-855.085Zm2.2,0h2.092q.04-.235.057-.456t.018-.459q0-.237-.018-.459t-.057-.456h-2.092q-.04.235-.057.456t-.018.459q0,.237.018.459T102.954-855.085Zm2.724,0h1.565a3.319,3.319,0,0,0,.093-.446,3.374,3.374,0,0,0,.032-.469,3.377,3.377,0,0,0-.032-.469,3.321,3.321,0,0,0-.093-.446h-1.565q.04.235.058.46t.018.455q0,.229-.018.455T105.678-855.085Zm-.128-2.462h1.428a3.292,3.292,0,0,0-.889-1.1,3.1,3.1,0,0,0-1.274-.6,5.225,5.225,0,0,1,.431.8A5.782,5.782,0,0,1,105.55-857.547Zm-2.451,0h1.8a5.418,5.418,0,0,0-.369-.973,4.916,4.916,0,0,0-.532-.84,4.916,4.916,0,0,0-.532.84A5.418,5.418,0,0,0,103.1-857.547Zm-2.077,0h1.428a5.782,5.782,0,0,1,.3-.9,5.226,5.226,0,0,1,.431-.8,3.072,3.072,0,0,0-1.276.6A3.335,3.335,0,0,0,101.022-857.547Z" transform="translate(22 1092)" fill="#a7b1bb"/>
  </g>
</svg>
