<svg xmlns="http://www.w3.org/2000/svg" width="16" height="16" viewBox="0 0 16 16"><g transform="translate(4104 -6700)"><rect width="16" height="16" transform="translate(-4104 6700)" fill="rgba(255,255,255,0)"/><path d="M81.6-787.2a1.541,1.541,0,0,1-1.13-.47A1.541,1.541,0,0,1,80-788.8v-9.6a1.541,1.541,0,0,1,.47-1.13A1.541,1.541,0,0,1,81.6-800h4.8l1.6,1.6h6.4a1.541,1.541,0,0,1,1.13.47A1.54,1.54,0,0,1,96-796.8v8a1.541,1.541,0,0,1-.47,1.13,1.541,1.541,0,0,1-1.13.47Zm0-1.6H94.4v-8H87.34l-1.6-1.6H81.6Zm0,0v0Z" transform="translate(-4184 7501)" fill="#a7b1bb"/></g></svg>