<svg xmlns="http://www.w3.org/2000/svg" width="16" height="16" viewBox="0 0 16 16"><g transform="translate(-29 -451)"><rect width="16" height="16" transform="translate(29 451)" fill="#fff" opacity="0"/><path d="M15.545,8a1.457,1.457,0,0,0-1.4,1.825L11.56,12.415a1.481,1.481,0,0,0-.756,0L8.949,10.56a1.454,1.454,0,1,0-2.807,0L2.825,13.869A1.453,1.453,0,1,0,3.858,14.9l3.309-3.316a1.481,1.481,0,0,0,.756,0L9.778,13.44a1.454,1.454,0,1,0,2.807,0l2.589-2.582A1.453,1.453,0,1,0,15.545,8Z" transform="translate(28 447)" fill="#fff"/></g></svg>