<svg xmlns="http://www.w3.org/2000/svg" width="58" height="58" viewBox="0 0 58 58">
  <g id="그룹_127410" data-name="그룹 127410" transform="translate(-992 -178)">
    <rect id="사각형_25242" data-name="사각형 25242" width="58" height="58" transform="translate(992 178)" fill="rgba(255,255,255,0)"/>
    <g id="devices-solid" transform="translate(988.778 176.444)">
      <path id="패스_24495" data-name="패스 24495" d="M51.556,20.944H38.667a3.222,3.222,0,0,0-3.222,3.222V48.333a3.222,3.222,0,0,0,3.222,3.222H51.556a3.222,3.222,0,0,0,3.222-3.222V24.167A3.222,3.222,0,0,0,51.556,20.944Zm0,3.222V45.111H38.667V24.167Z" transform="translate(6.444 4.889)" fill="#fff"/>
      <path id="패스_24496" data-name="패스 24496" d="M51.1,6.444H6.9a3.656,3.656,0,0,0-3.683,3.629V39.11A3.656,3.656,0,0,0,6.9,42.739h14.73v3.629H16.7a2.2,2.2,0,0,0-2.43,1.815A2.2,2.2,0,0,0,16.7,50H36.218v-.671h.147V39.11H6.9V10.074H51.1v9.074h3.683V10.074A3.656,3.656,0,0,0,51.1,6.444Z" transform="translate(0 0)" fill="#fff"/>
    </g>
  </g>
</svg>
