<svg xmlns="http://www.w3.org/2000/svg" width="11.345" height="11.345" viewBox="0 0 11.345 11.345"><path d="M81.134-868.655a1.093,1.093,0,0,1-.8-.333,1.093,1.093,0,0,1-.333-.8V-874.9a1.092,1.092,0,0,1,.333-.8,1.092,1.092,0,0,1,.8-.333h1.134v-2.836a1.092,1.092,0,0,1,.333-.8,1.092,1.092,0,0,1,.8-.333H90.21a1.092,1.092,0,0,1,.8.333,1.092,1.092,0,0,1,.333.8v5.105a1.092,1.092,0,0,1-.333.8,1.092,1.092,0,0,1-.8.333H89.076v2.836a1.093,1.093,0,0,1-.333.8,1.093,1.093,0,0,1-.8.333Zm0-1.134h6.807v-3.971H81.134Zm7.941-3.971H90.21v-3.971H83.4v1.7h4.538a1.092,1.092,0,0,1,.8.333,1.092,1.092,0,0,1,.333.8Z" transform="translate(-80 880)" fill="#78a0e8"/></svg>