<svg xmlns="http://www.w3.org/2000/svg" width="16" height="16" viewBox="0 0 16 16"><g transform="translate(48 0.48) rotate(90)"><rect width="16" height="16" transform="translate(-0.48 32)" fill="rgba(116,202,0,0)" opacity="0.3"/><path d="M-1949.579-3395.72l-3.182-3.181a.751.751,0,0,1,0-1.061.748.748,0,0,1,.531-.22.747.747,0,0,1,.53.22l2.083,2.083v-9.553a.75.75,0,0,1,.751-.75.75.75,0,0,1,.75.75v9.188l1.719-1.719a.751.751,0,0,1,1.061,0,.751.751,0,0,1,0,1.061l-3.182,3.181a.746.746,0,0,1-.53.22A.746.746,0,0,1-1949.579-3395.72Zm-7.4-1.53v-9.189l-1.719,1.72a.751.751,0,0,1-1.061,0,.751.751,0,0,1,0-1.061l3.182-3.182a.749.749,0,0,1,1.06,0l3.182,3.182a.751.751,0,0,1,0,1.061.747.747,0,0,1-.531.22.747.747,0,0,1-.53-.22l-2.083-2.084v9.553a.75.75,0,0,1-.751.751A.75.75,0,0,1-1956.981-3397.25Z" transform="translate(1960 3442.341)" fill="#c4cdd5"/></g></svg>