<svg xmlns="http://www.w3.org/2000/svg" width="16" height="16" viewBox="0 0 16 16"><g transform="translate(-1734 -3442)"><rect width="16" height="16" transform="translate(1734 3442)" fill="rgba(255,155,155,0)"/><path d="M25.248,16.5A2.763,2.763,0,0,1,22.5,13.72L22.505,6H21.75a.75.75,0,1,1,0-1.5H25a2,2,0,0,1,2-2h2a2,2,0,0,1,2,2H34.25a.75.75,0,0,1,0,1.5H33.5l-.005,7.72A2.764,2.764,0,0,1,30.745,16.5ZM23.874,13.72a1.383,1.383,0,0,0,1.373,1.39h5.5a1.383,1.383,0,0,0,1.374-1.39V6H23.874ZM29.5,4.5A.5.5,0,0,0,29,4H27a.5.5,0,0,0-.5.5Zm-.747,7.75V8.75a.75.75,0,0,1,1.5,0v3.5a.75.75,0,0,1-1.5,0Zm-3,0V8.75a.75.75,0,0,1,1.5,0v3.5a.75.75,0,0,1-1.5,0Z" transform="translate(1714 3440.5)" fill="#c4cdd5"/></g></svg>