<svg width="18" height="17" viewBox="0 0 18 17" fill="none" xmlns="http://www.w3.org/2000/svg">
<path d="M0 1C0 0.447715 0.447715 0 1 0H5V5H0V1Z" fill="#637381"/>
<rect x="6.5" y="0.5" width="4" height="4" stroke="#637381" stroke-opacity="0.7" stroke-linejoin="round" stroke-dasharray="1 1"/>
<rect x="6.5" y="6.5" width="4" height="4" stroke="#637381" stroke-opacity="0.7" stroke-linejoin="round" stroke-dasharray="1 1"/>
<path d="M15.5 0V0.5H16C16.0687 0.5 16.1331 0.513926 16.1914 0.538086L16.3828 0.0761719V0.0751953C16.627 0.176402 16.8223 0.372144 16.9238 0.616211V0.617188L16.4619 0.808594C16.4861 0.866854 16.5 0.931283 16.5 1V1.5H17V2.5H16.5V3.5H17V4.5H16.5V5H15.75V4.5H14.917V5H14.083V4.5H13.25V5H12.5V4.58301H12.417V4.5H12V3.75H12.5V2.91699H12V2.08301H12.5V1.25H12V0.5H12.5V0H13.5V0.5H14.5V0H15.5Z" stroke="#637381" stroke-opacity="0.7" stroke-linejoin="round" stroke-dasharray="1 1"/>
<path d="M15.5 6V6.5H16C16.0687 6.5 16.1331 6.51393 16.1914 6.53809L16.3828 6.07617V6.0752C16.627 6.1764 16.8223 6.37214 16.9238 6.61621V6.61719L16.4619 6.80859C16.4861 6.86685 16.5 6.93128 16.5 7V7.5H17V8.5H16.5V9.5H17V10.5H16.5V11H15.75V10.5H14.917V11H14.083V10.5H13.25V11H12.5V10.583H12.417V10.5H12V9.75H12.5V8.91699H12V8.08301H12.5V7.25H12V6.5H12.5V6H13.5V6.5H14.5V6H15.5Z" stroke="#637381" stroke-opacity="0.7" stroke-linejoin="round" stroke-dasharray="1 1"/>
<rect y="6" width="5" height="5" fill="#637381"/>
<path d="M0 16C0 16.5523 0.447715 17 1 17H5V12H0V16Z" fill="#637381"/>
<path d="M13.8124 13.1105C13.4851 12.8486 12.9999 13.0818 12.9999 13.5011V15.4601H8.49994C8.22396 15.4601 8.0002 15.6841 7.99994 15.9601C7.99994 16.2362 8.2238 16.4601 8.49994 16.4601H16.5742C17.0467 16.4601 17.2554 15.8658 16.8867 15.5704L13.8124 13.1105Z" fill="#637381"/>
</svg>
