<svg xmlns="http://www.w3.org/2000/svg" width="58" height="58" viewBox="0 0 58 58">
  <g id="그룹_127381" data-name="그룹 127381" transform="translate(-1580 -287)">
    <rect id="사각형_25242" data-name="사각형 25242" width="58" height="58" transform="translate(1580 287)" fill="rgba(255,132,132,0)"/>
    <path id="record_voice_over_FILL0_wght300_GRAD0_opsz24" d="M104.6-823.45l-3.123-3.129a20.473,20.473,0,0,0,4.582-6.552,19.466,19.466,0,0,0,1.664-7.976,19.193,19.193,0,0,0-1.664-7.937,20.6,20.6,0,0,0-4.582-6.512l3.123-3.213a25.388,25.388,0,0,1,5.565,7.947,23.372,23.372,0,0,1,2.063,9.716,23.3,23.3,0,0,1-2.064,9.706,25.58,25.58,0,0,1-5.564,7.948Zm-8.876-8.892-3.206-3.213a8.874,8.874,0,0,0,1.831-2.509,6.851,6.851,0,0,0,.684-3.045,6.8,6.8,0,0,0-.684-3.071,9.011,9.011,0,0,0-1.831-2.483l3.206-3.213a12.613,12.613,0,0,1,2.855,3.924,11.306,11.306,0,0,1,1.043,4.843,11.358,11.358,0,0,1-1.043,4.816A12.522,12.522,0,0,1,95.728-832.343Zm-21.062.787a9.173,9.173,0,0,1-6.735-2.807,9.208,9.208,0,0,1-2.8-6.747,9.209,9.209,0,0,1,2.8-6.747,9.173,9.173,0,0,1,6.735-2.806,9.173,9.173,0,0,1,6.735,2.806,9.208,9.208,0,0,1,2.8,6.747,9.208,9.208,0,0,1-2.8,6.747A9.173,9.173,0,0,1,74.666-831.555ZM54.232-810.768v-6.068a6.9,6.9,0,0,1,1.053-3.745,7,7,0,0,1,2.939-2.6,40.85,40.85,0,0,1,7.6-2.832,33.739,33.739,0,0,1,8.844-1.136,33.739,33.739,0,0,1,8.844,1.136,40.85,40.85,0,0,1,7.6,2.832,7,7,0,0,1,2.939,2.6,6.9,6.9,0,0,1,1.053,3.745v6.068Zm4.087-4.094H91.012v-1.974a2.573,2.573,0,0,0-.506-1.6,3.951,3.951,0,0,0-1.276-1.087,36.811,36.811,0,0,0-6.353-2.4,29.175,29.175,0,0,0-8.213-1.123,29.175,29.175,0,0,0-8.213,1.123,36.811,36.811,0,0,0-6.353,2.4,3.951,3.951,0,0,0-1.276,1.087,2.572,2.572,0,0,0-.506,1.6ZM74.666-835.65a5.242,5.242,0,0,0,3.848-1.6,5.262,5.262,0,0,0,1.6-3.856,5.262,5.262,0,0,0-1.6-3.856,5.242,5.242,0,0,0-3.848-1.6,5.242,5.242,0,0,0-3.848,1.6,5.262,5.262,0,0,0-1.6,3.856,5.262,5.262,0,0,0,1.6,3.856A5.242,5.242,0,0,0,74.666-835.65ZM74.666-841.109ZM74.666-814.862Z" transform="translate(1525.768 1150.813)" fill="#526796"/>
  </g>
</svg>
