<svg xmlns="http://www.w3.org/2000/svg" width="16.8" height="18" viewBox="0 0 16.8 18"><path d="M168.842-862v-2.768l4.885-4.95a1.2,1.2,0,0,1,.442-.292,1.391,1.391,0,0,1,.486-.09,1.309,1.309,0,0,1,.508.1,1.338,1.338,0,0,1,.442.3l.818.832a1.573,1.573,0,0,1,.276.45,1.318,1.318,0,0,1,.1.495,1.559,1.559,0,0,1-.088.506,1.212,1.212,0,0,1-.287.461L171.561-862Zm6.632-5.918-.818-.832Zm-5.305,4.568h.84l2.675-2.745-.4-.427-.42-.4-2.7,2.722Zm-8.4,1.35a1.688,1.688,0,0,1-1.249-.529A1.749,1.749,0,0,1,160-863.8v-14.4a1.749,1.749,0,0,1,.52-1.271,1.688,1.688,0,0,1,1.249-.529h7.074l5.305,5.4v2.7h-1.768v-1.8h-4.421v-4.5h-6.189v14.4h5.305v1.8ZM167.958-871Zm5.327,4.477-.42-.4.818.832Z" transform="translate(-160 880)" fill="#fff"/></svg>