<svg xmlns="http://www.w3.org/2000/svg" xmlns:xlink="http://www.w3.org/1999/xlink" width="64.738" height="61.738" viewBox="0 0 64.738 61.738"><defs><filter id="a" x="18.262" y="0" width="46.476" height="46.476" filterUnits="userSpaceOnUse"><feOffset dy="3" input="SourceAlpha"/><feGaussianBlur stdDeviation="4" result="b"/><feFlood flood-opacity="0.161"/><feComposite operator="in" in2="b"/><feComposite in="SourceGraphic"/></filter></defs><g transform="translate(-708 -324.262)"><rect width="54" height="54" transform="translate(708 332)" opacity="0"/><g transform="translate(-54.442 -20.603)"><g transform="translate(768.442 356.603)"><g transform="translate(0 0)"><path d="M287.6,421.6h22.066a5.833,5.833,0,0,0,5.78-5.85v-38.3a5.833,5.833,0,0,0-5.78-5.849H279.223a5.833,5.833,0,0,0-5.781,5.849v29.83Z" transform="translate(-273.442 -371.603)" fill="#e6e9ec"/><path d="M287.764,421.354a5.866,5.866,0,0,0-5.849-5.85h-8.473l14.322,14.321Z" transform="translate(-273.442 -379.825)" fill="#fff" opacity="0.5"/></g></g><g transform="translate(792.962 387.079)"><path d="M306.193,417.6a1.29,1.29,0,0,1-1.29,1.29h0a1.29,1.29,0,0,1-1.291-1.29v-3.3a1.291,1.291,0,0,1,1.291-1.291h0a1.29,1.29,0,0,1,1.29,1.291Z" transform="translate(-303.613 -409.834)" fill="#a7b1bb"/><path d="M311.494,416.868a1.29,1.29,0,0,1-1.29,1.29h0a1.289,1.289,0,0,1-1.29-1.29v-6.477a1.29,1.29,0,0,1,1.29-1.29h0a1.291,1.291,0,0,1,1.29,1.29Z" transform="translate(-304.606 -409.102)" fill="#a7b1bb"/><path d="M316.793,417.349a1.289,1.289,0,0,1-1.289,1.29h0a1.29,1.29,0,0,1-1.291-1.29v-4.388a1.292,1.292,0,0,1,1.291-1.291h0a1.29,1.29,0,0,1,1.289,1.291Z" transform="translate(-305.598 -409.583)" fill="#a7b1bb"/></g><path d="M307.016,371.6H279.292a5.867,5.867,0,0,0-5.85,5.849V394.73A24.933,24.933,0,0,0,307.016,371.6Z" transform="translate(495 -15)" fill="#fff" opacity="0.2"/></g><g transform="translate(737 332)"><g transform="matrix(1, 0, 0, 1, -29, -7.74)" filter="url(#a)"><path d="M157.539,379.14A11.238,11.238,0,1,1,146.3,367.9,11.238,11.238,0,0,1,157.539,379.14Z" transform="translate(-104.8 -358.9)" fill="#637381" opacity="0.5"/></g><path d="M146.062,391.4a12.466,12.466,0,1,1,4.866-.983A12.422,12.422,0,0,1,146.062,391.4Zm0-22.858a10.359,10.359,0,1,0,10.36,10.359A10.37,10.37,0,0,0,146.062,368.543Z" transform="translate(-133.563 -366.402)" fill="#fff"/><g transform="translate(11.238 6.054)"><circle cx="1.26" cy="1.26" r="1.26" transform="translate(0.002 9.977)" fill="#fff"/><path d="M-.238,6.5c-.7,0-1.262-.349-1.262-.779V-.721c0-.43.565-.779,1.262-.779s1.262.349,1.262.779V5.721C1.024,6.151.459,6.5-.238,6.5Z" transform="translate(1.5 1.5)" fill="#fff"/></g></g></g></svg>