<svg xmlns="http://www.w3.org/2000/svg" width="58.001" height="58.003" viewBox="0 0 58.001 58.003">
  <g id="그룹_127417" data-name="그룹 127417" transform="translate(-486.999 -70.998)">
    <rect id="사각형_25242" data-name="사각형 25242" width="58" height="58" transform="translate(487 71)" fill="rgba(255,255,255,0)"/>
    <path id="합치기_40" data-name="합치기 40" d="M-3371.271-4934.285a29.569,29.569,0,0,1-9.216-6.225,29.586,29.586,0,0,1-6.227-9.231A28.239,28.239,0,0,1-3389-4961a27.753,27.753,0,0,1,2.348-11.333,29.393,29.393,0,0,1,6.379-9.207,30.341,30.341,0,0,1,9.427-6.189,29.532,29.532,0,0,1,11.515-2.272,30.356,30.356,0,0,1,10.849,1.954,28.924,28.924,0,0,1,9,5.4,26.206,26.206,0,0,1,6.179,8.2,23.448,23.448,0,0,1,2.3,10.307,19.884,19.884,0,0,1-1.177,7.063,14.29,14.29,0,0,1-3.533,5.336,15.682,15.682,0,0,1-4.333,2.927l-3.585-3.585a11.447,11.447,0,0,0,4.64-2.606c2.263-2.1,3.41-5.168,3.41-9.135a19.223,19.223,0,0,0-7.1-15.276,25.084,25.084,0,0,0-16.648-6.01,24.688,24.688,0,0,0-17.779,7.1,23.331,23.331,0,0,0-7.311,17.325,23.639,23.639,0,0,0,7.136,17.286,23.569,23.569,0,0,0,17.227,7.136,1.707,1.707,0,0,0,1.165-.367,1.268,1.268,0,0,0,.419-1.006,3.919,3.919,0,0,0-1.145-2.4,6.347,6.347,0,0,1-1.145-4.174,6.872,6.872,0,0,1,2.213-5.29,7.821,7.821,0,0,1,1.082-.83l3.454,3.454a2.55,2.55,0,0,0-1.389.782,2.893,2.893,0,0,0-.781,2.014,4.979,4.979,0,0,0,1.145,2.943,5.7,5.7,0,0,1,1.145,3.5,5.67,5.67,0,0,1-1.673,4.487,6.594,6.594,0,0,1-4.49,1.465A28.03,28.03,0,0,1-3371.271-4934.285Zm36.17,2.286a2.17,2.17,0,0,1-1.53-.64l-19.062-19.063,4.964-4.964,19.063,19.063a2.136,2.136,0,0,1,.667,1.558,2.136,2.136,0,0,1-.667,1.558l-1.85,1.849a2.063,2.063,0,0,1-1.511.641Zm-29.163-25.3a5.371,5.371,0,0,1-1.615-3.948,4.369,4.369,0,0,0-1.138-3.161,5.463,5.463,0,0,0-2.414-1.546,9.069,9.069,0,0,1,3.113-2.243,9.137,9.137,0,0,1,3.778-.839,7.5,7.5,0,0,1,5.5,2.288,7.5,7.5,0,0,1,2.288,5.5,5.371,5.371,0,0,1-1.615,3.948,5.371,5.371,0,0,1-3.948,1.616A5.371,5.371,0,0,1-3364.265-4957.3Zm.61-8.288a10.547,10.547,0,0,1,.807,2,8.385,8.385,0,0,1,.307,2.337,2.149,2.149,0,0,0,.64,1.585,2.15,2.15,0,0,0,1.585.64,2.153,2.153,0,0,0,1.585-.64,2.154,2.154,0,0,0,.64-1.585,4.286,4.286,0,0,0-1.308-3.144,4.286,4.286,0,0,0-3.143-1.307h-.557A1.467,1.467,0,0,0-3363.655-4965.585Zm17.72,5.783a3.713,3.713,0,0,1-1.092-2.723,3.723,3.723,0,0,1,1.092-2.725,3.718,3.718,0,0,1,2.724-1.092,3.714,3.714,0,0,1,2.724,1.092,3.714,3.714,0,0,1,1.092,2.725,3.708,3.708,0,0,1-1.092,2.723,3.7,3.7,0,0,1-2.724,1.092A3.709,3.709,0,0,1-3345.934-4959.8Zm-33.579,0a3.708,3.708,0,0,1-1.092-2.723,3.719,3.719,0,0,1,1.092-2.725,3.718,3.718,0,0,1,2.724-1.092,3.713,3.713,0,0,1,2.724,1.092,3.718,3.718,0,0,1,1.092,2.725,3.708,3.708,0,0,1-1.092,2.723,3.7,3.7,0,0,1-2.724,1.092A3.709,3.709,0,0,1-3379.513-4959.8Zm24.42-12.21a3.717,3.717,0,0,1-1.092-2.724,3.723,3.723,0,0,1,1.092-2.725,3.717,3.717,0,0,1,2.724-1.091,3.709,3.709,0,0,1,2.724,1.091,3.714,3.714,0,0,1,1.092,2.725,3.707,3.707,0,0,1-1.092,2.724,3.709,3.709,0,0,1-2.724,1.092A3.715,3.715,0,0,1-3355.093-4972.012Zm-15.263,0a3.711,3.711,0,0,1-1.091-2.724,3.719,3.719,0,0,1,1.091-2.725,3.717,3.717,0,0,1,2.724-1.091,3.711,3.711,0,0,1,2.724,1.091,3.714,3.714,0,0,1,1.092,2.725,3.707,3.707,0,0,1-1.092,2.724,3.708,3.708,0,0,1-2.724,1.092A3.715,3.715,0,0,1-3370.356-4972.012Z" transform="translate(3876 5060.998)" fill="#fff"/>
  </g>
</svg>
