<svg xmlns="http://www.w3.org/2000/svg" width="112" height="20" viewBox="0 0 112 20">
  <g id="LOGO_ss" transform="translate(-135.684 13.24)">
    <rect id="container" width="112" height="20" transform="translate(135.684 -13.24)" fill="#fff" opacity="0"/>
    <g id="LOGO_signsquare" transform="translate(87.185 -24.185)">
      <g id="Group_7853" data-name="Group 7853" transform="translate(48.499 10.945)">
        <path id="Path_11345" data-name="Path 11345" d="M562.613,135.811h-3.336a2.4,2.4,0,0,0-2.68-2.023c-1.544,0-2.342.6-2.342,1.473,0,1.083,1.118,1.455,3.94,2.041,3.336.692,4.472,2.342,4.472,4.507,0,2.769-2.608,4.454-5.839,4.454-3.567,0-6.175-1.934-6.317-5.022h3.319c.177,1.384,1.384,2.307,3.23,2.307,1.313,0,2.289-.657,2.289-1.6,0-1.154-.976-1.615-3.55-2.094-3.141-.586-4.845-1.881-4.845-4.6s2.591-4.171,5.857-4.171S562.453,133.059,562.613,135.811Z" transform="translate(-550.51 -130.486)" fill="#cc26af"/>
        <path id="Path_11346" data-name="Path 11346" d="M703.8,126.174a1.934,1.934,0,1,1-1.934-1.934A1.874,1.874,0,0,1,703.8,126.174Zm-.355,13.523h-3.159V129.263h3.159Z" transform="translate(-686.763 -124.24)" fill="#cc26af"/>
        <path id="Path_11347" data-name="Path 11347" d="M756.429,189.875h3.194c.16.674.763,1.1,1.934,1.1a2.055,2.055,0,0,0,2.2-2.148v-1.1a3.509,3.509,0,0,1-2.981,1.313,4.969,4.969,0,0,1-5.057-5.27,5.044,5.044,0,0,1,5.057-5.36,3.506,3.506,0,0,1,2.981,1.313v-1.064h3.159v10.2c0,2.822-2.254,4.774-5.359,4.774S756.767,191.879,756.429,189.875Zm7.383-6.1a2.475,2.475,0,0,0-2.538-2.662,2.67,2.67,0,0,0,0,5.324A2.5,2.5,0,0,0,763.812,183.77Z" transform="translate(-737.637 -173.636)" fill="#cc26af"/>
        <path id="Path_11348" data-name="Path 11348" d="M904.73,178.659h3.159v1.064a3.414,3.414,0,0,1,2.911-1.313c2.414,0,4.064,1.757,4.064,4.632v6.016H911.7v-5.484c0-1.579-.639-2.449-1.828-2.449s-1.988.976-1.988,2.591v5.342H904.73v-10.4Z" transform="translate(-873.516 -173.636)" fill="#cc26af"/>
        <path id="Path_11349" data-name="Path 11349" d="M1044.313,135.811h-3.336a2.4,2.4,0,0,0-2.68-2.023c-1.544,0-2.342.6-2.342,1.473,0,1.083,1.118,1.455,3.94,2.041,3.336.692,4.472,2.342,4.472,4.507,0,2.769-2.608,4.454-5.839,4.454-3.567,0-6.176-1.934-6.318-5.022h3.319c.177,1.384,1.384,2.307,3.23,2.307,1.313,0,2.289-.657,2.289-1.6,0-1.154-.976-1.615-3.549-2.094-3.141-.586-4.845-1.881-4.845-4.6s2.591-4.171,5.857-4.171S1044.153,133.059,1044.313,135.811Z" transform="translate(-989.762 -130.486)" fill="#cc26af"/>
        <path id="Path_11350" data-name="Path 11350" d="M1187.659,187.993a3.506,3.506,0,0,1-2.981,1.313c-2.981,0-5.057-2.289-5.057-5.448s2.076-5.449,5.057-5.449a3.506,3.506,0,0,1,2.981,1.313v-1.064h3.159v14.729h-3.159Zm.053-4.135a2.52,2.52,0,0,0-2.538-2.75,2.767,2.767,0,0,0,0,5.5A2.54,2.54,0,0,0,1187.711,183.859Z" transform="translate(-1124.182 -173.636)" fill="#cc26af"/>
        <path id="Path_11351" data-name="Path 11351" d="M1326.81,187.246V181.23h3.159v5.484c0,1.579.639,2.449,1.828,2.449s1.988-.976,1.988-2.591V181.23h3.159v10.4h-3.159v-1.065a3.412,3.412,0,0,1-2.911,1.313C1328.461,191.878,1326.81,190.121,1326.81,187.246Z" transform="translate(-1258.402 -176.208)" fill="#cc26af"/>
        <path id="Path_11352" data-name="Path 11352" d="M1457.71,183.859c0-3.159,2.076-5.449,5.058-5.449a3.507,3.507,0,0,1,2.981,1.313v-1.064h3.159v10.4h-3.159v-1.065a3.506,3.506,0,0,1-2.981,1.313C1459.787,189.306,1457.71,187.017,1457.71,183.859Zm8.092,0a2.52,2.52,0,0,0-2.538-2.75,2.767,2.767,0,0,0,0,5.5A2.54,2.54,0,0,0,1465.8,183.859Z" transform="translate(-1377.767 -173.636)" fill="#cc26af"/>
        <path id="Path_11353" data-name="Path 11353" d="M1606.73,178.659h3.159v1.064a3.414,3.414,0,0,1,2.911-1.313,3.87,3.87,0,0,1,1.367.177l.035,2.964a3.494,3.494,0,0,0-1.615-.355,2.414,2.414,0,0,0-2.7,2.538v5.324h-3.159v-10.4Z" transform="translate(-1513.655 -173.636)" fill="#cc26af"/>
        <path id="Path_11354" data-name="Path 11354" d="M1693.32,183.859a5.413,5.413,0,1,1,10.825,0,7,7,0,0,1-.072,1.012h-7.613a2.2,2.2,0,0,0,2.271,1.9,2.141,2.141,0,0,0,1.917-.816h3.177c-.532,1.987-2.573,3.354-5.093,3.354a5.218,5.218,0,0,1-5.412-5.448Zm7.737-1.029a2.211,2.211,0,0,0-2.325-1.917,2.177,2.177,0,0,0-2.289,1.917Z" transform="translate(-1592.615 -173.636)" fill="#cc26af"/>
      </g>
    </g>
  </g>
</svg>
