<svg xmlns="http://www.w3.org/2000/svg" width="58" height="58" viewBox="0 0 58 58">
  <g id="그룹_127395" data-name="그룹 127395" transform="translate(-69 -286)">
    <rect id="사각형_25242" data-name="사각형 25242" width="58" height="58" transform="translate(69 286)" fill="rgba(255,132,132,0)"/>
    <path id="합치기_26" data-name="합치기 26" d="M-3358.637-4932a3.2,3.2,0,0,1-2.388-1.006,3.41,3.41,0,0,1-.976-2.466v-11.053a3.32,3.32,0,0,1,1.027-2.466,3.487,3.487,0,0,1,2.542-1.005v-3.9a7.011,7.011,0,0,1,2.028-5.062,6.576,6.576,0,0,1,4.9-2.094,6.573,6.573,0,0,1,4.9,2.094,7.007,7.007,0,0,1,2.029,5.062v3.9a3.487,3.487,0,0,1,2.542,1.005,3.323,3.323,0,0,1,1.026,2.466v11.053a3.408,3.408,0,0,1-.974,2.466,3.2,3.2,0,0,1-2.388,1.006Zm4.457-24.66a3.826,3.826,0,0,0-1.094,2.766v3.9h7.549v-3.9a3.83,3.83,0,0,0-1.095-2.766,3.586,3.586,0,0,0-2.68-1.131A3.585,3.585,0,0,0-3354.18-4956.66ZM-3366.5-4936h-17.437a4.875,4.875,0,0,1-3.592-1.493,5.018,5.018,0,0,1-1.47-3.646v-43.725a5.029,5.029,0,0,1,1.47-3.647,4.878,4.878,0,0,1,3.592-1.49h22.239l14.7,14.92v10.875a12.477,12.477,0,0,0-4.2-1v-7.741h-12.6v-12.791h-20.139a.819.819,0,0,0-.592.274.845.845,0,0,0-.269.6v43.725a.849.849,0,0,0,.269.6.819.819,0,0,0,.592.274h17.439V-4936h0Zm0-10.66h-12v-4.262h12v4.26h0Zm4.939-11.368H-3378.5v-4.263h19.229a12.389,12.389,0,0,0-2.289,4.263Z" transform="translate(3463 5276)" fill="#526796"/>
  </g>
</svg>
