<svg xmlns="http://www.w3.org/2000/svg" width="16" height="18" viewBox="0 0 16 18"><g transform="translate(-748 -765)"><rect width="16" height="16" transform="translate(748 766)" fill="rgba(255,255,255,0)" opacity="0.16"/><path d="M-6089.308-3924.729l.08-.017a6.262,6.262,0,0,0,3.607-2.114,5.809,5.809,0,0,0,1.426-3.873,5.851,5.851,0,0,0-1.761-4.277,5.849,5.849,0,0,0-4.275-1.761h-.124l1.281,1.282-1.218,1.218-3.363-3.365,3.363-3.365,1.218,1.218-1.281,1.281h.124a7.529,7.529,0,0,1,5.508,2.259,7.533,7.533,0,0,1,2.259,5.51,7.518,7.518,0,0,1-1.915,5.1,7.769,7.769,0,0,1-4.816,2.613l-.113.017Zm-1.96,1.693a7.507,7.507,0,0,1-4.824-2.568,7.6,7.6,0,0,1-1.909-5.128,7.58,7.58,0,0,1,.625-3.027,7.874,7.874,0,0,1,1.746-2.542l.069-.068,1.236,1.234-.077.069a5.585,5.585,0,0,0-1.4,1.961,6.043,6.043,0,0,0-.472,2.372,5.929,5.929,0,0,0,1.414,3.9,5.894,5.894,0,0,0,3.618,2.065l.082.014v1.729Z" transform="translate(6846 4706)" fill="#a7b1bb"/></g></svg>