<svg xmlns="http://www.w3.org/2000/svg" width="14" height="14" viewBox="0 0 14 14"><path d="M14.619,9.686a4.7,4.7,0,0,0,0-1.372l1.518-1.155a.347.347,0,0,0,.086-.448L14.785,4.289a.362.362,0,0,0-.317-.175.345.345,0,0,0-.122.021l-1.792.7a5.3,5.3,0,0,0-1.216-.686l-.273-1.855A.348.348,0,0,0,10.712,2H7.833a.348.348,0,0,0-.353.294L7.207,4.149a5.568,5.568,0,0,0-1.216.686L4.2,4.135a.418.418,0,0,0-.13-.021.358.358,0,0,0-.309.175L2.321,6.711a.339.339,0,0,0,.086.448L3.925,8.314A5.4,5.4,0,0,0,3.875,9a5.4,5.4,0,0,0,.05.686L2.407,10.841a.347.347,0,0,0-.086.448L3.76,13.711a.362.362,0,0,0,.317.175.345.345,0,0,0,.122-.021l1.792-.7a5.3,5.3,0,0,0,1.216.686l.273,1.855A.348.348,0,0,0,7.833,16h2.879a.348.348,0,0,0,.353-.294l.273-1.855a5.568,5.568,0,0,0,1.216-.686l1.792.7a.418.418,0,0,0,.13.021.358.358,0,0,0,.309-.175l1.439-2.422a.347.347,0,0,0-.086-.448Zm-1.425-1.2A3.639,3.639,0,0,1,13.23,9a5.07,5.07,0,0,1-.036.511l-.1.791.64.49.777.588-.5.847-.914-.357-.748-.294-.648.476a4.244,4.244,0,0,1-.9.511l-.763.3-.115.791-.144.945H8.769l-.137-.945-.115-.791-.763-.3a4.113,4.113,0,0,1-.885-.5l-.655-.49-.763.3-.914.357-.5-.847.777-.588.64-.49-.1-.791C5.329,9.3,5.314,9.14,5.314,9s.014-.3.036-.511l.1-.791-.64-.49L4.033,6.62l.5-.847.914.357.748.294.648-.476a4.244,4.244,0,0,1,.9-.511l.763-.3.115-.791L8.769,3.4h1l.137.945.115.791.763.3a4.113,4.113,0,0,1,.885.5l.655.49.763-.3L14,5.766l.5.847-.77.6-.64.49.1.791ZM9.272,6.2A2.8,2.8,0,1,0,12.151,9,2.839,2.839,0,0,0,9.272,6.2Zm0,4.2A1.4,1.4,0,1,1,10.712,9,1.424,1.424,0,0,1,9.272,10.4Z" transform="translate(-2.271 -2)" fill="#fff"/></svg>