<svg xmlns="http://www.w3.org/2000/svg" width="16" height="16" viewBox="0 0 16 16"><g transform="translate(-436 -288)"><rect width="16" height="16" transform="translate(436 288)" fill="rgba(116,202,0,0)" opacity="0.3"/><path d="M86.02-869.78l4.935-4.935-.98-.98L86.02-871.74l-1.995-1.995-.98.98ZM87-866a6.816,6.816,0,0,1-2.73-.551,7.069,7.069,0,0,1-2.222-1.5,7.069,7.069,0,0,1-1.5-2.222A6.816,6.816,0,0,1,80-873a6.816,6.816,0,0,1,.551-2.73,7.069,7.069,0,0,1,1.5-2.222,7.069,7.069,0,0,1,2.222-1.5A6.816,6.816,0,0,1,87-880a6.816,6.816,0,0,1,2.73.551,7.069,7.069,0,0,1,2.223,1.5,7.069,7.069,0,0,1,1.5,2.222A6.816,6.816,0,0,1,94-873a6.816,6.816,0,0,1-.551,2.73,7.069,7.069,0,0,1-1.5,2.222,7.069,7.069,0,0,1-2.223,1.5A6.816,6.816,0,0,1,87-866Zm0-1.4a5.4,5.4,0,0,0,3.972-1.628A5.4,5.4,0,0,0,92.6-873a5.4,5.4,0,0,0-1.628-3.972A5.4,5.4,0,0,0,87-878.6a5.4,5.4,0,0,0-3.973,1.628A5.4,5.4,0,0,0,81.4-873a5.4,5.4,0,0,0,1.627,3.973A5.4,5.4,0,0,0,87-867.4ZM87-873Z" transform="translate(357 1169)" fill="#a7b1bb"/></g></svg>