<svg id="ios-rocket" xmlns="http://www.w3.org/2000/svg" width="12" height="11.991" viewBox="0 0 12 11.991">
  <path id="패스_2762" data-name="패스 2762" d="M13.434,1.661a.127.127,0,0,0-.1-.1c-1.569-.384-5.194.984-7.158,2.948a8.466,8.466,0,0,0-.954,1.128A3.565,3.565,0,0,0,3.5,5.855a3.941,3.941,0,0,0-2,3.031.258.258,0,0,0,.282.3l2.339-.257c0,.225.018.4.031.528a.527.527,0,0,0,.153.32l.905.905a.527.527,0,0,0,.32.153,5.066,5.066,0,0,0,.525.031L5.8,13.2a.258.258,0,0,0,.3.282,3.922,3.922,0,0,0,3.031-2,3.557,3.557,0,0,0,.219-1.722,8.549,8.549,0,0,0,1.131-.954c1.973-1.961,3.331-5.506,2.953-7.153ZM8.727,6.273a1.231,1.231,0,1,1,1.742,0A1.23,1.23,0,0,1,8.727,6.273Z" transform="translate(-1.496 -1.499)" fill="#20252a"/>
  <path id="패스_2763" data-name="패스 2763" d="M5.453,11.891a1.19,1.19,0,0,1-.619.25.841.841,0,0,1-.969-.969,1.171,1.171,0,0,1,.247-.616l0,0a.1.1,0,0,0-.087-.178,1.439,1.439,0,0,0-.841.409c-.563.563-.616,2.65-.616,2.65s2.091-.053,2.653-.616a1.424,1.424,0,0,0,.409-.841.107.107,0,0,0-.181-.087Z" transform="translate(-1.496 -2.5)"/>
</svg>
