<svg xmlns="http://www.w3.org/2000/svg" width="11.133" height="13.607" viewBox="0 0 11.133 13.607">
  <g id="Icon_feather-file-text" data-name="Icon feather-file-text" transform="translate(-4.5 -1.5)">
    <path id="패스_6957" data-name="패스 6957" d="M6.356,1.5H11.3a.619.619,0,0,1,.437.181l3.711,3.711a.619.619,0,0,1,.181.437v7.422a1.858,1.858,0,0,1-1.856,1.856H6.356A1.858,1.858,0,0,1,4.5,13.252v-9.9A1.858,1.858,0,0,1,6.356,1.5Zm4.692,1.237H6.356a.619.619,0,0,0-.619.619v9.9a.619.619,0,0,0,.619.619h7.422a.619.619,0,0,0,.619-.619V6.086Z" transform="translate(0 0)" fill="#858f9b"/>
    <path id="패스_6958" data-name="패스 6958" d="M23.987,6.628H20.141a.641.641,0,0,1-.641-.641V2.141a.641.641,0,0,1,1.282,0v3.2h3.2a.641.641,0,1,1,0,1.282Z" transform="translate(-8.995 0)" fill="#858f9b"/>
    <path id="패스_6959" data-name="패스 6959" d="M15.9,19.282H11.1A.642.642,0,0,1,11.1,18h4.8a.642.642,0,0,1,0,1.282Z" transform="translate(-3.436 -9.721)" fill="#858f9b"/>
    <path id="패스_6960" data-name="패스 6960" d="M15.9,25.282H11.1A.642.642,0,0,1,11.1,24h4.8a.642.642,0,0,1,0,1.282Z" transform="translate(-3.436 -13.256)" fill="#858f9b"/>
    <path id="패스_6961" data-name="패스 6961" d="M12.423,13.282H11.141a.641.641,0,0,1,0-1.282h1.282a.641.641,0,1,1,0,1.282Z" transform="translate(-3.552 -6.186)" fill="#858f9b"/>
  </g>
</svg>
