<svg xmlns="http://www.w3.org/2000/svg" width="16" height="16" viewBox="0 0 16 16"><g transform="translate(-21 -101)"><rect width="16" height="16" transform="translate(21 101)" fill="rgba(0,0,0,0)"/><path d="M8,1a7,7,0,1,0,7,7A7,7,0,0,0,8,1M8,0A8,8,0,1,1,0,8,8,8,0,0,1,8,0Z" transform="translate(21 101)" fill="#c4cdd5"/><path d="M124.889-829.111h2v-6h-2ZM125.889-832.111Z" transform="translate(-98.889 941.111)" fill="#c4cdd5"/><path d="M124.889-829.111h2v-6h-2ZM125.889-832.111Z" transform="translate(-94.889 941.111)" fill="#c4cdd5"/></g></svg>