<svg xmlns="http://www.w3.org/2000/svg" width="16" height="16" viewBox="0 0 16 16"><g transform="translate(-910 -424)"><rect width="16" height="16" transform="translate(910 424)" fill="rgba(255,0,0,0)"/><path d="M296.659-772.614a1.226,1.226,0,0,1-.9-.374,1.226,1.226,0,0,1-.374-.9,1.226,1.226,0,0,1,.374-.9,1.225,1.225,0,0,1,.9-.374,1.225,1.225,0,0,1,.9.374,1.225,1.225,0,0,1,.374.9,1.226,1.226,0,0,1-.374.9A1.226,1.226,0,0,1,296.659-772.614Zm4.727,0a1.226,1.226,0,0,1-.9-.374,1.226,1.226,0,0,1-.374-.9,1.225,1.225,0,0,1,.374-.9,1.225,1.225,0,0,1,.9-.374,1.226,1.226,0,0,1,.9.374,1.226,1.226,0,0,1,.374.9,1.226,1.226,0,0,1-.374.9A1.226,1.226,0,0,1,301.386-772.614Zm-4.727-4.727a1.226,1.226,0,0,1-.9-.374,1.226,1.226,0,0,1-.374-.9,1.226,1.226,0,0,1,.374-.9,1.226,1.226,0,0,1,.9-.374,1.226,1.226,0,0,1,.9.374,1.226,1.226,0,0,1,.374.9,1.226,1.226,0,0,1-.374.9A1.226,1.226,0,0,1,296.659-777.341Zm4.727,0a1.226,1.226,0,0,1-.9-.374,1.226,1.226,0,0,1-.374-.9,1.226,1.226,0,0,1,.374-.9,1.226,1.226,0,0,1,.9-.374,1.226,1.226,0,0,1,.9.374,1.226,1.226,0,0,1,.374.9,1.226,1.226,0,0,1-.374.9A1.226,1.226,0,0,1,301.386-777.341Zm-4.727-4.727a1.226,1.226,0,0,1-.9-.374,1.225,1.225,0,0,1-.374-.9,1.226,1.226,0,0,1,.374-.9,1.225,1.225,0,0,1,.9-.374,1.225,1.225,0,0,1,.9.374,1.225,1.225,0,0,1,.374.9,1.225,1.225,0,0,1-.374.9A1.226,1.226,0,0,1,296.659-782.069Zm4.727,0a1.226,1.226,0,0,1-.9-.374,1.225,1.225,0,0,1-.374-.9,1.226,1.226,0,0,1,.374-.9,1.225,1.225,0,0,1,.9-.374,1.226,1.226,0,0,1,.9.374,1.226,1.226,0,0,1,.374.9,1.225,1.225,0,0,1-.374.9A1.226,1.226,0,0,1,301.386-782.069Z" transform="translate(618.614 1210.614)" fill="#a7b1bb"/></g></svg>