<svg xmlns="http://www.w3.org/2000/svg" width="16" height="16" viewBox="0 0 16 16"><g transform="translate(-1230 -473)"><path d="M86.88-868.32l5.64-5.64-1.12-1.12-4.52,4.52L84.6-872.84l-1.12,1.12ZM88-864a7.787,7.787,0,0,1-3.12-.63,8.079,8.079,0,0,1-2.54-1.707,8.079,8.079,0,0,1-1.707-2.54A7.787,7.787,0,0,1,80-872a7.787,7.787,0,0,1,.63-3.12,8.079,8.079,0,0,1,1.707-2.54,8.08,8.08,0,0,1,2.54-1.707A7.787,7.787,0,0,1,88-880a7.787,7.787,0,0,1,3.12.63,8.077,8.077,0,0,1,2.54,1.707,8.078,8.078,0,0,1,1.707,2.54A7.786,7.786,0,0,1,96-872a7.787,7.787,0,0,1-.63,3.12,8.078,8.078,0,0,1-1.707,2.54,8.079,8.079,0,0,1-2.54,1.707A7.788,7.788,0,0,1,88-864Z" transform="translate(1150 1353)" fill="#4caf50"/></g></svg>