<svg xmlns="http://www.w3.org/2000/svg" width="15" height="11.667" viewBox="0 0 15 11.667">
  <path id="sitemap-solid" d="M5.417,33.25A1.25,1.25,0,0,1,6.667,32H8.333a1.25,1.25,0,0,1,1.25,1.25v1.667a1.25,1.25,0,0,1-1.25,1.25H8.125v1.042h3.958a1.459,1.459,0,0,1,1.458,1.458V39.5h.208A1.25,1.25,0,0,1,15,40.75v1.667a1.25,1.25,0,0,1-1.25,1.25H12.083a1.25,1.25,0,0,1-1.25-1.25V40.75a1.25,1.25,0,0,1,1.25-1.25h.208v-.833a.209.209,0,0,0-.208-.208H8.125V39.5h.208a1.25,1.25,0,0,1,1.25,1.25v1.667a1.25,1.25,0,0,1-1.25,1.25H6.667a1.25,1.25,0,0,1-1.25-1.25V40.75a1.25,1.25,0,0,1,1.25-1.25h.208V38.458H2.917a.209.209,0,0,0-.208.208V39.5h.208a1.25,1.25,0,0,1,1.25,1.25v1.667a1.25,1.25,0,0,1-1.25,1.25H1.25A1.25,1.25,0,0,1,0,42.417V40.75A1.25,1.25,0,0,1,1.25,39.5h.208v-.833a1.459,1.459,0,0,1,1.458-1.458H6.875V36.167H6.667a1.25,1.25,0,0,1-1.25-1.25Z" transform="translate(0 -32)" fill="#fff"/>
</svg>
