<svg xmlns="http://www.w3.org/2000/svg" width="16" height="16" viewBox="0 0 16 16"><g transform="translate(-179 -456)"><rect width="16" height="16" transform="translate(179 456)" fill="rgba(255,155,155,0)"/><path d="M182.764-848.762h5.526v-1.105h-5.526Zm0-2.947h5.526v-1.105h-5.526ZM181.333-846a1.286,1.286,0,0,1-.945-.387,1.286,1.286,0,0,1-.387-.945v-11.336a1.286,1.286,0,0,1,.387-.945,1.286,1.286,0,0,1,.945-.387h5.852l3.868,3.868v8.8a1.286,1.286,0,0,1-.387.945,1.286,1.286,0,0,1-.945.387Zm5.3-9.579v-3.316h-5.3a.217.217,0,0,0-.156.071.217.217,0,0,0-.071.156v11.336a.217.217,0,0,0,.071.156.217.217,0,0,0,.156.071h8.389a.217.217,0,0,0,.156-.071.217.217,0,0,0,.071-.156v-8.247Zm-5.526-3.316v0Z" transform="translate(1.499 1316.999)" fill="#c4cdd5"/></g></svg>