<svg xmlns="http://www.w3.org/2000/svg" xmlns:xlink="http://www.w3.org/1999/xlink" width="72" height="63.944" viewBox="0 0 72 63.944"><defs><clipPath id="a"/><filter id="b" x="2.721" y="15.469" width="48.476" height="48.476" filterUnits="userSpaceOnUse"><feOffset dy="3" input="SourceAlpha"/><feGaussianBlur stdDeviation="4" result="c"/><feFlood flood-opacity="0.161"/><feComposite operator="in" in2="c"/><feComposite in="SourceGraphic"/></filter><filter id="d" x="32" y="0" width="40" height="40" filterUnits="userSpaceOnUse"><feOffset dy="3" input="SourceAlpha"/><feGaussianBlur stdDeviation="4" result="e"/><feFlood flood-opacity="0.161"/><feComposite operator="in" in2="e"/><feComposite in="SourceGraphic"/></filter></defs><g transform="translate(-700 -445)"><g transform="translate(679 445)"><g transform="translate(-687 -328)"><rect width="54" height="54" transform="translate(708 332)" opacity="0"/><g transform="translate(725.315 -387.112)"><path d="M165.9,816.984H141.212V813.9a5.786,5.786,0,0,0-5.785-5.788H123.471a5.788,5.788,0,0,0-5.786,5.788v40.883a5.786,5.786,0,0,0,5.786,5.787H165.9a5.786,5.786,0,0,0,5.785-5.787V822.77A5.785,5.785,0,0,0,165.9,816.984Z" transform="translate(-135 -87)" fill="#e6e9ec"/><g transform="translate(-3.856 738.319)"><g transform="matrix(1, 0, 0, 1, -13.46, -23.21)" filter="url(#b)"><path d="M159.539,380.14A12.238,12.238,0,1,1,147.3,367.9,12.238,12.238,0,0,1,159.539,380.14Z" transform="translate(-120.34 -343.43)" fill="#637381" opacity="0.5"/></g><path d="M147.062,393.4a13.463,13.463,0,1,1,5.255-1.061A13.416,13.416,0,0,1,147.062,393.4Zm0-24.687A11.187,11.187,0,1,0,158.251,379.9,11.2,11.2,0,0,0,147.062,368.714Z" transform="translate(-133.563 -366.402)" fill="#fff"/><g transform="translate(7.024 7.023)"><path d="M-.238,11.452A1.262,1.262,0,0,1-1.5,10.19V-.238A1.262,1.262,0,0,1-.238-1.5,1.262,1.262,0,0,1,1.024-.238V10.19A1.262,1.262,0,0,1-.238,11.452Z" transform="translate(6.713 1.5)" fill="#fff"/><path d="M10.189,1.024H-.238A1.262,1.262,0,0,1-1.5-.238,1.262,1.262,0,0,1-.238-1.5H10.189A1.262,1.262,0,0,1,11.451-.238,1.262,1.262,0,0,1,10.189,1.024Z" transform="translate(1.5 6.715)" fill="#fff"/></g></g></g></g></g><g transform="matrix(1, 0, 0, 1, 700, 445)" filter="url(#d)"><circle cx="8" cy="8" r="8" transform="translate(44 9)" fill="#fff"/></g><path d="M88-868a.774.774,0,0,0,.57-.23.774.774,0,0,0,.23-.57.774.774,0,0,0-.23-.57.774.774,0,0,0-.57-.23.774.774,0,0,0-.57.23.774.774,0,0,0-.23.57.774.774,0,0,0,.23.57A.774.774,0,0,0,88-868Zm-.8-3.2h1.6V-876H87.2ZM88-864a7.79,7.79,0,0,1-3.12-.63,8.078,8.078,0,0,1-2.54-1.71,8.079,8.079,0,0,1-1.71-2.54A7.79,7.79,0,0,1,80-872a7.79,7.79,0,0,1,.63-3.12,8.079,8.079,0,0,1,1.71-2.54,8.078,8.078,0,0,1,2.54-1.71A7.79,7.79,0,0,1,88-880a7.79,7.79,0,0,1,3.12.63,8.078,8.078,0,0,1,2.54,1.71,8.079,8.079,0,0,1,1.71,2.54A7.79,7.79,0,0,1,96-872a7.79,7.79,0,0,1-.63,3.12,8.079,8.079,0,0,1-1.71,2.54,8.078,8.078,0,0,1-2.54,1.71A7.79,7.79,0,0,1,88-864Z" transform="translate(664 1334)" fill="#d32f2f"/></g></svg>