<svg xmlns="http://www.w3.org/2000/svg" width="16" height="16" viewBox="0 0 16 16"><g transform="translate(-1144.156 -72)"><rect width="16" height="16" transform="translate(1144.156 72)" fill="rgba(255,0,0,0)"/><path d="M141.7-804a1.642,1.642,0,0,1-1.207-.494A1.642,1.642,0,0,1,140-805.7v-3.348h1.412v3.348a.277.277,0,0,0,.09.2.277.277,0,0,0,.2.09h12.6a.277.277,0,0,0,.2-.09.277.277,0,0,0,.09-.2v-12.6a.277.277,0,0,0-.09-.2.277.277,0,0,0-.2-.091H141.7a.277.277,0,0,0-.2.091.277.277,0,0,0-.09.2v3.348H140V-818.3a1.642,1.642,0,0,1,.494-1.207A1.642,1.642,0,0,1,141.7-820h12.6a1.642,1.642,0,0,1,1.207.494A1.642,1.642,0,0,1,156-818.3v12.6a1.642,1.642,0,0,1-.494,1.207A1.642,1.642,0,0,1,154.3-804Zm5.05-3.8-.992-1.021,2.472-2.472H140V-812.7h8.232l-2.472-2.472.992-1.021,4.2,4.2Z" transform="translate(1004.155 891.999)" fill="#fff"/></g></svg>