<svg xmlns="http://www.w3.org/2000/svg" width="16" height="16" viewBox="0 0 16 16"><g transform="translate(4104 -6700)"><rect width="16" height="16" transform="translate(-4104 6700)" fill="rgba(255,255,255,0)"/><path d="M81.488-788.093a1.433,1.433,0,0,1-1.051-.437A1.433,1.433,0,0,1,80-789.581v-8.93a1.433,1.433,0,0,1,.437-1.051A1.433,1.433,0,0,1,81.488-800h4.465l1.488,1.488H93.4a1.433,1.433,0,0,1,1.051.437,1.433,1.433,0,0,1,.437,1.051H86.828l-1.488-1.488H81.488v8.93l1.786-5.953H96l-1.916,6.381a1.451,1.451,0,0,1-.549.772,1.477,1.477,0,0,1-.884.288Zm1.563-1.488h9.6l1.34-4.465h-9.6Zm0,0,1.34-4.465Zm-1.563-7.442v0Z" transform="translate(-4184 7502)" fill="#a7b1bb"/></g></svg>