<svg xmlns="http://www.w3.org/2000/svg" xmlns:xlink="http://www.w3.org/1999/xlink" width="16" height="16" viewBox="0 0 16 16">
  <defs>
    <linearGradient id="linear-gradient" x1="0.773" y1="0.958" x2="0.169" y2="-0.042" gradientUnits="objectBoundingBox">
      <stop offset="0" stop-color="#1e8e3e"/>
      <stop offset="1" stop-color="#34a853"/>
    </linearGradient>
    <linearGradient id="linear-gradient-2" x1="-0.146" y1="1.002" x2="0.72" y2="0.002" gradientUnits="objectBoundingBox">
      <stop offset="0" stop-color="#fcc934"/>
      <stop offset="1" stop-color="#fbbc04"/>
    </linearGradient>
    <linearGradient id="linear-gradient-3" y1="0.5" x2="1" y2="0.5" gradientUnits="objectBoundingBox">
      <stop offset="0" stop-color="#d93025"/>
      <stop offset="1" stop-color="#ea4335"/>
    </linearGradient>
  </defs>
  <g id="그룹_163244" data-name="그룹 163244" transform="translate(-41 -222)">
    <rect id="사각형_148798" data-name="사각형 148798" width="16" height="16" transform="translate(41 222)" fill="rgba(167,177,187,0)"/>
    <g id="크롬" transform="translate(41 222)">
      <path id="패스_6964" data-name="패스 6964" d="M19.749,23.747a4,4,0,1,0-4-4A4,4,0,0,0,19.749,23.747Z" transform="translate(-11.749 -11.747)" fill="#fff"/>
      <path id="패스_6965" data-name="패스 6965" d="M4.536,21.753l-3.464-6A8,8,0,0,0,8,27.753l3.464-6h0a4,4,0,0,1-6.929,0Z" transform="translate(0 -11.753)" fill="url(#linear-gradient)"/>
      <path id="패스_6966" data-name="패스 6966" d="M34.96,21.749l-3.464,6a8,8,0,0,0,6.927-12H31.495a4,4,0,0,1,3.465,6Z" transform="translate(-23.496 -11.749)" fill="url(#linear-gradient-2)"/>
      <path id="패스_6967" data-name="패스 6967" d="M22.2,25.365A3.167,3.167,0,1,0,19.03,22.2,3.167,3.167,0,0,0,22.2,25.365Z" transform="translate(-14.197 -14.198)" fill="#1a73e8"/>
      <path id="패스_6968" data-name="패스 6968" d="M11.149,4h6.927A8,8,0,0,0,4.221,4l3.464,6h0a4,4,0,0,1,3.463-6Z" transform="translate(-3.149 0)" fill="url(#linear-gradient-3)"/>
    </g>
  </g>
</svg>
