<svg xmlns="http://www.w3.org/2000/svg" xmlns:xlink="http://www.w3.org/1999/xlink" width="30" height="30" viewBox="0 0 30 30"><defs><linearGradient id="a" x1="1.016" y1="-0.713" x2="0.189" y2="1.579" gradientUnits="objectBoundingBox"><stop offset="0" stop-color="#e963d2"/><stop offset="1" stop-color="#7874ff"/></linearGradient></defs><g transform="translate(-32 -25)"><circle cx="15" cy="15" r="15" transform="translate(32 25)" fill="url(#a)"/><rect width="22" height="22" rx="11" transform="translate(36 29)" fill="rgba(255,255,255,0)"/><g transform="translate(10.524 -20.464)"><path d="M11,22h0L7.62,18.619c.188-.017.38-.043.572-.077L11,21.349l3.385-3.383a4.869,4.869,0,0,0,.459.189L11,22Zm9.69-9.692v0a3.093,3.093,0,0,0-.1-.546L21.355,11,11,.645l-2.7,2.7c-.182-.04-.367-.073-.549-.1L11,0,22,11l-1.308,1.308ZM1.819,12.171H1.173L0,11,1.3,9.7a4.711,4.711,0,0,0,.194.452L.645,11,1.817,12.17Z" transform="translate(25.477 49.464)" fill="#fff" opacity="0.5"/><g transform="translate(27.141 53.667)"><path d="M5.205,13.429a5.613,5.613,0,0,1-3.663-1.2A4.348,4.348,0,0,1,0,8.984H2.735A2.4,2.4,0,0,0,5.4,11.027c1.094,0,1.888-.6,1.888-1.415,0-.971-.684-1.4-2.928-1.853C1.6,7.2.364,5.95.364,3.692S2.259,0,5.191,0A5.082,5.082,0,0,1,8.532,1.181a4.252,4.252,0,0,1,1.443,3H7.225a2.008,2.008,0,0,0-2-1.8c-.068,0-.138,0-.21.011-1.208,0-1.93.487-1.93,1.3,0,.978.989,1.3,3.247,1.806A5.052,5.052,0,0,1,9.208,7.007a3.669,3.669,0,0,1,.811,2.48C10.019,11.808,8.04,13.429,5.205,13.429Z" transform="translate(0 0)" fill="#fffdfd"/></g><g transform="translate(38.753 59.577)"><path d="M3.35,7.478c-1.9,0-3.281-1-3.35-2.423H2.092c.073.453.6.768,1.291.768S4.59,5.565,4.59,5.237s-.53-.566-1.717-.743C.865,4.193.046,3.547.046,2.266.046.91,1.358,0,3.311,0,5.152,0,6.5.953,6.577,2.315h-2.1c-.068-.423-.553-.706-1.2-.706s-1.134.235-1.134.547c0,.34.412.514,1.693.719C5.87,3.181,6.7,3.83,6.7,5.115,6.7,6.484,5.291,7.478,3.35,7.478Z" transform="translate(0 0)" fill="#fff" opacity="0.7"/></g></g></g></svg>