<svg xmlns="http://www.w3.org/2000/svg" width="14" height="14" viewBox="0 0 14 14"><g transform="translate(-38 -325)"><rect width="14" height="14" transform="translate(38 325)" fill="#637381" opacity="0"/><path d="M1.578,5.277l.257.448a1.751,1.751,0,0,0,1.039.815l1.583.451A1.093,1.093,0,0,1,5.25,8.045V9.136a.791.791,0,0,0,.438.708.791.791,0,0,1,.438.708v1.066a.642.642,0,0,0,.818.618,1.289,1.289,0,0,0,.894-.924l.077-.306a1.745,1.745,0,0,1,.829-1.094l.221-.126a1.311,1.311,0,0,0,.662-1.14V8.419a1.313,1.313,0,0,0-.386-.927l-.107-.107A1.313,1.313,0,0,0,8.206,7H7.027a1.767,1.767,0,0,1-.87-.23l-.943-.539a.568.568,0,0,1-.252-.306.55.55,0,0,1,.279-.67L5.4,5.173a.757.757,0,0,1,.582-.041l.634.211a.522.522,0,0,0,.566-.829l-.372-.446a.873.873,0,0,1,.008-1.129l.429-.5a.876.876,0,0,0,.1-1l-.066-.115c-.1-.005-.189-.008-.284-.008A5.689,5.689,0,0,0,1.578,5.277ZM12.688,7a5.677,5.677,0,0,0-.722-2.775l-.7.282a.878.878,0,0,0-.506,1.088l.462,1.386a.873.873,0,0,0,.618.571l.8.2A5.694,5.694,0,0,0,12.685,7ZM0,7a7,7,0,1,1,7,7A7,7,0,0,1,0,7Z" transform="translate(38 325)" fill="#637381"/></g></svg>