<svg xmlns="http://www.w3.org/2000/svg" width="16" height="16" viewBox="0 0 16 16"><g transform="translate(16) rotate(90)"><rect width="16" height="16" fill="#ff9600" opacity="0"/><g transform="translate(1 12.236) rotate(-90)"><path d="M.857,0A1,1,0,0,1,1.77,1L2,8.713a.858.858,0,0,1-.856.933,1,1,0,0,1-.914-1L0,.934A.858.858,0,0,1,.857,0Z" transform="translate(6.822 0) rotate(45)" fill="#c4cdd5"/><path d="M1.143,0A.858.858,0,0,1,2,.934L1.77,8.651a1,1,0,0,1-.914,1A.858.858,0,0,1,0,8.713L.23,1A1,1,0,0,1,1.143,0Z" transform="translate(0 7.178) rotate(-45)" fill="#c4cdd5"/></g></g></svg>