<svg xmlns="http://www.w3.org/2000/svg" width="20.164" height="18" viewBox="0 0 20.164 18">
  <path id="fill-drip-solid" d="M3.844.355a1.123,1.123,0,0,1,1.589,0L8.295,3.213l1.867-1.867a2.532,2.532,0,0,1,3.579,0l5.323,5.326a2.532,2.532,0,0,1,0,3.579l-6.694,6.7a3.376,3.376,0,0,1-4.774,0L3.464,12.818a3.376,3.376,0,0,1,0-4.774L6.7,4.806,3.844,1.944a1.127,1.127,0,0,1,0-1.593Zm6.188,7.78L8.295,6.4,5.056,9.636a1.137,1.137,0,0,0-.3.513H15.984l1.487-1.487a.282.282,0,0,0,0-.4L12.151,2.939a.282.282,0,0,0-.4,0L9.887,4.806l1.737,1.737a1.126,1.126,0,0,1-1.593,1.593Zm10.358,9.89a2.252,2.252,0,0,1-2.25-2.25c0-.886,1.146-2.8,1.8-3.822a.529.529,0,0,1,.9,0c.657,1.023,1.8,2.936,1.8,3.822A2.252,2.252,0,0,1,20.389,18.025Z" transform="translate(-2.475 -0.025)" fill="#fff"/>
</svg>
