<svg xmlns="http://www.w3.org/2000/svg" width="58" height="58" viewBox="0 0 58 58">
  <g id="그룹_127413" data-name="그룹 127413" transform="translate(-69 -501)">
    <rect id="사각형_25242" data-name="사각형 25242" width="58" height="58" transform="translate(69 501)" fill="rgba(255,255,255,0)"/>
    <path id="합치기_25" data-name="합치기 25" d="M5.545,58a5.371,5.371,0,0,1-3.936-1.6A5.308,5.308,0,0,1,0,52.483V5.517A5.312,5.312,0,0,1,1.609,1.6,5.371,5.371,0,0,1,5.545,0H29.9L46,16.027V52.483A5.484,5.484,0,0,1,40.455,58ZM4.9,53.127a.9.9,0,0,0,.649.295h34.91a.9.9,0,0,0,.649-.295.893.893,0,0,0,.295-.645V18.316H27.6V4.578H5.545a.9.9,0,0,0-.649.295.893.893,0,0,0-.295.645V52.483A.893.893,0,0,0,4.9,53.127ZM4.6,5.517v0Zm0,12.8v0Zm6.9,16.565,3.364-3.346,5.775,5.825V23.283h4.72V37.361l5.824-5.872L34.5,34.881,23,46.482Z" transform="translate(75 501)" fill="#fff"/>
  </g>
</svg>
