<svg id="ico_aichat_dxsquare" xmlns="http://www.w3.org/2000/svg" xmlns:xlink="http://www.w3.org/1999/xlink" width="58" height="58" viewBox="0 0 58 58">
  <defs>
    <filter id="패스_6946" x="0" y="2" width="58" height="56" filterUnits="userSpaceOnUse">
      <feOffset dy="3" input="SourceAlpha"/>
      <feGaussianBlur stdDeviation="3" result="blur"/>
      <feFlood flood-opacity="0.102"/>
      <feComposite operator="in" in2="blur"/>
      <feComposite in="SourceGraphic"/>
    </filter>
  </defs>
  <rect id="boundary" width="50" height="50" transform="translate(4)" fill="rgba(159,209,92,0)"/>
  <g transform="matrix(1, 0, 0, 1, 0, 0)" filter="url(#패스_6946)">
    <path id="패스_6946-2" data-name="패스 6946" d="M32.27,45.819C44.4,44.284,49,38.594,49,38.594c-2.33-.562-4.47-2.86-4.18-5.158a21.657,21.657,0,0,1,.46-2.238,19.3,19.3,0,0,0,.45-4.124c0-10.5-7.32-19.005-17.78-19.005A18.973,18.973,0,0,0,9,27.065c0,10.5,9.61,19.005,19.45,19.005a22.5,22.5,0,0,0,3.83-.261Z" transform="translate(0 -0.07)" fill="#aa1d6e"/>
  </g>
  <g id="logo" transform="translate(11 11)">
    <g id="그룹_163434" data-name="그룹 163434">
      <g id="그룹_163431" data-name="그룹 163431">
        <rect id="사각형_5427" data-name="사각형 5427" width="32" height="32" rx="16" fill="#aa1d6e"/>
        <path id="패스_6949" data-name="패스 6949" d="M34.555,24.45,20.13,38.875,34.555,53.3,48.979,38.875ZM20.975,38.875,34.555,25.3l13.58,13.58-13.58,13.58Z" transform="translate(-18.555 -22.537)" fill="#efb3d5" opacity="0.55"/>
      </g>
      <g id="그룹_163432" data-name="그룹 163432" transform="translate(18 13.769)">
        <path id="패스_6950" data-name="패스 6950" d="M242.445,193.976c-2.85,0-4.838-1.489-4.946-3.706l-.028-.581h2.611a3.125,3.125,0,0,1-1.024-5.732,6.085,6.085,0,0,1,3.34-.9c2.72,0,4.708,1.463,4.834,3.556l.035.588h-2.432a3.152,3.152,0,0,1,2.558,3.119C247.391,192.44,245.311,193.976,242.445,193.976Zm-1.1-3.82c.048.307.541.538,1.145.538a1.887,1.887,0,0,0,.966-.207,5.33,5.33,0,0,0-1.719-.43c-.138-.021-.279-.044-.419-.069Zm.146-3.716a6.779,6.779,0,0,0,1.678.4l.234.037-.022-.133c-.044-.264-.488-.463-1.034-.463a1.886,1.886,0,0,0-.856.163Z" transform="translate(-236.887 -182.504)" fill="#efb3d5"/>
        <path id="패스_6951" data-name="패스 6951" d="M235.53,177.06c2.332,0,4.169,1.182,4.281,3.035h-2.747c-.1-.575-.75-.927-1.582-.927s-1.485.3-1.485.718c0,.463.623.687,2.22.942,2.763.416,3.753,1.326,3.753,2.938,0,1.917-2.013,3.1-4.393,3.1s-4.3-1.214-4.392-3.179h2.747c.1.607.8,1.006,1.693,1.006s1.582-.336,1.582-.767-.639-.735-2.252-.974c-2.236-.336-3.705-1.022-3.705-2.923s1.9-2.971,4.281-2.971m0-1.109a6.641,6.641,0,0,0-3.648.989,3.662,3.662,0,0,0-1.742,3.091,3.441,3.441,0,0,0,.995,2.549H230.02l.057,1.163a4.071,4.071,0,0,0,1.786,3.179,6.415,6.415,0,0,0,3.715,1.054c3.187,0,5.5-1.769,5.5-4.208a3.4,3.4,0,0,0-1.011-2.564h.92l-.071-1.176c-.145-2.4-2.36-4.077-5.388-4.077h0Z" transform="translate(-230.02 -175.95)" fill="#aa1d6e"/>
      </g>
      <g id="그룹_163433" data-name="그룹 163433" transform="translate(3.41 6.223)">
        <path id="패스_6952" data-name="패스 6952" d="M52.09,106.138V88.02h5.085a8.985,8.985,0,0,1,6.61,2.54,9.942,9.942,0,0,1,0,13.047,9,9,0,0,1-6.609,2.529H52.09Zm5.142-4.647c2.689,0,4.169-1.563,4.169-4.4s-1.52-4.422-4.169-4.422h-.319v8.823Z" transform="translate(-51.424 -87.355)" fill="#fffdfd"/>
        <path id="패스_6953" data-name="패스 6953" d="M49.33,80.851c5.18,0,8.384,3.439,8.384,8.4s-3.2,8.383-8.384,8.383H44.911V80.851H49.33M48.4,94.321h.985c2.993,0,4.835-1.833,4.835-5.067s-1.842-5.087-4.835-5.087H48.4V94.321m.927-14.8H43.58V98.968h5.75c5.81,0,9.715-3.9,9.715-9.714a11.022,11.022,0,0,0-.666-3.873,8.842,8.842,0,0,0-1.963-3.121,9.633,9.633,0,0,0-7.086-2.74h0Zm.4,13.46V85.508c2.6.157,3.158,2.1,3.158,3.746s-.559,3.569-3.158,3.726Z" transform="translate(-43.58 -79.52)" fill="#aa1d6e"/>
      </g>
    </g>
  </g>
</svg>
