<svg xmlns="http://www.w3.org/2000/svg" width="20" height="20" viewBox="0 0 20 20">
  <g id="그룹_168465" data-name="그룹 168465" transform="translate(10318 5030)">
    <rect id="boundary" width="20" height="20" transform="translate(-10318 -5030)" fill="#eaeef1" opacity="0"/>
    <path id="add_24dp_5F6368_FILL1_wght400_GRAD0_opsz24" d="M207.714-749.714h-6.429a1.244,1.244,0,0,1-.916-.37A1.244,1.244,0,0,1,200-751a1.244,1.244,0,0,1,.37-.916,1.244,1.244,0,0,1,.916-.37h6.429v-6.429a1.244,1.244,0,0,1,.37-.916A1.244,1.244,0,0,1,209-760a1.244,1.244,0,0,1,.916.37,1.244,1.244,0,0,1,.37.916v6.429h6.429a1.244,1.244,0,0,1,.916.37A1.244,1.244,0,0,1,218-751a1.244,1.244,0,0,1-.37.916,1.244,1.244,0,0,1-.916.37h-6.429v6.429a1.244,1.244,0,0,1-.37.916A1.244,1.244,0,0,1,209-742a1.244,1.244,0,0,1-.916-.37,1.244,1.244,0,0,1-.37-.916Z" transform="translate(-10517 -4269)" fill="#858f9b"/>
  </g>
</svg>
