<svg id="task_checkbox_01" xmlns="http://www.w3.org/2000/svg" width="24" height="24" viewBox="0 0 24 24">
  <g id="사각형_811" data-name="사각형 811" fill="#3fa9f5" stroke="#3fa9f5" stroke-width="2">
    <rect width="24" height="24" rx="4" stroke="none"/>
    <rect x="1" y="1" width="22" height="22" rx="3" fill="none"/>
  </g>
  <path id="Icon_awesome-check" data-name="Icon awesome-check" d="M3.782,12.717.163,9.1a.557.557,0,0,1,0-.787L.95,7.524a.557.557,0,0,1,.787,0L4.175,9.962,9.4,4.74a.557.557,0,0,1,.787,0l.787.787a.557.557,0,0,1,0,.787l-6.4,6.4A.557.557,0,0,1,3.782,12.717Z" transform="translate(7 3.423)" fill="#fff"/>
</svg>
