<svg xmlns="http://www.w3.org/2000/svg" width="16" height="16" viewBox="0 0 16 16"><g transform="translate(-29 -469)"><rect width="16" height="16" transform="translate(29 469)" fill="#fff" opacity="0"/><g transform="translate(30 470)"><path d="M14.6,3H3.4A1.488,1.488,0,0,0,2,4.556V15.444A1.488,1.488,0,0,0,3.4,17H14.6A1.488,1.488,0,0,0,16,15.444V4.556A1.488,1.488,0,0,0,14.6,3Zm0,12.444H3.4V4.556H14.6Z" transform="translate(-2 -3)" fill="#fff" fill-rule="evenodd"/><path d="M17.187,10.1,16.193,9l-2.219,2.466-.987-1.1L12,11.458l1.974,2.209Z" transform="translate(-5 -4.333)" fill="#fff" fill-rule="evenodd"/><rect width="3.5" height="1.556" transform="translate(2.1 3.111)" fill="#fff"/><rect width="3.5" height="1.556" transform="translate(2.1 6.222)" fill="#fff"/><rect width="3.5" height="1.556" transform="translate(2.1 9.333)" fill="#fff"/></g></g></svg>