<svg xmlns="http://www.w3.org/2000/svg" width="14.463" height="12.298" viewBox="0 0 14.463 12.298">
  <g id="그룹_2135" data-name="그룹 2135" transform="translate(-702.664 -772.709)">
    <g id="그룹_50" data-name="그룹 50" transform="translate(702.664 772.709)">
      <path id="패스_208" data-name="패스 208" d="M702.664,834.8v.76a.978.978,0,0,0,.978.978h12.507a.978.978,0,0,0,.978-.978v-.76Z" transform="translate(-702.664 -824.241)" fill="#fff"/>
      <path id="패스_209" data-name="패스 209" d="M707.546,774.58H718.87v8.24h.891v-8.9a1.207,1.207,0,0,0-1.207-1.207H707.862a1.207,1.207,0,0,0-1.207,1.207v8.9h.891Zm5.662-1.093a.28.28,0,1,1-.28.28A.28.28,0,0,1,713.208,773.487Z" transform="translate(-705.976 -772.709)" fill="#fff"/>
    </g>
    <g id="그룹_51" data-name="그룹 51" transform="translate(706.058 776.467)">
      <path id="패스_210" data-name="패스 210" d="M757.069,800.5a.425.425,0,0,1-.362-.647l.9-1.475-.9-1.475a.425.425,0,0,1,.725-.444l1.038,1.7a.425.425,0,0,1,0,.444l-1.038,1.7A.425.425,0,0,1,757.069,800.5Z" transform="translate(-750.858 -796.01)" fill="#fff"/>
      <path id="패스_211" data-name="패스 211" d="M724.083,800.5a.425.425,0,0,1-.363-.2l-1.038-1.7a.425.425,0,0,1,0-.444l1.038-1.7a.425.425,0,0,1,.725.444l-.9,1.475.9,1.475a.425.425,0,0,1-.362.647Z" transform="translate(-722.62 -796.01)" fill="#fff"/>
      <path id="패스_212" data-name="패스 212" d="M739.824,799.542a.426.426,0,0,1-.409-.543l1.117-3.887a.425.425,0,0,1,.817.235l-1.117,3.887A.425.425,0,0,1,739.824,799.542Z" transform="translate(-736.544 -794.804)" fill="#fff"/>
    </g>
  </g>
</svg>
