<svg xmlns="http://www.w3.org/2000/svg" width="58" height="58" viewBox="0 0 58 58">
  <g id="그룹_127386" data-name="그룹 127386" transform="translate(-992 -609)">
    <rect id="사각형_25242" data-name="사각형 25242" width="58" height="58" transform="translate(992 609)" fill="rgba(255,132,132,0)"/>
    <path id="select_window_FILL1_wght300_GRAD0_opsz24" d="M148.863-802.152a4.934,4.934,0,0,0,3.646-1.507A5.036,5.036,0,0,0,154-807.342v-24.074a5.036,5.036,0,0,0-1.492-3.683,4.934,4.934,0,0,0-3.646-1.507h-6.231v-14.356a5.036,5.036,0,0,0-1.492-3.683,4.934,4.934,0,0,0-3.646-1.507H105.139a4.934,4.934,0,0,0-3.646,1.507A5.036,5.036,0,0,0,100-850.962v24.074a5.036,5.036,0,0,0,1.492,3.683,4.934,4.934,0,0,0,3.646,1.507h6.231v14.356a5.036,5.036,0,0,0,1.492,3.683,4.934,4.934,0,0,0,3.646,1.507Zm0-4.307H116.507a.832.832,0,0,1-.6-.276.848.848,0,0,1-.273-.607v-19.215h34.105v19.215a.848.848,0,0,1-.273.607A.832.832,0,0,1,148.863-806.459ZM111.369-826h-6.231a.832.832,0,0,1-.6-.276.848.848,0,0,1-.273-.607V-846.1h34.105v9.5H116.507a4.934,4.934,0,0,0-3.646,1.507,5.036,5.036,0,0,0-1.492,3.683Z" transform="translate(894.106 1467.152)" fill="#526796"/>
  </g>
</svg>
