<svg xmlns="http://www.w3.org/2000/svg" width="18" height="18" viewBox="0 0 18 18"><rect width="18" height="18" fill="rgba(255,255,255,0)"/><g transform="translate(1 2.23)"><path d="M121.112,782.382a.774.774,0,0,0-.872.07l-3.993,3.15h-2.6a.887.887,0,0,0-.84.929v5.308a.888.888,0,0,0,.84.929h2.6l3.993,3.149a.786.786,0,0,0,.488.173.771.771,0,0,0,.385-.1.944.944,0,0,0,.455-.826V783.208A.945.945,0,0,0,121.112,782.382Z" transform="translate(-112.804 -782.279)" fill="#fff"/><path d="M163.147,803.675a.771.771,0,1,0-1.091,1.091,1.113,1.113,0,0,1,0,1.575.771.771,0,0,0,1.091,1.091,2.656,2.656,0,0,0,0-3.756Z" transform="translate(-151.056 -798.648)" fill="#fff"/><path d="M173.221,793.636a.7.7,0,0,0-1.091,0,1,1,0,0,0,0,1.267,5.067,5.067,0,0,1,0,6.41,1,1,0,0,0,0,1.267.7.7,0,0,0,1.091,0,7.071,7.071,0,0,0,0-8.945Z" transform="translate(-158.815 -791.204)" fill="#fff"/></g></svg>