<svg xmlns="http://www.w3.org/2000/svg" width="58" height="58" viewBox="0 0 58 58">
  <g id="그룹_127399" data-name="그룹 127399" transform="translate(-992 -393)">
    <rect id="사각형_25242" data-name="사각형 25242" width="58" height="58" transform="translate(992 393)" fill="rgba(255,255,255,0)"/>
    <path id="qr_code_scanner_FILL0_wght300_GRAD0_opsz24" d="M100-847.155V-860h12.844v4.263h-8.581v8.581ZM100-806v-12.844h4.263v8.581h8.581V-806Zm41.156,0v-4.263h8.581v-8.581H154V-806Zm8.581-41.156v-8.581h-8.581V-860H154v12.844Zm-7.9,28.995h3.853v3.853H141.84Zm0-7.706h3.853v3.853H141.84Zm-3.853,3.853h3.853v3.853h-3.853Zm-3.853,3.853h3.853v3.853h-3.853Zm-3.853-3.853h3.853v3.853H130.28Zm7.706-7.706h3.853v3.853h-3.853Zm-3.853,3.853h3.853v3.853h-3.853Zm-3.853-3.853h3.853v3.853H130.28Zm15.413-21.972v15.413H130.28v-15.413ZM123.722-829.72v15.413H108.309V-829.72h15.413Zm0-21.972v15.413H108.309v-15.413h15.413Zm-3.389,34v-8.636H111.7v8.636Zm0-21.972V-848.3H111.7v8.636Zm21.972,0V-848.3h-8.636v8.636Z" transform="translate(893.999 1254.999)" fill="#fff"/>
  </g>
</svg>
