<svg xmlns="http://www.w3.org/2000/svg" width="16.779" height="18" viewBox="0 0 16.779 18"><path d="M188.836-842.856v-1.29a.87.87,0,0,1,.062-.326.862.862,0,0,1,.195-.288l4.886-4.863a1.124,1.124,0,0,1,.382-.244,1.176,1.176,0,0,1,.412-.077,1.157,1.157,0,0,1,.431.084,1.115,1.115,0,0,1,.378.252l.876.885a1.377,1.377,0,0,1,.237.383,1.084,1.084,0,0,1,.084.412,1.235,1.235,0,0,1-.077.419,1.106,1.106,0,0,1-.244.39l-4.863,4.863a.855.855,0,0,1-.288.195.869.869,0,0,1-.326.062h-1.29a.83.83,0,0,1-.611-.245A.83.83,0,0,1,188.836-842.856Zm6.814-5.072-.876-.885Zm-5.684,4.8h.9l3.075-3.09-.876-.894-3.1,3.084ZM181.713-842a1.653,1.653,0,0,1-1.215-.5,1.653,1.653,0,0,1-.5-1.215v-14.575a1.653,1.653,0,0,1,.5-1.215,1.653,1.653,0,0,1,1.215-.5h6.816a1.681,1.681,0,0,1,.659.133,1.7,1.7,0,0,1,.549.366l3.975,3.975a1.7,1.7,0,0,1,.366.549,1.681,1.681,0,0,1,.133.659v1.468a.688.688,0,0,1-.2.507.688.688,0,0,1-.506.2.688.688,0,0,1-.506-.2.688.688,0,0,1-.2-.507v-1.466h-3.407a.829.829,0,0,1-.611-.245.829.829,0,0,1-.245-.611v-3.407h-6.814a.278.278,0,0,0-.2.091.278.278,0,0,0-.091.2v14.575a.278.278,0,0,0,.091.2.278.278,0,0,0,.2.091h4.336a.688.688,0,0,1,.507.2.688.688,0,0,1,.2.506.688.688,0,0,1-.2.506.688.688,0,0,1-.507.2Zm-.292-1.421v0Zm12.093-3.258-.45-.435.876.894Z" transform="translate(-180 860)" fill="#a7b1bb"/></svg>