<svg xmlns="http://www.w3.org/2000/svg" width="58" height="58.001" viewBox="0 0 58 58.001">
  <g id="그룹_127388" data-name="그룹 127388" transform="translate(-487 -501)">
    <rect id="사각형_25242" data-name="사각형 25242" width="58" height="58" transform="translate(487 501)" fill="rgba(255,132,132,0)"/>
    <path id="합치기_32" data-name="합치기 32" d="M-3385.663-4932a3.187,3.187,0,0,1-2.368-1,3.4,3.4,0,0,1-.969-2.443v-33.113a3.4,3.4,0,0,1,.969-2.444,3.188,3.188,0,0,1,2.368-1H-3378v2.858h-7.663a.546.546,0,0,0-.391.182.579.579,0,0,0-.177.4v1.793h8.23v2.858h-8.23v23.809h18.461v-9l2.77-3.123v16.777a3.391,3.391,0,0,1-.969,2.443,3.185,3.185,0,0,1-2.368,1Zm-.567-3.444a.575.575,0,0,0,.177.4.54.54,0,0,0,.391.184h17.326a.535.535,0,0,0,.391-.184.57.57,0,0,0,.177-.4v-1.8h-18.461Zm11.231-47.125a3.629,3.629,0,0,1,1.091-2.665,3.625,3.625,0,0,1,2.666-1.091h20.866a7.936,7.936,0,0,0-.178,1.548,10.822,10.822,0,0,0,.1,1.569h-20.786a.615.615,0,0,0-.441.2.61.61,0,0,0-.2.439v27.173l2.909-2.876h29.7a.608.608,0,0,0,.439-.2.607.607,0,0,0,.2-.44v-15.731a10.478,10.478,0,0,0,1.664-.512,6.607,6.607,0,0,0,1.453-.819v17.063a3.632,3.632,0,0,1-1.091,2.667,3.631,3.631,0,0,1-2.666,1.091h-28.372L-3375-4947.8Zm7.792,19.62v-3.116h15.585v3.116Zm0-6.233v-3.117h23.9v3.117Zm0-6.234v-3.117h18.5a8.078,8.078,0,0,0,1.879,1.84,8.238,8.238,0,0,0,2.417,1.149v.128Zm22.448-4.825a5.51,5.51,0,0,1-1.668-4.046,5.509,5.509,0,0,1,1.668-4.045,5.506,5.506,0,0,1,4.046-1.669,5.51,5.51,0,0,1,4.046,1.669,5.51,5.51,0,0,1,1.668,4.045,5.51,5.51,0,0,1-1.668,4.046,5.512,5.512,0,0,1-4.046,1.668A5.509,5.509,0,0,1-3344.76-4980.24Z" transform="translate(3878 5491)" fill="#526796"/>
  </g>
</svg>
