<svg xmlns="http://www.w3.org/2000/svg" width="16" height="16" viewBox="0 0 16 16"><g transform="translate(-650 -369)"><rect width="16" height="16" transform="translate(650 369)" fill="rgba(255,255,255,0)"/><path d="M181.333-845a1.285,1.285,0,0,1-.945-.387,1.286,1.286,0,0,1-.387-.945v-12.336a1.285,1.285,0,0,1,.387-.945,1.285,1.285,0,0,1,.945-.387h6.3l3.413,3.413v10.253a1.286,1.286,0,0,1-.387.945,1.286,1.286,0,0,1-.945.387Zm0-1.1h8.389a.217.217,0,0,0,.156-.071.217.217,0,0,0,.071-.156v-9.7h-2.86v-2.862h-5.753a.217.217,0,0,0-.156.071.217.217,0,0,0-.071.156v12.336a.217.217,0,0,0,.071.156.217.217,0,0,0,.154.072Zm4.2-2.027a2.524,2.524,0,0,0,1.893-.8,2.679,2.679,0,0,0,.772-1.925v-3.16h-1.1v3.16a1.614,1.614,0,0,1-.449,1.144,1.459,1.459,0,0,1-1.11.479,1.465,1.465,0,0,1-1.1-.479,1.6,1.6,0,0,1-.454-1.144V-854.9a.551.551,0,0,1,.146-.388.468.468,0,0,1,.357-.158.463.463,0,0,1,.363.158.563.563,0,0,1,.14.388v4.038h1.1V-854.9a1.627,1.627,0,0,0-.464-1.166,1.521,1.521,0,0,0-1.145-.485,1.521,1.521,0,0,0-1.145.485,1.627,1.627,0,0,0-.464,1.166v4.038a2.669,2.669,0,0,0,.777,1.925,2.53,2.53,0,0,0,1.886.8ZM181.107-858.895Z" transform="translate(472.474 1229.5)" fill="#a7b1bb"/></g></svg>