<svg xmlns="http://www.w3.org/2000/svg" width="16" height="16" viewBox="0 0 16 16">
  <g id="그룹_163208" data-name="그룹 163208" transform="translate(-29 -450)">
    <rect id="사각형_148785" data-name="사각형 148785" width="16" height="16" transform="translate(29 450)" fill="rgba(255,255,255,0)"/>
    <path id="videocam_24dp_5F6368_FILL0_wght400_GRAD0_opsz24" d="M81.4-788.8a1.348,1.348,0,0,1-.989-.411A1.348,1.348,0,0,1,80-790.2v-8.4a1.348,1.348,0,0,1,.411-.989A1.348,1.348,0,0,1,81.4-800h8.4a1.348,1.348,0,0,1,.989.411,1.348,1.348,0,0,1,.411.989v3.15l2.8-2.8v7.7l-2.8-2.8v3.15a1.348,1.348,0,0,1-.411.989,1.348,1.348,0,0,1-.989.411Zm0-1.4h8.4v-8.4H81.4Zm0,0v0Z" transform="translate(-50 1252.4)" fill="#fff"/>
  </g>
</svg>
