<svg id="iCon" xmlns="http://www.w3.org/2000/svg" xmlns:xlink="http://www.w3.org/1999/xlink" width="26.597" height="18.085" viewBox="0 0 26.597 18.085">
  <defs>
    <clipPath id="clip-path">
      <rect id="사각형_2593" data-name="사각형 2593" width="26.597" height="18.085" fill="none"/>
    </clipPath>
  </defs>
  <g id="그룹_2131" data-name="그룹 2131" transform="translate(0 0)" clip-path="url(#clip-path)">
    <path id="패스_3954" data-name="패스 3954" d="M14.437,10.554a3.883,3.883,0,1,1-3.883-3.883,3.883,3.883,0,0,1,3.883,3.883" transform="translate(-3.328 -3.328)" fill="#ffe25e"/>
    <path id="패스_3955" data-name="패스 3955" d="M9.93,14.44a4.509,4.509,0,1,1,4.51-4.51,4.515,4.515,0,0,1-4.51,4.51m0-7.766A3.256,3.256,0,1,0,13.187,9.93,3.26,3.26,0,0,0,9.93,6.674" transform="translate(-2.704 -2.704)" fill="#858f9b"/>
    <line id="선_16" data-name="선 16" y1="0.923" transform="translate(7.226 0.626)" fill="#fff"/>
    <path id="패스_3956" data-name="패스 3956" d="M13.794,2.176a.627.627,0,0,1-.626-.626V.626a.626.626,0,0,1,1.253,0V1.55a.627.627,0,0,1-.626.626" transform="translate(-6.568 0)" fill="#858f9b"/>
    <line id="선_17" data-name="선 17" x1="0.653" y1="0.653" transform="translate(2.56 2.56)" fill="#fff"/>
    <path id="패스_3957" data-name="패스 3957" d="M5.136,5.762a.625.625,0,0,1-.443-.183l-.653-.653a.627.627,0,0,1,.886-.887l.653.653a.626.626,0,0,1-.443,1.07" transform="translate(-1.923 -1.924)" fill="#858f9b"/>
    <line id="선_18" data-name="선 18" x1="0.923" transform="translate(0.626 7.226)" fill="#fff"/>
    <path id="패스_3958" data-name="패스 3958" d="M1.55,14.421H.626a.626.626,0,1,1,0-1.253H1.55a.626.626,0,1,1,0,1.253" transform="translate(0 -6.568)" fill="#858f9b"/>
    <line id="선_19" data-name="선 19" x1="0.653" y2="0.653" transform="translate(2.56 11.24)" fill="#fff"/>
    <path id="패스_3959" data-name="패스 3959" d="M4.482,23.083a.626.626,0,0,1-.443-1.07l.653-.653a.627.627,0,0,1,.886.887l-.653.653a.625.625,0,0,1-.443.183" transform="translate(-1.923 -10.564)" fill="#858f9b"/>
    <line id="선_20" data-name="선 20" y1="0.653" x2="0.653" transform="translate(11.24 2.56)" fill="#fff"/>
    <path id="패스_3960" data-name="패스 3960" d="M21.8,5.762a.626.626,0,0,1-.443-1.07l.653-.653a.627.627,0,0,1,.886.887l-.653.653a.625.625,0,0,1-.443.183" transform="translate(-10.564 -1.924)" fill="#858f9b"/>
    <path id="패스_3961" data-name="패스 3961" d="M30.622,17.429a4.013,4.013,0,0,1-4.013,4.013H11.815a2.489,2.489,0,1,1,0-4.977c.073,0,.142,0,.215.01a3.406,3.406,0,0,1-.215-1.2,3.488,3.488,0,0,1,5.691-2.708,4.6,4.6,0,0,1,9.2.019,4.455,4.455,0,0,1-.079.828,4.014,4.014,0,0,1,3.991,4.013" transform="translate(-4.652 -3.984)" fill="#fff"/>
    <path id="패스_3962" data-name="패스 3962" d="M25.985,21.445H11.191a3.115,3.115,0,0,1-.58-6.177,4.061,4.061,0,0,1-.047-.616,4.115,4.115,0,0,1,5.8-3.757,5.227,5.227,0,0,1,10.345,1.068c0,.086,0,.172-.007.258a4.64,4.64,0,0,1-.72,9.224M11.191,16.467a1.862,1.862,0,1,0,0,3.725H25.985A3.387,3.387,0,0,0,26,13.417a.627.627,0,0,1-.612-.742,3.8,3.8,0,0,0,.068-.713,3.975,3.975,0,0,0-7.95-.016.627.627,0,0,1-1.022.483,2.82,2.82,0,0,0-1.8-.643,2.869,2.869,0,0,0-2.866,2.866,2.777,2.777,0,0,0,.176.978.627.627,0,0,1-.642.843c-.055,0-.107-.007-.161-.007" transform="translate(-4.027 -3.36)" fill="#858f9b"/>
  </g>
</svg>
