<svg xmlns="http://www.w3.org/2000/svg" width="16.5" height="16" viewBox="0 0 16.5 16"><g transform="translate(-1548 -128)"><rect width="16" height="16" transform="translate(1548 128)" fill="rgba(255,0,0,0)"/><path d="M91.511-786.187l-.23-1.151q-.23-.1-.432-.2a3.331,3.331,0,0,1-.412-.259l-1.113.345-.767-1.3.882-.767a3.04,3.04,0,0,1-.038-.5,3.04,3.04,0,0,1,.038-.5l-.882-.767.767-1.3,1.113.345a3.331,3.331,0,0,1,.412-.259q.2-.106.432-.2l.23-1.151h1.535l.23,1.151q.23.1.432.2a3.331,3.331,0,0,1,.412.259l1.113-.345.767,1.3-.882.767a3.039,3.039,0,0,1,.038.5,3.039,3.039,0,0,1-.038.5l.882.767-.767,1.3L94.12-787.8a3.331,3.331,0,0,1-.412.259q-.2.106-.432.2l-.23,1.151Zm.767-2.3a1.478,1.478,0,0,0,1.084-.451,1.478,1.478,0,0,0,.451-1.084,1.478,1.478,0,0,0-.451-1.084,1.478,1.478,0,0,0-1.084-.451,1.478,1.478,0,0,0-1.084.451,1.478,1.478,0,0,0-.451,1.084,1.478,1.478,0,0,0,.451,1.084A1.478,1.478,0,0,0,92.278-788.489Zm-10.743-.767v0Zm0,1.535a1.478,1.478,0,0,1-1.084-.451A1.478,1.478,0,0,1,80-789.257v-9.209a1.478,1.478,0,0,1,.451-1.084A1.478,1.478,0,0,1,81.535-800h4.6l1.535,1.535h6.139a1.478,1.478,0,0,1,1.084.451,1.478,1.478,0,0,1,.451,1.084v2.513a4.652,4.652,0,0,0-.729-.432,6.392,6.392,0,0,0-.806-.317v-1.765H87.041l-1.535-1.535H81.535v9.209h5.429a4.682,4.682,0,0,0,.182.787,6.285,6.285,0,0,0,.3.748Z" transform="translate(1468.5 929)" fill="#fff"/></g></svg>