<svg xmlns="http://www.w3.org/2000/svg" width="16" height="16" viewBox="0 0 16 16">
  <g id="그룹_163215" data-name="그룹 163215" transform="translate(-21 -132)">
    <rect id="사각형_148794" data-name="사각형 148794" width="16" height="16" transform="translate(21 132)" fill="rgba(167,177,187,0)"/>
    <path id="타원_451" data-name="타원 451" d="M8,1a7,7,0,1,0,7,7A7.008,7.008,0,0,0,8,1M8,0A8,8,0,1,1,0,8,8,8,0,0,1,8,0Z" transform="translate(21 132)" fill="#a7b1bb"/>
    <path id="stop_circle_24dp_5F6368_FILL0_wght200_GRAD0_opsz24" d="M124.889-829.111h1v-6h-1ZM125.389-832.111Z" transform="translate(-98.889 972.111)" fill="#a7b1bb"/>
    <path id="play_circle_24dp_5F6368_FILL0_wght200_GRAD0_opsz24" d="M126.222-829.18l4-3-4-3ZM127.657-832.18Z" transform="translate(-97.222 972.179)" fill="#a7b1bb"/>
  </g>
</svg>
