<svg xmlns="http://www.w3.org/2000/svg" width="16" height="16" viewBox="0 0 16 16"><g transform="translate(-485 -533)"><rect width="16" height="16" transform="translate(485 533)" fill="rgba(255,255,255,0)"/><path d="M-269.832-2063.794h-7.912a1.214,1.214,0,0,1-.891-.365,1.218,1.218,0,0,1-.365-.892v-10.692a1.216,1.216,0,0,1,.365-.892,1.209,1.209,0,0,1,.891-.365h5.52l3.649,3.648v2.918a2.864,2.864,0,0,0-.51-.15c-.175-.035-.352-.061-.532-.08v-2.166h-3.127v-3.127h-5a.207.207,0,0,0-.147.066.2.2,0,0,0-.067.148v10.692a.2.2,0,0,0,.067.147.2.2,0,0,0,.147.067h7.912a.2.2,0,0,0,.147-.067.2.2,0,0,0,.067-.147c.449-.022.5-.188,1.043,0a1.214,1.214,0,0,1-.365.892,1.213,1.213,0,0,1-.868.365Zm-5.457-2.606h-1.105v-1.05h4.21v1.05Zm.638-2.78h-1.743v-1.042h4.768l-.557,1.042Z" transform="translate(765 2611)" fill="#a7b1bb"/><path d="M149.376-847.867a1.992,1.992,0,0,0,1.467-.6,1.991,1.991,0,0,0,.6-1.467,1.991,1.991,0,0,0-.6-1.467,1.991,1.991,0,0,0-1.467-.6,1.991,1.991,0,0,0-1.467.6,1.991,1.991,0,0,0-.6,1.467,1.992,1.992,0,0,0,.6,1.467,1.992,1.992,0,0,0,1.468.6Zm3.962,2.71-2.127-2.127a2.951,2.951,0,0,1-.862.434,3.23,3.23,0,0,1-.978.147,3.112,3.112,0,0,1-2.286-.941,3.112,3.112,0,0,1-.941-2.286,3.112,3.112,0,0,1,.941-2.286,3.113,3.113,0,0,1,2.286-.941,3.113,3.113,0,0,1,2.286.941,3.112,3.112,0,0,1,.941,2.286,3.228,3.228,0,0,1-.147.978,2.952,2.952,0,0,1-.434.862l2.127,2.127Z" transform="translate(345.856 1393.157)" fill="#a7b1bb"/></g></svg>