<svg xmlns="http://www.w3.org/2000/svg" width="20" height="20" viewBox="0 0 20 20"><g transform="translate(2 2)"><rect width="20" height="20" rx="10" transform="translate(-2 -2)" fill="#eee"/><path d="M39.688,97.291a.8.8,0,1,0-1.132-1.132l-2.631,2.634-2.634-2.631a.8.8,0,0,0-1.132,1.132l2.634,2.631-2.631,2.634a.8.8,0,0,0,1.132,1.132l2.631-2.634,2.634,2.631a.8.8,0,1,0,1.132-1.132l-2.634-2.631Z" transform="translate(-27.925 -91.925)" fill="#c4cdd5"/><rect width="20" height="20" rx="10" transform="translate(-2 -2)" fill="#eee"/><path d="M39.688,97.291a.8.8,0,1,0-1.132-1.132l-2.631,2.634-2.634-2.631a.8.8,0,0,0-1.132,1.132l2.634,2.631-2.631,2.634a.8.8,0,0,0,1.132,1.132l2.631-2.634,2.634,2.631a.8.8,0,1,0,1.132-1.132l-2.634-2.631Z" transform="translate(-27.925 -91.925)" fill="#c4cdd5"/></g></svg>