<svg id="ico_aichat_wrm" xmlns="http://www.w3.org/2000/svg" xmlns:xlink="http://www.w3.org/1999/xlink" width="58" height="58" viewBox="0 0 58 58">
  <defs>
    <filter id="패스_6946" x="0" y="2" width="58" height="56" filterUnits="userSpaceOnUse">
      <feOffset dy="3" input="SourceAlpha"/>
      <feGaussianBlur stdDeviation="3" result="blur"/>
      <feFlood flood-opacity="0.102"/>
      <feComposite operator="in" in2="blur"/>
      <feComposite in="SourceGraphic"/>
    </filter>
  </defs>
  <rect id="boundary" width="50" height="50" transform="translate(4)" fill="rgba(159,209,92,0)"/>
  <g transform="matrix(1, 0, 0, 1, 0, 0)" filter="url(#패스_6946)">
    <path id="패스_6946-2" data-name="패스 6946" d="M32.27,45.819C44.4,44.284,49,38.594,49,38.594c-2.33-.562-4.47-2.86-4.18-5.158a21.657,21.657,0,0,1,.46-2.238,19.3,19.3,0,0,0,.45-4.124c0-10.5-7.32-19.005-17.78-19.005A18.973,18.973,0,0,0,9,27.065c0,10.5,9.61,19.005,19.45,19.005a22.5,22.5,0,0,0,3.83-.261Z" transform="translate(0 -0.07)" fill="#114194"/>
  </g>
  <g id="logo" transform="translate(0.222 0.04)">
    <g id="그룹_163303" data-name="그룹 163303" transform="translate(16.779 19.96)" opacity="0.5">
      <path id="패스_6947" data-name="패스 6947" d="M21.73,24.09l-.34-3.75a.421.421,0,0,0-.41-.38H17.19a.415.415,0,0,0-.41.45l.74,7.99a.414.414,0,0,0,.78.15,12.6,12.6,0,0,1,3.28-4.11.422.422,0,0,0,.16-.36Z" transform="translate(-16.779 -19.96)" fill="#fff"/>
    </g>
    <path id="패스_6948" data-name="패스 6948" d="M38.232,19.99H34.61a.406.406,0,0,0-.41.422,30.771,30.771,0,0,1-.16,4.473c-.43,3.522-1.811,5.778-2.772,5.64-.75-.1-.75-.706-1.361-2.325-.941-2.462-2.271-3.433-3.622-3.649a2.372,2.372,0,0,0-.37-.039c-3.342-.235-6.734,3.826-7.695,9.329-.04.206-.07.412-.1.618a.411.411,0,0,0,.41.461h3.832a.364.364,0,0,0,.36-.294h0c.57-3.286,1.8-5.738,2.772-5.65.48.039.78,1.207.851,1.432.75,2.452,2.231,4.179,4.152,4.5h.03c3.452.559,7.044-3.59,8.045-9.289a20.122,20.122,0,0,0,.06-5.3.417.417,0,0,0-.41-.353Z" transform="translate(0 0)" fill="#fff"/>
  </g>
</svg>
