<svg xmlns="http://www.w3.org/2000/svg" width="16" height="16" viewBox="0 0 16 16"><g transform="translate(-1179 -72)"><rect width="16" height="16" transform="translate(1179 72)" fill="rgba(255,0,0,0)"/><path d="M141.7-804a1.638,1.638,0,0,1-1.2-.5,1.638,1.638,0,0,1-.5-1.2v-12.6a1.638,1.638,0,0,1,.5-1.2,1.638,1.638,0,0,1,1.2-.5h12.6a1.638,1.638,0,0,1,1.2.5,1.638,1.638,0,0,1,.5,1.2v12.6a1.638,1.638,0,0,1-.5,1.2,1.638,1.638,0,0,1-1.2.5Zm0-1.412h12.6a.282.282,0,0,0,.208-.081.282.282,0,0,0,.081-.208v-11H141.413v11a.282.282,0,0,0,.081.208A.282.282,0,0,0,141.7-805.411Zm6.3-2.353a5.466,5.466,0,0,1-3.1-.916,5.536,5.536,0,0,1-2.028-2.378,5.535,5.535,0,0,1,2.028-2.378,5.465,5.465,0,0,1,3.1-.916,5.465,5.465,0,0,1,3.1.916,5.535,5.535,0,0,1,2.028,2.378,5.536,5.536,0,0,1-2.028,2.378A5.466,5.466,0,0,1,148-807.764Zm0-1.122a4.507,4.507,0,0,0,2.242-.574,4.569,4.569,0,0,0,1.662-1.6,4.569,4.569,0,0,0-1.662-1.6A4.507,4.507,0,0,0,148-813.23a4.507,4.507,0,0,0-2.242.574,4.569,4.569,0,0,0-1.662,1.6,4.569,4.569,0,0,0,1.662,1.6A4.507,4.507,0,0,0,148-808.886ZM148-811.058Zm0,1.231a1.182,1.182,0,0,0,.871-.36,1.192,1.192,0,0,0,.357-.873,1.182,1.182,0,0,0-.36-.871,1.192,1.192,0,0,0-.873-.357,1.182,1.182,0,0,0-.871.36,1.193,1.193,0,0,0-.357.873,1.182,1.182,0,0,0,.36.871A1.192,1.192,0,0,0,148-809.827Z" transform="translate(1038.999 891.999)" fill="#fff"/></g></svg>