<svg xmlns="http://www.w3.org/2000/svg" width="16" height="16" viewBox="0 0 16 16"><g transform="translate(-567 -386)"><rect width="16" height="16" transform="translate(567 386)" fill="#006fdf" opacity="0"/><path d="M88-868a.774.774,0,0,0,.57-.23.774.774,0,0,0,.23-.57.774.774,0,0,0-.23-.57.774.774,0,0,0-.57-.23.774.774,0,0,0-.57.23.774.774,0,0,0-.23.57.774.774,0,0,0,.23.57A.774.774,0,0,0,88-868Zm-.8-3.2h1.6V-876H87.2ZM88-864a7.79,7.79,0,0,1-3.12-.63,8.079,8.079,0,0,1-2.54-1.71,8.078,8.078,0,0,1-1.71-2.54A7.79,7.79,0,0,1,80-872a7.79,7.79,0,0,1,.63-3.12,8.079,8.079,0,0,1,1.71-2.54,8.079,8.079,0,0,1,2.54-1.71A7.789,7.789,0,0,1,88-880a7.789,7.789,0,0,1,3.12.63,8.079,8.079,0,0,1,2.54,1.71,8.079,8.079,0,0,1,1.71,2.54A7.79,7.79,0,0,1,96-872a7.79,7.79,0,0,1-.63,3.12,8.079,8.079,0,0,1-1.71,2.54,8.079,8.079,0,0,1-2.54,1.71A7.79,7.79,0,0,1,88-864Z" transform="translate(487 1266)" fill="#cc26af"/></g></svg>