<svg xmlns="http://www.w3.org/2000/svg" width="14.304" height="14.631" viewBox="0 0 14.304 14.631"><g transform="translate(-169.01 -283.001)"><path d="M121.444-827a1.391,1.391,0,0,1-1.02-.424,1.391,1.391,0,0,1-.424-1.02v-10.111a1.391,1.391,0,0,1,.424-1.02,1.391,1.391,0,0,1,1.02-.424h10.111a1.391,1.391,0,0,1,1.02.424,1.391,1.391,0,0,1,.424,1.02v4.839a5.948,5.948,0,0,0-.7-.28,4.426,4.426,0,0,0-.74-.172v-4.387H121.444v10.111h4.369a4.348,4.348,0,0,0,.172.758,4.959,4.959,0,0,0,.28.686Zm0-2.167Zm1.444-.722h2.943a4.406,4.406,0,0,1,.172-.74q.117-.361.262-.7h-3.376Zm0-2.889h4.406a5.529,5.529,0,0,1,1.291-.9,5.085,5.085,0,0,1,1.526-.488v-.054h-7.222Zm0-2.889h7.222v-1.444h-7.222Z" transform="translate(49.01 1123)" fill="#637381"/><path d="M139.592-816.678a.7.7,0,0,1-.467-.172.776.776,0,0,1-.258-.439l-.114-.534q-.229-.1-.429-.2a3.311,3.311,0,0,1-.41-.258l-.553.172a.71.71,0,0,1-.487-.019.765.765,0,0,1-.372-.3l-.153-.267a.748.748,0,0,1-.1-.5.671.671,0,0,1,.248-.439l.42-.362a3.253,3.253,0,0,1-.038-.5,3.255,3.255,0,0,1,.038-.5l-.42-.362a.665.665,0,0,1-.248-.429.729.729,0,0,1,.1-.487l.172-.286a.773.773,0,0,1,.363-.3.683.683,0,0,1,.477-.019l.553.172a3.33,3.33,0,0,1,.41-.258q.2-.1.429-.2l.114-.553a.731.731,0,0,1,.258-.429.721.721,0,0,1,.467-.162h.3a.7.7,0,0,1,.467.172.776.776,0,0,1,.258.439l.114.534a3.558,3.558,0,0,1,.439.219,3.468,3.468,0,0,1,.4.277l.515-.172a.719.719,0,0,1,.515,0,.735.735,0,0,1,.382.324l.153.267a.748.748,0,0,1,.1.5.671.671,0,0,1-.248.439l-.42.362a3.134,3.134,0,0,1,.038.477,3.136,3.136,0,0,1-.038.477l.42.362a.665.665,0,0,1,.248.429.728.728,0,0,1-.1.486l-.172.286a.771.771,0,0,1-.362.3.682.682,0,0,1-.477.019l-.553-.172a3.3,3.3,0,0,1-.41.258q-.2.1-.429.2l-.114.553a.731.731,0,0,1-.258.429.721.721,0,0,1-.467.162Zm.153-2.289a1.47,1.47,0,0,0,1.078-.448,1.469,1.469,0,0,0,.448-1.078,1.47,1.47,0,0,0-.448-1.078,1.47,1.47,0,0,0-1.078-.448,1.47,1.47,0,0,0-1.078.448,1.47,1.47,0,0,0-.448,1.078,1.469,1.469,0,0,0,.448,1.078,1.47,1.47,0,0,0,1.078.448Z" transform="translate(40.065 1114.31)" fill="#637381"/></g></svg>