<svg xmlns="http://www.w3.org/2000/svg" width="16" height="16" viewBox="0 0 16 16"><g transform="translate(-306 -319)"><rect width="16" height="16" transform="translate(306 319)" fill="rgba(255,0,0,0)"/><path d="M186.6-760.691Zm-6.6,1.329v-1.969a2.193,2.193,0,0,1,.355-1.205,2.365,2.365,0,0,1,.948-.852,12.923,12.923,0,0,1,2.659-.966,11.554,11.554,0,0,1,2.705-.322,11.5,11.5,0,0,1,1.413.087,11.482,11.482,0,0,1,1.408.266l-1.113,1.122q-.438-.063-.854-.1a8.548,8.548,0,0,0-.854-.042,10.163,10.163,0,0,0-2.41.29,11.46,11.46,0,0,0-2.343.854,1.183,1.183,0,0,0-.425.374.866.866,0,0,0-.156.5v.64H186.6v1.329Zm8.547,1.056v-2.34l4.826-4.786a.955.955,0,0,1,.358-.232,1.159,1.159,0,0,1,.384-.067,1.082,1.082,0,0,1,.406.078,1.082,1.082,0,0,1,.356.235l.822.828a1.284,1.284,0,0,1,.222.358,1.011,1.011,0,0,1,.079.385,1.151,1.151,0,0,1-.072.392,1.035,1.035,0,0,1-.229.365l-4.8,4.786Zm6.393-5.542-.822-.828Zm-5.333,4.486h.844l2.886-2.889-.409-.421-.414-.416-2.908,2.884Zm3.321-3.309-.414-.416.822.836Zm-6.262-3.435a3,3,0,0,1-2.2-.911,2.979,2.979,0,0,1-.914-2.189,2.979,2.979,0,0,1,.914-2.189,3,3,0,0,1,2.2-.911,3,3,0,0,1,2.2.911,2.979,2.979,0,0,1,.914,2.189,2.979,2.979,0,0,1-.914,2.189A3,3,0,0,1,186.668-766.107Zm0-1.328a1.715,1.715,0,0,0,1.256-.52,1.7,1.7,0,0,0,.522-1.251,1.7,1.7,0,0,0-.522-1.251,1.715,1.715,0,0,0-1.256-.52,1.715,1.715,0,0,0-1.256.52,1.7,1.7,0,0,0-.522,1.251,1.7,1.7,0,0,0,.522,1.251A1.715,1.715,0,0,0,186.668-767.435ZM186.668-769.206Z" transform="translate(125.999 1092.306)" fill="#637381"/></g></svg>