<svg xmlns="http://www.w3.org/2000/svg" width="7.636" height="12" viewBox="0 0 7.636 12">
  <path id="smartphone_FILL0_wght400_GRAD0_opsz24" d="M201.091-908a1.051,1.051,0,0,1-.77-.32,1.051,1.051,0,0,1-.32-.77v-9.818a1.05,1.05,0,0,1,.32-.77,1.051,1.051,0,0,1,.77-.32h5.455a1.05,1.05,0,0,1,.77.32,1.05,1.05,0,0,1,.32.77v9.818a1.051,1.051,0,0,1-.32.77,1.051,1.051,0,0,1-.77.32Zm0-1.636v.545h5.455v-.545Zm0-1.091h5.455v-6.545h-5.455Zm0-7.636h5.455v-.545h-5.455Zm0,0v0Zm0,8.727v0Z" transform="translate(-200 920)" fill="#858f9b"/>
</svg>
