<svg xmlns="http://www.w3.org/2000/svg" width="100" height="80" viewBox="0 0 100 80"><g transform="translate(-757 -251)"><rect width="100" height="80" transform="translate(757 251)" opacity="0"/><g transform="translate(-186.763 112.159)"><path d="M670.622,345.019v-.03a2.11,2.11,0,0,1,.754-1.552,3.318,3.318,0,0,0,1.106-2.475v-3.814a3.357,3.357,0,0,0-3.358-3.357h-2.656a3.356,3.356,0,0,0-3.358,3.357v3.814a3.318,3.318,0,0,0,1.106,2.475,2.109,2.109,0,0,1,.753,1.552v.03a1.974,1.974,0,0,1-1.437,1.9l-2.946.834a3.305,3.305,0,0,0-2.4,3.179v5.589h19.229v-5.589a3.3,3.3,0,0,0-2.4-3.179l-2.945-.834A1.975,1.975,0,0,1,670.622,345.019Z" transform="translate(325.804 -186.124)" fill="#fff"/><path d="M666.544,333.042H669.2a4.189,4.189,0,0,1,4.184,4.183v3.814a4.166,4.166,0,0,1-1.379,3.089,1.332,1.332,0,0,0-.481.938v.03a1.152,1.152,0,0,0,.836,1.1l2.946.835a4.148,4.148,0,0,1,3.005,3.974V356.6a.827.827,0,0,1-.827.827H658.257a.827.827,0,0,1-.827-.827v-5.589a4.148,4.148,0,0,1,3.005-3.974l2.947-.835a1.152,1.152,0,0,0,.836-1.1v-.03a1.331,1.331,0,0,0-.48-.938,4.165,4.165,0,0,1-1.379-3.088v-3.814A4.189,4.189,0,0,1,666.544,333.042Zm10.116,22.729v-4.762a2.488,2.488,0,0,0-1.8-2.384l-2.945-.834a2.812,2.812,0,0,1-2.04-2.7v-.03A2.922,2.922,0,0,1,670.9,342.9a2.477,2.477,0,0,0,.833-1.861v-3.814a2.533,2.533,0,0,0-2.531-2.53h-2.656a2.533,2.533,0,0,0-2.531,2.53v3.814a2.476,2.476,0,0,0,.832,1.86,2.922,2.922,0,0,1,1.026,2.166v.03a2.811,2.811,0,0,1-2.039,2.7l-2.946.834a2.488,2.488,0,0,0-1.8,2.384v4.762Z" transform="translate(325.728 -186.201)" fill="#637381"/><path d="M651.5,380.1v-.029a2.111,2.111,0,0,1,.754-1.553,3.316,3.316,0,0,0,1.106-2.474v-3.814a3.358,3.358,0,0,0-3.357-3.358H647.35a3.358,3.358,0,0,0-3.358,3.358v3.814a3.316,3.316,0,0,0,1.106,2.474,2.11,2.11,0,0,1,.753,1.553v.029a1.975,1.975,0,0,1-1.437,1.9l-2.946.834a3.3,3.3,0,0,0-2.4,3.179V391.6h19.229v-5.588a3.3,3.3,0,0,0-2.4-3.179L652.943,382A1.976,1.976,0,0,1,651.5,380.1Z" transform="translate(323.849 -182.536)" fill="#fff"/><path d="M647.427,368.121h2.657a4.189,4.189,0,0,1,4.184,4.184v3.814a4.165,4.165,0,0,1-1.379,3.088,1.332,1.332,0,0,0-.481.939v.029a1.153,1.153,0,0,0,.836,1.106l2.947.835a4.146,4.146,0,0,1,3,3.974v5.588a.827.827,0,0,1-.827.827H639.14a.827.827,0,0,1-.827-.827v-5.588a4.146,4.146,0,0,1,3.006-3.974l2.946-.834a1.153,1.153,0,0,0,.836-1.106v-.029a1.331,1.331,0,0,0-.48-.939,4.164,4.164,0,0,1-1.379-3.087v-3.814A4.189,4.189,0,0,1,647.427,368.121Zm10.116,22.729v-4.761a2.486,2.486,0,0,0-1.8-2.384l-2.946-.834a2.813,2.813,0,0,1-2.04-2.7v-.029a2.923,2.923,0,0,1,1.027-2.167,2.476,2.476,0,0,0,.833-1.86v-3.814a2.534,2.534,0,0,0-2.531-2.531h-2.657a2.534,2.534,0,0,0-2.531,2.531v3.814a2.475,2.475,0,0,0,.832,1.859,2.923,2.923,0,0,1,1.026,2.167v.029a2.812,2.812,0,0,1-2.039,2.7l-2.946.834a2.486,2.486,0,0,0-1.8,2.384v4.761Z" transform="translate(323.772 -182.613)" fill="#637381"/><path d="M684.085,380.1v-.029a2.11,2.11,0,0,0-.753-1.553,3.316,3.316,0,0,1-1.106-2.474v-3.814a3.357,3.357,0,0,1,3.358-3.358h2.656a3.358,3.358,0,0,1,3.358,3.358v3.814a3.316,3.316,0,0,1-1.106,2.474,2.111,2.111,0,0,0-.754,1.553v.029a1.976,1.976,0,0,0,1.438,1.9l2.945.834a3.3,3.3,0,0,1,2.4,3.179V391.6H677.3v-5.588a3.3,3.3,0,0,1,2.4-3.179l2.946-.834A1.975,1.975,0,0,0,684.085,380.1Z" transform="translate(327.76 -182.536)" fill="#fff"/><path d="M685.661,368.121h2.656a4.189,4.189,0,0,1,4.184,4.184v3.814a4.165,4.165,0,0,1-1.379,3.088,1.332,1.332,0,0,0-.481.939v.029a1.153,1.153,0,0,0,.836,1.106l2.946.835a4.146,4.146,0,0,1,3.005,3.974v5.588a.827.827,0,0,1-.827.827H677.374a.827.827,0,0,1-.827-.827v-5.588a4.146,4.146,0,0,1,3.006-3.974l2.946-.834a1.153,1.153,0,0,0,.836-1.106v-.029a1.331,1.331,0,0,0-.48-.939,4.164,4.164,0,0,1-1.379-3.087v-3.814A4.189,4.189,0,0,1,685.661,368.121Zm10.116,22.729v-4.761a2.486,2.486,0,0,0-1.8-2.383l-2.946-.835a2.813,2.813,0,0,1-2.04-2.7v-.029a2.923,2.923,0,0,1,1.027-2.167,2.476,2.476,0,0,0,.833-1.86v-3.814a2.534,2.534,0,0,0-2.531-2.531h-2.656a2.534,2.534,0,0,0-2.531,2.531v3.814a2.475,2.475,0,0,0,.832,1.859,2.922,2.922,0,0,1,1.026,2.167v.029a2.812,2.812,0,0,1-2.039,2.7l-2.946.834a2.486,2.486,0,0,0-1.8,2.384v4.761Z" transform="translate(327.683 -182.613)" fill="#637381"/><path d="M.9,11.053H-.75V0H.9Z" transform="translate(993.522 176.692)" fill="#637381"/><path d="M.452,6.309-.375,4.877,9.2-.65,10.024.782Z" transform="translate(983.989 187.679)"/><path d="M9.2,6.309-.375.782.452-.65l9.572,5.527Z" transform="translate(993.561 187.679)" fill="#637381"/><path d="M.452,6.309-.375,4.877,9.2-.65,10.024.782Z" transform="translate(983.989 187.679)" fill="#637381"/><path d="M674.77,347.754l-2.945-.834a1.975,1.975,0,0,1-1.438-1.9v-.03a2.11,2.11,0,0,1,.754-1.552,3.318,3.318,0,0,0,1.106-2.475v-3.814a3.357,3.357,0,0,0-3.358-3.357h-.117a3.357,3.357,0,0,0-3.358,3.357v3.814a3.318,3.318,0,0,0,1.106,2.475,2.109,2.109,0,0,1,.753,1.552v.03a1.974,1.974,0,0,1-1.437,1.9l-2.946.834a3.3,3.3,0,0,0-2.4,3.179v5.589h16.689v-5.589A3.3,3.3,0,0,0,674.77,347.754Z" transform="translate(326.04 -186.124)" fill="#efbce6" style="mix-blend-mode:multiply;isolation:isolate"/><path d="M655.654,382.834,652.707,382a1.976,1.976,0,0,1-1.439-1.9v-.029a2.111,2.111,0,0,1,.754-1.553,3.316,3.316,0,0,0,1.106-2.474v-3.814a3.358,3.358,0,0,0-3.357-3.358h-.117a3.358,3.358,0,0,0-3.358,3.358v3.814a3.316,3.316,0,0,0,1.106,2.474,2.11,2.11,0,0,1,.753,1.553v.029a1.975,1.975,0,0,1-1.437,1.9l-2.946.834a3.3,3.3,0,0,0-2.4,3.179V391.6h16.689v-5.588A3.3,3.3,0,0,0,655.654,382.834Z" transform="translate(324.085 -182.536)" fill="#efbce6" style="mix-blend-mode:multiply;isolation:isolate"/><path d="M693.887,382.834,690.941,382a1.976,1.976,0,0,1-1.438-1.9v-.029a2.111,2.111,0,0,1,.754-1.553,3.32,3.32,0,0,0,1.106-2.474v-3.814A3.358,3.358,0,0,0,688,368.871h-.117a3.358,3.358,0,0,0-3.358,3.358v3.814a3.316,3.316,0,0,0,1.106,2.474,2.11,2.11,0,0,1,.753,1.553v.029a1.975,1.975,0,0,1-1.437,1.9l-2.946.834a3.3,3.3,0,0,0-2.4,3.179V391.6h16.69v-5.588A3.3,3.3,0,0,0,693.887,382.834Z" transform="translate(327.996 -182.536)" fill="#efbce6" style="mix-blend-mode:multiply;isolation:isolate"/><circle cx="2.884" cy="2.884" r="2.884" transform="translate(965.913 151.401)" fill="#fff"/><path d="M2.96-.75A3.71,3.71,0,1,1-.75,2.96,3.715,3.715,0,0,1,2.96-.75Zm0,5.768A2.057,2.057,0,1,0,.9,2.96,2.059,2.059,0,0,0,2.96,5.018Z" transform="translate(965.836 151.324)" fill="#637381"/><g transform="translate(953.763 174.064)"><g transform="translate(0)"><g transform="translate(2.905)"><path d="M.9,7.463H-.75V0H.9Z" transform="translate(0.75 0)" fill="#dce0e4"/></g><g transform="translate(0 2.905)"><path d="M7.463.9H0V-.75H7.463Z" transform="translate(0 0.75)" fill="#dce0e4"/></g></g></g><circle cx="2.884" cy="2.884" r="2.884" transform="translate(1028.126 177.1)" fill="#fff"/><path d="M2.96-.75A3.71,3.71,0,1,1-.75,2.96,3.715,3.715,0,0,1,2.96-.75Zm0,5.768A2.057,2.057,0,1,0,.9,2.96,2.059,2.059,0,0,0,2.96,5.018Z" transform="translate(1028.05 177.023)" fill="#637381"/><g transform="translate(1015.52 160.822)"><g transform="translate(0 0)"><g transform="translate(2.905)"><path d="M.9,7.463H-.75V0H.9Z" transform="translate(0.75 0)" fill="#dce0e4"/></g><g transform="translate(0 2.905)"><path d="M7.463.9H0V-.75H7.463Z" transform="translate(0 0.75)" fill="#dce0e4"/></g></g></g></g></g></svg>