<svg xmlns="http://www.w3.org/2000/svg" width="14" height="14.002" viewBox="0 0 14 14.002">
  <path id="Icon_open-monitor" data-name="Icon open-monitor" d="M.593-.006A.875.875,0,0,0,0,.869V9.619a.875.875,0,0,0,.875.875H5.248v1.75H3.5a1.755,1.755,0,0,0-1.75,1.75h10.5a1.755,1.755,0,0,0-1.75-1.75H8.747v-1.75h4.375A.875.875,0,0,0,14,9.619V.869a.875.875,0,0,0-.875-.875H.873a.875.875,0,0,0-.157,0,.875.875,0,0,0-.1,0Zm1.155,1.75h10.5v7H1.748Z" transform="translate(0.003 0.009)" fill="#fff"/>
</svg>
