<svg xmlns="http://www.w3.org/2000/svg" width="16" height="16" viewBox="0 0 16 16"><g transform="translate(-915 -528)"><rect width="16" height="16" transform="translate(915 528)" fill="rgba(255,0,0,0)"/><path d="M92.8-826.4l-1.12-1.12,1.26-1.28H89.6v-1.6h3.34l-1.26-1.28,1.12-1.12,3.2,3.2Zm-11.2-2.4a1.541,1.541,0,0,1-1.13-.47A1.541,1.541,0,0,1,80-830.4v-8a1.541,1.541,0,0,1,.47-1.13A1.541,1.541,0,0,1,81.6-840H92a1.541,1.541,0,0,1,1.13.47,1.541,1.541,0,0,1,.47,1.13v4.08q-.2-.04-.4-.06t-.4-.02q-.2,0-.4.01a2.739,2.739,0,0,0-.4.05v-2.94l-5.28,3.68-5.12-3.66v6.86h6.46a2.733,2.733,0,0,0-.05.4q-.01.2-.01.4t.02.4q.02.2.06.4Zm1.16-9.6,3.96,2.84,4.08-2.84Zm-1.16,8v0Z" transform="translate(835 1370)" fill="#a7b1bb"/></g></svg>