<svg xmlns="http://www.w3.org/2000/svg" xmlns:xlink="http://www.w3.org/1999/xlink" width="180" height="34" viewBox="0 0 180 34"><defs><linearGradient id="a" x1="1.016" y1="-0.713" x2="0.189" y2="1.579" gradientUnits="objectBoundingBox"><stop offset="0" stop-color="#e963d2"/><stop offset="1" stop-color="#7874ff"/></linearGradient></defs><g transform="translate(-641 -414)"><g transform="translate(605 214)"><rect width="16" height="16" transform="translate(200 200)" opacity="0" fill="url(#a)"/><path d="M-1054.666-9041.121l-1.352-4.053a1.282,1.282,0,0,0-.807-.807l-4.055-1.353a.177.177,0,0,1-.118-.166.178.178,0,0,1,.118-.168l4.055-1.351a1.288,1.288,0,0,0,.807-.807l1.352-4.056a.174.174,0,0,1,.166-.12.174.174,0,0,1,.166.12l1.352,4.056a1.294,1.294,0,0,0,.807.807l4.055,1.351a.177.177,0,0,1,.12.168.176.176,0,0,1-.12.166l-4.055,1.353a1.287,1.287,0,0,0-.807.807l-1.352,4.053a.174.174,0,0,1-.166.12A.174.174,0,0,1-1054.666-9041.121Zm-5.923-8.944-.727-2.182a.693.693,0,0,0-.434-.435l-2.184-.729a.091.091,0,0,1-.064-.089.1.1,0,0,1,.064-.091l2.184-.728a.694.694,0,0,0,.434-.434l.727-2.183a.1.1,0,0,1,.091-.065.1.1,0,0,1,.089.065l.727,2.183a.693.693,0,0,0,.434.434l2.184.728a.1.1,0,0,1,.064.091.091.091,0,0,1-.064.089l-2.184.729a.692.692,0,0,0-.434.435l-.727,2.182a.1.1,0,0,1-.089.066A.1.1,0,0,1-1060.59-9050.065Z" transform="translate(1264 9257)" fill="url(#a)"/></g><path d="M17.277,18.281V0h4.266V18.281Zm-5.985,0-1.153-5.087H5.352L4.2,18.281H0l4.04-16.6a2.827,2.827,0,0,1,.5-1.111A1.55,1.55,0,0,1,5.85,0H9.641a1.508,1.508,0,0,1,1.324.617,3.2,3.2,0,0,1,.484,1.053l4.042,16.612ZM7.707,3.6v0L6.2,9.792H9.267L7.752,3.438A1.435,1.435,0,0,0,7.707,3.6Z" transform="translate(781.439 424.147)" fill="url(#a)"/><g transform="translate(640.939 423.891)"><rect width="134" height="24" transform="translate(0.061 0.109)" fill="#212b36" opacity="0"/><g transform="translate(0.061 0.109)"><g transform="translate(0 0)"><path d="M573.443,103.492h-4a2.882,2.882,0,0,0-3.215-2.427c-1.852,0-2.81.72-2.81,1.767,0,1.3,1.342,1.745,4.726,2.45,4,.83,5.365,2.81,5.365,5.408,0,3.321-3.13,5.344-7,5.344-4.28,0-7.408-2.32-7.578-6.025h3.981c.212,1.661,1.662,2.768,3.875,2.768,1.575,0,2.746-.788,2.746-1.915,0-1.383-1.171-1.938-4.258-2.512-3.768-.7-5.813-2.257-5.813-5.514s3.108-5,7.026-5S573.245,100.192,573.443,103.492Z" transform="translate(-558.924 -97.103)" fill="#161c24"/><path d="M712.981,93.3a2.32,2.32,0,1,1-2.32-2.32,2.248,2.248,0,0,1,2.32,2.32Zm-.432,16.222h-3.79V97.006h3.79Z" transform="translate(-692.55 -90.979)" fill="#161c24"/><path d="M764.975,158.907h3.831c.192.808.915,1.32,2.32,1.32a2.464,2.464,0,0,0,2.64-2.576v-1.32a4.209,4.209,0,0,1-3.576,1.575,5.961,5.961,0,0,1-6.066-6.323,6.052,6.052,0,0,1,6.066-6.429,4.206,4.206,0,0,1,3.576,1.575v-1.277h3.79V157.7c0,3.385-2.7,5.726-6.429,5.726S765.38,161.312,764.975,158.907Zm8.856-7.324a2.97,2.97,0,0,0-3.045-3.193,3.2,3.2,0,0,0,0,6.388,2.993,2.993,0,0,0,3.045-3.195Z" transform="translate(-742.437 -139.426)" fill="#161c24"/><path d="M913.13,145.451h3.79v1.277a4.1,4.1,0,0,1,3.491-1.575c2.895,0,4.876,2.108,4.876,5.556v7.218H921.5v-6.578c0-1.895-.767-2.938-2.193-2.938s-2.385,1.171-2.385,3.108v6.408h-3.79Z" transform="translate(-875.691 -139.425)" fill="#161c24"/><path d="M1055.133,103.492h-4a2.882,2.882,0,0,0-3.215-2.427c-1.852,0-2.81.72-2.81,1.767,0,1.3,1.342,1.745,4.726,2.45,4,.83,5.365,2.81,5.365,5.408,0,3.321-3.13,5.344-7,5.344-4.28,0-7.408-2.32-7.579-6.025h3.981c.212,1.661,1.661,2.768,3.875,2.768,1.575,0,2.746-.788,2.746-1.915,0-1.383-1.171-1.938-4.258-2.512-3.768-.7-5.813-2.257-5.813-5.514s3.108-5,7.026-5S1054.931,100.192,1055.133,103.492Z" transform="translate(-989.692 -97.103)" fill="#161c24"/><path d="M1197.661,156.649a4.206,4.206,0,0,1-3.576,1.575,6.553,6.553,0,0,1,0-13.071,4.206,4.206,0,0,1,3.576,1.575v-1.277h3.79v17.67h-3.79Zm.063-4.96a3.026,3.026,0,0,0-3.045-3.3,3.314,3.314,0,0,0,0,6.6,3.048,3.048,0,0,0,3.054-3.3Z" transform="translate(-1121.523 -139.425)" fill="#161c24"/><path d="M1335.22,155.188V147.97h3.79v6.578c0,1.895.766,2.938,2.191,2.938s2.385-1.171,2.385-3.108V147.97h3.79v12.476h-3.79v-1.277a4.092,4.092,0,0,1-3.491,1.575c-2.9,0-4.876-2.108-4.876-5.556Z" transform="translate(-1253.16 -141.944)" fill="#161c24"/><path d="M1466.115,151.689a6.071,6.071,0,0,1,6.068-6.536,4.206,4.206,0,0,1,3.576,1.575v-1.277h3.79v12.476h-3.79V156.65a4.2,4.2,0,0,1-3.576,1.575,6.071,6.071,0,0,1-6.068-6.536Zm9.708,0a3.026,3.026,0,0,0-3.045-3.3,3.314,3.314,0,0,0,0,6.6,3.047,3.047,0,0,0,3.049-3.3Z" transform="translate(-1370.219 -139.426)" fill="#161c24"/><path d="M1615.13,145.451h3.79v1.277a4.1,4.1,0,0,1,3.491-1.575,4.646,4.646,0,0,1,1.64.212l.042,3.555a4.2,4.2,0,0,0-1.938-.432,2.9,2.9,0,0,0-3.236,3.045v6.388h-3.79Z" transform="translate(-1503.48 -139.425)" fill="#161c24"/><path d="M1701.72,151.673a6.493,6.493,0,0,1,12.986,0,8.423,8.423,0,0,1-.085,1.213h-9.132a2.636,2.636,0,0,0,2.724,2.278,2.567,2.567,0,0,0,2.306-.978h3.811a6,6,0,0,1-6.109,4.023,6.259,6.259,0,0,1-6.493-6.535Zm9.281-1.235a2.653,2.653,0,0,0-2.788-2.305,2.612,2.612,0,0,0-2.746,2.305Z" transform="translate(-1580.916 -139.409)" fill="#161c24"/></g></g></g></g></svg>