<svg xmlns="http://www.w3.org/2000/svg" width="18" height="18" viewBox="0 0 18 18"><rect width="18" height="18" fill="rgba(255,255,255,0)"/><g transform="translate(2.215 0)"><path d="M898.815,515.846a.754.754,0,0,0-1.508,0,5.277,5.277,0,0,1-10.554,0,.754.754,0,0,0-1.508,0,6.794,6.794,0,0,0,6.031,6.742v2.961h-2.621a.754.754,0,0,0,0,1.508h6.75a.754.754,0,0,0,0-1.508h-2.621v-2.961A6.794,6.794,0,0,0,898.815,515.846Z" transform="translate(-885.245 -509.061)" fill="#fff"/><path d="M901.924,497.507a4.134,4.134,0,0,0,4.129-4.129v-2.656a4.129,4.129,0,1,0-8.258,0v2.656A4.134,4.134,0,0,0,901.924,497.507Zm-.81-7.491h1.62a.762.762,0,1,1,0,1.525h-1.62a.762.762,0,0,1,0-1.525Zm0,2.764h1.62a.762.762,0,1,1,0,1.525h-1.62a.762.762,0,0,1,0-1.525Z" transform="translate(-895.139 -486.593)" fill="#fff"/></g></svg>