<svg xmlns="http://www.w3.org/2000/svg" width="36" height="36" viewBox="0 0 36 36"><g transform="translate(-270 -90)"><rect width="36" height="36" rx="6" transform="translate(270 90)" fill="#161c24"/><rect width="20" height="20" transform="translate(278 98)" opacity="0"/><path d="M82-862a1.926,1.926,0,0,1-1.412-.588A1.926,1.926,0,0,1,80-864v-14a1.926,1.926,0,0,1,.588-1.412A1.926,1.926,0,0,1,82-880h5a1.926,1.926,0,0,1,1.412.588A1.926,1.926,0,0,1,89-878v5H87v-2H82v8h7v3a1.926,1.926,0,0,1-.588,1.412A1.926,1.926,0,0,1,87-862Zm11,2a1.926,1.926,0,0,1-1.412-.588A1.926,1.926,0,0,1,91-862v-5h2v2h5v-8H91v-3a1.926,1.926,0,0,1,.588-1.412A1.926,1.926,0,0,1,93-878h5a1.926,1.926,0,0,1,1.412.588A1.926,1.926,0,0,1,100-876v14a1.926,1.926,0,0,1-.588,1.412A1.926,1.926,0,0,1,98-860Zm-11-5v1h5v-1Zm11,2v1h5v-1ZM82-877h5v-1H82Zm11,2h5v-1H93Zm-7,6a.968.968,0,0,1-.713-.287A.968.968,0,0,1,85-870a.968.968,0,0,1,.287-.713A.968.968,0,0,1,86-871a.968.968,0,0,1,.713.287A.968.968,0,0,1,87-870a.968.968,0,0,1-.287.713A.968.968,0,0,1,86-869Zm4,0a.968.968,0,0,1-.713-.287A.968.968,0,0,1,89-870a.968.968,0,0,1,.287-.713A.968.968,0,0,1,90-871a.968.968,0,0,1,.713.287A.968.968,0,0,1,91-870a.968.968,0,0,1-.287.713A.968.968,0,0,1,90-869Zm4,0a.968.968,0,0,1-.713-.287A.968.968,0,0,1,93-870a.968.968,0,0,1,.287-.713A.968.968,0,0,1,94-871a.968.968,0,0,1,.713.287A.968.968,0,0,1,95-870a.968.968,0,0,1-.287.713A.968.968,0,0,1,94-869Zm-12,4v0Zm11,2v0ZM82-877v0Zm11,2v0Z" transform="translate(198 978)" fill="#fff"/></g></svg>