<svg xmlns="http://www.w3.org/2000/svg" width="14.002" height="14.005" viewBox="0 0 14.002 14.005"><g transform="translate(-76.696 -249.997)"><path d="M139.8-816.31a.745.745,0,0,1-.5-.18.811.811,0,0,1-.273-.46l-.121-.56q-.243-.1-.456-.21a3.53,3.53,0,0,1-.435-.27l-.587.18a.764.764,0,0,1-.516-.02.81.81,0,0,1-.4-.32l-.162-.28a.776.776,0,0,1-.1-.52.7.7,0,0,1,.263-.46l.445-.38a3.374,3.374,0,0,1-.041-.52,3.374,3.374,0,0,1,.041-.52l-.445-.38a.7.7,0,0,1-.263-.45.756.756,0,0,1,.1-.51l.182-.3a.817.817,0,0,1,.385-.32.734.734,0,0,1,.506-.02l.587.18a3.53,3.53,0,0,1,.435-.27q.213-.11.456-.21l.121-.58a.765.765,0,0,1,.273-.45.771.771,0,0,1,.5-.17h.324a.744.744,0,0,1,.5.18.811.811,0,0,1,.273.46l.122.56a3.761,3.761,0,0,1,.466.23,3.677,3.677,0,0,1,.425.29l.547-.18a.772.772,0,0,1,.547,0,.777.777,0,0,1,.4.34l.162.28a.776.776,0,0,1,.1.52.7.7,0,0,1-.263.46l-.445.38a3.247,3.247,0,0,1,.041.5,3.245,3.245,0,0,1-.041.5l.445.38a.7.7,0,0,1,.263.45.755.755,0,0,1-.1.51l-.182.3a.817.817,0,0,1-.385.32.732.732,0,0,1-.506.02l-.587-.18a3.53,3.53,0,0,1-.435.27q-.213.11-.456.21l-.122.58a.765.765,0,0,1-.273.45.771.771,0,0,1-.5.17Zm.162-2.4a1.57,1.57,0,0,0,1.144-.47,1.531,1.531,0,0,0,.476-1.13,1.531,1.531,0,0,0-.476-1.13,1.57,1.57,0,0,0-1.144-.47,1.57,1.57,0,0,0-1.144.47,1.531,1.531,0,0,0-.476,1.13,1.531,1.531,0,0,0,.476,1.13,1.57,1.57,0,0,0,1.141.47Z" transform="translate(-52.978 1080.31)" fill="#637381"/><path d="M126.973-838.445a5.223,5.223,0,0,0-3.845,1.585,5.263,5.263,0,0,0-1.579,3.86,5.318,5.318,0,0,0,.629,2.567,5.407,5.407,0,0,0,1.7,1.906v-1.361a.754.754,0,0,1,.223-.554.748.748,0,0,1,.552-.224.748.748,0,0,1,.552.224.754.754,0,0,1,.223.554v3.111a.754.754,0,0,1-.223.554.748.748,0,0,1-.552.224h-3.1a.748.748,0,0,1-.552-.224.754.754,0,0,1-.223-.554.754.754,0,0,1,.223-.554.748.748,0,0,1,.552-.224H122.6a7.043,7.043,0,0,1-1.9-2.382A6.813,6.813,0,0,1,120-833a6.8,6.8,0,0,1,.552-2.732,7.117,7.117,0,0,1,1.491-2.217,7.087,7.087,0,0,1,2.208-1.5,6.723,6.723,0,0,1,2.721-.554,6.719,6.719,0,0,1,3.942,1.225,6.941,6.941,0,0,1,2.528,3.15.81.81,0,0,1,0,.6.7.7,0,0,1-.426.408.827.827,0,0,1-.61,0,.7.7,0,0,1-.416-.428,5.347,5.347,0,0,0-1.947-2.46,5.219,5.219,0,0,0-3.07-.937Z" transform="translate(-43.304 1090)" fill="#637381"/></g></svg>