<svg xmlns="http://www.w3.org/2000/svg" width="100" height="80" viewBox="0 0 100 80"><g transform="translate(-757 -251)"><rect width="100" height="80" transform="translate(757 251)" opacity="0"/><g transform="translate(674.774 -487.078)"><path d="M135.9,758.2v-.029a2.092,2.092,0,0,1,.746-1.537,3.286,3.286,0,0,0,1.1-2.45V750.4a3.325,3.325,0,0,0-3.325-3.325h-2.632a3.324,3.324,0,0,0-3.324,3.325v3.777a3.285,3.285,0,0,0,1.094,2.45,2.086,2.086,0,0,1,.747,1.537v.029a1.957,1.957,0,0,1-1.424,1.883l-2.918.826a3.273,3.273,0,0,0-2.381,3.148v5.534h19.044v-5.534a3.272,3.272,0,0,0-2.381-3.148l-2.918-.826A1.956,1.956,0,0,1,135.9,758.2Z" fill="#fff"/><path d="M131.781,746.327h2.632a4.08,4.08,0,0,1,4.075,4.075v3.777a4.058,4.058,0,0,1-1.343,3.007,1.387,1.387,0,0,0-.5.98v.029a1.211,1.211,0,0,0,.877,1.161l2.918.826a4.038,4.038,0,0,1,2.927,3.87v5.534a.75.75,0,0,1-.75.75H123.575a.75.75,0,0,1-.75-.75v-5.534a4.038,4.038,0,0,1,2.927-3.87l2.918-.826a1.211,1.211,0,0,0,.878-1.161v-.029a1.381,1.381,0,0,0-.5-.979,4.058,4.058,0,0,1-1.343-3.008V750.4A4.079,4.079,0,0,1,131.781,746.327Zm10.088,22.509v-4.784a2.532,2.532,0,0,0-1.835-2.426l-2.918-.826a2.716,2.716,0,0,1-1.969-2.6v-.029a2.828,2.828,0,0,1,.993-2.094,2.522,2.522,0,0,0,.848-1.893V750.4a2.578,2.578,0,0,0-2.575-2.575h-2.632a2.577,2.577,0,0,0-2.574,2.575v3.777a2.521,2.521,0,0,0,.846,1.893,2.821,2.821,0,0,1,.995,2.094v.029a2.717,2.717,0,0,1-1.97,2.6l-2.918.826a2.532,2.532,0,0,0-1.835,2.426v4.784Z" fill="#637381"/><path d="M140.238,760.9l-2.918-.826A1.956,1.956,0,0,1,135.9,758.2v-.029a2.092,2.092,0,0,1,.746-1.537,3.286,3.286,0,0,0,1.1-2.45V750.4a3.325,3.325,0,0,0-3.325-3.324H134.3a3.324,3.324,0,0,0-3.325,3.324v3.778a3.289,3.289,0,0,0,1.094,2.45,2.086,2.086,0,0,1,.747,1.537v.029a1.957,1.957,0,0,1-1.424,1.883l-2.918.826a3.273,3.273,0,0,0-2.38,3.148v5.534h16.528v-5.534A3.272,3.272,0,0,0,140.238,760.9Z" fill="#e6e9ec" style="mix-blend-mode:multiply;isolation:isolate"/><path d="M159.765,797.236v-.029a2.087,2.087,0,0,1,.747-1.537,3.286,3.286,0,0,0,1.094-2.451v-3.777a3.324,3.324,0,0,0-3.324-3.324H155.65a3.325,3.325,0,0,0-3.325,3.324v3.777a3.286,3.286,0,0,0,1.1,2.451,2.088,2.088,0,0,1,.746,1.537v.029a1.957,1.957,0,0,1-1.423,1.883l-2.918.826a3.273,3.273,0,0,0-2.381,3.148v5.534h19.044v-5.534a3.273,3.273,0,0,0-2.381-3.148l-2.918-.826A1.958,1.958,0,0,1,159.765,797.236Z" fill="#fff"/><path d="M155.65,785.368h2.632a4.079,4.079,0,0,1,4.074,4.074v3.777a4.058,4.058,0,0,1-1.342,3.008,1.382,1.382,0,0,0-.5.98v.029a1.213,1.213,0,0,0,.879,1.161l2.917.826a4.038,4.038,0,0,1,2.927,3.87v5.534a.75.75,0,0,1-.75.75H147.444a.75.75,0,0,1-.75-.75v-5.534a4.038,4.038,0,0,1,2.927-3.87l2.918-.826a1.212,1.212,0,0,0,.877-1.161v-.029a1.384,1.384,0,0,0-.5-.98,4.059,4.059,0,0,1-1.343-3.008v-3.777A4.079,4.079,0,0,1,155.65,785.368Zm10.088,22.509v-4.784a2.532,2.532,0,0,0-1.835-2.426l-2.918-.826a2.719,2.719,0,0,1-1.97-2.6v-.029a2.822,2.822,0,0,1,1-2.095,2.521,2.521,0,0,0,.845-1.893v-3.777a2.577,2.577,0,0,0-2.574-2.574H155.65a2.577,2.577,0,0,0-2.575,2.574v3.777a2.523,2.523,0,0,0,.847,1.894,2.824,2.824,0,0,1,.994,2.094v.029a2.718,2.718,0,0,1-1.968,2.6l-2.919.826a2.532,2.532,0,0,0-1.835,2.426v4.784Z" fill="#637381"/><path d="M135.9,797.236v-.029a2.09,2.09,0,0,1,.746-1.537,3.287,3.287,0,0,0,1.1-2.451v-3.777a3.325,3.325,0,0,0-3.325-3.324h-2.632a3.324,3.324,0,0,0-3.324,3.324v3.777a3.286,3.286,0,0,0,1.094,2.451,2.086,2.086,0,0,1,.747,1.537v.029a1.958,1.958,0,0,1-1.424,1.883l-2.918.826a3.273,3.273,0,0,0-2.381,3.148v5.534h19.044v-5.534a3.272,3.272,0,0,0-2.381-3.148l-2.918-.826A1.957,1.957,0,0,1,135.9,797.236Z" fill="#fff"/><path d="M131.781,785.368h2.632a4.079,4.079,0,0,1,4.075,4.074v3.777a4.059,4.059,0,0,1-1.343,3.008,1.384,1.384,0,0,0-.5.98v.029a1.212,1.212,0,0,0,.878,1.161l2.917.826a4.038,4.038,0,0,1,2.927,3.87v5.534a.75.75,0,0,1-.75.75H123.575a.75.75,0,0,1-.75-.75v-5.534a4.038,4.038,0,0,1,2.927-3.87l2.918-.826a1.212,1.212,0,0,0,.878-1.161v-.029a1.381,1.381,0,0,0-.5-.979,4.059,4.059,0,0,1-1.343-3.009v-3.777A4.079,4.079,0,0,1,131.781,785.368Zm10.088,22.509v-4.784a2.532,2.532,0,0,0-1.835-2.426l-2.918-.826a2.718,2.718,0,0,1-1.969-2.6v-.029a2.824,2.824,0,0,1,.994-2.094,2.523,2.523,0,0,0,.847-1.894v-3.777a2.577,2.577,0,0,0-2.575-2.574h-2.632a2.577,2.577,0,0,0-2.574,2.574v3.777a2.522,2.522,0,0,0,.846,1.894,2.821,2.821,0,0,1,.995,2.094v.029a2.719,2.719,0,0,1-1.969,2.6l-2.919.826a2.532,2.532,0,0,0-1.835,2.426v4.784Z" fill="#637381"/><path d="M112.028,797.236v-.029a2.09,2.09,0,0,1,.746-1.537,3.287,3.287,0,0,0,1.1-2.451v-3.777a3.325,3.325,0,0,0-3.325-3.324h-2.631a3.324,3.324,0,0,0-3.325,3.324v3.777a3.289,3.289,0,0,0,1.094,2.451,2.086,2.086,0,0,1,.747,1.537v.029A1.958,1.958,0,0,1,105,799.119l-2.918.826a3.273,3.273,0,0,0-2.38,3.148v5.534H118.75v-5.534a3.272,3.272,0,0,0-2.381-3.148l-2.918-.826A1.957,1.957,0,0,1,112.028,797.236Z" fill="#fff"/><path d="M107.913,785.368h2.631a4.079,4.079,0,0,1,4.075,4.074v3.777a4.059,4.059,0,0,1-1.343,3.008,1.384,1.384,0,0,0-.5.98v.029a1.212,1.212,0,0,0,.878,1.161l2.917.826a4.038,4.038,0,0,1,2.927,3.87v5.534a.75.75,0,0,1-.75.75H99.707a.75.75,0,0,1-.75-.75v-5.534a4.038,4.038,0,0,1,2.926-3.87l2.918-.826a1.212,1.212,0,0,0,.878-1.161v-.029a1.381,1.381,0,0,0-.5-.979,4.062,4.062,0,0,1-1.343-3.009v-3.777A4.079,4.079,0,0,1,107.913,785.368ZM118,807.877v-4.784a2.532,2.532,0,0,0-1.835-2.426l-2.918-.826a2.718,2.718,0,0,1-1.969-2.6v-.029a2.824,2.824,0,0,1,.994-2.094,2.523,2.523,0,0,0,.847-1.894v-3.777a2.577,2.577,0,0,0-2.575-2.574h-2.631a2.577,2.577,0,0,0-2.575,2.574v3.777a2.525,2.525,0,0,0,.847,1.894,2.821,2.821,0,0,1,.994,2.094v.029a2.719,2.719,0,0,1-1.969,2.6l-2.919.826a2.532,2.532,0,0,0-1.834,2.426v4.784Z" fill="#637381"/><path d="M.75,8.683H-.75V0H.75Z" transform="translate(133.097 773.296)" fill="#637381"/><path d="M133.1,782.886a.75.75,0,0,1-.53-.22l-2.753-2.753,1.061-1.061,2.222,2.222,2.222-2.222,1.061,1.061-2.753,2.753A.75.75,0,0,1,133.1,782.886Z" fill="#637381"/><path d="M.53,6.67-.53,5.61,5.61-.53,6.67.53Z" transform="translate(114.269 774.591)" fill="#637381"/><path d="M118.051,781.591h-3.893a.75.75,0,0,1-.75-.75v-3.893h1.5v3.143h3.143Z" fill="#637381"/><path d="M5.61,6.67-.53.53.53-.53,6.67,5.61Z" transform="translate(145.785 774.591)" fill="#637381"/><path d="M152.036,781.591h-3.893v-1.5h3.143v-3.143h1.5v3.893A.75.75,0,0,1,152.036,781.591Z" fill="#637381"/><circle cx="2.616" cy="2.616" r="2.616" transform="translate(92.743 765.003)" fill="#fff"/><path d="M2.616-.75A3.366,3.366,0,1,1-.75,2.616,3.37,3.37,0,0,1,2.616-.75Zm0,5.232A1.866,1.866,0,1,0,.75,2.616,1.868,1.868,0,0,0,2.616,4.482Z" transform="translate(92.743 765.003)" fill="#637381"/><path d="M.75,6.77H-.75V0H.75Z" transform="translate(89.611 780.592)" fill="#dce0e4"/><path d="M6.77.75H0V-.75H6.77Z" transform="translate(86.226 783.977)" fill="#dce0e4"/><path d="M2.616-.75A3.366,3.366,0,1,1-.75,2.616,3.37,3.37,0,0,1,2.616-.75Zm0,5.232A1.866,1.866,0,1,0,.75,2.616,1.868,1.868,0,0,0,2.616,4.482Z" transform="translate(162.691 761.134)" fill="#637381"/><path d="M.75,6.77H-.75V0H.75Z" transform="translate(174.681 776.182)" fill="#dce0e4"/><path d="M6.77.75H0V-.75H6.77Z" transform="translate(171.295 779.567)" fill="#dce0e4"/></g></g></svg>