<svg xmlns="http://www.w3.org/2000/svg" width="16" height="16" viewBox="0 0 16 16"><g transform="translate(-181 -214)"><rect width="16" height="16" transform="translate(181 214)" fill="rgba(238,108,108,0)"/><path d="M-660-3135.75v-3.5a.75.75,0,0,1,.75-.751h3.5a.75.75,0,0,1,.75.751.75.75,0,0,1-.75.75h-2.75v2.749a.75.75,0,0,1-.75.751A.75.75,0,0,1-660-3135.75Z" transform="translate(-2944 875) rotate(90)" fill="#a7b1bb"/><path d="M-660-3135.75v-3.5a.75.75,0,0,1,.75-.751h3.5a.75.75,0,0,1,.75.751.75.75,0,0,1-.75.75h-2.75v2.749a.75.75,0,0,1-.75.751A.75.75,0,0,1-660-3135.75Z" transform="translate(3322 -431) rotate(-90)" fill="#a7b1bb"/><path d="M-660-3135.75v-3.5a.75.75,0,0,1,.75-.751h3.5a.75.75,0,0,1,.75.751.75.75,0,0,1-.75.75h-2.75v2.749a.75.75,0,0,1-.75.751A.75.75,0,0,1-660-3135.75Z" transform="translate(842 3355)" fill="#a7b1bb"/><path d="M-660-3135.75v-3.5a.75.75,0,0,1,.75-.751h3.5a.75.75,0,0,1,.75.751.75.75,0,0,1-.75.75h-2.75v2.749a.75.75,0,0,1-.75.751A.75.75,0,0,1-660-3135.75Z" transform="translate(-463.999 -2911) rotate(180)" fill="#a7b1bb"/><rect width="5" height="5" rx="2.5" transform="translate(186.5 219.5)" fill="#a7b1bb"/></g></svg>