<svg xmlns="http://www.w3.org/2000/svg" width="12" height="12" viewBox="0 0 12 12">
  <path id="settings-solid" d="M13.175,6.422l-1.342-.4a4.657,4.657,0,0,0-.38-.932l.657-1.228a.244.244,0,0,0-.044-.288l-.957-.96a.244.244,0,0,0-.288-.044L9.6,3.221a4.656,4.656,0,0,0-.945-.4L8.253,1.5a.244.244,0,0,0-.236-.164H6.664a.244.244,0,0,0-.232.172l-.4,1.32a4.661,4.661,0,0,0-.953.4l-1.2-.648a.244.244,0,0,0-.288.044l-.974.948a.244.244,0,0,0-.044.288l.649,1.2a4.649,4.649,0,0,0-.4.948l-1.325.4a.244.244,0,0,0-.172.232V7.989a.244.244,0,0,0,.172.232l1.334.4a4.645,4.645,0,0,0,.4.932L2.57,10.809a.244.244,0,0,0,.044.288l.957.956a.244.244,0,0,0,.288.044l1.237-.66a4.669,4.669,0,0,0,.921.376l.4,1.348a.244.244,0,0,0,.232.172H8a.244.244,0,0,0,.232-.172l.4-1.352a4.661,4.661,0,0,0,.913-.376l1.245.664a.244.244,0,0,0,.288-.044l.957-.956a.244.244,0,0,0,.044-.288l-.665-1.24a4.649,4.649,0,0,0,.38-.916l1.35-.4a.244.244,0,0,0,.172-.232V6.658a.244.244,0,0,0-.148-.236ZM7.339,9.533a2.2,2.2,0,1,1,2.2-2.2,2.2,2.2,0,0,1-2.2,2.2Z" transform="translate(-1.321 -1.334)" fill="#20252a"/>
</svg>
