<svg width="17" height="17" viewBox="0 0 17 17" fill="none" xmlns="http://www.w3.org/2000/svg">
<mask id="path-1-inside-1_15_153" fill="white">
<path d="M0 1C0 0.447715 0.447715 0 1 0H5V5H0V1Z"/>
</mask>
<path d="M0 1C0 0.447715 0.447715 0 1 0H5V5H0V1Z" fill="#637381" stroke="#637381" stroke-width="3" mask="url(#path-1-inside-1_15_153)"/>
<path d="M12 0H16C16.5523 0 17 0.447715 17 1V5H12V0Z" fill="#637381"/>
<path d="M6 0H11V5H6V0Z" fill="#637381"/>
<rect y="6" width="5" height="5" fill="#637381"/>
<path d="M6 6H11V11H6V6Z" fill="#637381"/>
<path d="M12 6H17V11H12V6Z" fill="#637381"/>
<path d="M0 16C0 16.5523 0.447715 17 1 17H5V12H0V16Z" fill="#637381"/>
<path d="M10.2628 13.6496C10.5901 13.3877 11.0751 13.6211 11.0753 14.0402V16.0002H15.5753C15.8514 16.0002 16.0753 16.2241 16.0753 16.5002C16.0753 16.7763 15.8515 17.0002 15.5753 17.0002H7.5011C7.02846 17.0002 6.81953 16.4048 7.1886 16.1096L10.2628 13.6496Z" fill="#637381"/>
</svg>
