<svg xmlns="http://www.w3.org/2000/svg" width="13.067" height="14" viewBox="0 0 13.067 14"><path d="M166.877-866v-2.153l3.8-3.85a.934.934,0,0,1,.344-.227,1.083,1.083,0,0,1,.378-.07,1.018,1.018,0,0,1,.4.079,1.042,1.042,0,0,1,.344.236l.636.647a1.224,1.224,0,0,1,.215.35,1.026,1.026,0,0,1,.077.385,1.213,1.213,0,0,1-.069.394.942.942,0,0,1-.223.359L168.992-866Zm5.158-4.6-.636-.647Zm-4.126,3.552h.653l2.08-2.135-.309-.332-.327-.315-2.1,2.117ZM161.375-866a1.313,1.313,0,0,1-.971-.411,1.36,1.36,0,0,1-.4-.989v-11.2a1.36,1.36,0,0,1,.4-.989,1.313,1.313,0,0,1,.971-.411h5.5L171-875.8v2.1h-1.375v-1.4h-3.439v-3.5h-4.814v11.2H165.5v1.4ZM166.189-873Zm4.143,3.482-.327-.315.636.647Z" transform="translate(-160 880)" fill="#637381"/></svg>