<svg xmlns="http://www.w3.org/2000/svg" width="100" height="80" viewBox="0 0 100 80"><g transform="translate(-757 -251)"><rect width="100" height="80" transform="translate(757 251)" opacity="0"/><g transform="translate(140.535 -496.376)"><path d="M678.479,783.966v-.049a3.532,3.532,0,0,1,1.262-2.6,5.555,5.555,0,0,0,1.849-4.141v-6.383a5.618,5.618,0,0,0-5.618-5.618h-4.447a5.619,5.619,0,0,0-5.619,5.618v6.383a5.556,5.556,0,0,0,1.85,4.141,3.53,3.53,0,0,1,1.262,2.6v.049a3.308,3.308,0,0,1-2.406,3.182l-4.931,1.4a5.529,5.529,0,0,0-4.023,5.32v9.352h32.181v-9.352a5.529,5.529,0,0,0-4.023-5.32l-4.931-1.4A3.308,3.308,0,0,1,678.479,783.966Z" fill="#fff"/><path d="M671.525,764.427h4.447a6.375,6.375,0,0,1,6.368,6.368v6.383a6.34,6.34,0,0,1-2.1,4.7,2.792,2.792,0,0,0-1.014,2.041v.049a2.567,2.567,0,0,0,1.86,2.46l4.931,1.4a6.279,6.279,0,0,1,4.569,6.042v9.352a.75.75,0,0,1-.75.75H657.658a.75.75,0,0,1-.75-.75v-9.352a6.279,6.279,0,0,1,4.569-6.042l4.931-1.4a2.567,2.567,0,0,0,1.86-2.46v-.049a2.792,2.792,0,0,0-1.014-2.041,6.341,6.341,0,0,1-2.1-4.7v-6.383A6.376,6.376,0,0,1,671.525,764.427Zm17.564,38.039v-8.6a4.8,4.8,0,0,0-3.477-4.6l-4.931-1.4a4.073,4.073,0,0,1-2.952-3.9v-.049a4.266,4.266,0,0,1,1.51-3.155,4.774,4.774,0,0,0,1.6-3.584v-6.383a4.874,4.874,0,0,0-4.868-4.868h-4.447a4.874,4.874,0,0,0-4.869,4.868v6.383a4.775,4.775,0,0,0,1.6,3.584,4.266,4.266,0,0,1,1.51,3.155v.049a4.073,4.073,0,0,1-2.952,3.9l-4.931,1.4a4.8,4.8,0,0,0-3.477,4.6v8.6Z" fill="#637381"/><path d="M689.839,793.864a5.529,5.529,0,0,0-4.023-5.32l-4.931-1.4a3.308,3.308,0,0,1-2.406-3.182v-.049a3.532,3.532,0,0,1,1.262-2.6,5.556,5.556,0,0,0,1.85-4.141v-6.383a5.619,5.619,0,0,0-5.619-5.618h-4.447a5.6,5.6,0,0,0-4.185,1.878,5.618,5.618,0,0,1,1.8-.3h4.447a5.619,5.619,0,0,1,5.618,5.619v6.383a5.552,5.552,0,0,1-1.85,4.14,3.535,3.535,0,0,0-1.261,2.6v.048a3.307,3.307,0,0,0,2.406,3.182l4.931,1.4a5.53,5.53,0,0,1,4.023,5.321v7.771h2.389Z" fill="#e6e9ec" style="mix-blend-mode:multiply;isolation:isolate"/><path d="M0,0H17.062a2.772,2.772,0,0,1,2.772,2.772h0a2.772,2.772,0,0,1-2.772,2.772H0Z" transform="translate(661.293 808.334)" fill="#e6e9ec"/><path d="M0-.75H17.062a3.522,3.522,0,0,1,0,7.044H0a.75.75,0,0,1-.75-.75V0A.75.75,0,0,1,0-.75ZM17.062,4.794a2.022,2.022,0,0,0,0-4.044H.75V4.794Z" transform="translate(661.293 808.334)" fill="#637381"/><path d="M0,0H17.062a2.772,2.772,0,0,1,2.772,2.772h0a2.772,2.772,0,0,1-2.772,2.772H0Z" transform="translate(664.971 811.844)" fill="#e6e9ec"/><path d="M0-.75H17.062a3.522,3.522,0,0,1,0,7.044H0a.75.75,0,0,1-.75-.75V0A.75.75,0,0,1,0-.75ZM17.062,4.794a2.022,2.022,0,0,0,0-4.044H.75V4.794Z" transform="translate(664.971 811.844)" fill="#637381"/><path d="M658.611,801.99l9.062,9.157c1.3,1.3,3.986.676,5.181-.771a3.224,3.224,0,0,0-.3-4.3l-9.014-9.014h0a12.9,12.9,0,0,0-8.979-3.779l-15.72-.18-7.528,11.126,10.26.609,19.21,14.366a14.547,14.547,0,0,0,9.071,2.892l15.162-.373a3.185,3.185,0,0,0,3.106-3.262l0-.13a3.184,3.184,0,0,0-3.261-3.1l-7.1.175a13.831,13.831,0,0,1-10.617-4.808Z" fill="#fff"/><path d="M638.839,792.355h.009l15.72.18a13.655,13.655,0,0,1,9.5,4l9.014,9.014a4.113,4.113,0,0,1,1.193,2.581,3.783,3.783,0,0,1-.843,2.725,5.078,5.078,0,0,1-2.915,1.661,12.368,12.368,0,0,0,7.222,2.139l7.1-.175h.1a3.934,3.934,0,0,1,3.931,3.838l0,.126a3.935,3.935,0,0,1-3.837,4.035l-15.162.373c-.126,0-.254,0-.38,0a15.3,15.3,0,0,1-9.159-3.046L641.3,805.575l-10.035-.6a.75.75,0,0,1-.577-1.169l7.528-11.126A.75.75,0,0,1,638.839,792.355ZM669.59,811.1a3.7,3.7,0,0,0,2.685-1.205,2.476,2.476,0,0,0-.254-3.29l-9.014-9.014a12.088,12.088,0,0,0-8.457-3.559l-15.317-.175-6.564,9.7,8.945.531a.75.75,0,0,1,.4.148l19.21,14.366a13.886,13.886,0,0,0,8.261,2.747c.114,0,.229,0,.342,0L685,820.975a2.435,2.435,0,0,0,2.375-2.494l0-.125a2.449,2.449,0,0,0-2.432-2.379h-.061l-7.1.175c-.115,0-.232,0-.346,0a14.456,14.456,0,0,1-10.258-4.451l-.029-.028-.01-.01q-.106-.106-.211-.213l-8.844-8.937a.75.75,0,0,1,1.066-1.056l0,0,8.526,8.6.018.018c.1.107.2.214.3.318l.229.231A1.964,1.964,0,0,0,669.59,811.1Z" fill="#637381"/><rect width="8.373" height="18.001" transform="translate(630.465 790.333)" fill="#fff"/><path d="M0-.75H8.373a.75.75,0,0,1,.75.75V18a.75.75,0,0,1-.75.75H0A.75.75,0,0,1-.75,18V0A.75.75,0,0,1,0-.75ZM7.623.75H.75v16.5H7.623Z" transform="translate(630.465 790.333)" fill="#637381"/><rect width="6.087" height="18.001" transform="translate(632.752 790.333)" fill="#eeace2" style="mix-blend-mode:multiply;isolation:isolate"/><circle cx="2.616" cy="2.616" r="2.616" transform="translate(655.169 753.376)" fill="#fff"/><path d="M2.616-.75A3.366,3.366,0,1,1-.75,2.616,3.37,3.37,0,0,1,2.616-.75Zm0,5.232A1.866,1.866,0,1,0,.75,2.616,1.868,1.868,0,0,0,2.616,4.482Z" transform="translate(655.169 753.376)" fill="#637381"/><path d="M.75,6.77H-.75V0H.75Z" transform="translate(649.519 766.783)" fill="#dce0e4"/><path d="M6.77.75H0V-.75H6.77Z" transform="translate(646.134 770.168)" fill="#dce0e4"/><circle cx="2.616" cy="2.616" r="2.616" transform="translate(697.031 780.646)" fill="#fff"/><path d="M2.616-.75A3.366,3.366,0,1,1-.75,2.616,3.37,3.37,0,0,1,2.616-.75Zm0,5.232A1.866,1.866,0,1,0,.75,2.616,1.868,1.868,0,0,0,2.616,4.482Z" transform="translate(697.031 780.646)" fill="#637381"/><path d="M.75,6.77H-.75V0H.75Z" transform="translate(697.978 761.198)" fill="#dce0e4"/><path d="M6.77.75H0V-.75H6.77Z" transform="translate(694.593 764.583)" fill="#dce0e4"/></g></g></svg>