<svg xmlns="http://www.w3.org/2000/svg" width="15" height="14.418" viewBox="0 0 15 14.418"><path d="M60.964-841ZM64.491-841.618Zm3.891,8.036-1.909-1.909H56.909a1.4,1.4,0,0,1-1.027-.427,1.4,1.4,0,0,1-.427-1.027v-8.727a1.4,1.4,0,0,1,.427-1.027,1.4,1.4,0,0,1,1.027-.427l1.455,1.455H56.909v8.727h8.109L55-846.964,56.036-848l13.382,13.382Zm1.455-2.691-1.291-1.291v-6.655l-4.091,2.564-.891-.891,4.982-3.127H60.436l-1.455-1.455h9.564a1.4,1.4,0,0,1,1.027.427A1.4,1.4,0,0,1,70-845.673v8.727a1.717,1.717,0,0,1-.036.355A.974.974,0,0,1,69.836-836.273Z" transform="translate(-55 848)" fill="#a7b1bb"/></svg>