<svg xmlns="http://www.w3.org/2000/svg" width="16" height="16" viewBox="0 0 16 16"><g transform="translate(-1057.5 -481.5)"><rect width="16" height="16" transform="translate(1057.5 481.5)" fill="rgba(116,202,0,0)" opacity="0.3"/><g transform="translate(8 -0.1)"><path d="M1-.6H4A1.6,1.6,0,0,1,5.6,1V4A1.6,1.6,0,0,1,4,5.6H1A1.6,1.6,0,0,1-.6,4V1A1.6,1.6,0,0,1,1-.6Zm3,5A.4.4,0,0,0,4.4,4V1A.4.4,0,0,0,4,.6H1A.4.4,0,0,0,.6,1V4a.4.4,0,0,0,.4.4Z" transform="translate(1051.1 483.2)" fill="#c4cdd5"/><path d="M1-.6H4A1.6,1.6,0,0,1,5.6,1V4A1.6,1.6,0,0,1,4,5.6H1A1.6,1.6,0,0,1-.6,4V1A1.6,1.6,0,0,1,1-.6Zm3,5A.4.4,0,0,0,4.4,4V1A.4.4,0,0,0,4,.6H1A.4.4,0,0,0,.6,1V4a.4.4,0,0,0,.4.4Z" transform="translate(1051.1 490.2)" fill="#c4cdd5"/><path d="M1-.6H4A1.6,1.6,0,0,1,5.6,1V4A1.6,1.6,0,0,1,4,5.6H1A1.6,1.6,0,0,1-.6,4V1A1.6,1.6,0,0,1,1-.6Zm3,5A.4.4,0,0,0,4.4,4V1A.4.4,0,0,0,4,.6H1A.4.4,0,0,0,.6,1V4a.4.4,0,0,0,.4.4Z" transform="translate(1058.1 483.2)" fill="#c4cdd5"/><rect width="2" height="2" transform="translate(1052.6 484.7)" fill="#c4cdd5"/><rect width="2" height="2" transform="translate(1052.6 491.7)" fill="#c4cdd5"/><path d="M5850-623v-1h-3v1h-2v-2h2v-2h3v3h1v1Zm0-4v-1h-1v-1h2v2Zm-5,0v-2h2v2Z" transform="translate(-4787.5 1118.7)" fill="#c4cdd5"/><rect width="2" height="2" transform="translate(1059.6 484.7)" fill="#c4cdd5"/></g></g></svg>