<svg xmlns="http://www.w3.org/2000/svg" width="14.003" height="14.001" viewBox="0 0 14.003 14.001"><g transform="translate(-38 -648)"><rect width="14" height="14" transform="translate(38 648)" fill="#637381" opacity="0"/><path d="M130.364-827.711,128.653-826,127-827.653l1.711-1.711a2.517,2.517,0,0,1-.117-.447,2.831,2.831,0,0,1-.039-.467,2.623,2.623,0,0,1,.8-1.925,2.623,2.623,0,0,1,1.925-.8,2.647,2.647,0,0,1,.681.088,2.885,2.885,0,0,1,.622.243l-1.847,1.847,1.089,1.089,1.847-1.828a2.946,2.946,0,0,1,.243.612,2.539,2.539,0,0,1,.087.671,2.623,2.623,0,0,1-.8,1.925,2.623,2.623,0,0,1-1.925.8,2.789,2.789,0,0,1-.476-.039A2.556,2.556,0,0,1,130.364-827.711Zm3.461-6.844h-1.614a5.359,5.359,0,0,0-1.925-2.8A5.249,5.249,0,0,0,127-838.444a5.253,5.253,0,0,0-3.86,1.585,5.253,5.253,0,0,0-1.585,3.86,5.3,5.3,0,0,0,.632,2.567,5.414,5.414,0,0,0,1.7,1.906v-2.139h1.556V-826h-4.667v-1.556H122.6a7.048,7.048,0,0,1-1.906-2.382A6.79,6.79,0,0,1,120-833a6.772,6.772,0,0,1,.554-2.732,7.116,7.116,0,0,1,1.5-2.217,7.116,7.116,0,0,1,2.217-1.5A6.771,6.771,0,0,1,127-840a6.764,6.764,0,0,1,4.4,1.546,6.82,6.82,0,0,1,2.425,3.9Z" transform="translate(-82 1488.001)" fill="#637381"/></g></svg>