<svg xmlns="http://www.w3.org/2000/svg" width="58" height="58" viewBox="0 0 58 58">
  <g id="그룹_127387" data-name="그룹 127387" transform="translate(-487 -609)">
    <rect id="사각형_25242" data-name="사각형 25242" width="58" height="58" transform="translate(487 609)" fill="rgba(255,132,132,0)"/>
    <g id="camera-video-off" transform="translate(487 609.426)">
      <g id="그룹_127349" data-name="그룹 127349" transform="translate(0 2.574)">
        <path id="패스_24491" data-name="패스 24491" d="M39.734,44.823a7.214,7.214,0,0,0,1.892-4L52.9,45.835a3.625,3.625,0,0,0,5.1-3.31V15.475a3.625,3.625,0,0,0-5.1-3.31l-11.277,5.01a7.25,7.25,0,0,0-7.188-6.3H15.486L18.074,14.5H34.438a3.625,3.625,0,0,1,3.625,3.625v21.75a3.625,3.625,0,0,1-.522,1.878ZM5.177,15.153a3.621,3.621,0,0,0-1.552,2.972v21.75A3.625,3.625,0,0,0,7.25,43.5H25.426l2.588,3.625H7.25A7.25,7.25,0,0,1,0,39.875V18.125A7.233,7.233,0,0,1,3.07,12.2l2.1,2.951Zm49.2,27.369L41.688,36.884V21.116l12.688-5.64v27.05ZM38.4,55.426,2.15,4.676,5.1,2.574l36.25,50.75Z" transform="translate(0 -2.574)" fill="#526796" fill-rule="evenodd"/>
      </g>
    </g>
  </g>
</svg>
