<svg xmlns="http://www.w3.org/2000/svg" width="16" height="16" viewBox="0 0 16 16"><path d="M108-848a.611.611,0,0,0,.45-.182.611.611,0,0,0,.181-.45v-3.579a.611.611,0,0,0-.182-.45.612.612,0,0,0-.45-.182.611.611,0,0,0-.45.182.611.611,0,0,0-.181.45v3.579a.611.611,0,0,0,.182.45A.612.612,0,0,0,108-848Zm0-6.283a.658.658,0,0,0,.485-.2.658.658,0,0,0,.2-.485.658.658,0,0,0-.2-.485.658.658,0,0,0-.485-.2.658.658,0,0,0-.485.2.658.658,0,0,0-.2.485.658.658,0,0,0,.2.485A.658.658,0,0,0,108-854.282ZM108-844a7.793,7.793,0,0,1-3.12-.63,8.081,8.081,0,0,1-2.541-1.71,8.077,8.077,0,0,1-1.71-2.54A7.785,7.785,0,0,1,100-852a7.794,7.794,0,0,1,.63-3.12,8.081,8.081,0,0,1,1.71-2.541,8.077,8.077,0,0,1,2.54-1.71A7.786,7.786,0,0,1,108-860a7.793,7.793,0,0,1,3.12.63,8.08,8.08,0,0,1,2.541,1.71,8.077,8.077,0,0,1,1.71,2.54A7.785,7.785,0,0,1,116-852a7.793,7.793,0,0,1-.63,3.12,8.081,8.081,0,0,1-1.71,2.541,8.077,8.077,0,0,1-2.54,1.71A7.786,7.786,0,0,1,108-844Zm0-1.263a6.5,6.5,0,0,0,4.779-1.958A6.5,6.5,0,0,0,114.738-852a6.5,6.5,0,0,0-1.958-4.779A6.5,6.5,0,0,0,108-858.736a6.5,6.5,0,0,0-4.779,1.958A6.5,6.5,0,0,0,101.264-852a6.5,6.5,0,0,0,1.958,4.779A6.5,6.5,0,0,0,108-845.262ZM108-852Z" transform="translate(-100.001 859.999)" fill="#53575c"/></svg>