<svg xmlns="http://www.w3.org/2000/svg" width="20" height="16.919" viewBox="0 0 20 16.919"><path d="M107.375-815.8h-3.966a.762.762,0,0,1-.562-.227.763.763,0,0,1-.227-.562.762.762,0,0,1,.227-.562.763.763,0,0,1,.562-.227h3.966l-1.381-1.4a.718.718,0,0,1-.213-.541.786.786,0,0,1,.24-.559.739.739,0,0,1,.547-.217.747.747,0,0,1,.551.218l2.613,2.623a.892.892,0,0,1,.2.306.974.974,0,0,1,.069.36.974.974,0,0,1-.069.36.891.891,0,0,1-.2.306l-2.623,2.623a.746.746,0,0,1-.541.221.754.754,0,0,1-.559-.233.736.736,0,0,1-.217-.542.739.739,0,0,1,.218-.544Zm-15.474,0a1.831,1.831,0,0,1-1.343-.558A1.831,1.831,0,0,1,90-817.7v-10.4a1.831,1.831,0,0,1,.558-1.343A1.831,1.831,0,0,1,91.9-830h13.55a1.831,1.831,0,0,1,1.343.558,1.831,1.831,0,0,1,.558,1.343v4.72a.755.755,0,0,1-.24.549.76.76,0,0,1-.553.24.757.757,0,0,1-.559-.227.765.765,0,0,1-.226-.562v-3.916l-7.2,5.121-6.994-5.1v9.574a.315.315,0,0,0,.091.233.315.315,0,0,0,.233.091h7.875a.763.763,0,0,1,.562.227.763.763,0,0,1,.227.562.762.762,0,0,1-.227.562.763.763,0,0,1-.562.227Zm.776-12.62,5.894,4.32,6.072-4.32Zm-1.1,11.043v0Z" transform="translate(-90 830)" fill="#a7b1bb"/></svg>