<svg xmlns="http://www.w3.org/2000/svg" width="14" height="14" viewBox="0 0 14 14"><g transform="translate(-135 -371)"><path d="M90.072-787.914l-.2-1.007q-.2-.084-.378-.176a2.925,2.925,0,0,1-.361-.227l-.974.3-.671-1.141.772-.672a2.659,2.659,0,0,1-.034-.436,2.661,2.661,0,0,1,.034-.437l-.772-.671.671-1.141.974.3a2.91,2.91,0,0,1,.361-.227q.176-.092.378-.176l.2-1.007h1.343l.2,1.007q.2.084.378.176a2.911,2.911,0,0,1,.361.227l.974-.3L94-792.379l-.772.671a2.66,2.66,0,0,1,.034.437,2.658,2.658,0,0,1-.034.436l.772.672-.671,1.141-.974-.3a2.925,2.925,0,0,1-.361.227q-.176.092-.378.176l-.2,1.007Zm.671-2.014a1.293,1.293,0,0,0,.948-.394,1.293,1.293,0,0,0,.394-.948,1.293,1.293,0,0,0-.394-.948,1.293,1.293,0,0,0-.948-.395,1.293,1.293,0,0,0-.948.395,1.293,1.293,0,0,0-.394.948,1.293,1.293,0,0,0,.394.948A1.293,1.293,0,0,0,90.743-789.928Zm-9.4-.672v0Zm0,1.343a1.293,1.293,0,0,1-.948-.395A1.293,1.293,0,0,1,80-790.6v-8.057a1.293,1.293,0,0,1,.394-.948,1.293,1.293,0,0,1,.948-.395h4.029l1.343,1.343h5.372a1.293,1.293,0,0,1,.948.394,1.293,1.293,0,0,1,.394.948v2.2a4.077,4.077,0,0,0-.638-.378,5.6,5.6,0,0,0-.705-.277v-1.544H86.161l-1.343-1.343H81.343v8.057h4.751a4.1,4.1,0,0,0,.159.688,5.5,5.5,0,0,0,.26.655Z" transform="translate(55 1172)" fill="#637381"/><rect width="14" height="14" transform="translate(135 371)" fill="#637381" opacity="0"/></g></svg>