<svg xmlns="http://www.w3.org/2000/svg" width="16" height="16" viewBox="0 0 16 16"><g transform="translate(-567 -386)"><rect width="16" height="16" transform="translate(567 386)" fill="#006fdf" opacity="0"/><path d="M102.763-851.711h5.526v-1.105h-5.526Zm0-2.211h8.474v-1.105h-8.474Zm0-2.211h8.474v-1.105h-8.474ZM100-846.34v-12.328a1.286,1.286,0,0,1,.387-.945,1.286,1.286,0,0,1,.945-.387h11.336a1.286,1.286,0,0,1,.945.387,1.286,1.286,0,0,1,.387.945v8.389a1.286,1.286,0,0,1-.387.945,1.286,1.286,0,0,1-.945.387H102.607Zm2.137-3.713h10.531a.216.216,0,0,0,.156-.071.216.216,0,0,0,.071-.156v-8.389a.216.216,0,0,0-.071-.156.216.216,0,0,0-.156-.071H101.332a.216.216,0,0,0-.156.071.216.216,0,0,0-.071.156v9.636Zm-1.032,0v0Z" transform="translate(468 1248)" fill="#a7b1bb"/></g></svg>