<svg xmlns="http://www.w3.org/2000/svg" xmlns:xlink="http://www.w3.org/1999/xlink" width="58" height="58" viewBox="0 0 58 58">
  <defs>
    <filter id="패스_6946" x="0" y="2" width="58" height="56" filterUnits="userSpaceOnUse">
      <feOffset dy="3" input="SourceAlpha"/>
      <feGaussianBlur stdDeviation="3" result="blur"/>
      <feFlood flood-opacity="0.102"/>
      <feComposite operator="in" in2="blur"/>
      <feComposite in="SourceGraphic"/>
    </filter>
  </defs>
  <g id="ico_aichat_signsqaure" transform="translate(-527 -34)">
    <rect id="boundary" width="50" height="50" transform="translate(531 34)" fill="rgba(159,209,92,0)"/>
    <g transform="matrix(1, 0, 0, 1, 527, 34)" filter="url(#패스_6946)">
      <path id="패스_6946-2" data-name="패스 6946" d="M32.27,45.819C44.4,44.284,49,38.594,49,38.594c-2.33-.562-4.47-2.86-4.18-5.158a21.657,21.657,0,0,1,.46-2.238,19.3,19.3,0,0,0,.45-4.124c0-10.5-7.32-19.005-17.78-19.005A18.973,18.973,0,0,0,9,27.065c0,10.5,9.61,19.005,19.45,19.005a22.5,22.5,0,0,0,3.83-.261Z" transform="translate(0 -0.07)" fill="#e963d2"/>
    </g>
    <g id="logo" transform="translate(526.092 33.04)">
      <g id="그룹_163453" data-name="그룹 163453" transform="translate(12.908 11.96)">
        <rect id="사각형_5434" data-name="사각형 5434" width="20.399" height="20.399" transform="translate(15.97 1.562) rotate(45)" fill="none" stroke="rgba(142,202,233,0.08)" stroke-miterlimit="10" stroke-width="5"/>
        <rect id="사각형_5435" data-name="사각형 5435" width="32" height="32" rx="16" fill="#e963d2"/>
        <path id="패스_6971" data-name="패스 6971" d="M34.555,19.95,20.13,34.375,34.555,48.8,48.979,34.375ZM20.975,34.375,34.555,20.8l13.58,13.58-13.58,13.58Z" transform="translate(-18.555 -18.389)" fill="#ffc8f5"/>
        <g id="그룹_163451" data-name="그룹 163451" transform="translate(2.366 5.749)">
          <path id="패스_6972" data-name="패스 6972" d="M46.644,100.921c-4.317,0-7.329-2.6-7.494-6.465l-.03-.694h4.873l.07.587c.157,1.309,1.215,2.091,2.831,2.091,1.049,0,1.809-.5,1.809-1.188s-.237-1.165-3.3-1.778c-2.478-.5-5.773-1.657-5.773-5.987,0-3.241,2.877-5.506,7-5.506,3.829,0,6.746,2.569,6.938,6.109l.038.7H48.716l-.082-.57A2.008,2.008,0,0,0,46.4,86.441c-.438,0-1.867.075-1.867,1.044,0,.7.8,1.065,3.738,1.719A7.247,7.247,0,0,1,52.4,91.4a5.526,5.526,0,0,1,1.223,3.687,5.365,5.365,0,0,1-2.1,4.314,7.93,7.93,0,0,1-4.874,1.52Z" transform="translate(-38.425 -81.314)" fill="#fffdfd"/>
          <path id="패스_6973" data-name="패스 6973" d="M38.44,74.8c3.492,0,6.1,2.286,6.274,5.479H41.106a2.638,2.638,0,0,0-2.9-2.348c-1.669,0-2.532.7-2.532,1.71,0,1.256,1.209,1.689,4.259,2.369,3.607.8,4.835,2.719,4.835,5.231,0,3.213-2.82,5.169-6.312,5.169-3.856,0-6.677-2.245-6.83-5.829h3.587c.192,1.607,1.5,2.678,3.492,2.678,1.42,0,2.475-.762,2.475-1.854,0-1.339-1.055-1.874-3.837-2.431-3.4-.68-5.238-2.183-5.238-5.335s2.8-4.84,6.331-4.84m0-1.331a9,9,0,0,0-5.273,1.54,5.615,5.615,0,0,0-2.389,4.631,6.113,6.113,0,0,0,1.751,4.551,6.454,6.454,0,0,0,1.483,1.059H30.24L30.3,86.64a7.44,7.44,0,0,0,.722,2.946,6.839,6.839,0,0,0,1.78,2.276,8.67,8.67,0,0,0,5.658,1.88,8.6,8.6,0,0,0,5.285-1.661A6.019,6.019,0,0,0,46.1,87.241a6.174,6.174,0,0,0-1.38-4.118,6.346,6.346,0,0,0-1.928-1.513h3.325l-.076-1.4c-.211-3.9-3.409-6.738-7.6-6.738h0Zm-1.43,6.218c0-.01,0-.025,0-.047,0-.052,0-.082.088-.144a1.964,1.964,0,0,1,1.114-.235c1.246,0,1.5.645,1.58,1.207l.021.147a19.192,19.192,0,0,1-2.078-.564,2.053,2.053,0,0,1-.722-.364h0Zm1.7,8.24c-.6,0-2.008-.146-2.17-1.5l-.032-.271c.188.045.381.088.579.127a9.768,9.768,0,0,1,2.533.754c.234.142.234.195.234.371,0,.283-.524.523-1.144.523h0Z" transform="translate(-30.24 -73.47)" fill="#e963d2"/>
        </g>
        <g id="그룹_163452" data-name="그룹 163452" transform="translate(17.813 13.715)">
          <path id="패스_6974" data-name="패스 6974" d="M240.055,193.286c-2.85,0-4.838-1.489-4.946-3.706L235.08,189h2.611a3.125,3.125,0,0,1-1.024-5.732,6.084,6.084,0,0,1,3.34-.9c2.72,0,4.708,1.463,4.834,3.556l.035.588h-2.432A3.151,3.151,0,0,1,245,189.633C245,191.75,242.921,193.286,240.055,193.286Zm-1.1-3.82c.048.307.541.538,1.145.538a1.888,1.888,0,0,0,.966-.207,5.329,5.329,0,0,0-1.719-.43q-.208-.032-.419-.069Zm.146-3.716a6.776,6.776,0,0,0,1.678.4l.234.037-.022-.133c-.044-.264-.488-.463-1.035-.463a1.885,1.885,0,0,0-.856.163Z" transform="translate(-234.497 -181.814)" fill="#f6a4e8"/>
          <path id="패스_6975" data-name="패스 6975" d="M233.14,176.37c2.332,0,4.169,1.182,4.281,3.035h-2.747c-.1-.575-.75-.927-1.582-.927s-1.485.3-1.485.718c0,.463.623.687,2.22.942,2.763.416,3.753,1.326,3.753,2.938,0,1.916-2.013,3.1-4.392,3.1s-4.3-1.214-4.392-3.179h2.748c.1.607.8,1.006,1.693,1.006s1.582-.336,1.582-.767-.639-.735-2.252-.974c-2.236-.336-3.705-1.022-3.705-2.923s1.9-2.971,4.281-2.971m0-1.109a6.641,6.641,0,0,0-3.648.989,3.662,3.662,0,0,0-1.742,3.091,3.441,3.441,0,0,0,.995,2.549H227.63l.057,1.163a4.071,4.071,0,0,0,1.786,3.179,6.415,6.415,0,0,0,3.715,1.054c3.187,0,5.5-1.769,5.5-4.208a3.4,3.4,0,0,0-1.011-2.564h.92l-.071-1.176c-.145-2.4-2.36-4.077-5.388-4.077h0Z" transform="translate(-227.63 -175.26)" fill="#e963d2"/>
        </g>
      </g>
    </g>
  </g>
</svg>
