<svg xmlns="http://www.w3.org/2000/svg" width="11.448" height="12" viewBox="0 0 11.448 12">
  <g id="Layer_2" data-name="Layer 2" transform="translate(-1.162 -0.34)">
    <path id="합치기_23" data-name="합치기 23" d="M.083,8.665a.544.544,0,0,1,.135-.71.538.538,0,0,1,.453-.1.555.555,0,0,1,.366.287A4.91,4.91,0,1,0,1.8,2.738H3.244a.573.573,0,0,1,.571.464.544.544,0,0,1-.546.629H.546A.545.545,0,0,1,0,3.284V.581A.576.576,0,0,1,.463.006.544.544,0,0,1,.9.134.551.551,0,0,1,1.09.552V1.891A6,6,0,1,1,.083,8.665ZM8.176,8.2A.489.489,0,0,1,7.9,8.119l-3-1.8V3.284a.545.545,0,1,1,1.09,0V5.716L8.449,7.189A.546.546,0,0,1,8.182,8.2Z" transform="translate(1.162 0.34)" fill="#20252a"/>
  </g>
</svg>
