<svg xmlns="http://www.w3.org/2000/svg" width="15" height="12.857" viewBox="0 0 15 12.857"><path d="M89.964-787.143l-3.036-3.036,1-1,2.036,2.036L94-793.179l1,1ZM87.143-795l5.714-3.571H81.429Zm0,1.429-5.714-3.571V-790h3.679l1.429,1.429H81.429a1.376,1.376,0,0,1-1.009-.42A1.376,1.376,0,0,1,80-790v-8.571a1.376,1.376,0,0,1,.42-1.009,1.376,1.376,0,0,1,1.009-.42H92.857a1.376,1.376,0,0,1,1.009.42,1.376,1.376,0,0,1,.42,1.009v3.107l-1.429,1.429v-3.107ZM87.143-793.571ZM87.143-795ZM87.143-793.571Z" transform="translate(-80 800)" fill="#a7b1bb"/></svg>