<svg xmlns="http://www.w3.org/2000/svg" width="16" height="16" viewBox="0 0 16 16"><g transform="translate(-436 -288)"><rect width="16" height="16" transform="translate(436 288)" fill="rgba(116,202,0,0)" opacity="0.3"/><path d="M89.275-877.9a.845.845,0,0,1-.621-.254.845.845,0,0,1-.254-.621.845.845,0,0,1,.254-.621.845.845,0,0,1,.621-.254.845.845,0,0,1,.621.254.845.845,0,0,1,.254.621.845.845,0,0,1-.254.621A.845.845,0,0,1,89.275-877.9Zm0,11.55a.845.845,0,0,1-.621-.254.845.845,0,0,1-.254-.621.845.845,0,0,1,.254-.621.845.845,0,0,1,.621-.254.845.845,0,0,1,.621.254.845.845,0,0,1,.254.621.845.845,0,0,1-.254.621A.845.845,0,0,1,89.275-866.35Zm2.8-9.1a.845.845,0,0,1-.621-.254.845.845,0,0,1-.254-.621.845.845,0,0,1,.254-.621.845.845,0,0,1,.621-.254.845.845,0,0,1,.621.254.845.845,0,0,1,.254.621.845.845,0,0,1-.254.621A.845.845,0,0,1,92.075-875.45Zm0,6.65a.845.845,0,0,1-.621-.254.845.845,0,0,1-.254-.621.845.845,0,0,1,.254-.621.845.845,0,0,1,.621-.254.845.845,0,0,1,.621.254.845.845,0,0,1,.254.621.845.845,0,0,1-.254.621A.845.845,0,0,1,92.075-868.8Zm1.05-3.325a.845.845,0,0,1-.621-.254A.845.845,0,0,1,92.25-873a.845.845,0,0,1,.254-.621.845.845,0,0,1,.621-.254.845.845,0,0,1,.621.254A.845.845,0,0,1,94-873a.845.845,0,0,1-.254.621A.845.845,0,0,1,93.125-872.125ZM87-866a6.816,6.816,0,0,1-2.73-.551,7.069,7.069,0,0,1-2.222-1.5,7.069,7.069,0,0,1-1.5-2.222A6.816,6.816,0,0,1,80-873a6.816,6.816,0,0,1,.551-2.73,7.069,7.069,0,0,1,1.5-2.222,7.069,7.069,0,0,1,2.222-1.5A6.816,6.816,0,0,1,87-880v1.4a5.4,5.4,0,0,0-3.973,1.628A5.4,5.4,0,0,0,81.4-873a5.4,5.4,0,0,0,1.627,3.973A5.4,5.4,0,0,0,87-867.4Zm0-5.6a1.348,1.348,0,0,1-.989-.411A1.348,1.348,0,0,1,85.6-873q0-.087.009-.184a.651.651,0,0,1,.044-.184L84.2-874.82l.98-.98,1.452,1.453q.07-.017.368-.052a1.348,1.348,0,0,1,.989.411A1.348,1.348,0,0,1,88.4-873a1.348,1.348,0,0,1-.411.989A1.348,1.348,0,0,1,87-871.6Z" transform="translate(357 1169)" fill="#a7b1bb"/></g></svg>