<svg xmlns="http://www.w3.org/2000/svg" width="18" height="18" viewBox="0 0 18 18"><g transform="translate(-1547 -127)"><rect width="18" height="18" transform="translate(1547 127)" fill="rgba(255,0,0,0)"/><path d="M181.714-842a1.653,1.653,0,0,1-1.215-.5,1.653,1.653,0,0,1-.5-1.215v-14.575a1.653,1.653,0,0,1,.5-1.215,1.653,1.653,0,0,1,1.215-.5h8.107l4.391,4.391v11.9a1.653,1.653,0,0,1-.5,1.215,1.653,1.653,0,0,1-1.215.5Zm0-1.421H192.5a.279.279,0,0,0,.2-.091.279.279,0,0,0,.091-.2V-854.9h-3.68v-3.68h-7.4a.279.279,0,0,0-.2.091.279.279,0,0,0-.091.2v14.575a.279.279,0,0,0,.091.2A.279.279,0,0,0,181.714-843.42Zm5.393-1.321a3.246,3.246,0,0,0,2.433-1.031,3.445,3.445,0,0,0,.992-2.476v-4.063H189.11v4.063a2.076,2.076,0,0,1-.577,1.47,1.877,1.877,0,0,1-1.427.616,1.883,1.883,0,0,1-1.42-.616,2.062,2.062,0,0,1-.584-1.47v-5.192a.707.707,0,0,1,.188-.5.6.6,0,0,1,.459-.2.6.6,0,0,1,.466.2.724.724,0,0,1,.18.5v5.192h1.421v-5.192a2.092,2.092,0,0,0-.6-1.5,1.955,1.955,0,0,0-1.472-.623,1.955,1.955,0,0,0-1.472.623,2.092,2.092,0,0,0-.6,1.5v5.192a3.431,3.431,0,0,0,1,2.476A3.252,3.252,0,0,0,187.106-844.741Zm-5.684-13.837v0Z" transform="translate(1368.999 986.999)" fill="#637381"/></g></svg>