<svg xmlns="http://www.w3.org/2000/svg" width="12.909" height="6.545" viewBox="0 0 12.909 6.545">
  <path id="password_FILL0_wght400_GRAD0_opsz24" d="M39.545-673.455v-1.091H52.455v1.091Zm1.627-3.3-.709-.409.464-.818H40v-.818h.927l-.464-.791.709-.409.464.791L42.1-680l.709.409-.464.791h.927v.818h-.927l.464.818-.709.409-.464-.818Zm4.364,0-.709-.409.464-.818h-.927v-.818h.927l-.464-.791.709-.409.464.791.464-.791.709.409-.464.791h.927v.818h-.927l.464.818-.709.409L46-677.573Zm4.364,0-.709-.409.464-.818h-.927v-.818h.927l-.464-.791L49.9-680l.464.791.464-.791.709.409-.464.791H52v.818h-.927l.464.818-.709.409-.464-.818Z" transform="translate(-39.545 680)" fill="#858f9b"/>
</svg>
