<svg xmlns="http://www.w3.org/2000/svg" width="17.079" height="16" viewBox="0 0 17.079 16">
  <g id="코드_dis" transform="translate(-97.421 -127)">
    <rect id="사각형_148830" data-name="사각형 148830" width="16" height="16" transform="translate(98 127)" fill="rgba(255,0,0,0)"/>
    <path id="code-solid" d="M9.845-.023a.8.8,0,0,0-.99.55l-3.2,11.2a.8.8,0,1,0,1.54.44L10.4.967a.8.8,0,0,0-.55-.99Zm2.015,3a.8.8,0,0,0,0,1.133l2.233,2.235L11.858,8.583A.8.8,0,0,0,12.99,9.715l2.8-2.8a.8.8,0,0,0,0-1.133l-2.8-2.8a.8.8,0,0,0-1.133,0Zm-7.668,0a.8.8,0,0,0-1.133,0l-2.8,2.8a.8.8,0,0,0,0,1.133l2.8,2.8A.8.8,0,0,0,4.192,8.58L1.957,6.348,4.192,4.113a.8.8,0,0,0,0-1.133Z" transform="translate(97.975 129.053)" fill="#c4ccd5" stroke="rgba(0,0,0,0)" stroke-miterlimit="10" stroke-width="1"/>
  </g>
</svg>
