<svg xmlns="http://www.w3.org/2000/svg" width="14" height="14" viewBox="0 0 14 14"><g transform="translate(0 0)"><path d="M-.364,7.273a.634.634,0,0,1-.45-.186.636.636,0,0,1,0-.9l7-7a.636.636,0,0,1,.9,0,.636.636,0,0,1,0,.9l-7,7A.634.634,0,0,1-.364,7.273Z" transform="translate(6.727 1)" fill="#fff"/><path d="M14.364,1a.636.636,0,0,1,.6.847L10.51,14.574a.636.636,0,0,1-1.182.048l-2.446-5.5-5.5-2.446A.636.636,0,0,1,1.426,5.49L14.153,1.036A.636.636,0,0,1,14.364,1ZM9.839,12.638l3.488-9.965L3.362,6.161l4.26,1.894a.636.636,0,0,1,.323.323Z" transform="translate(-1 -1)" fill="#fff"/></g></svg>