<svg xmlns="http://www.w3.org/2000/svg" width="16" height="16" viewBox="0 0 16 16"><g transform="translate(-173 -106)"><rect width="16" height="16" transform="translate(173 106)" fill="rgba(255,255,255,0)"/><g transform="translate(32)"><rect width="16" height="16" transform="translate(141 106)" fill="rgba(255,255,255,0)"/><path d="M81.4-789a1.36,1.36,0,0,1-.989-.4,1.312,1.312,0,0,1-.411-.971v-8.25a1.312,1.312,0,0,1,.411-.971,1.361,1.361,0,0,1,.989-.4h3.622a1.4,1.4,0,0,1,.534.1A1.364,1.364,0,0,1,86-799.6l1,.98h5.6a1.36,1.36,0,0,1,.989.4,1.312,1.312,0,0,1,.411.971v6.875a1.312,1.312,0,0,1-.411.971,1.36,1.36,0,0,1-.989.4Z" transform="translate(62 909)" fill="#c4cdd5"/></g></g></svg>