<svg xmlns="http://www.w3.org/2000/svg" width="14" height="14" viewBox="0 0 14 14"><g transform="translate(-38 -279)"><rect width="14" height="14" transform="translate(38 279)" fill="#637381" opacity="0"/><path d="M5.056,33.167A1.167,1.167,0,0,1,6.222,32H7.778a1.167,1.167,0,0,1,1.167,1.167v1.556a1.167,1.167,0,0,1-1.167,1.167H7.583v.972h3.694a1.362,1.362,0,0,1,1.361,1.361V39h.194A1.167,1.167,0,0,1,14,40.167v1.556a1.167,1.167,0,0,1-1.167,1.167H11.278a1.167,1.167,0,0,1-1.167-1.167V40.167A1.167,1.167,0,0,1,11.278,39h.194v-.778a.2.2,0,0,0-.194-.194H7.583V39h.194a1.167,1.167,0,0,1,1.167,1.167v1.556a1.167,1.167,0,0,1-1.167,1.167H6.222a1.167,1.167,0,0,1-1.167-1.167V40.167A1.167,1.167,0,0,1,6.222,39h.194v-.972H2.722a.2.2,0,0,0-.194.194V39h.194a1.167,1.167,0,0,1,1.167,1.167v1.556a1.167,1.167,0,0,1-1.167,1.167H1.167A1.167,1.167,0,0,1,0,41.722V40.167A1.167,1.167,0,0,1,1.167,39h.194v-.778a1.362,1.362,0,0,1,1.361-1.361H6.417v-.972H6.222a1.167,1.167,0,0,1-1.167-1.167Z" transform="translate(38 248.556)" fill="#637381"/></g></svg>