<svg xmlns="http://www.w3.org/2000/svg" width="14" height="14" viewBox="0 0 14 14">
  <g id="작업공간on" transform="translate(-538 -310)">
    <rect id="사각형_148732" data-name="사각형 148732" width="14" height="14" transform="translate(538 310)" fill="#fff" opacity="0"/>
    <path id="iframe_24dp_5F6368_FILL1_wght300_GRAD0_opsz24" d="M106.192-772.3a.646.646,0,0,1-.475-.19.64.64,0,0,1-.191-.473V-775.3a.64.64,0,0,1,.191-.473.646.646,0,0,1,.475-.19h4.563a.646.646,0,0,1,.475.19.64.64,0,0,1,.191.473v2.341a.64.64,0,0,1-.191.473.646.646,0,0,1-.475.19h-4.563Zm-4.86,3.3a1.289,1.289,0,0,1-.945-.385,1.277,1.277,0,0,1-.387-.941v-8.349a1.277,1.277,0,0,1,.387-.941,1.289,1.289,0,0,1,.945-.385h11.336a1.289,1.289,0,0,1,.945.385,1.277,1.277,0,0,1,.387.941v8.349a1.277,1.277,0,0,1-.387.941,1.289,1.289,0,0,1-.945.385Zm0-1.1h11.336a.217.217,0,0,0,.156-.071.215.215,0,0,0,.071-.155v-7.108H101.105v7.108a.215.215,0,0,0,.071.155A.217.217,0,0,0,101.332-770.1Z" transform="translate(438 1092)" fill="#fff"/>
  </g>
</svg>
