<svg xmlns="http://www.w3.org/2000/svg" width="15.579" height="16" viewBox="0 0 15.579 16">
  <path id="ico_dxsquare_noti" d="M324.786,123.4Zm4.4,11.81-4.172-4.166h-3.579v-5.13h3.579l4.172-4.166Zm1.508-2.487v-8.7a4.3,4.3,0,0,1,2.263,1.86,5,5,0,0,1,.825,2.617,4.4,4.4,0,0,1-.9,2.548,4.212,4.212,0,0,1-2.187,1.678Zm0,3.774v-1.769a7.21,7.21,0,0,0,3.2-2.271,6.325,6.325,0,0,0,.018-7.916,7.18,7.18,0,0,0-3.214-2.274V120.5a8.438,8.438,0,0,1,4.521,2.93,8.057,8.057,0,0,1-.018,10.161A8.252,8.252,0,0,1,330.7,136.5Z" transform="translate(-321.435 -120.5)" fill="#fff" opacity="0.8"/>
</svg>
