<svg xmlns="http://www.w3.org/2000/svg" width="16" height="16" viewBox="0 0 16 16"><g transform="translate(-567 -386)"><rect width="16" height="16" transform="translate(567 386)" fill="#006fdf" opacity="0"/><path d="M181.483-864a1.429,1.429,0,0,1-1.049-.435,1.429,1.429,0,0,1-.435-1.049v-7.7a1.429,1.429,0,0,1,.435-1.049,1.429,1.429,0,0,1,1.049-.435h.978v-1.641a3.56,3.56,0,0,1,1.078-2.615A3.56,3.56,0,0,1,186.154-880a3.56,3.56,0,0,1,2.615,1.078,3.56,3.56,0,0,1,1.078,2.615v1.641h.978a1.429,1.429,0,0,1,1.049.435,1.429,1.429,0,0,1,.435,1.049v7.7a1.429,1.429,0,0,1-.435,1.049,1.429,1.429,0,0,1-1.049.435Zm0-1.231h9.341a.246.246,0,0,0,.182-.071.246.246,0,0,0,.071-.182v-7.7a.246.246,0,0,0-.071-.182.246.246,0,0,0-.182-.071h-9.341a.246.246,0,0,0-.182.071.246.246,0,0,0-.071.182v7.7a.246.246,0,0,0,.071.182A.246.246,0,0,0,181.483-865.231Zm4.671-2.667a1.385,1.385,0,0,0,1.017-.419,1.385,1.385,0,0,0,.419-1.017,1.385,1.385,0,0,0-.419-1.017,1.385,1.385,0,0,0-1.017-.419,1.385,1.385,0,0,0-1.017.419,1.385,1.385,0,0,0-.419,1.017,1.385,1.385,0,0,0,.419,1.017A1.385,1.385,0,0,0,186.154-867.9Zm-2.462-6.769h4.923v-1.641a2.374,2.374,0,0,0-.718-1.744,2.374,2.374,0,0,0-1.744-.718,2.374,2.374,0,0,0-1.744.718,2.374,2.374,0,0,0-.718,1.744Zm-2.462,9.436v0Z" transform="translate(389 1266)" fill="#a7b1bb"/></g></svg>