<svg xmlns="http://www.w3.org/2000/svg" width="16" height="16" viewBox="0 0 16 16"><g transform="translate(-485 -533)"><rect width="16" height="16" transform="translate(485 533)" fill="rgba(255,255,255,0)"/><path d="M121.556-827.556h1.108l7.6-7.6-1.108-1.108-7.6,7.6ZM120-826v-3.306l10.267-10.247a1.747,1.747,0,0,1,.515-.331,1.535,1.535,0,0,1,.593-.117,1.608,1.608,0,0,1,.6.117,1.366,1.366,0,0,1,.506.35l1.069,1.089a1.271,1.271,0,0,1,.34.506,1.684,1.684,0,0,1,.107.583,1.658,1.658,0,0,1-.107.593,1.456,1.456,0,0,1-.34.515L123.306-826Zm12.444-11.356-1.089-1.089ZM129.7-835.7l-.544-.564,1.108,1.108Z" transform="translate(366 1374)" fill="#a7b1bb" stroke="rgba(0,0,0,0)" stroke-miterlimit="10" stroke-width="1"/></g></svg>