<svg xmlns="http://www.w3.org/2000/svg" width="16" height="16" viewBox="0 0 16 16"><g transform="translate(-340 -326)"><rect width="16" height="16" transform="translate(340 326)" fill="rgba(255,0,0,0)"/><path d="M144.291-807.51a.8.8,0,0,0,.593-.24.807.807,0,0,0,.239-.594.8.8,0,0,0-.24-.593.807.807,0,0,0-.594-.239.8.8,0,0,0-.593.24.807.807,0,0,0-.239.594.8.8,0,0,0,.24.593A.807.807,0,0,0,144.291-807.51Zm0-3.656a.8.8,0,0,0,.593-.24.807.807,0,0,0,.239-.594.8.8,0,0,0-.24-.593.807.807,0,0,0-.594-.239.8.8,0,0,0-.593.24.807.807,0,0,0-.239.594.8.8,0,0,0,.24.593.807.807,0,0,0,.594.239Zm0-3.656a.8.8,0,0,0,.593-.24.807.807,0,0,0,.239-.594.8.8,0,0,0-.24-.593.807.807,0,0,0-.594-.239.8.8,0,0,0-.593.24.807.807,0,0,0-.239.594.8.8,0,0,0,.24.593A.808.808,0,0,0,144.291-814.823Zm2.859,7.185h5.357v-1.412H147.15Zm0-3.656h5.357V-812.7H147.15Zm0-3.656h5.357v-1.412H147.15ZM141.7-804a1.642,1.642,0,0,1-1.207-.494A1.642,1.642,0,0,1,140-805.7v-12.6a1.642,1.642,0,0,1,.494-1.207A1.643,1.643,0,0,1,141.7-820h12.6a1.642,1.642,0,0,1,1.207.494A1.642,1.642,0,0,1,156-818.3v12.6a1.642,1.642,0,0,1-.494,1.207A1.642,1.642,0,0,1,154.3-804Zm0-1.412h12.6a.277.277,0,0,0,.2-.091.277.277,0,0,0,.091-.2v-12.6a.277.277,0,0,0-.091-.2.277.277,0,0,0-.2-.09H141.7a.277.277,0,0,0-.2.09.277.277,0,0,0-.09.2v12.6a.277.277,0,0,0,.09.2A.277.277,0,0,0,141.7-805.411Zm-.29-13.177v0Z" transform="translate(199.999 1145.999)" fill="#637381"/></g></svg>