<svg xmlns="http://www.w3.org/2000/svg" width="58" height="58" viewBox="0 0 58 58">
  <g id="그룹_127400" data-name="그룹 127400" transform="translate(-992 -501)">
    <rect id="사각형_25242" data-name="사각형 25242" width="58" height="58" transform="translate(992 501)" fill="rgba(255,255,255,0)"/>
    <path id="share_location_FILL0_wght300_GRAD0_opsz24" d="M131.195-804v-4.286a24.272,24.272,0,0,0,5.922-1.643,23.519,23.519,0,0,0,5.2-3.016l3.066,3.1a27.634,27.634,0,0,1-6.654,3.907A28.941,28.941,0,0,1,131.195-804Zm18.267-9.989L146.456-817a21.165,21.165,0,0,0,3-5.179,24.746,24.746,0,0,0,1.569-5.964h4.366a28.478,28.478,0,0,1-1.983,7.591A26.369,26.369,0,0,1,149.462-813.988Zm1.558-19.868a24.738,24.738,0,0,0-1.569-6.036,19.886,19.886,0,0,0-3-5.107l3.033-2.983a28.281,28.281,0,0,1,4.015,6.56,25.932,25.932,0,0,1,1.882,7.566ZM125.49-804a26.8,26.8,0,0,1-17.206-8.918,26.134,26.134,0,0,1-6.9-18.082,26.269,26.269,0,0,1,6.884-18.14A26.442,26.442,0,0,1,125.49-858v4.286A22.48,22.48,0,0,0,111.3-846.07,22.144,22.144,0,0,0,105.665-831a22.012,22.012,0,0,0,5.634,15.036,22.861,22.861,0,0,0,14.191,7.679Zm16.972-45a26.022,26.022,0,0,0-5.406-3.143,21.117,21.117,0,0,0-5.806-1.571V-858a26.53,26.53,0,0,1,7.441,1.882,28.335,28.335,0,0,1,6.7,3.964Zm-14.076,30.885a79.879,79.879,0,0,1-7.019-6.813,12.184,12.184,0,0,1-3.294-8.478,10.4,10.4,0,0,1,2.987-7.489,9.78,9.78,0,0,1,7.326-3.1,9.78,9.78,0,0,1,7.326,3.1,10.4,10.4,0,0,1,2.987,7.489,12.184,12.184,0,0,1-3.294,8.478A79.881,79.881,0,0,1,128.386-818.115Zm0-12.912a2.673,2.673,0,0,0,1.969-.8,2.681,2.681,0,0,0,.8-1.973,2.7,2.7,0,0,0-.8-1.951,2.636,2.636,0,0,0-1.969-.819,2.636,2.636,0,0,0-1.969.819,2.7,2.7,0,0,0-.8,1.951,2.681,2.681,0,0,0,.8,1.973A2.673,2.673,0,0,0,128.386-831.027Z" transform="translate(892.614 1360.999)" fill="#fff"/>
  </g>
</svg>
