<svg xmlns="http://www.w3.org/2000/svg" width="16" height="16" viewBox="0 0 16 16"><g transform="translate(-324 -277)"><rect width="16" height="16" transform="translate(324 277)" fill="rgba(255,0,0,0)"/><path d="M140.89-804.888v-3L152.618-819.6a1.3,1.3,0,0,1,.455-.3,1.377,1.377,0,0,1,.5-.095,1.392,1.392,0,0,1,.507.095,1.105,1.105,0,0,1,.43.3l1.1,1.1a1.107,1.107,0,0,1,.3.43,1.394,1.394,0,0,1,.095.507,1.379,1.379,0,0,1-.095.5,1.3,1.3,0,0,1-.3.455L143.89-804.888Zm1.333-1.333h1.1l9.058-9.044-.545-.567-.568-.545-9.044,9.058Zm12.444-11.332-1.113-1.113Zm-2.832,1.72-.568-.545,1.113,1.113Zm-2.381,10.945a5.719,5.719,0,0,0,2.891-.762,2.352,2.352,0,0,0,1.332-2.126,2.127,2.127,0,0,0-.469-1.369,3.682,3.682,0,0,0-1.317-.991l-.995.995a3.3,3.3,0,0,1,1.065.6,1.02,1.02,0,0,1,.383.762q0,.631-.867,1.093a4.233,4.233,0,0,1-2.022.462.645.645,0,0,0-.475.192.645.645,0,0,0-.191.475.645.645,0,0,0,.191.475A.645.645,0,0,0,149.454-804.888Zm-8.036-6.279.991-1a3.116,3.116,0,0,1-.8-.456.656.656,0,0,1-.277-.487.879.879,0,0,1,.447-.662,10.53,10.53,0,0,1,1.779-.9,8.236,8.236,0,0,0,2.48-1.435,2.022,2.022,0,0,0,.627-1.449,2.094,2.094,0,0,0-.922-1.769,3.985,3.985,0,0,0-2.411-.675,4.214,4.214,0,0,0-1.682.33,2.887,2.887,0,0,0-1.147.807.619.619,0,0,0-.153.486.629.629,0,0,0,.252.437.627.627,0,0,0,.482.144.739.739,0,0,0,.446-.216,2.1,2.1,0,0,1,.774-.5,3.007,3.007,0,0,1,1.027-.159,2.753,2.753,0,0,1,1.49.331.938.938,0,0,1,.51.78.88.88,0,0,1-.44.7,13.11,13.11,0,0,1-1.866.96,9.317,9.317,0,0,0-2.373,1.347A1.87,1.87,0,0,0,140-813.11a1.727,1.727,0,0,0,.374,1.1A3.377,3.377,0,0,0,141.418-811.167Z" transform="translate(183.999 1096.999)" fill="#637381"/></g></svg>