<svg xmlns="http://www.w3.org/2000/svg" width="14" height="14.002" viewBox="0 0 14 14.002"><g transform="translate(-702.664 -767.341)"><path d="M732.809,795.09l-.761-3.529a1.045,1.045,0,0,0-1.014-.834h-2.463a1.045,1.045,0,0,0-1.014.834l-.761,3.529a1.073,1.073,0,0,0,.525,1.167l.68.372v3.093a1.051,1.051,0,0,0,1.039,1.064h1.528a1.051,1.051,0,0,0,1.038-1.064v-3.093l.68-.372A1.073,1.073,0,0,0,732.809,795.09Z" transform="translate(-20.138 -19.442)" fill="#637381"/><path d="M737.342,772.292a1.583,1.583,0,1,0-1.546-1.583A1.565,1.565,0,0,0,737.342,772.292Z" transform="translate(-27.677 -1.484)" fill="#637381"/><path d="M706.015,792.453l.761-3.529a1.735,1.735,0,0,1,.558-.941.963.963,0,0,0-.646-.253h-2.325a.986.986,0,0,0-.957.788l-.718,3.331a1.012,1.012,0,0,0,.5,1.1l.641.351v2.919a.992.992,0,0,0,.98,1h1.442a.986.986,0,0,0,.956-.786v-1.9l-.332-.181A1.759,1.759,0,0,1,706.015,792.453Z" transform="translate(0 -16.951)" fill="#637381"/><path d="M712.642,770.329a1.494,1.494,0,1,0-1.459-1.494A1.477,1.477,0,0,0,712.642,770.329Z" transform="translate(-7.116 0)" fill="#637381"/><path d="M763.985,791.849l-.718-3.331a.986.986,0,0,0-.957-.788h-2.325a.963.963,0,0,0-.646.253,1.735,1.735,0,0,1,.558.941l.761,3.529a1.759,1.759,0,0,1-.857,1.908l-.332.182v1.9a.986.986,0,0,0,.956.786h1.442a.992.992,0,0,0,.98-1V793.3l.641-.351A1.013,1.013,0,0,0,763.985,791.849Z" transform="translate(-47.344 -16.951)" fill="#637381"/><path d="M762.921,770.329a1.494,1.494,0,1,0-1.459-1.494A1.477,1.477,0,0,0,762.921,770.329Z" transform="translate(-49.118 0)" fill="#637381"/></g></svg>