<svg xmlns="http://www.w3.org/2000/svg" width="16" height="16" viewBox="0 0 16 16"><g transform="translate(-1197 -72)"><rect width="16" height="16" transform="translate(1197 72)" fill="rgba(255,0,0,0)"/><path d="M156-816.506V-805.7a1.642,1.642,0,0,1-.494,1.207A1.642,1.642,0,0,1,154.3-804H141.7a1.642,1.642,0,0,1-1.207-.494A1.642,1.642,0,0,1,140-805.7v-12.6a1.642,1.642,0,0,1,.494-1.207A1.642,1.642,0,0,1,141.7-820h10.805Zm-1.412.6-2.682-2.682H141.7a.282.282,0,0,0-.208.081.282.282,0,0,0-.081.208v12.6a.282.282,0,0,0,.081.208.282.282,0,0,0,.208.081h12.6a.282.282,0,0,0,.208-.081.282.282,0,0,0,.081-.208ZM148-807.04a2.268,2.268,0,0,0,1.665-.688,2.268,2.268,0,0,0,.688-1.665,2.268,2.268,0,0,0-.688-1.665,2.268,2.268,0,0,0-1.665-.688,2.268,2.268,0,0,0-1.665.688,2.268,2.268,0,0,0-.688,1.665,2.268,2.268,0,0,0,.688,1.665A2.268,2.268,0,0,0,148-807.04Zm-5.285-6.95h7.728v-3.294h-7.728Zm-1.3-1.915v0Z" transform="translate(1056.999 891.999)" fill="#fff"/></g></svg>