<svg id="구성_요소_79_1" data-name="구성 요소 79 – 1" xmlns="http://www.w3.org/2000/svg" width="19" height="21" viewBox="0 0 19 21">
  <g id="다각형_5" data-name="다각형 5" transform="translate(1)" fill="#fff">
    <path d="M 14.67818927764893 16.50000381469727 L 3.321809053421021 16.50000381469727 C 2.790959119796753 16.50000381469727 2.310569047927856 16.22849464416504 2.0367591381073 15.77371406555176 C 1.762939095497131 15.31893444061279 1.747749090194702 14.76732444763184 1.996129035949707 14.29816436767578 L 7.674319267272949 3.572694063186646 C 7.938919067382812 3.072904109954834 8.43449878692627 2.774524211883545 8.999999046325684 2.774524211883545 C 9.565508842468262 2.774524211883545 10.06108951568604 3.072904109954834 10.3256893157959 3.572694063186646 L 16.00387954711914 14.29816436767578 C 16.25224876403809 14.76732444763184 16.23705863952637 15.31893444061279 15.96324920654297 15.77371406555176 C 15.68942928314209 16.22849464416504 15.20903873443604 16.50000381469727 14.67818927764893 16.50000381469727 Z" stroke="none"/>
    <path d="M 8.999999046325684 3.274523735046387 C 8.818968772888184 3.274523735046387 8.370469093322754 3.326374053955078 8.116209030151367 3.806644439697266 L 2.438018798828125 14.5321044921875 C 2.199349403381348 14.98294448852539 2.377449035644531 15.37022399902344 2.465108871459961 15.51581382751465 C 2.552759170532227 15.6613941192627 2.811698913574219 16.00000381469727 3.321808815002441 16.00000381469727 L 14.67818927764893 16.00000381469727 C 15.18829917907715 16.00000381469727 15.44723892211914 15.6613941192627 15.53488922119141 15.51581382751465 C 15.62254905700684 15.37022399902344 15.80064868927002 14.98294448852539 15.56197929382324 14.53211402893066 L 9.8837890625 3.806644439697266 C 9.629528999328613 3.326374053955078 9.181029319763184 3.274523735046387 8.999999046325684 3.274523735046387 M 8.999999046325684 2.274526596069336 C 9.69598388671875 2.274526596069336 10.39196968078613 2.629268646240234 10.76757907867432 3.338754653930664 L 16.44576835632324 14.06422424316406 C 17.15093994140625 15.39622402191162 16.18533897399902 17.00000381469727 14.67818927764893 17.00000381469727 L 3.321808815002441 17.00000381469727 C 1.814659118652344 17.00000381469727 0.8490581512451172 15.39622402191162 1.554229736328125 14.06422424316406 L 7.232419013977051 3.338754653930664 C 7.608029365539551 2.629268646240234 8.304014205932617 2.274526596069336 8.999999046325684 2.274526596069336 Z" stroke="none" fill="#eee"/>
  </g>
  <path id="사각형_2606" data-name="사각형 2606" d="M0,0H15.5A3.5,3.5,0,0,1,19,3.5V10a0,0,0,0,1,0,0H0a0,0,0,0,1,0,0V0A0,0,0,0,1,0,0Z" transform="translate(0 11)" fill="#fff"/>
</svg>
