<svg xmlns="http://www.w3.org/2000/svg" width="58" height="58" viewBox="0 0 58 58">
  <g id="그룹_127404" data-name="그룹 127404" transform="translate(-487 -286)">
    <rect id="사각형_25242" data-name="사각형 25242" width="58" height="58" transform="translate(487 286)" fill="rgba(255,255,255,0)"/>
    <path id="합치기_30" data-name="합치기 30" d="M-3354.075-4939.267a10.762,10.762,0,0,1-3.269-7.9,10.777,10.777,0,0,1,3.267-7.906,10.759,10.759,0,0,1,7.9-3.27,10.776,10.776,0,0,1,7.905,3.267,10.758,10.758,0,0,1,3.271,7.9,10.775,10.775,0,0,1-3.267,7.906,10.759,10.759,0,0,1-7.9,3.271A10.778,10.778,0,0,1-3354.075-4939.267Zm1.439-7.611,4.818,4.8,8.11-8.146-1.467-1.467-6.644,6.645-3.352-3.329ZM-3389-4936v-12.844h4.264v8.582h8.581V-4936Zm22.8-6.118a1.655,1.655,0,0,1-1.094-.479,22.6,22.6,0,0,1-4.628-6.745,20.394,20.394,0,0,1-1.524-8.083,11.382,11.382,0,0,1,3.473-8.375,11.578,11.578,0,0,1,8.425-3.437,11.832,11.832,0,0,1,8.449,3.378,11.358,11.358,0,0,1,2.737,3.979,12.408,12.408,0,0,0-2.758.795,8.642,8.642,0,0,0-1.985-2.781,9.057,9.057,0,0,0-6.443-2.553,8.853,8.853,0,0,0-6.436,2.613,8.663,8.663,0,0,0-2.644,6.38,17.347,17.347,0,0,0,1.3,6.981,21.118,21.118,0,0,0,4.107,5.928,1.427,1.427,0,0,1,.449.989,1.38,1.38,0,0,1-.33.961,1.268,1.268,0,0,1-.985.452C-3366.123-4942.115-3366.158-4942.115-3366.2-4942.118Zm6.493-1.019a15.044,15.044,0,0,1-5.063-4.036,15.846,15.846,0,0,1-3.457-10.253,6.5,6.5,0,0,1,1.953-4.762,6.46,6.46,0,0,1,4.727-1.953,6.57,6.57,0,0,1,4.726,1.894,6.331,6.331,0,0,1,1.555,2.334,13.882,13.882,0,0,0-1.99,1.659c-.162.162-.321.329-.472.494a3.73,3.73,0,0,0-1.1-2.409,3.691,3.691,0,0,0-2.722-1.124,3.687,3.687,0,0,0-2.721,1.124,3.77,3.77,0,0,0-1.111,2.743,12.79,12.79,0,0,0,2.847,8.434,12.144,12.144,0,0,0,1.551,1.554,12.381,12.381,0,0,0,1.275,4.3v0Zm-16.842-5.155a1.658,1.658,0,0,1-.79-.9,19.041,19.041,0,0,1-1.013-3.78,27.232,27.232,0,0,1-.342-4.45,16.969,16.969,0,0,1,1.25-6.559,16.461,16.461,0,0,1,3.753-5.443,17.032,17.032,0,0,1,5.529-3.663,17.522,17.522,0,0,1,6.584-1.221,17.808,17.808,0,0,1,6.611,1.21,17.214,17.214,0,0,1,5.567,3.629,15.855,15.855,0,0,1,4.572,7.772,13.565,13.565,0,0,0-3.043-.369,13.332,13.332,0,0,0-3.523-5.426,14.261,14.261,0,0,0-10.16-4.022,13.969,13.969,0,0,0-10.116,4.1,13.487,13.487,0,0,0-4.175,9.968,25.4,25.4,0,0,0,.252,3.574,19.7,19.7,0,0,0,.937,3.736,1.55,1.55,0,0,1-.011,1.154,1.375,1.375,0,0,1-.769.719,1.625,1.625,0,0,1-.548.1A1.312,1.312,0,0,1-3376.55-4948.292Zm15.581-2.459a11.233,11.233,0,0,1-2.01-6.794,1.536,1.536,0,0,1,.378-1.035,1.3,1.3,0,0,1,1.031-.435,1.3,1.3,0,0,1,1.031.435,1.534,1.534,0,0,1,.379,1.035,10.148,10.148,0,0,0,.365,2.8,12.417,12.417,0,0,0-1.172,4v0Zm-18.988-16.961a1.428,1.428,0,0,1-.626-.851,1.186,1.186,0,0,1,.237-1.038,22.148,22.148,0,0,1,8.167-7.169,23,23,0,0,1,10.6-2.547,23.734,23.734,0,0,1,10.509,2.409,21.661,21.661,0,0,1,8.186,6.963,1.3,1.3,0,0,1,.311,1.185,1.878,1.878,0,0,1-.611.884,1.419,1.419,0,0,1-.864.286c-.043,0-.085,0-.125,0a1.209,1.209,0,0,1-.93-.611,18.194,18.194,0,0,0-7.163-6.124,21.631,21.631,0,0,0-9.314-2.139h-.136a20.452,20.452,0,0,0-9.127,2.109,18.142,18.142,0,0,0-7.077,6.183,1.4,1.4,0,0,1-1.019.705c-.06,0-.117.008-.176.008A1.473,1.473,0,0,1-3379.958-4967.712Zm40.695-9.444v-8.58h-8.581V-4990H-3335v12.844Zm-49.738,0V-4990h12.844v4.264h-8.581v8.58Zm14.611-1.316a1.356,1.356,0,0,1-.885-.687,1.354,1.354,0,0,1-.075-1.03,1.5,1.5,0,0,1,.7-.872,24.232,24.232,0,0,1,6.335-2.54,28.556,28.556,0,0,1,6.762-.812,27.265,27.265,0,0,1,6.666.816,29.569,29.569,0,0,1,6.268,2.371,1.409,1.409,0,0,1,.777.885,1.594,1.594,0,0,1-.094,1.02,1.667,1.667,0,0,1-.764.743,1.027,1.027,0,0,1-.456.106,1.489,1.489,0,0,1-.707-.2,24.989,24.989,0,0,0-5.687-2.184,24.96,24.96,0,0,0-6-.732,25.823,25.823,0,0,0-6.014.71,22.252,22.252,0,0,0-5.645,2.206,1.669,1.669,0,0,1-.84.25A1.372,1.372,0,0,1-3374.39-4978.473Z" transform="translate(3878 5278)" fill="#fff"/>
  </g>
</svg>
