<svg xmlns="http://www.w3.org/2000/svg" width="16" height="16" viewBox="0 0 16 16"><g transform="translate(-664 -597)"><rect width="16" height="16" transform="translate(664 597)" fill="rgba(255,0,0,0)"/><path d="M6531.248-5448.42a1.208,1.208,0,0,1-.882-.365,1.2,1.2,0,0,1-.366-.881v-7.169a.6.6,0,0,1,.181-.443.6.6,0,0,1,.442-.181.6.6,0,0,1,.445.181.6.6,0,0,1,.18.443v7.169h9.659a.6.6,0,0,1,.445.179.6.6,0,0,1,.18.444.6.6,0,0,1-.18.443.6.6,0,0,1-.445.18Zm2.284-2.36a1.2,1.2,0,0,1-.88-.366,1.2,1.2,0,0,1-.366-.881v-7.167a.6.6,0,0,1,.18-.445.6.6,0,0,1,.443-.178.606.606,0,0,1,.445.178.6.6,0,0,1,.178.445v7.167h9.662a.6.6,0,0,1,.445.181.594.594,0,0,1,.179.443.6.6,0,0,1-.179.444.6.6,0,0,1-.445.179Zm2.494-2.493a1.2,1.2,0,0,1-.88-.365,1.2,1.2,0,0,1-.365-.88v-6.235a1.2,1.2,0,0,1,.365-.88,1.2,1.2,0,0,1,.88-.366h8.727a1.2,1.2,0,0,1,.881.366,1.2,1.2,0,0,1,.366.88v6.235a1.2,1.2,0,0,1-.366.88,1.207,1.207,0,0,1-.881.365Zm0-1.245h8.727v-4.723l-4,2.789a.615.615,0,0,1-.359.126.609.609,0,0,1-.358-.126l-4.005-2.789Zm4.364-3.212,4.363-3.023h-8.727v0Zm-4.364-3.023h0Z" transform="translate(-5866 6060)" fill="#a7b1bb"/></g></svg>