<svg xmlns="http://www.w3.org/2000/svg" width="16" height="16" viewBox="0 0 16 16"><g transform="translate(-266 -101)"><g transform="translate(-219 -432)"><rect width="16" height="16" transform="translate(485 533)" fill="rgba(255,255,255,0)"/></g><path d="M141.489-806a1.434,1.434,0,0,1-1.051-.437,1.434,1.434,0,0,1-.437-1.051v-11.023a1.434,1.434,0,0,1,.437-1.051,1.434,1.434,0,0,1,1.051-.437h11.023a1.434,1.434,0,0,1,1.051.437,1.434,1.434,0,0,1,.437,1.051v11.023a1.434,1.434,0,0,1-.437,1.051,1.434,1.434,0,0,1-1.051.437Zm0-1.235h11.023a.247.247,0,0,0,.182-.071.247.247,0,0,0,.071-.182v-9.629H141.235v9.629a.247.247,0,0,0,.071.182A.247.247,0,0,0,141.489-807.235ZM147-809.294a4.781,4.781,0,0,1-2.715-.8,4.844,4.844,0,0,1-1.775-2.081,4.845,4.845,0,0,1,1.775-2.081,4.782,4.782,0,0,1,2.715-.8,4.782,4.782,0,0,1,2.715.8,4.845,4.845,0,0,1,1.775,2.081,4.845,4.845,0,0,1-1.775,2.081A4.781,4.781,0,0,1,147-809.294Zm0-.982a3.943,3.943,0,0,0,1.961-.5,4,4,0,0,0,1.455-1.4,4,4,0,0,0-1.455-1.4,3.943,3.943,0,0,0-1.961-.5,3.943,3.943,0,0,0-1.961.5,4,4,0,0,0-1.455,1.4,4,4,0,0,0,1.455,1.4A3.943,3.943,0,0,0,147-810.276ZM147-812.177Zm0,1.077a1.034,1.034,0,0,0,.762-.315,1.043,1.043,0,0,0,.313-.764,1.034,1.034,0,0,0-.315-.762,1.043,1.043,0,0,0-.764-.313,1.034,1.034,0,0,0-.762.315,1.043,1.043,0,0,0-.313.764,1.034,1.034,0,0,0,.315.762A1.043,1.043,0,0,0,147-811.1Z" transform="translate(127 922)" fill="#c4cdd5"/></g></svg>