<svg xmlns="http://www.w3.org/2000/svg" width="100" height="80" viewBox="0 0 100 80"><g transform="translate(-757 -251)"><rect width="100" height="80" transform="translate(757 251)" opacity="0"/><g transform="translate(-222.282 180.833)"><path d="M486.462,324.063l-25.481,20.709h50.962Z" transform="translate(542.982 -236.644)" fill="#e6e9ec" stroke="rgba(0,0,0,0)" stroke-miterlimit="10" stroke-width="1" style="mix-blend-mode:multiply;isolation:isolate"/><path d="M486.419,323.313a.706.706,0,0,1,.446.158l25.481,20.709a.707.707,0,0,1-.446,1.255H460.938a.707.707,0,0,1-.446-1.255l25.481-20.709A.706.706,0,0,1,486.419,323.313Zm23.49,20.709-23.49-19.091-23.49,19.091Z" transform="translate(543.025 -236.6)" fill="#637381"/><path d="M511.943,346.035H460.981l25.481,20.709Z" transform="translate(542.982 -237.907)" fill="#e6e9ec" stroke="rgba(0,0,0,0)" stroke-miterlimit="10" stroke-width="1" style="mix-blend-mode:multiply;isolation:isolate"/><path d="M460.938,345.285H511.9a.707.707,0,0,1,.446,1.255L486.864,367.25a.707.707,0,0,1-.892,0l-25.481-20.709a.707.707,0,0,1,.446-1.255Zm48.971,1.414H462.928l23.49,19.091Z" transform="translate(543.025 -237.864)" fill="#637381"/><rect width="35.015" height="46.947" transform="translate(1011.937 80.874)" fill="#fff"/><path d="M-.043-.75H34.972a.707.707,0,0,1,.707.707V46.9a.707.707,0,0,1-.707.707H-.043A.707.707,0,0,1-.75,46.9V-.043A.707.707,0,0,1-.043-.75ZM34.265.664H.664V46.2h33.6Z" transform="translate(1011.98 80.917)" fill="#637381"/><path d="M486.462,366.744l-25.481-20.709v31.332h50.962V346.035Z" transform="translate(542.982 -237.907)" fill="#fff"/><path d="M511.9,378.031H460.938a.707.707,0,0,1-.707-.707V345.992a.707.707,0,0,1,1.153-.549l25.035,20.347,25.035-20.347a.707.707,0,0,1,1.153.549v31.332A.707.707,0,0,1,511.9,378.031Zm-50.255-1.414h49.548v-29.14L486.864,367.25a.707.707,0,0,1-.892,0l-24.328-19.772Z" transform="translate(543.025 -237.864)" fill="#637381"/><path d="M476.43,365.74,460.981,378.3h50.962L496.494,365.74A15.906,15.906,0,0,0,476.43,365.74Z" transform="translate(542.982 -238.835)" fill="#fff"/><path d="M486.418,361.427a16.584,16.584,0,0,1,10.478,3.721L512.346,377.7a.707.707,0,0,1-.446,1.255H460.938a.707.707,0,0,1-.446-1.255l15.449-12.556a16.584,16.584,0,0,1,10.478-3.721Zm23.491,16.119-13.9-11.3a15.2,15.2,0,0,0-19.172,0l-13.9,11.3Z" transform="translate(543.025 -238.792)" fill="#637381"/><rect width="15.544" height="15.544" transform="translate(1021.672 97.282)" fill="#fff"/><rect width="12.798" height="15.544" transform="translate(1024.418 97.282)" fill="#e6e9ec" style="mix-blend-mode:multiply;isolation:isolate"/><path d="M-.043-.75H15.5a.707.707,0,0,1,.707.707V15.5a.707.707,0,0,1-.707.707H-.043A.707.707,0,0,1-.75,15.5V-.043A.707.707,0,0,1-.043-.75ZM14.794.664H.664V14.794H14.794Z" transform="translate(1021.715 97.325)" fill="#637381"/><path d="M4.276-.75A5.032,5.032,0,0,1,9.3,4.276V8.2A.707.707,0,0,1,8.6,8.9H-.043A.707.707,0,0,1-.75,8.2V4.276A5.032,5.032,0,0,1,4.276-.75ZM7.888,7.489V4.276a3.612,3.612,0,1,0-7.225,0V7.489Z" transform="translate(1025.168 89.086)" fill="#637381"/><circle cx="3.78" cy="3.78" r="3.78" transform="translate(1025.661 101.277)" fill="#fff"/><path d="M3.031-.75A3.781,3.781,0,1,1-.75,3.031,3.785,3.785,0,0,1,3.031-.75Zm0,6.149A2.367,2.367,0,1,0,.664,3.031,2.37,2.37,0,0,0,3.031,5.4Z" transform="translate(1026.412 102.023)" fill="#637381"/><circle cx="2.385" cy="2.385" r="2.385" transform="translate(995.828 93.981)" fill="#fff"/><path d="M2.342-.75A3.092,3.092,0,1,1-.75,2.342,3.1,3.1,0,0,1,2.342-.75Zm0,4.77A1.678,1.678,0,1,0,.664,2.342,1.68,1.68,0,0,0,2.342,4.02Z" transform="translate(995.871 94.024)" fill="#637381"/><g transform="translate(987.281 108.128)"><g transform="translate(0 0)"><g transform="translate(2.379)"><path d="M.664,6.171H-.75V0H.664Z" transform="translate(0.75 0)" fill="#dce0e4"/></g><g transform="translate(0 2.379)"><path d="M6.171.664H0V-.75H6.171Z" transform="translate(0 0.75)" fill="#dce0e4"/></g></g></g><circle cx="2.385" cy="2.385" r="2.385" transform="translate(1065.376 112.73)" fill="#fff"/><path d="M2.342-.75A3.092,3.092,0,1,1-.75,2.342,3.1,3.1,0,0,1,2.342-.75Zm0,4.77A1.678,1.678,0,1,0,.664,2.342,1.68,1.68,0,0,0,2.342,4.02Z" transform="translate(1065.419 112.773)" fill="#637381"/><g transform="translate(1060.604 95.194)"><g transform="translate(0 0)"><g transform="translate(2.379)"><path d="M.664,6.171H-.75V0H.664Z" transform="translate(0.75 0)" fill="#dce0e4"/></g><g transform="translate(0 2.379)"><path d="M6.171.664H0V-.75H6.171Z" transform="translate(0 0.75)" fill="#dce0e4"/></g></g></g></g></g></svg>