<svg xmlns="http://www.w3.org/2000/svg" width="14" height="14" viewBox="0 0 14 14"><g transform="translate(-30 -452)"><rect width="14" height="14" transform="translate(30 452)" fill="#637381" opacity="0"/><path d="M13.727,8A1.275,1.275,0,0,0,12.5,9.6L10.24,11.863a1.3,1.3,0,0,0-.662,0L7.955,10.24a1.272,1.272,0,1,0-2.456,0l-2.9,2.9a1.272,1.272,0,1,0,.9.9l2.9-2.9a1.3,1.3,0,0,0,.662,0L8.681,12.76a1.272,1.272,0,1,0,2.456,0L13.4,10.5A1.272,1.272,0,1,0,13.727,8Z" transform="translate(29 447)" fill="#637381"/></g></svg>