<svg xmlns="http://www.w3.org/2000/svg" width="16" height="16" viewBox="0 0 16 16"><g transform="translate(-1548 -128)"><rect width="16" height="16" transform="translate(1548 128)" fill="rgba(255,0,0,0)"/><path d="M90.5-866a2.025,2.025,0,0,1-1.488-.612A2.025,2.025,0,0,1,88.4-868.1q0-.105.052-.49l-4.918-2.87a2.076,2.076,0,0,1-.647.411,2.08,2.08,0,0,1-.787.149,2.025,2.025,0,0,1-1.488-.612A2.025,2.025,0,0,1,80-873a2.025,2.025,0,0,1,.612-1.487A2.025,2.025,0,0,1,82.1-875.1a2.079,2.079,0,0,1,.787.149,2.076,2.076,0,0,1,.647.411l4.918-2.87a1.194,1.194,0,0,1-.044-.236q-.009-.114-.009-.254a2.025,2.025,0,0,1,.612-1.487A2.025,2.025,0,0,1,90.5-880a2.025,2.025,0,0,1,1.487.613A2.025,2.025,0,0,1,92.6-877.9a2.025,2.025,0,0,1-.613,1.487,2.025,2.025,0,0,1-1.487.612,2.079,2.079,0,0,1-.787-.149,2.076,2.076,0,0,1-.647-.411l-4.918,2.87a1.194,1.194,0,0,1,.044.236q.009.114.009.254t-.009.254a1.194,1.194,0,0,1-.044.236l4.918,2.87a2.074,2.074,0,0,1,.647-.411,2.079,2.079,0,0,1,.787-.149,2.025,2.025,0,0,1,1.487.612A2.025,2.025,0,0,1,92.6-868.1a2.025,2.025,0,0,1-.613,1.487A2.025,2.025,0,0,1,90.5-866Zm0-1.4a.677.677,0,0,0,.5-.2.677.677,0,0,0,.2-.5.677.677,0,0,0-.2-.5.677.677,0,0,0-.5-.2.677.677,0,0,0-.5.2.677.677,0,0,0-.2.5.677.677,0,0,0,.2.5A.677.677,0,0,0,90.5-867.4Zm-8.4-4.9a.677.677,0,0,0,.5-.2.677.677,0,0,0,.2-.5.677.677,0,0,0-.2-.5.677.677,0,0,0-.5-.2.677.677,0,0,0-.5.2.677.677,0,0,0-.2.5.677.677,0,0,0,.2.5A.677.677,0,0,0,82.1-872.3Zm8.4-4.9a.677.677,0,0,0,.5-.2.677.677,0,0,0,.2-.5.677.677,0,0,0-.2-.5.677.677,0,0,0-.5-.2.677.677,0,0,0-.5.2.677.677,0,0,0-.2.5.677.677,0,0,0,.2.5A.677.677,0,0,0,90.5-877.2ZM90.5-868.1ZM82.1-873ZM90.5-877.9Z" transform="translate(1469 1009)" fill="#c4cdd5"/></g></svg>