<svg xmlns="http://www.w3.org/2000/svg" width="16.2" height="16" viewBox="0 0 16.2 16"><g transform="translate(-1197 -72)"><rect width="16" height="16" transform="translate(1197 72)" fill="rgba(255,0,0,0)"/><path d="M161.6-864a1.541,1.541,0,0,1-1.13-.47,1.541,1.541,0,0,1-.47-1.13v-12.8a1.541,1.541,0,0,1,.47-1.13,1.541,1.541,0,0,1,1.13-.47H168l4.8,4.8v2.4a3.174,3.174,0,0,0-.86.32,3.282,3.282,0,0,0-.74.56l-4.8,4.78V-864Zm6.4,0v-2.46l4.42-4.4a1.089,1.089,0,0,1,.4-.26,1.28,1.28,0,0,1,.44-.08,1.2,1.2,0,0,1,.46.09,1.213,1.213,0,0,1,.4.27l.74.74a1.391,1.391,0,0,1,.25.4,1.154,1.154,0,0,1,.09.44,1.365,1.365,0,0,1-.08.45,1.073,1.073,0,0,1-.26.41l-4.4,4.4Zm5.26-4.48.74-.78-.74-.74-.76.76Zm-6.06-5.92h4l-4-4,4,4-4-4Z" transform="translate(1038 952)" fill="#a7b1bb"/></g></svg>