<svg xmlns="http://www.w3.org/2000/svg" width="16" height="16" viewBox="0 0 16 16"><g transform="translate(1.072 1)"><circle cx="8" cy="8" r="8" transform="translate(-1.072 -1)" fill="none"/><path d="M7588.31-14484.519a.831.831,0,0,1-.251-.611.816.816,0,0,1,.251-.607.815.815,0,0,1,.607-.251.83.83,0,0,1,.611.251.828.828,0,0,1,.248.607.828.828,0,0,1-.248.607.83.83,0,0,1-.611.251A.826.826,0,0,1,7588.31-14484.519Zm.015-2.769a3.189,3.189,0,0,1,.218-1.343,4.72,4.72,0,0,1,1.048-1.193,3.847,3.847,0,0,0,.622-.687,1.35,1.35,0,0,0,.244-.786,1.342,1.342,0,0,0-.356-.9,1.388,1.388,0,0,0-1.1-.407,1.437,1.437,0,0,0-1.106.4,2.371,2.371,0,0,0-.527.814l-1.081-.433a3.172,3.172,0,0,1,.982-1.324,2.684,2.684,0,0,1,1.747-.564,2.907,2.907,0,0,1,1.848.611,2.041,2.041,0,0,1,.782,1.7,2.045,2.045,0,0,1-.294,1.109,5.771,5.771,0,0,1-.852,1.026,3.787,3.787,0,0,0-.808.986,2.672,2.672,0,0,0-.182.993Z" transform="translate(-7582 14496)" fill="#fff"/></g></svg>