<svg xmlns="http://www.w3.org/2000/svg" width="14.001" height="14.001" viewBox="0 0 14.001 14.001"><path d="M127.778-836.111v-3.111a.752.752,0,0,1,.224-.554.752.752,0,0,1,.554-.224h4.667a.752.752,0,0,1,.554.224.753.753,0,0,1,.224.554v3.111a.753.753,0,0,1-.224.554.753.753,0,0,1-.554.224h-4.667a.753.753,0,0,1-.554-.224A.753.753,0,0,1,127.778-836.111ZM120-833v-6.222a.753.753,0,0,1,.224-.554.752.752,0,0,1,.554-.224h4.667a.753.753,0,0,1,.554.224.752.752,0,0,1,.224.554V-833a.753.753,0,0,1-.224.554.753.753,0,0,1-.554.224h-4.667a.753.753,0,0,1-.554-.224A.753.753,0,0,1,120-833Zm7.778,6.222V-833a.752.752,0,0,1,.224-.554.752.752,0,0,1,.554-.224h4.667a.752.752,0,0,1,.554.224A.753.753,0,0,1,134-833v6.222a.753.753,0,0,1-.224.554.753.753,0,0,1-.554.224h-4.667a.753.753,0,0,1-.554-.224A.753.753,0,0,1,127.778-826.778Zm-7.778,0v-3.111a.752.752,0,0,1,.224-.554.754.754,0,0,1,.554-.224h4.667a.753.753,0,0,1,.554.224.752.752,0,0,1,.224.554v3.111a.753.753,0,0,1-.224.554.753.753,0,0,1-.554.224h-4.667a.753.753,0,0,1-.554-.224A.753.753,0,0,1,120-826.778Zm1.556-7h3.111v-4.667h-3.111Zm7.778,6.222h3.111v-4.667h-3.111Zm0-9.333h3.111v-1.556h-3.111Zm-7.778,9.333h3.111v-1.556h-3.111ZM124.667-833.778ZM129.333-836.889ZM129.333-832.222ZM124.667-829.111Z" transform="translate(-120 840)" fill="#637381"/></svg>