<svg xmlns="http://www.w3.org/2000/svg" width="14" height="14" viewBox="0 0 14 14">
  <g id="빌드이력_on" transform="translate(-538 -355)">
    <rect id="사각형_148732" data-name="사각형 148732" width="14" height="14" transform="translate(538 355)" fill="#fff" opacity="0"/>
    <path id="reset_wrench_24dp_5F6368_FILL1_wght400_GRAD0_opsz24" d="M130.364-827.711,128.653-826,127-827.653l1.711-1.711a2.514,2.514,0,0,1-.117-.447,2.833,2.833,0,0,1-.039-.467,2.623,2.623,0,0,1,.8-1.925,2.623,2.623,0,0,1,1.925-.8,2.65,2.65,0,0,1,.681.088,2.882,2.882,0,0,1,.622.243l-1.847,1.847,1.089,1.089,1.847-1.828a2.944,2.944,0,0,1,.243.612,2.538,2.538,0,0,1,.087.671,2.623,2.623,0,0,1-.8,1.925,2.623,2.623,0,0,1-1.925.8,2.779,2.779,0,0,1-.476-.039A2.561,2.561,0,0,1,130.364-827.711Zm3.461-6.844h-1.614a5.359,5.359,0,0,0-1.925-2.8A5.249,5.249,0,0,0,127-838.444a5.253,5.253,0,0,0-3.86,1.585,5.253,5.253,0,0,0-1.585,3.86,5.3,5.3,0,0,0,.632,2.567,5.414,5.414,0,0,0,1.7,1.906v-2.139h1.556V-826h-4.667v-1.556h1.828a7.048,7.048,0,0,1-1.906-2.382A6.79,6.79,0,0,1,120-833a6.772,6.772,0,0,1,.554-2.732,7.115,7.115,0,0,1,1.5-2.217,7.115,7.115,0,0,1,2.217-1.5A6.772,6.772,0,0,1,127-840a6.764,6.764,0,0,1,4.4,1.546A6.82,6.82,0,0,1,133.825-834.556Z" transform="translate(418 1195)" fill="#fff"/>
  </g>
</svg>
