<svg xmlns="http://www.w3.org/2000/svg" width="14.003" height="14.003" viewBox="0 0 14.003 14.003"><g transform="translate(-134.998 -648)"><rect width="14" height="14" transform="translate(135 648)" fill="rgba(99,115,129,0)"/><path d="M121.556-828.45a7.84,7.84,0,0,1,2.44-1.624,7.576,7.576,0,0,1,3-.593,7.576,7.576,0,0,1,3,.593,7.838,7.838,0,0,1,2.44,1.624v-9.994h-10.88ZM127-832.222a2.623,2.623,0,0,0,1.925-.8,2.623,2.623,0,0,0,.8-1.925,2.623,2.623,0,0,0-.8-1.925,2.623,2.623,0,0,0-1.925-.8,2.623,2.623,0,0,0-1.925.8,2.623,2.623,0,0,0-.8,1.925,2.623,2.623,0,0,0,.8,1.925,2.623,2.623,0,0,0,1.925.8ZM121.556-826a1.5,1.5,0,0,1-1.1-.457,1.5,1.5,0,0,1-.457-1.1v-10.889a1.5,1.5,0,0,1,.457-1.1,1.5,1.5,0,0,1,1.1-.457h10.889a1.5,1.5,0,0,1,1.1.457,1.5,1.5,0,0,1,.457,1.1v10.889a1.5,1.5,0,0,1-.457,1.1,1.5,1.5,0,0,1-1.1.457Zm1.342-1.556h8.2a6.052,6.052,0,0,0-1.935-1.157,6.217,6.217,0,0,0-2.168-.4,6.378,6.378,0,0,0-2.187.4,5.576,5.576,0,0,0-1.91,1.157Zm4.1-6.222a1.125,1.125,0,0,1-.826-.34,1.125,1.125,0,0,1-.34-.826,1.125,1.125,0,0,1,.34-.826,1.125,1.125,0,0,1,.826-.34,1.125,1.125,0,0,1,.826.34,1.125,1.125,0,0,1,.34.826,1.125,1.125,0,0,1-.34.826,1.125,1.125,0,0,1-.824.34ZM127-833.447Z" transform="translate(15 1488.003)" fill="#637381"/></g></svg>