<svg xmlns="http://www.w3.org/2000/svg" width="128.551" height="34.117" viewBox="0 0 128.551 34.117"><g transform="translate(2.087 2.072)"><g transform="translate(40.055 9.115)"><g transform="translate(24.758)"><path d="M893.526,135.02h-2.778a2,2,0,0,0-2.231-1.684c-1.285,0-1.95.5-1.95,1.226,0,.9.931,1.211,3.28,1.7,2.778.576,3.723,1.95,3.723,3.753,0,2.305-2.172,3.709-4.861,3.709-2.97,0-5.141-1.61-5.259-4.181h2.763c.147,1.153,1.153,1.921,2.689,1.921,1.093,0,1.906-.547,1.906-1.329,0-.96-.813-1.345-2.955-1.743-2.615-.488-4.034-1.566-4.034-3.827s2.157-3.472,4.876-3.472S893.393,132.73,893.526,135.02Z" transform="translate(-883.45 -130.587)" fill="#fff"/><path d="M1036.89,130.08h2.63v4.639a2.842,2.842,0,0,1,2.423-1.093c2.01,0,3.384,1.463,3.384,3.856v5.009h-2.63v-4.565c0-1.315-.532-2.039-1.522-2.039s-1.654.813-1.654,2.157v4.447h-2.63V130.08Z" transform="translate(-1025.633 -129.652)" fill="#fff"/><path d="M1164.97,182.946a4.213,4.213,0,0,1,4.21-4.536,2.918,2.918,0,0,1,2.482,1.093v-.886h2.63v8.658h-2.63v-.886a2.918,2.918,0,0,1-2.482,1.093A4.213,4.213,0,0,1,1164.97,182.946Zm6.737,0a2.1,2.1,0,0,0-2.113-2.29,2.3,2.3,0,0,0,0,4.579A2.115,2.115,0,0,0,1171.707,182.946Z" transform="translate(-1144.317 -174.436)" fill="#fff"/><path d="M1313.98,178.617h2.63v.886a2.842,2.842,0,0,1,2.423-1.093,3.225,3.225,0,0,1,1.138.147l.029,2.467a2.912,2.912,0,0,0-1.345-.3,2.01,2.01,0,0,0-2.246,2.113v4.433h-2.63Z" transform="translate(-1282.395 -174.436)" fill="#fff"/><path d="M1410.041,125.85a1.61,1.61,0,1,1-1.61-1.61A1.56,1.56,0,0,1,1410.041,125.85Zm-.3,11.258h-2.63v-8.687h2.63Z" transform="translate(-1368.423 -124.24)" fill="#fff"/><path d="M1468.64,178.617h2.63v.886a2.842,2.842,0,0,1,2.423-1.093c2.01,0,3.384,1.463,3.384,3.856v5.009h-2.63v-4.565c0-1.315-.532-2.039-1.521-2.039s-1.654.813-1.654,2.157v4.447h-2.63v-8.658Z" transform="translate(-1425.708 -174.436)" fill="#fff"/><path d="M1597.311,187.955h2.659c.133.561.635.916,1.61.916a1.71,1.71,0,0,0,1.832-1.788v-.916a2.92,2.92,0,0,1-2.482,1.093,4.137,4.137,0,0,1-4.21-4.388,4.2,4.2,0,0,1,4.21-4.462,2.918,2.918,0,0,1,2.482,1.093v-.886h2.63v8.5c0,2.349-1.877,3.974-4.462,3.974S1597.592,189.624,1597.311,187.955Zm6.146-5.083a2.061,2.061,0,0,0-2.113-2.216,2.223,2.223,0,0,0,0,4.433A2.077,2.077,0,0,0,1603.457,182.872Z" transform="translate(-1544.391 -174.436)" fill="#fff"/></g><path d="M562.675,135.12,559.2,147.161h-2.718l-2.157-7.55-2.157,7.55h-2.719L545.98,135.12h2.881l2.068,7.875L553,135.12h2.792l2.053,7.846,2.084-7.846h2.748Z" transform="translate(-545.98 -134.322)" fill="#fff"/><path d="M806.81,205.4h2.057v2.216H806.81Z" transform="translate(-787.674 -199.446)" fill="#fff"/></g><rect width="19.125" height="19.125" transform="translate(14.972 1.464) rotate(45)" fill="none" stroke="rgba(142,202,233,0.08)" stroke-miterlimit="10" stroke-width="5"/><rect width="30" height="30" rx="6" fill="#eb6619"/><path d="M33.653,19.95,20.13,33.473,33.653,47,47.176,33.473ZM20.922,33.473,33.653,20.742,46.384,33.473,33.653,46.2Z" transform="translate(-18.653 -18.486)" fill="#ee852e"/><g transform="translate(1.638 6.135)"><g transform="translate(0 7.485)"><path d="M28.24,192.25h3.289l.263,2.89-.218.162a6.154,6.154,0,0,0-1.893,2.609l-.749,1.83Z" transform="translate(-27.806 -191.765)" fill="#f6cc5f"/><path d="M25.61,186.609l.2,2.178a6.6,6.6,0,0,0-2.052,2.814l-.461-4.992H25.61m.885-.969h-3.2l-.531.484-.434.574.461,4.992.364,3.937,1.5-3.659a5.673,5.673,0,0,1,1.734-2.4l.436-.324-.049-.541-.2-2.178-.08-.881h0Z" transform="translate(-22.33 -185.64)" fill="#eb6619"/><g transform="translate(0.552 0.007)"><path d="M44.32,200.961a2.488,2.488,0,0,1-.391-.032l-.014,0a3.393,3.393,0,0,1-2.466-2.64c-.026-.087-.051-.176-.074-.266a6.2,6.2,0,0,0-.8,2.356c-.009.05-.017.1-.024.148l-.064.41H37.22l.059-.537c.021-.193.048-.388.081-.58.5-2.949,2.307-5.173,4.192-5.173.058,0,.116,0,.173.006.081.006.159.015.235.028a3.355,3.355,0,0,1,2.432,2.539c.038.118.073.241.1.367a6.281,6.281,0,0,0,.791-2.342,6.94,6.94,0,0,0,.066-2.323l-.119-.582h3.2l.075.395a8.742,8.742,0,0,1,0,3.053c-.5,2.949-2.307,5.173-4.192,5.173h0Z" transform="translate(-36.679 -191.855)" fill="#f6cc5f"/><path d="M41.208,186.7a8.2,8.2,0,0,1,0,2.882c-.468,2.734-2.086,4.77-3.714,4.77a1.876,1.876,0,0,1-.313-.026l-.013,0a2.948,2.948,0,0,1-2.081-2.3q-.053-.176-.1-.361c-.081-.216-.192-.349-.329-.373a.3.3,0,0,0-.044,0c-.475,0-1.068,1.263-1.346,2.887-.009.052-.018.1-.026.156H30.929q.03-.273.077-.55c.468-2.734,2.086-4.77,3.714-4.77.046,0,.092,0,.139.005q.094.007.187.022a2.9,2.9,0,0,1,2.053,2.209c.056.175.1.357.146.546.078.171.178.276.3.3a.3.3,0,0,0,.044,0c.475,0,1.068-1.263,1.346-2.887A7.334,7.334,0,0,0,39,186.7h2.21m.8-.969h-4.2l.238,1.163a6.431,6.431,0,0,1-.069,2.144,8.861,8.861,0,0,1-.266,1.131,3.511,3.511,0,0,0-2.5-2.09c-.091-.015-.185-.026-.281-.034-.069-.005-.139-.007-.208-.007a3.987,3.987,0,0,0-3.055,1.731,8.691,8.691,0,0,0-1.615,3.844c-.034.2-.063.407-.085.61l-.117,1.073h4.221l.128-.819c.007-.047.015-.094.023-.142a8.888,8.888,0,0,1,.273-1.153,3.505,3.505,0,0,0,2.506,2.1l.029,0a2.935,2.935,0,0,0,.461.037,3.987,3.987,0,0,0,3.055-1.731,8.691,8.691,0,0,0,1.615-3.844,9.206,9.206,0,0,0,0-3.225l-.149-.789Z" transform="translate(-29.85 -185.73)" fill="#eb6619"/></g></g><g transform="translate(11.911)"><path d="M198.054,107.774c-3.964,0-6.73-2.387-6.882-5.939l-.022-.507H195.4l.051.423c.155,1.291,1.242,2.093,2.839,2.093,1.088,0,1.878-.529,1.878-1.257,0-.786-.485-1.257-3.243-1.807-2.276-.455-5.3-1.518-5.3-5.488,0-2.962,2.637-5.032,6.413-5.032a6.677,6.677,0,0,1,4.411,1.558,5.726,5.726,0,0,1,1.947,4.046l.028.513h-4.262l-.059-.41a2.041,2.041,0,0,0-2.281-1.8c-.922,0-1.932.295-1.932,1.122,0,.746.751,1.106,3.65,1.751,3.306.734,4.912,2.5,4.912,5.389a4.911,4.911,0,0,1-1.925,3.953,7.282,7.282,0,0,1-4.47,1.389Z" transform="translate(-190.676 -89.773)" fill="#fff"/><path d="M192.051,84.591c3.287,0,5.744,2.148,5.907,5.147h-3.4a2.483,2.483,0,0,0-2.728-2.206c-1.571,0-2.384.658-2.384,1.606,0,1.18,1.138,1.587,4.01,2.225,3.4.755,4.552,2.555,4.552,4.915,0,3.019-2.655,4.857-5.942,4.857-3.631,0-6.286-2.109-6.43-5.477h3.378c.18,1.509,1.409,2.516,3.287,2.516,1.337,0,2.33-.716,2.33-1.742,0-1.258-.993-1.761-3.612-2.284-3.2-.639-4.932-2.051-4.932-5.012s2.637-4.548,5.961-4.548m0-.969c-4.042,0-6.865,2.268-6.865,5.516a5.448,5.448,0,0,0,1.566,4.1,6.654,6.654,0,0,0,2.536,1.456h-4.6l.043,1.013a6.325,6.325,0,0,0,2.255,4.721,7.794,7.794,0,0,0,5.078,1.68,7.71,7.71,0,0,0,4.736-1.482,5.394,5.394,0,0,0,2.111-4.345c0-2.778-1.413-4.649-4.2-5.572h4.2l-.056-1.025a6.218,6.218,0,0,0-2.114-4.394,7.109,7.109,0,0,0-4.7-1.667h0Zm1.7,6.817-.1-.023a14.14,14.14,0,0,1-2.876-.835c-.413-.211-.413-.328-.413-.442,0-.438.767-.638,1.48-.638,1.084,0,1.7.466,1.833,1.385l.08.552h0ZM192.3,97.206c-1.372,0-2.265-.624-2.39-1.67l-.081-.677q.483.136,1.023.244a8.575,8.575,0,0,1,2.51.757c.34.205.365.354.365.574,0,.434-.627.773-1.425.773h0Z" transform="translate(-184.69 -83.62)" fill="#eb6619"/></g></g></g></svg>