<svg xmlns="http://www.w3.org/2000/svg" width="63.998" height="64.001" viewBox="0 0 63.998 64.001">
  <g id="프로필이미지" transform="translate(10034 5455)">
    <g id="그룹_163508" data-name="그룹 163508" transform="translate(0 -2)">
      <path id="빼기_16" data-name="빼기 16" d="M8.527,53.75h0a32,32,0,1,1,47.318-.409,10.728,10.728,0,0,0-2.829-1.193l-10.055-2.63a5.933,5.933,0,0,1-4.44-5.731V39.708a14.482,14.482,0,0,0,5.27-8.657c1.192-.326,2.057-1.792,2.057-3.487,0-1.673-.852-3.136-2.026-3.479.022-.048,2.2-4.816-.116-8.513-1.781-2.847-5.683-4.336-11.6-4.426a13.86,13.86,0,0,0-2-.146c-4.318,0-8.388,2.107-10.126,5.243a7.263,7.263,0,0,0,.409,7.63,6.666,6.666,0,0,0-1.58,3.691c0,1.886,1.059,3.443,2.41,3.545a14.268,14.268,0,0,0,5.258,8.6v4.079a5.933,5.933,0,0,1-4.441,5.731l-10.055,2.63a10.687,10.687,0,0,0-3.457,1.6Z" transform="translate(-10034 -5453)" fill="#dee2e6" opacity="0.65"/>
      <path id="교차_1" data-name="교차 1" d="M8.527,53.75a10.709,10.709,0,0,1,3.458-1.6l10.055-2.63a5.929,5.929,0,0,0,4.442-5.731V39.708a14.356,14.356,0,0,1-5.258-8.6c-1.343-.1-2.41-1.646-2.41-3.545a6.669,6.669,0,0,1,1.58-3.691c-4.469-7.156,3.284-13.96,11.716-12.727,17.64.268,11.714,12.939,11.714,12.939a3.478,3.478,0,0,1,2.026,3.479c0,1.729-.884,3.167-2.057,3.488a14.381,14.381,0,0,1-5.27,8.657v4.079a5.929,5.929,0,0,0,4.44,5.731l10.055,2.63a10.726,10.726,0,0,1,2.829,1.193,32,32,0,0,1-47.318.41Z" transform="translate(-10034 -5453)" fill="#f4f6f8" opacity="0.78"/>
    </g>
  </g>
</svg>
