<svg xmlns="http://www.w3.org/2000/svg" width="138.449" height="33.952" viewBox="0 0 138.449 33.952">
  <g id="BI" transform="translate(-149.11 -413.548)">
    <g id="그룹_160547" data-name="그룹 160547" transform="translate(151.114 415.538)">
      <path id="패스_7243" data-name="패스 7243" d="M.6.6H19.609V19.608H.6Z" transform="translate(14.972 0.696) rotate(45)" fill="none" stroke="rgba(142,202,233,0.08)" stroke-width="5"/>
      <g id="그룹_160546" data-name="그룹 160546">
        <g id="그룹_160545" data-name="그룹 160545">
          <g id="그룹_160544" data-name="그룹 160544">
            <g id="그룹_160543" data-name="그룹 160543">
              <g id="그룹_160542" data-name="그룹 160542">
                <rect id="사각형_4833" data-name="사각형 4833" width="30" height="30" rx="6" fill="#17366f"/>
              </g>
            </g>
          </g>
        </g>
      </g>
      <path id="패스_7228" data-name="패스 7228" d="M184.688,435.492l-13.44,13.439,13.44,13.439,13.44-13.439Zm-12.653,13.439,12.653-12.652,12.653,12.652-12.653,12.652Z" transform="translate(-169.687 -433.945)" fill="#2f5388"/>
    </g>
    <g id="그룹_160549" data-name="그룹 160549" transform="translate(191.171 423.998)">
      <g id="그룹_160548" data-name="그룹 160548" transform="translate(0 0)">
        <path id="패스_7229" data-name="패스 7229" d="M710.634,553.167H706.5v10.211h-2.841V553.167h-4.137v-2.514h11.116Z" transform="translate(-699.518 -550.341)" fill="#17366f"/>
        <path id="패스_7230" data-name="패스 7230" d="M822.356,598.744a4.762,4.762,0,1,1,9.524,0,6.266,6.266,0,0,1-.062.89h-6.7a1.933,1.933,0,0,0,2,1.671,1.884,1.884,0,0,0,1.686-.718H831.6a4.4,4.4,0,0,1-4.481,2.951A4.591,4.591,0,0,1,822.356,598.744Zm6.807-.905a1.946,1.946,0,0,0-2.045-1.686,1.916,1.916,0,0,0-2.014,1.686Z" transform="translate(-812.833 -590.282)" fill="#17366f"/>
        <path id="패스_7231" data-name="패스 7231" d="M964.3,596.917h-2.685c-.094-.562-.734-.906-1.546-.906-.843,0-1.452.3-1.452.7,0,.453.609.671,2.17.921,2.7.406,3.669,1.3,3.669,2.873,0,1.873-1.967,3.029-4.293,3.029-2.389,0-4.2-1.187-4.293-3.107h2.685c.094.593.781.984,1.655.984.89,0,1.545-.328,1.545-.749,0-.437-.624-.718-2.2-.952-2.186-.328-3.622-1-3.622-2.857,0-1.78,1.858-2.9,4.184-2.9C962.4,593.951,964.191,595.106,964.3,596.917Z" transform="translate(-935.996 -590.282)" fill="#17366f"/>
        <path id="패스_7232" data-name="패스 7232" d="M1077.659,566.835h-1.811v6.76h-2.779v-6.76h-1.811v-2.389h1.811V561.73h2.779v2.717h1.811Z" transform="translate(-1042.438 -560.559)" fill="#17366f"/>
        <path id="패스_7233" data-name="패스 7233" d="M1169.5,550.779h-2.935a2.112,2.112,0,0,0-2.358-1.78c-1.327,0-2.061.531-2.061,1.3,0,.952.984,1.28,3.466,1.8,2.935.609,3.934,2.061,3.934,3.966,0,2.436-2.3,3.919-5.137,3.919-3.138,0-5.433-1.7-5.558-4.419h2.92c.156,1.218,1.218,2.03,2.842,2.03,1.155,0,2.014-.578,2.014-1.405,0-1.015-.859-1.421-3.123-1.842-2.763-.515-4.262-1.655-4.262-4.044,0-2.3,2.279-3.669,5.152-3.669C1167.238,546.626,1169.361,548.359,1169.5,550.779Z" transform="translate(-1123.243 -546.626)" fill="#17366f"/>
        <path id="패스_7234" data-name="패스 7234" d="M1313.337,602.382a3.085,3.085,0,0,1-2.623,1.155c-2.623,0-4.45-2.014-4.45-4.793s1.827-4.793,4.45-4.793a3.085,3.085,0,0,1,2.623,1.155v-.937h2.779v12.959h-2.779Zm.047-3.638a2.217,2.217,0,0,0-2.233-2.42,2.434,2.434,0,0,0,0,4.84A2.217,2.217,0,0,0,1313.383,598.744Z" transform="translate(-1259.225 -590.282)" fill="#17366f"/>
        <path id="패스_7235" data-name="패스 7235" d="M1453.469,602.064v-5.293h2.779V601.6c0,1.389.562,2.155,1.608,2.155,1.093,0,1.749-.859,1.749-2.279v-4.7h2.779v9.149H1459.6v-.937a3,3,0,0,1-2.561,1.155C1454.921,606.139,1453.469,604.593,1453.469,602.064Z" transform="translate(-1395.018 -592.883)" fill="#17366f"/>
        <path id="패스_7236" data-name="패스 7236" d="M1584.364,598.744c0-2.779,1.827-4.793,4.449-4.793a3.085,3.085,0,0,1,2.623,1.155v-.937h2.779v9.149h-2.779v-.937a3.084,3.084,0,0,1-2.623,1.155C1586.191,603.537,1584.364,601.523,1584.364,598.744Zm7.119,0a2.217,2.217,0,0,0-2.233-2.42,2.434,2.434,0,0,0,0,4.84A2.217,2.217,0,0,0,1591.483,598.744Z" transform="translate(-1515.765 -590.282)" fill="#17366f"/>
        <path id="패스_7237" data-name="패스 7237" d="M1733.381,594.17h2.779v.937a3,3,0,0,1,2.56-1.155,3.408,3.408,0,0,1,1.2.156l.031,2.607a3.078,3.078,0,0,0-1.421-.312,2.124,2.124,0,0,0-2.373,2.233v4.684h-2.779Z" transform="translate(-1653.229 -590.282)" fill="#17366f"/>
        <path id="패스_7238" data-name="패스 7238" d="M1819.973,598.744a4.762,4.762,0,1,1,9.524,0,6.265,6.265,0,0,1-.062.89h-6.7a1.933,1.933,0,0,0,2,1.671,1.884,1.884,0,0,0,1.686-.718h2.795a4.4,4.4,0,0,1-4.481,2.951A4.591,4.591,0,0,1,1819.973,598.744Zm6.807-.905a1.946,1.946,0,0,0-2.045-1.686,1.916,1.916,0,0,0-2.014,1.686Z" transform="translate(-1733.108 -590.282)" fill="#17366f"/>
      </g>
    </g>
    <g id="그룹_160550" data-name="그룹 160550" transform="translate(168.337 428.266)">
      <path id="패스_7239" data-name="패스 7239" d="M385.629,613.076c-2.824,0-4.793-1.475-4.9-3.672l-.028-.576h2.586a3.1,3.1,0,0,1-1.015-5.679,6.027,6.027,0,0,1,3.309-.887c2.695,0,4.664,1.449,4.789,3.523l.035.583H388a3.122,3.122,0,0,1,2.534,3.09C390.53,611.554,388.469,613.076,385.629,613.076Zm-1.087-3.784c.048.3.536.533,1.135.533a1.861,1.861,0,0,0,.957-.206,5.273,5.273,0,0,0-1.7-.426q-.206-.031-.416-.068Zm.144-3.682a6.723,6.723,0,0,0,1.662.393l.232.036-.022-.131c-.044-.262-.484-.459-1.025-.459A1.87,1.87,0,0,0,384.686,605.61Z" transform="translate(-380.124 -601.713)" fill="#8ecae9"/>
      <path id="패스_7240" data-name="패스 7240" d="M378.718,596.274c2.31,0,4.13,1.171,4.241,3.006h-2.721c-.095-.57-.744-.918-1.566-.918-.854,0-1.472.3-1.472.712,0,.459.617.68,2.2.934,2.737.411,3.718,1.313,3.718,2.911,0,1.9-1.994,3.07-4.351,3.07-2.421,0-4.256-1.2-4.351-3.149h2.722c.095.6.791,1,1.677,1,.9,0,1.566-.332,1.566-.76,0-.443-.633-.728-2.231-.965-2.215-.332-3.671-1.013-3.671-2.9,0-1.8,1.883-2.943,4.241-2.943m0-1.1a6.578,6.578,0,0,0-3.614.98,3.627,3.627,0,0,0-1.725,3.062,3.406,3.406,0,0,0,.985,2.525h-1.1l.056,1.152a4.035,4.035,0,0,0,1.769,3.15,6.352,6.352,0,0,0,3.68,1.045c3.158,0,5.45-1.753,5.45-4.169a3.363,3.363,0,0,0-1-2.541h.912l-.07-1.165c-.143-2.378-2.338-4.039-5.337-4.039Z" transform="translate(-373.26 -595.175)" fill="#17366f"/>
    </g>
    <g id="그룹_160552" data-name="그룹 160552" transform="translate(154.377 421.729)">
      <g id="그룹_160551" data-name="그룹 160551" transform="translate(0)">
        <path id="패스_7241" data-name="패스 7241" d="M205.223,531.746V518.372H199.8v-4.316h15.584v4.316h-5.419v13.374Z" transform="translate(-199.292 -513.544)" fill="#fcfcfc"/>
        <path id="패스_7242" data-name="패스 7242" d="M208.784,508.476v3.292h-5.419v13.374h-3.722V511.768h-5.419v-3.292h14.56m1.024-1.024H193.2v5.34h5.419v13.374h5.77V512.792h5.419v-5.34Z" transform="translate(-193.2 -507.452)" fill="#17366f"/>
      </g>
    </g>
  </g>
</svg>
