<svg xmlns="http://www.w3.org/2000/svg" width="135.944" height="34.117" viewBox="0 0 135.944 34.117"><g transform="translate(2.087 2.071)"><g transform="translate(41.005 6.675)"><path d="M569,101.76h-2.778a2,2,0,0,0-2.231-1.684c-1.285,0-1.95.5-1.95,1.226,0,.9.931,1.211,3.28,1.7,2.778.576,3.723,1.95,3.723,3.753,0,2.305-2.172,3.709-4.861,3.709-2.97,0-5.141-1.61-5.259-4.181h2.763c.147,1.153,1.153,1.921,2.689,1.921,1.093,0,1.906-.547,1.906-1.329,0-.96-.813-1.345-2.955-1.743-2.615-.488-4.034-1.566-4.034-3.827s2.157-3.472,4.876-3.472S568.863,99.47,569,101.76Z" transform="translate(-558.92 -97.327)" fill="#fff"/><path d="M711.561,92.59a1.61,1.61,0,1,1-1.61-1.61A1.56,1.56,0,0,1,711.561,92.59Zm-.3,11.258h-2.63V95.162h2.63Z" transform="translate(-697.378 -90.98)" fill="#fff"/><path d="M764.711,154.695h2.659c.133.561.635.916,1.61.916a1.71,1.71,0,0,0,1.832-1.788v-.916A2.921,2.921,0,0,1,768.33,154a4.137,4.137,0,0,1-4.21-4.388,4.2,4.2,0,0,1,4.21-4.462,2.919,2.919,0,0,1,2.482,1.093v-.886h2.63v8.5c0,2.349-1.877,3.974-4.462,3.974S764.992,156.364,764.711,154.695Zm6.146-5.083a2.061,2.061,0,0,0-2.113-2.216,2.223,2.223,0,0,0,0,4.433A2.077,2.077,0,0,0,770.857,149.612Z" transform="translate(-749.066 -141.176)" fill="#fff"/><path d="M913.13,145.357h2.63v.886a2.842,2.842,0,0,1,2.423-1.093c2.009,0,3.384,1.463,3.384,3.856v5.009h-2.63v-4.565c0-1.315-.532-2.039-1.522-2.039s-1.655.813-1.655,2.157v4.447h-2.63Z" transform="translate(-887.144 -141.176)" fill="#fff"/><path d="M1050.686,101.76h-2.777a2,2,0,0,0-2.231-1.684c-1.285,0-1.95.5-1.95,1.226,0,.9.931,1.211,3.28,1.7,2.777.576,3.723,1.95,3.723,3.753,0,2.305-2.172,3.709-4.861,3.709-2.97,0-5.141-1.61-5.26-4.181h2.763c.147,1.153,1.153,1.921,2.689,1.921,1.093,0,1.906-.547,1.906-1.329,0-.96-.813-1.345-2.955-1.743-2.615-.488-4.034-1.566-4.034-3.827s2.157-3.472,4.876-3.472S1050.553,99.47,1050.686,101.76Z" transform="translate(-1005.271 -97.327)" fill="#fff"/><path d="M1194.712,153.128a2.919,2.919,0,0,1-2.482,1.093,4.548,4.548,0,0,1,0-9.071,2.919,2.919,0,0,1,2.482,1.093v-.886h2.63V157.62h-2.63Zm.044-3.442a2.1,2.1,0,0,0-2.113-2.29,2.3,2.3,0,0,0,0,4.579A2.115,2.115,0,0,0,1194.756,149.686Z" transform="translate(-1141.867 -141.176)" fill="#fff"/><path d="M1335.22,152.979V147.97h2.63v4.565c0,1.315.532,2.039,1.521,2.039s1.655-.813,1.655-2.157V147.97h2.63v8.658h-2.63v-.886a2.84,2.84,0,0,1-2.423,1.093c-2.01,0-3.384-1.463-3.384-3.856Z" transform="translate(-1278.267 -143.789)" fill="#fff"/><path d="M1466.11,149.686a4.213,4.213,0,0,1,4.211-4.536,2.919,2.919,0,0,1,2.482,1.093v-.886h2.63v8.658h-2.63v-.886a2.918,2.918,0,0,1-2.482,1.093A4.213,4.213,0,0,1,1466.11,149.686Zm6.737,0a2.1,2.1,0,0,0-2.113-2.29,2.3,2.3,0,0,0,0,4.579A2.115,2.115,0,0,0,1472.847,149.686Z" transform="translate(-1399.555 -141.176)" fill="#fff"/><path d="M1615.13,145.357h2.63v.886a2.842,2.842,0,0,1,2.423-1.093,3.225,3.225,0,0,1,1.138.147l.029,2.467a2.913,2.913,0,0,0-1.345-.3,2.01,2.01,0,0,0-2.246,2.113v4.433h-2.63Z" transform="translate(-1537.642 -141.176)" fill="#fff"/><path d="M1701.72,149.686a4.506,4.506,0,1,1,9.012,0,5.856,5.856,0,0,1-.059.842h-6.338a1.83,1.83,0,0,0,1.891,1.581,1.782,1.782,0,0,0,1.6-.679h2.645a4.164,4.164,0,0,1-4.24,2.792,4.344,4.344,0,0,1-4.506-4.535Zm6.441-.857a1.841,1.841,0,0,0-1.935-1.6,1.813,1.813,0,0,0-1.906,1.6Z" transform="translate(-1617.879 -141.176)" fill="#fff"/></g><rect width="19.125" height="19.125" transform="translate(14.972 1.464) rotate(45)" fill="none" stroke="rgba(142,202,233,0.08)" stroke-miterlimit="10" stroke-width="5"/><rect width="30" height="30" rx="6" fill="#cc26af"/><path d="M33.653,19.95,20.13,33.473,33.653,47,47.176,33.473ZM20.922,33.473,33.653,20.742,46.384,33.473,33.653,46.2Z" transform="translate(-18.653 -18.486)" fill="#e040af"/><g transform="translate(2.219 5.39)"><path d="M46.174,99.737c-4.048,0-6.871-2.436-7.026-6.061l-.028-.651h4.568l.066.55c.147,1.227,1.139,1.96,2.654,1.96.983,0,1.7-.469,1.7-1.114s-.222-1.092-3.1-1.667C42.686,92.29,39.6,91.2,39.6,87.142c0-3.039,2.7-5.162,6.559-5.162,3.59,0,6.325,2.409,6.5,5.727l.035.657h-4.58l-.077-.535a1.882,1.882,0,0,0-2.1-1.667c-.411,0-1.75.07-1.75.979,0,.652.753,1,3.5,1.612a6.794,6.794,0,0,1,3.874,2.056,5.181,5.181,0,0,1,1.147,3.457,5.03,5.03,0,0,1-1.971,4.045,7.435,7.435,0,0,1-4.57,1.425Z" transform="translate(-38.469 -81.356)" fill="#fffdfd"/><path d="M37.927,74.718c3.274,0,5.719,2.143,5.882,5.136H40.427a2.474,2.474,0,0,0-2.716-2.2c-1.565,0-2.374.657-2.374,1.6,0,1.178,1.133,1.583,3.993,2.221,3.381.753,4.532,2.549,4.532,4.9,0,3.012-2.644,4.846-5.918,4.846-3.615,0-6.259-2.1-6.4-5.465h3.363c.18,1.506,1.4,2.511,3.274,2.511,1.331,0,2.321-.715,2.321-1.738,0-1.255-.989-1.757-3.6-2.279-3.183-.638-4.91-2.047-4.91-5s2.626-4.538,5.935-4.538m0-1.248a8.437,8.437,0,0,0-4.943,1.444,5.264,5.264,0,0,0-2.24,4.342,5.731,5.731,0,0,0,1.642,4.267,6.051,6.051,0,0,0,1.39.993H30.24l.056,1.3a6.975,6.975,0,0,0,.676,2.762,6.412,6.412,0,0,0,1.669,2.133,8.128,8.128,0,0,0,5.3,1.763A8.06,8.06,0,0,0,42.9,90.917a5.642,5.642,0,0,0,2.211-4.537,5.789,5.789,0,0,0-1.294-3.86A5.949,5.949,0,0,0,42.009,81.1h3.117l-.071-1.315c-.2-3.66-3.2-6.317-7.127-6.317h0ZM36.587,79.3c0-.01,0-.023,0-.044,0-.049,0-.077.083-.135a1.841,1.841,0,0,1,1.044-.22c1.168,0,1.4.6,1.481,1.132l.02.138a17.989,17.989,0,0,1-1.949-.529,1.925,1.925,0,0,1-.676-.341h0Zm1.592,7.725c-.561,0-1.883-.137-2.034-1.411l-.03-.254c.176.042.357.082.543.119a9.157,9.157,0,0,1,2.375.707c.219.134.219.183.219.348,0,.266-.491.49-1.073.49h0Z" transform="translate(-30.24 -73.47)" fill="#cc26af"/></g><g transform="translate(16.7 12.858)"><path d="M239.744,192.6c-2.672,0-4.535-1.4-4.637-3.475l-.026-.545h2.447a2.93,2.93,0,0,1-.96-5.374,5.7,5.7,0,0,1,3.131-.84c2.55,0,4.414,1.371,4.532,3.334l.033.551h-2.28a2.955,2.955,0,0,1,2.4,2.924c0,1.984-1.95,3.425-4.637,3.425Zm-1.029-3.581c.046.288.507.5,1.073.5a1.769,1.769,0,0,0,.906-.194,5,5,0,0,0-1.611-.4q-.195-.03-.393-.065Zm.136-3.484a6.354,6.354,0,0,0,1.573.372l.219.034-.021-.125c-.041-.247-.458-.434-.97-.434a1.768,1.768,0,0,0-.8.153Z" transform="translate(-234.533 -181.848)" fill="#e85ebe"/><path d="M232.8,176.3c2.186,0,3.908,1.108,4.013,2.845h-2.575c-.089-.539-.7-.869-1.483-.869s-1.392.285-1.392.673c0,.434.584.644,2.081.883,2.59.39,3.519,1.243,3.519,2.755,0,1.8-1.887,2.905-4.118,2.905s-4.028-1.138-4.118-2.98H231.3c.09.569.749.943,1.587.943s1.483-.315,1.483-.719-.6-.689-2.111-.913c-2.1-.315-3.474-.958-3.474-2.74s1.782-2.785,4.013-2.785m0-1.04a6.226,6.226,0,0,0-3.42.927,3.434,3.434,0,0,0-1.633,2.9,3.226,3.226,0,0,0,.932,2.389H227.63l.054,1.09a3.816,3.816,0,0,0,1.674,2.98,6.014,6.014,0,0,0,3.483.988c2.988,0,5.158-1.659,5.158-3.945a3.183,3.183,0,0,0-.948-2.4h.863l-.067-1.1c-.136-2.251-2.213-3.822-5.051-3.822h0Z" transform="translate(-227.63 -175.26)" fill="#cc26af"/></g></g></svg>