<svg xmlns="http://www.w3.org/2000/svg" xmlns:xlink="http://www.w3.org/1999/xlink" width="148.73" height="30" viewBox="0 0 148.73 30"><defs><clipPath id="a"><rect width="148.73" height="30" fill="none"/></clipPath><clipPath id="c"><rect width="27.565" height="27.565" fill="none"/></clipPath></defs><g clip-path="url(#a)"><g clip-path="url(#a)"><g transform="translate(1.19 1.205)"><g clip-path="url(#c)"><rect width="19.124" height="19.124" transform="translate(0.259 13.782) rotate(-45)" fill="none" stroke="#8ecae9" stroke-miterlimit="10" stroke-width="5"/></g><rect width="30" height="30" rx="6" transform="translate(-1.19 -1.205)" fill="#17366f"/></g><path d="M33.657,19.954,20.134,33.477,33.657,47,47.18,33.477ZM20.926,33.477,33.657,20.746l12.73,12.731L33.657,46.208Z" transform="translate(-18.657 -18.49)" fill="#2f5388"/><path d="M175.252,129.77l-.835-2.573h-4.1l-.836,2.573h-3.539l4.888-14.007h3.291l3.667,10.509v-5.406a1.408,1.408,0,0,1,1.407-1.407h1.936v10.31Zm-1.894-5.88-.991-3.066-.991,3.066Z" transform="translate(-153.77 -107.27)" fill="#fff"/><path d="M167.339,111.5l4.295,12.307v-7.57a1.04,1.04,0,0,1,1.04-1.04h1.569v9.577H169l-.835-2.573h-4.632l-.836,2.573h-2.756l4.632-13.274Zm-2.99,8.127h2.99l-1.5-4.625-1.5,4.625m3.511-8.861h-3.812l-.172.492-4.632,13.274-.34.975h4.322l.165-.507.671-2.066h3.566L168.3,125l.165.507h6.514V114.46h-2.3a1.775,1.775,0,0,0-1.773,1.773v3.241l-2.868-8.22Zm-2.5,8.127.487-1.507.487,1.507Z" transform="translate(-147.246 -102.637)" fill="#17366f"/><path d="M325.979,113.364a1.915,1.915,0,1,1,1.915-1.915,1.915,1.915,0,0,1-1.915,1.915" transform="translate(-300.29 -101.499)" fill="#fff"/><path d="M321.345,105.268a1.548,1.548,0,1,1-1.548,1.548,1.548,1.548,0,0,1,1.548-1.548m0-.734a2.281,2.281,0,1,0,2.281,2.281,2.281,2.281,0,0,0-2.281-2.281" transform="translate(-295.657 -96.865)" fill="#17366f"/><path d="M30.1,192.027l-.2-2.178H27.587l.461,4.992a6.608,6.608,0,0,1,2.052-2.814" transform="translate(-25.563 -175.921)" fill="#8ecae9"/><path d="M18.718,179.65l.2,2.178a6.608,6.608,0,0,0-2.052,2.814L16.4,179.65Zm.737-.807H15.517l.081.882.461,4.992.3,3.281,1.248-3.049a5.839,5.839,0,0,1,1.787-2.472l.363-.27-.041-.451-.2-2.178Z" transform="translate(-14.379 -165.723)" fill="#17366f"/><path d="M46.957,189.938h-2.21a7.358,7.358,0,0,1-.063,2.5c-.287,1.675-.909,2.965-1.39,2.883-.12-.021-.22-.125-.3-.3q-.062-.283-.146-.546a2.9,2.9,0,0,0-2.052-2.209,1.7,1.7,0,0,0-.187-.022c-1.674-.12-3.372,1.954-3.853,4.765q-.047.277-.077.55h2.312q.012-.077.025-.155c.287-1.675.909-2.965,1.39-2.883.137.023.248.157.33.373q.043.185.1.361a2.948,2.948,0,0,0,2.081,2.3h.013c1.728.284,3.53-1.836,4.028-4.745a8.208,8.208,0,0,0,0-2.882" transform="translate(-33.989 -176.004)" fill="#8ecae9"/><path d="M35.589,179.739a8.208,8.208,0,0,1,0,2.882c-.468,2.734-2.087,4.77-3.715,4.77a1.929,1.929,0,0,1-.313-.026h-.013a2.948,2.948,0,0,1-2.081-2.3q-.053-.176-.1-.361c-.082-.216-.192-.35-.33-.373a.263.263,0,0,0-.044,0c-.474,0-1.068,1.263-1.346,2.887q-.013.078-.025.155h-2.31q.03-.273.077-.55c.468-2.733,2.087-4.77,3.715-4.77q.069,0,.139.005a1.177,1.177,0,0,1,.187.022,2.9,2.9,0,0,1,2.052,2.209q.084.262.146.546c.078.171.178.276.3.3a.262.262,0,0,0,.044,0c.475,0,1.068-1.263,1.346-2.887a7.356,7.356,0,0,0,.063-2.5Zm.669-.807H32.39l.2.969a6.592,6.592,0,0,1-.068,2.2,8.321,8.321,0,0,1-.408,1.544,3.5,3.5,0,0,0-2.547-2.372c-.085-.015-.175-.025-.266-.032-.065,0-.131-.007-.2-.007a3.832,3.832,0,0,0-2.928,1.67,8.533,8.533,0,0,0-1.583,3.772q-.051.3-.084.6l-.1.9h3.9l.107-.683q.011-.072.024-.144a8.269,8.269,0,0,1,.416-1.565,3.5,3.5,0,0,0,2.549,2.378h.026a2.742,2.742,0,0,0,.436.035,3.832,3.832,0,0,0,2.928-1.67,8.533,8.533,0,0,0,1.583-3.772,9.047,9.047,0,0,0,0-3.168Z" transform="translate(-22.621 -165.805)" fill="#17366f"/><path d="M560.09,135.019h-2.778a2,2,0,0,0-2.231-1.684c-1.256,0-1.95.5-1.95,1.226,0,.9.931,1.212,3.28,1.7,2.778.576,3.723,1.95,3.723,3.753,0,2.3-2.172,3.708-4.861,3.708-2.97,0-5.142-1.61-5.26-4.181h2.763c.148,1.152,1.152,1.921,2.689,1.921,1.093,0,1.906-.547,1.906-1.33,0-.96-.812-1.344-2.955-1.743-2.615-.488-4.033-1.566-4.033-3.827,0-2.172,2.157-3.472,4.875-3.472,2.689,0,4.7,1.64,4.831,3.93" transform="translate(-509.663 -121.472)" fill="#fff"/><path d="M699.251,151.024h-1.714v6.4h-2.63v-6.4h-1.714v-2.26h1.714v-2.571h2.63v2.571h1.714Z" transform="translate(-642.338 -135.468)" fill="#fff"/><path d="M785.623,186.242v-5.009h2.63V185.8c0,1.315.532,2.039,1.522,2.039,1.034,0,1.655-.813,1.655-2.157v-4.447h2.63v8.658h-2.63v-.886a2.841,2.841,0,0,1-2.423,1.093c-2.009,0-3.383-1.463-3.383-3.856" transform="translate(-727.987 -167.938)" fill="#fff"/><path d="M916.519,138.164a4.213,4.213,0,0,1,4.211-4.536,2.919,2.919,0,0,1,2.482,1.093v-4.639h2.63v12.41h-2.63v-.886a2.919,2.919,0,0,1-2.482,1.093,4.213,4.213,0,0,1-4.211-4.536m6.737,0a2.1,2.1,0,0,0-2.113-2.29,2.3,2.3,0,0,0,0,4.58,2.1,2.1,0,0,0,2.113-2.29" transform="translate(-849.28 -120.539)" fill="#fff"/><path d="M1064.73,125.852a1.61,1.61,0,1,1-1.611-1.61,1.56,1.56,0,0,1,1.611,1.61m-.3,11.258h-2.63v-8.687h2.63Z" transform="translate(-983.633 -115.127)" fill="#fff"/><path d="M1126.48,182.95a4.6,4.6,0,1,1-4.595-4.536,4.408,4.408,0,0,1,4.595,4.536m-6.648,0a2.079,2.079,0,1,0,.521-1.6,2.066,2.066,0,0,0-.521,1.6" transform="translate(-1035.322 -165.325)" fill="#fff"/><path d="M1313.24,135.019h-2.778a2,2,0,0,0-2.231-1.684c-1.256,0-1.95.5-1.95,1.226,0,.9.931,1.212,3.28,1.7,2.778.576,3.723,1.95,3.723,3.753,0,2.3-2.172,3.708-4.861,3.708-2.969,0-5.141-1.61-5.26-4.181h2.763c.148,1.152,1.152,1.921,2.689,1.921,1.093,0,1.906-.547,1.906-1.33,0-.96-.812-1.344-2.955-1.743-2.615-.488-4.033-1.566-4.033-3.827,0-2.172,2.157-3.472,4.875-3.472,2.689,0,4.7,1.64,4.831,3.93" transform="translate(-1207.556 -121.472)" fill="#fff"/><path d="M1450.57,182.951a4.506,4.506,0,1,1,9.012,0,5.942,5.942,0,0,1-.059.842h-6.338a1.829,1.829,0,0,0,1.891,1.581,1.783,1.783,0,0,0,1.6-.68h2.645a4.164,4.164,0,0,1-4.24,2.792,4.345,4.345,0,0,1-4.506-4.536m6.442-.857a1.841,1.841,0,0,0-1.936-1.6,1.813,1.813,0,0,0-1.906,1.6Z" transform="translate(-1344.15 -165.326)" fill="#fff"/><path d="M1589.52,178.622h2.63v.886a2.842,2.842,0,0,1,2.423-1.093,3.221,3.221,0,0,1,1.137.148l.03,2.467a2.912,2.912,0,0,0-1.344-.3,2.01,2.01,0,0,0-2.246,2.113v4.432h-2.63Z" transform="translate(-1472.908 -165.326)" fill="#fff"/><path d="M1686.3,181.234l-3.324,8.658h-2.733l-3.324-8.658h2.852l1.935,5.644,1.936-5.644Z" transform="translate(-1553.892 -167.938)" fill="#fff"/><path d="M1803.58,182.951a4.506,4.506,0,1,1,9.012,0,5.889,5.889,0,0,1-.059.842H1806.2a1.829,1.829,0,0,0,1.891,1.581,1.783,1.783,0,0,0,1.6-.68h2.645a4.164,4.164,0,0,1-4.24,2.792,4.345,4.345,0,0,1-4.506-4.536m6.441-.857a1.841,1.841,0,0,0-1.935-1.6,1.813,1.813,0,0,0-1.906,1.6Z" transform="translate(-1671.266 -165.326)" fill="#fff"/><path d="M1942.53,178.622h2.63v.886a2.841,2.841,0,0,1,2.423-1.093,3.223,3.223,0,0,1,1.138.148l.03,2.467a2.915,2.915,0,0,0-1.344-.3,2.01,2.01,0,0,0-2.246,2.113v4.432h-2.63Z" transform="translate(-1800.024 -165.326)" fill="#fff"/></g></g></svg>