<svg xmlns="http://www.w3.org/2000/svg" width="132.928" height="34.117" viewBox="0 0 132.928 34.117"><g transform="translate(2.087 2.071)"><rect width="19.125" height="19.125" transform="translate(14.972 1.464) rotate(45)" fill="none" stroke="rgba(142,202,233,0.08)" stroke-miterlimit="10" stroke-width="5"/><rect width="30" height="30" rx="6" fill="#b4221b"/><path d="M33.653,19.95,20.13,33.473,33.653,47,47.176,33.473ZM20.922,33.473,33.653,20.742,46.384,33.473,33.653,46.2Z" transform="translate(-18.653 -18.486)" fill="#c23c32"/><g transform="translate(16.728 12.858)"><path d="M240.134,192.6c-2.672,0-4.535-1.4-4.637-3.475l-.026-.545h2.447a2.93,2.93,0,0,1-.96-5.374,5.7,5.7,0,0,1,3.131-.84c2.55,0,4.414,1.371,4.532,3.334l.033.551h-2.28a2.955,2.955,0,0,1,2.4,2.924C244.771,191.163,242.821,192.6,240.134,192.6Zm-1.029-3.581c.045.288.507.5,1.073.5a1.769,1.769,0,0,0,.906-.194,5,5,0,0,0-1.611-.4q-.195-.03-.393-.065Zm.136-3.484a6.355,6.355,0,0,0,1.573.372l.219.034-.021-.125c-.041-.247-.458-.434-.97-.434a1.768,1.768,0,0,0-.8.153Z" transform="translate(-234.923 -181.848)" fill="#ea554e"/><path d="M233.186,176.3c2.186,0,3.908,1.108,4.013,2.845h-2.575c-.09-.539-.7-.869-1.483-.869s-1.392.285-1.392.673c0,.434.584.644,2.081.883,2.59.39,3.519,1.243,3.519,2.755,0,1.8-1.887,2.905-4.118,2.905s-4.028-1.138-4.118-2.98h2.576c.089.569.749.943,1.587.943s1.483-.315,1.483-.719-.6-.689-2.111-.913c-2.1-.315-3.474-.958-3.474-2.74s1.782-2.785,4.013-2.785m0-1.04a6.226,6.226,0,0,0-3.42.927,3.434,3.434,0,0,0-1.633,2.9,3.226,3.226,0,0,0,.932,2.389H228.02l.054,1.09a3.816,3.816,0,0,0,1.674,2.98,6.014,6.014,0,0,0,3.483.988c2.988,0,5.157-1.659,5.157-3.945a3.182,3.182,0,0,0-.948-2.4h.863l-.067-1.1c-.136-2.251-2.213-3.822-5.051-3.822h0Z" transform="translate(-228.02 -175.26)" fill="#b4221b"/></g><g transform="translate(3.564 5.844)"><path d="M57.09,105.155V88.17h6.327A6.835,6.835,0,0,1,68.3,89.92a6.262,6.262,0,0,1,1.781,4.628,6.349,6.349,0,0,1-1.78,4.661,6.816,6.816,0,0,1-4.888,1.756H61.611v4.19H57.09Zm6.183-8.547c1.519,0,2.29-.693,2.29-2.06s-.77-2.021-2.29-2.021H61.611v4.082h1.662Z" transform="translate(-56.466 -87.546)" fill="#fffdfd"/><path d="M55.531,80.909c3.813,0,6.044,2.279,6.044,5.754s-2.23,5.793-6.044,5.793H53.1v4.19H49.828V80.909h5.7M53.1,89.347h2.286c1.816,0,2.914-.927,2.914-2.684s-1.1-2.646-2.914-2.646H53.1v5.329m2.43-9.686H48.58V97.893h5.769V93.7h1.182c4.429,0,7.291-2.764,7.291-7.041a6.871,6.871,0,0,0-1.971-5.076,7.441,7.441,0,0,0-5.321-1.927h0Zm-1.182,5.6h1.038c1.464,0,1.666.672,1.666,1.4s-.2,1.436-1.666,1.436H54.349V85.265Z" transform="translate(-48.58 -79.66)" fill="#b4221b"/></g><g transform="translate(40.913 9.617)"><path d="M557.67,135.12h4.624c3.132,0,4.965,1.743,4.965,4.4s-1.832,4.433-4.965,4.433h-1.935v3.206H557.67Zm4.506,6.456c1.492,0,2.393-.709,2.393-2.053s-.9-2.024-2.393-2.024h-1.817v4.078Z" transform="translate(-557.67 -134.824)" fill="#b4221b"/><path d="M703.06,135.111h4.669c3.989,0,6.457,2.467,6.457,6.028s-2.467,6.013-6.457,6.013H703.06V135.11Zm4.713,9.663a3.643,3.643,0,1,0,0-7.284h-2.024v7.284Z" transform="translate(-692.394 -134.815)" fill="#b4221b"/><path d="M871.61,135.12h8.835v2.364H874.3v2.734h5.466v2.334H874.3v4.609H871.61Z" transform="translate(-848.578 -134.824)" fill="#b4221b"/><path d="M1009.566,135.02h-2.778a2,2,0,0,0-2.231-1.684c-1.285,0-1.95.5-1.95,1.226,0,.9.931,1.211,3.28,1.7,2.777.576,3.723,1.95,3.723,3.753,0,2.305-2.172,3.709-4.861,3.709-2.97,0-5.141-1.61-5.259-4.181h2.763c.147,1.153,1.153,1.921,2.689,1.921,1.093,0,1.906-.547,1.906-1.329,0-.96-.813-1.345-2.955-1.743-2.615-.488-4.034-1.566-4.034-3.827s2.157-3.472,4.876-3.472S1009.433,132.73,1009.566,135.02Z" transform="translate(-967.076 -131.09)" fill="#b4221b"/><path d="M1153.583,186.388a2.919,2.919,0,0,1-2.482,1.093,4.548,4.548,0,0,1,0-9.071,2.92,2.92,0,0,1,2.482,1.093v-.886h2.63V190.88h-2.63Zm.044-3.442a2.1,2.1,0,0,0-2.113-2.29,2.3,2.3,0,0,0,0,4.579A2.115,2.115,0,0,0,1153.627,182.946Z" transform="translate(-1103.662 -174.938)" fill="#b4221b"/><path d="M1294.091,186.239V181.23h2.63V185.8c0,1.315.532,2.039,1.521,2.039s1.654-.813,1.654-2.157V181.23h2.63v8.658h-2.63V189a2.84,2.84,0,0,1-2.423,1.093c-2.009,0-3.384-1.463-3.384-3.856Z" transform="translate(-1240.063 -177.552)" fill="#b4221b"/><path d="M1425,182.946a4.213,4.213,0,0,1,4.21-4.536,2.92,2.92,0,0,1,2.482,1.093v-.886h2.63v8.658h-2.63v-.886a2.919,2.919,0,0,1-2.482,1.093A4.213,4.213,0,0,1,1425,182.946Zm6.737,0a2.1,2.1,0,0,0-2.113-2.29,2.3,2.3,0,0,0,0,4.579A2.115,2.115,0,0,0,1431.737,182.946Z" transform="translate(-1361.369 -174.938)" fill="#b4221b"/><path d="M1574.01,178.617h2.63v.886a2.842,2.842,0,0,1,2.423-1.093,3.226,3.226,0,0,1,1.138.147l.029,2.467a2.913,2.913,0,0,0-1.345-.3,2.01,2.01,0,0,0-2.246,2.113v4.433h-2.63Z" transform="translate(-1499.447 -174.938)" fill="#b4221b"/><path d="M1660.61,182.946a4.506,4.506,0,1,1,9.012,0,5.971,5.971,0,0,1-.059.842h-6.338a1.83,1.83,0,0,0,1.891,1.581,1.782,1.782,0,0,0,1.6-.679h2.645a4.164,4.164,0,0,1-4.24,2.792,4.344,4.344,0,0,1-4.506-4.535Zm6.441-.857a1.841,1.841,0,0,0-1.935-1.6,1.813,1.813,0,0,0-1.906,1.6Z" transform="translate(-1579.694 -174.938)" fill="#b4221b"/></g></g></svg>