<svg xmlns="http://www.w3.org/2000/svg" width="119.85" height="30" viewBox="0 0 119.85 30"><rect width="30" height="30" rx="6" fill="#870e54"/><path d="M33.653,24.45,20.13,37.973,33.653,51.5,47.176,37.973ZM20.922,37.973,33.653,25.242,46.384,37.973,33.653,50.7Z" transform="translate(-18.653 -22.656)" fill="#993b5f"/><g transform="translate(16.875 12.908)"><path d="M242.134,193.294c-2.672,0-4.535-1.4-4.637-3.475l-.026-.545h2.447a2.93,2.93,0,0,1-.96-5.374,5.7,5.7,0,0,1,3.131-.84c2.55,0,4.414,1.371,4.532,3.334l.033.551h-2.28a2.955,2.955,0,0,1,2.4,2.924C246.771,191.853,244.821,193.294,242.134,193.294Zm-1.029-3.581c.046.288.507.5,1.073.5a1.769,1.769,0,0,0,.906-.194,5,5,0,0,0-1.611-.4c-.13-.02-.261-.041-.393-.065Zm.136-3.484a6.354,6.354,0,0,0,1.573.372l.219.034-.021-.125c-.041-.247-.458-.434-.97-.434a1.768,1.768,0,0,0-.8.153Z" transform="translate(-236.923 -182.538)" fill="#b15288"/><path d="M235.186,176.991c2.186,0,3.908,1.108,4.013,2.845h-2.575c-.09-.539-.7-.869-1.483-.869s-1.392.285-1.392.673c0,.434.584.644,2.081.883,2.59.39,3.519,1.243,3.519,2.755,0,1.8-1.887,2.905-4.118,2.905s-4.028-1.138-4.118-2.98h2.576c.089.569.749.943,1.587.943s1.483-.315,1.483-.719-.6-.689-2.111-.913c-2.1-.315-3.474-.958-3.474-2.74s1.782-2.785,4.013-2.785m0-1.04a6.226,6.226,0,0,0-3.42.927,3.434,3.434,0,0,0-1.633,2.9,3.226,3.226,0,0,0,.932,2.389H230.02l.054,1.09a3.816,3.816,0,0,0,1.674,2.98,6.014,6.014,0,0,0,3.483.988c2.988,0,5.158-1.659,5.158-3.945a3.182,3.182,0,0,0-.948-2.4h.863l-.067-1.1c-.136-2.251-2.213-3.822-5.051-3.822h0Z" transform="translate(-230.02 -175.95)" fill="#870e54"/></g><g transform="translate(3.197 5.834)"><path d="M52.09,105.005V88.02h4.767a8.424,8.424,0,0,1,6.2,2.381,9.321,9.321,0,0,1,0,12.232,8.438,8.438,0,0,1-6.2,2.371H52.09Zm4.821-4.356c2.521,0,3.909-1.465,3.909-4.126s-1.425-4.146-3.909-4.146h-.3v8.272Z" transform="translate(-51.466 -87.396)" fill="#fffdfd"/><path d="M48.971,80.768c4.856,0,7.86,3.224,7.86,7.879s-3,7.859-7.86,7.859H44.828V80.768h4.143M48.1,93.4h.924c2.806,0,4.532-1.718,4.532-4.75s-1.727-4.769-4.532-4.769H48.1V93.4m.869-13.876H43.58V97.752h5.391c5.447,0,9.107-3.659,9.107-9.107a10.334,10.334,0,0,0-.624-3.631,8.29,8.29,0,0,0-1.841-2.926A9.031,9.031,0,0,0,48.97,79.52h0Zm.379,12.619v-7c2.436.147,2.96,1.971,2.96,3.512s-.524,3.346-2.96,3.493h0Z" transform="translate(-43.58 -79.52)" fill="#870e54"/></g><g transform="translate(40.913 9.617)"><path d="M557.67,135.12h4.669c3.989,0,6.457,2.467,6.457,6.028s-2.467,6.013-6.457,6.013H557.67Zm4.713,9.663a3.643,3.643,0,1,0,0-7.284h-2.024v7.284Z" transform="translate(-557.67 -134.824)" fill="#fff"/><path d="M704.648,141.089l-3.856-5.969h3.191l2.423,3.93,2.5-3.93h3.059L708.091,141l4,6.161h-3.147l-2.585-4.152-2.645,4.152H700.66l3.989-6.072Z" transform="translate(-690.17 -134.824)" fill="#fff"/><path d="M859.746,135.02h-2.778a2,2,0,0,0-2.231-1.684c-1.285,0-1.95.5-1.95,1.226,0,.9.931,1.211,3.28,1.7,2.778.576,3.723,1.95,3.723,3.753,0,2.305-2.172,3.709-4.861,3.709-2.97,0-5.141-1.61-5.259-4.181h2.763c.147,1.153,1.153,1.921,2.689,1.921,1.093,0,1.906-.547,1.906-1.329,0-.96-.813-1.345-2.955-1.743-2.615-.488-4.034-1.566-4.034-3.827s2.157-3.472,4.876-3.472S859.613,132.73,859.746,135.02Z" transform="translate(-828.248 -131.09)" fill="#fff"/><path d="M1003.772,186.379a2.921,2.921,0,0,1-2.482,1.093,4.549,4.549,0,0,1,0-9.072,2.919,2.919,0,0,1,2.482,1.093v-.886h2.63V190.87h-2.63v-4.491Zm.044-3.442a2.1,2.1,0,0,0-2.113-2.29,2.3,2.3,0,0,0,0,4.579A2.115,2.115,0,0,0,1003.816,182.937Z" transform="translate(-964.843 -174.929)" fill="#fff"/><path d="M1144.28,186.239V181.23h2.63V185.8c0,1.315.532,2.039,1.521,2.039s1.655-.813,1.655-2.157V181.23h2.63v8.658h-2.63V189a2.842,2.842,0,0,1-2.423,1.093C1145.654,190.095,1144.28,188.632,1144.28,186.239Z" transform="translate(-1101.244 -177.552)" fill="#fff"/><path d="M1275.17,182.946a4.213,4.213,0,0,1,4.21-4.536,2.919,2.919,0,0,1,2.482,1.093v-.886h2.63v8.658h-2.63v-.886a2.921,2.921,0,0,1-2.482,1.093,4.213,4.213,0,0,1-4.21-4.536Zm6.737,0a2.1,2.1,0,0,0-2.113-2.29,2.3,2.3,0,0,0,0,4.579A2.115,2.115,0,0,0,1281.907,182.946Z" transform="translate(-1222.531 -174.938)" fill="#fff"/><path d="M1424.19,178.617h2.63v.886a2.84,2.84,0,0,1,2.423-1.093,3.226,3.226,0,0,1,1.138.147l.029,2.467a2.913,2.913,0,0,0-1.345-.3,2.01,2.01,0,0,0-2.246,2.113v4.433h-2.63Z" transform="translate(-1360.618 -174.938)" fill="#fff"/><path d="M1510.79,182.946a4.506,4.506,0,1,1,9.012,0,5.872,5.872,0,0,1-.059.842H1513.4a1.829,1.829,0,0,0,1.891,1.581,1.782,1.782,0,0,0,1.6-.679h2.645a4.163,4.163,0,0,1-4.24,2.792A4.345,4.345,0,0,1,1510.79,182.946Zm6.441-.857a1.841,1.841,0,0,0-1.935-1.6,1.813,1.813,0,0,0-1.906,1.6Z" transform="translate(-1440.865 -174.938)" fill="#fff"/></g></svg>