<svg xmlns="http://www.w3.org/2000/svg" width="100" height="80" viewBox="0 0 100 80"><g transform="translate(-790.7 -422.342)"><rect width="100" height="80" transform="translate(790.7 422.342)" opacity="0"/><g transform="translate(0.75 -0.006)"><g transform="translate(710 -116.201)"><rect width="64.889" height="24.5" transform="translate(97.128 553.481)" fill="#fff"/><path d="M0-.75H64.889a.75.75,0,0,1,.75.75V24.5a.75.75,0,0,1-.75.75H0a.75.75,0,0,1-.75-.75V0A.75.75,0,0,1,0-.75ZM64.139.75H.75v23H64.139Z" transform="translate(97.128 553.481)" fill="#637381"/><rect width="12.713" height="53.103" transform="translate(156.124 559.375) rotate(90)" fill="#fff"/><rect width="53.103" height="3.173" transform="translate(103.021 559.375)" fill="#e6e9ec" style="mix-blend-mode:multiply;isolation:isolate"/><rect width="3.548" height="9.541" transform="translate(103.021 562.547)" fill="#e6e9ec" style="mix-blend-mode:multiply;isolation:isolate"/><path d="M0-.75H12.713a.75.75,0,0,1,.75.75V53.1a.75.75,0,0,1-.75.75H0a.75.75,0,0,1-.75-.75V0A.75.75,0,0,1,0-.75ZM11.963.75H.75v51.6H11.963Z" transform="translate(156.124 559.374) rotate(90)" fill="#637381"/></g><g transform="translate(709 -116.201)"><rect width="4.677" height="6.464" transform="translate(143.628 587.058) rotate(-45)" fill="#fff"/><path d="M0-.75H4.677a.75.75,0,0,1,.75.75V6.464a.75.75,0,0,1-.75.75H0a.75.75,0,0,1-.75-.75V0A.75.75,0,0,1,0-.75ZM3.927.75H.75V5.714H3.927Z" transform="translate(143.628 587.058) rotate(-45)" fill="#637381"/><rect width="7.635" height="26.015" rx="2.379" transform="translate(146.621 592.143) rotate(-45)" fill="#fff"/><path d="M2.379-.75H5.256A3.133,3.133,0,0,1,8.385,2.379V23.636a3.133,3.133,0,0,1-3.129,3.129H2.379A3.133,3.133,0,0,1-.75,23.636V2.379A3.133,3.133,0,0,1,2.379-.75ZM5.256,25.265a1.631,1.631,0,0,0,1.629-1.629V2.379A1.631,1.631,0,0,0,5.256.75H2.379A1.631,1.631,0,0,0,.75,2.379V23.636a1.631,1.631,0,0,0,1.629,1.629Z" transform="translate(146.621 592.143) rotate(-45)" fill="#637381"/><path d="M122.1,562.222a17.624,17.624,0,1,0,24.924,0A17.625,17.625,0,0,0,122.1,562.222ZM143.373,583.5a12.462,12.462,0,1,1,0-17.624A12.463,12.463,0,0,1,143.373,583.5Z" fill="#fff"/><path d="M147.023,562.222a17.545,17.545,0,0,0-11.08-5.1,17.61,17.61,0,0,0,0,35.115,17.61,17.61,0,0,0,11.079-30.019ZM125.749,583.5a12.456,12.456,0,0,1,10.194-21.19,12.456,12.456,0,1,1,0,24.755A12.432,12.432,0,0,1,125.749,583.5Z" fill="#efbce6" style="mix-blend-mode:multiply;isolation:isolate"/><path d="M134.561,556.31a18.319,18.319,0,1,1-6.914,1.346A18.311,18.311,0,0,1,134.561,556.31Zm0,35.248a16.873,16.873,0,1,0-11.931-4.942A16.765,16.765,0,0,0,134.561,591.557Zm0-30.086a13.213,13.213,0,1,1-9.342,3.87A13.126,13.126,0,0,1,134.561,561.472Zm0,24.924a11.712,11.712,0,1,0-8.282-3.43A11.637,11.637,0,0,0,134.561,586.4Z" fill="#637381"/><path d="M143.373,565.872a12.4,12.4,0,0,0-7.43-3.566,12.453,12.453,0,0,0,0,24.755,12.453,12.453,0,0,0,7.429-21.189Z" fill="none"/><path d="M150.337,588.426,148.3,590.46c-.038.038-.065.082-.1.122a2.371,2.371,0,0,1,3.243.1l15.031,15.031a2.372,2.372,0,0,1,.1,3.243c.039-.035.083-.062.121-.1l2.035-2.035a2.379,2.379,0,0,0,0-3.364L153.7,588.426A2.38,2.38,0,0,0,150.337,588.426Z" fill="#e6e9ec" style="mix-blend-mode:multiply;isolation:isolate"/></g><circle cx="2.616" cy="2.616" r="2.616" transform="translate(816.7 476.557)" fill="#fff"/><path d="M2.616-.75A3.366,3.366,0,1,1-.75,2.616,3.37,3.37,0,0,1,2.616-.75Zm0,5.232A1.866,1.866,0,1,0,.75,2.616,1.868,1.868,0,0,0,2.616,4.482Z" transform="translate(816.7 476.557)" fill="#637381"/><path d="M2.616-.75A3.366,3.366,0,1,1-.75,2.616,3.37,3.37,0,0,1,2.616-.75Zm0,5.232A1.866,1.866,0,1,0,.75,2.616,1.868,1.868,0,0,0,2.616,4.482Z" transform="translate(883.199 451.895)" fill="#637381"/><g transform="translate(710 -116.201)"><path d="M.75,6.77H-.75V0H.75Z" transform="translate(93.501 538.549)" fill="#dce0e4"/><path d="M6.77.75H0V-.75H6.77Z" transform="translate(90.116 541.934)" fill="#dce0e4"/></g><g transform="translate(710 -116.201)"><path d="M.75,6.77H-.75V0H.75Z" transform="translate(84.792 573.336)" fill="#dce0e4"/><path d="M6.77.75H0V-.75H6.77Z" transform="translate(81.407 576.721)" fill="#dce0e4"/></g><g transform="translate(707 -121.201)"><path d="M.75,6.77H-.75V0H.75Z" transform="translate(172.814 550.654)" fill="#dce0e4"/><path d="M6.77.75H0V-.75H6.77Z" transform="translate(169.429 554.039)" fill="#dce0e4"/></g></g></g></svg>