<svg xmlns="http://www.w3.org/2000/svg" width="128.274" height="34.117" viewBox="0 0 128.274 34.117"><g transform="translate(2.087 2.071)"><g transform="translate(40.913 9.544)"><path d="M557.67,135.12h4.624c3.132,0,4.965,1.743,4.965,4.4s-1.832,4.433-4.965,4.433h-1.935v3.206H557.67Zm4.506,6.457c1.492,0,2.393-.709,2.393-2.053s-.9-2.024-2.393-2.024h-1.817v4.078Z" transform="translate(-557.67 -134.751)" fill="#68c100"/><path d="M702.05,178.617h2.63v.886a2.842,2.842,0,0,1,2.423-1.093,3.225,3.225,0,0,1,1.138.147l.029,2.467a2.913,2.913,0,0,0-1.345-.3,2.01,2.01,0,0,0-2.246,2.113v4.433h-2.63Z" transform="translate(-691.458 -174.865)" fill="#68c100"/><path d="M797.839,182.946a4.6,4.6,0,1,1-4.595-4.536A4.408,4.408,0,0,1,797.839,182.946Zm-6.648,0a2.066,2.066,0,1,0,2.053-2.29A2.079,2.079,0,0,0,791.191,182.946Z" transform="translate(-771.704 -174.865)" fill="#68c100"/><path d="M922.755,135.12l-3.472,12.041h-2.719l-2.157-7.55-2.157,7.55h-2.718L906.06,135.12h2.881l2.068,7.875,2.068-7.875h2.792l2.053,7.846,2.084-7.846Z" transform="translate(-880.501 -134.751)" fill="#68c100"/><path d="M1134.949,182.946a4.6,4.6,0,1,1-4.595-4.536A4.408,4.408,0,0,1,1134.949,182.946Zm-6.648,0a2.066,2.066,0,1,0,2.053-2.29A2.079,2.079,0,0,0,1128.3,182.946Z" transform="translate(-1084.083 -174.865)" fill="#68c100"/><path d="M1266.92,178.617h2.63v.886a2.842,2.842,0,0,1,2.423-1.093,3.225,3.225,0,0,1,1.138.147l.029,2.467a2.912,2.912,0,0,0-1.345-.3,2.01,2.01,0,0,0-2.246,2.113v4.433h-2.63Z" transform="translate(-1214.886 -174.865)" fill="#68c100"/><path d="M1367.459,139.324l-1.049,1.182V142.5h-2.63V130.09h2.63v7.284l3.058-3.531h2.926l-3.324,3.694,3.5,4.965h-3l-2.113-3.177Z" transform="translate(-1304.64 -130.09)" fill="#68c100"/><path d="M1488.358,181.227h-2.542c-.089-.532-.694-.857-1.463-.857s-1.374.281-1.374.665c0,.428.576.635,2.053.872,2.556.384,3.472,1.226,3.472,2.719,0,1.773-1.862,2.866-4.063,2.866s-3.974-1.123-4.063-2.94h2.541c.089.561.739.931,1.566.931s1.463-.31,1.463-.709-.591-.679-2.084-.9c-2.068-.31-3.427-.946-3.427-2.7s1.758-2.748,3.959-2.748,3.856,1.093,3.959,2.807Z" transform="translate(-1412.686 -174.874)" fill="#68c100"/><path d="M1600.391,143.635h2.645a1.56,1.56,0,0,0,1.758,1.522,1.918,1.918,0,0,0-.045-3.827,2,2,0,0,0-1.7.813h-2.438l.354-7.033h7.609v2.29H1603.4l-.133,2.26a3.965,3.965,0,0,1,5.9,3.575,4.1,4.1,0,0,1-4.373,4.2c-2.615,0-4.21-1.478-4.4-3.8Z" transform="translate(-1523.892 -134.742)" fill="#68c100"/></g><rect width="19.125" height="19.125" transform="translate(14.972 1.464) rotate(45)" fill="none" stroke="rgba(142,202,233,0.08)" stroke-miterlimit="10" stroke-width="5"/><rect width="30" height="30" rx="6" fill="#74ca00"/><path d="M33.653,19.95,20.13,33.473,33.653,47,47.176,33.473ZM20.922,33.473,33.653,20.742,46.384,33.473,33.653,46.2Z" transform="translate(-18.653 -18.486)" fill="#92d500"/><g transform="translate(3.464 6.524)"><g transform="translate(0 5.508)"><path d="M53.57,183.782V170.567h3.163v.228a4.688,4.688,0,0,1,2.011-.426,5.1,5.1,0,0,1,0,10.18,4.685,4.685,0,0,1-2.011-.426v3.659H53.57Zm5.047-10.418a2.1,2.1,0,0,0,0,4.192,1.852,1.852,0,0,0,1.841-2.1A1.875,1.875,0,0,0,58.617,173.364Z" transform="translate(-53.103 -169.903)" fill="#bede18"/><path d="M52.851,164.934a4.63,4.63,0,0,1,0,9.247,3.984,3.984,0,0,1-2.478-.786v4.019H48.142V165.131h2.231v.588a3.982,3.982,0,0,1,2.478-.786m-.127,7.185a2.576,2.576,0,0,0,0-5.124,2.569,2.569,0,0,0,0,5.124M52.851,164a5.394,5.394,0,0,0-1.545.217V164.2h-4.1v14.147h4.1v-3.45a5.386,5.386,0,0,0,1.545.217,5.184,5.184,0,0,0,3.805-1.614,5.9,5.9,0,0,0,0-7.884A5.184,5.184,0,0,0,52.851,164Zm-.127,7.185a1.641,1.641,0,0,1,0-3.259c.878,0,1.376.64,1.376,1.629s-.54,1.629-1.376,1.629Z" transform="translate(-47.21 -164)" fill="#74ca00"/></g><g transform="translate(10.438)"><path d="M202.952,112.648a6.523,6.523,0,0,1-4.393-1.468,5.745,5.745,0,0,1-1.856-3.95l-.043-.525h4.425l.046.433a1.567,1.567,0,0,0,1.821,1.56,2.03,2.03,0,0,0-.058-4.043,2.144,2.144,0,0,0-1.835.866l-.145.2h-3.948l.514-10.18h10.911v3.968h-6.8l-.1,1.682a5.614,5.614,0,0,1,2-.348c3.444,0,5.67,2.287,5.67,5.825a5.856,5.856,0,0,1-1.8,4.35,6.407,6.407,0,0,1-4.414,1.63Z" transform="translate(-196.133 -95.054)" fill="#fff"/><path d="M201.253,89.89v3H194.48l-.174,2.961a4.874,4.874,0,0,1,2.535-.658c3.1,0,5.186,1.993,5.186,5.341a5.376,5.376,0,0,1-5.728,5.5c-3.425,0-5.515-1.935-5.766-4.973H194a2.044,2.044,0,0,0,2.3,1.993,2.513,2.513,0,0,0-.058-5.012,2.611,2.611,0,0,0-2.225,1.064h-3.193l.464-9.212h9.966m.969-.969H190.365l-.046.92-.464,9.212-.051,1.018h4.7l.291-.4A1.663,1.663,0,0,1,196.241,99c1.15,0,1.392.83,1.392,1.527a1.373,1.373,0,0,1-1.334,1.547c-1.014,0-1.264-.431-1.34-1.128l-.093-.865H189.48l.087,1.049c.3,3.616,2.879,5.863,6.733,5.863a6.888,6.888,0,0,0,4.744-1.761,6.336,6.336,0,0,0,1.952-4.7,6.408,6.408,0,0,0-1.713-4.608,6.085,6.085,0,0,0-4.442-1.7,6.352,6.352,0,0,0-1.479.17l.032-.535h6.828V88.921h0Z" transform="translate(-189.48 -88.92)" fill="#74ca00"/></g></g></g></svg>