<svg xmlns="http://www.w3.org/2000/svg" width="33.952" height="33.952" viewBox="0 0 33.952 33.952">
  <g id="BI" transform="translate(-149.11 -413.548)">
    <g id="그룹_160547" data-name="그룹 160547" transform="translate(151.114 415.538)">
      <path id="패스_7243" data-name="패스 7243" d="M.6.6H19.609V19.608H.6Z" transform="translate(14.972 0.696) rotate(45)" fill="none" stroke="rgba(142,202,233,0.08)" stroke-width="5"/>
      <g id="그룹_160546" data-name="그룹 160546">
        <g id="그룹_160545" data-name="그룹 160545">
          <g id="그룹_160544" data-name="그룹 160544">
            <g id="그룹_160543" data-name="그룹 160543">
              <g id="그룹_160542" data-name="그룹 160542">
                <rect id="사각형_4833" data-name="사각형 4833" width="30" height="30" rx="6" fill="#17366f"/>
              </g>
            </g>
          </g>
        </g>
      </g>
      <path id="패스_7228" data-name="패스 7228" d="M184.688,435.492l-13.44,13.439,13.44,13.439,13.44-13.439Zm-12.653,13.439,12.653-12.652,12.653,12.652-12.653,12.652Z" transform="translate(-169.687 -433.945)" fill="#2f5388"/>
    </g>
    <g id="그룹_160550" data-name="그룹 160550" transform="translate(168.337 428.266)">
      <path id="패스_7239" data-name="패스 7239" d="M385.629,613.076c-2.824,0-4.793-1.475-4.9-3.672l-.028-.576h2.586a3.1,3.1,0,0,1-1.015-5.679,6.027,6.027,0,0,1,3.309-.887c2.695,0,4.664,1.449,4.789,3.523l.035.583H388a3.122,3.122,0,0,1,2.534,3.09C390.53,611.554,388.469,613.076,385.629,613.076Zm-1.087-3.784c.048.3.536.533,1.135.533a1.861,1.861,0,0,0,.957-.206,5.273,5.273,0,0,0-1.7-.426q-.206-.031-.416-.068Zm.144-3.682a6.723,6.723,0,0,0,1.662.393l.232.036-.022-.131c-.044-.262-.484-.459-1.025-.459A1.87,1.87,0,0,0,384.686,605.61Z" transform="translate(-380.124 -601.713)" fill="#8ecae9"/>
      <path id="패스_7240" data-name="패스 7240" d="M378.718,596.274c2.31,0,4.13,1.171,4.241,3.006h-2.721c-.095-.57-.744-.918-1.566-.918-.854,0-1.472.3-1.472.712,0,.459.617.68,2.2.934,2.737.411,3.718,1.313,3.718,2.911,0,1.9-1.994,3.07-4.351,3.07-2.421,0-4.256-1.2-4.351-3.149h2.722c.095.6.791,1,1.677,1,.9,0,1.566-.332,1.566-.76,0-.443-.633-.728-2.231-.965-2.215-.332-3.671-1.013-3.671-2.9,0-1.8,1.883-2.943,4.241-2.943m0-1.1a6.578,6.578,0,0,0-3.614.98,3.627,3.627,0,0,0-1.725,3.062,3.406,3.406,0,0,0,.985,2.525h-1.1l.056,1.152a4.035,4.035,0,0,0,1.769,3.15,6.352,6.352,0,0,0,3.68,1.045c3.158,0,5.45-1.753,5.45-4.169a3.363,3.363,0,0,0-1-2.541h.912l-.07-1.165c-.143-2.378-2.338-4.039-5.337-4.039Z" transform="translate(-373.26 -595.175)" fill="#17366f"/>
    </g>
    <g id="그룹_160552" data-name="그룹 160552" transform="translate(154.377 421.729)">
      <g id="그룹_160551" data-name="그룹 160551" transform="translate(0)">
        <path id="패스_7241" data-name="패스 7241" d="M205.223,531.746V518.372H199.8v-4.316h15.584v4.316h-5.419v13.374Z" transform="translate(-199.292 -513.544)" fill="#fcfcfc"/>
        <path id="패스_7242" data-name="패스 7242" d="M208.784,508.476v3.292h-5.419v13.374h-3.722V511.768h-5.419v-3.292h14.56m1.024-1.024H193.2v5.34h5.419v13.374h5.77V512.792h5.419v-5.34Z" transform="translate(-193.2 -507.452)" fill="#17366f"/>
      </g>
    </g>
  </g>
</svg>
